  0
SECTION
  2
HEADER
  9
$ACADVER
  1
AC1027
  9
$ACADMAINTVER
 70
   105
  9
$DWGCODEPAGE
  3
ANSI_1252
  9
$LASTSAVEDBY
  1
charles
  9
$REQUIREDVERSIONS
160
                 0
  9
$INSBASE
 10
0.0
 20
0.0
 30
0.0
  9
$EXTMIN
 10
-0.6248538156878328
 20
-5.040145377965302
 30
0.0
  9
$EXTMAX
 10
286.3798060393608
 20
100.4598534704213
 30
0.0
  9
$LIMMIN
 10
0.0
 20
0.0
  9
$LIMMAX
 10
420.0
 20
297.0
  9
$ORTHOMODE
 70
     0
  9
$REGENMODE
 70
     1
  9
$FILLMODE
 70
     1
  9
$QTEXTMODE
 70
     0
  9
$MIRRTEXT
 70
     0
  9
$LTSCALE
 40
1.0
  9
$ATTMODE
 70
     1
  9
$TEXTSIZE
 40
1.0
  9
$TRACEWID
 40
15.68
  9
$TEXTSTYLE
  7
Standard
  9
$CLAYER
  8
0
  9
$CELTYPE
  6
ByLayer
  9
$CECOLOR
 62
   256
  9
$CELTSCALE
 40
1.0
  9
$DISPSILH
 70
     0
  9
$DIMSCALE
 40
2.5
  9
$DIMASZ
 40
2.5
  9
$DIMEXO
 40
0.625
  9
$DIMDLI
 40
3.75
  9
$DIMRND
 40
0.0
  9
$DIMDLE
 40
0.0
  9
$DIMEXE
 40
1.25
  9
$DIMTP
 40
0.0
  9
$DIMTM
 40
0.0
  9
$DIMTXT
 40
2.5
  9
$DIMCEN
 40
2.5
  9
$DIMTSZ
 40
0.0
  9
$DIMTOL
 70
     0
  9
$DIMLIM
 70
     0
  9
$DIMTIH
 70
     0
  9
$DIMTOH
 70
     0
  9
$DIMSE1
 70
     0
  9
$DIMSE2
 70
     0
  9
$DIMTAD
 70
     1
  9
$DIMZIN
 70
     8
  9
$DIMBLK
  1

  9
$DIMASO
 70
     1
  9
$DIMSHO
 70
     1
  9
$DIMPOST
  1

  9
$DIMAPOST
  1

  9
$DIMALT
 70
     0
  9
$DIMALTD
 70
     3
  9
$DIMALTF
 40
0.03937
  9
$DIMLFAC
 40
1.0
  9
$DIMTOFL
 70
     1
  9
$DIMTVP
 40
0.0
  9
$DIMTIX
 70
     0
  9
$DIMSOXD
 70
     0
  9
$DIMSAH
 70
     0
  9
$DIMBLK1
  1

  9
$DIMBLK2
  1

  9
$DIMSTYLE
  2
Standard
  9
$DIMCLRD
 70
     0
  9
$DIMCLRE
 70
     0
  9
$DIMCLRT
 70
     0
  9
$DIMTFAC
 40
1.0
  9
$DIMGAP
 40
0.625
  9
$DIMJUST
 70
     0
  9
$DIMSD1
 70
     0
  9
$DIMSD2
 70
     0
  9
$DIMTOLJ
 70
     0
  9
$DIMTZIN
 70
     8
  9
$DIMALTZ
 70
     0
  9
$DIMALTTZ
 70
     0
  9
$DIMUPT
 70
     0
  9
$DIMDEC
 70
     2
  9
$DIMTDEC
 70
     2
  9
$DIMALTU
 70
     2
  9
$DIMALTTD
 70
     3
  9
$DIMTXSTY
  7
Standard
  9
$DIMAUNIT
 70
     0
  9
$DIMADEC
 70
     0
  9
$DIMALTRND
 40
0.0
  9
$DIMAZIN
 70
     0
  9
$DIMDSEP
 70
    44
  9
$DIMATFIT
 70
     3
  9
$DIMFRAC
 70
     0
  9
$DIMLDRBLK
  1

  9
$DIMLUNIT
 70
     2
  9
$DIMLWD
 70
    -2
  9
$DIMLWE
 70
    -2
  9
$DIMTMOVE
 70
     0
  9
$DIMFXL
 40
1.0
  9
$DIMFXLON
 70
     0
  9
$DIMJOGANG
 40
0.7853981633974483
  9
$DIMTFILL
 70
     0
  9
$DIMTFILLCLR
 70
     0
  9
$DIMARCSYM
 70
     0
  9
$DIMLTYPE
  6

  9
$DIMLTEX1
  6

  9
$DIMLTEX2
  6

  9
$DIMTXTDIRECTION
 70
     0
  9
$LUNITS
 70
     2
  9
$LUPREC
 70
     4
  9
$SKETCHINC
 40
1.0
  9
$FILLETRAD
 40
0.0
  9
$AUNITS
 70
     0
  9
$AUPREC
 70
     2
  9
$MENU
  1
.
  9
$ELEVATION
 40
0.0
  9
$PELEVATION
 40
0.0
  9
$THICKNESS
 40
0.0
  9
$LIMCHECK
 70
     0
  9
$CHAMFERA
 40
0.0
  9
$CHAMFERB
 40
0.0
  9
$CHAMFERC
 40
0.0
  9
$CHAMFERD
 40
0.0
  9
$SKPOLY
 70
     0
  9
$TDCREATE
 40
2460206.916025949
  9
$TDUCREATE
 40
2460206.832692616
  9
$TDUPDATE
 40
2460206.916026354
  9
$TDUUPDATE
 40
2460206.832693021
  9
$TDINDWG
 40
0.0000000116
  9
$TDUSRTIMER
 40
0.0000000116
  9
$USRTIMER
 70
     1
  9
$ANGBASE
 50
0.0
  9
$ANGDIR
 70
     0
  9
$PDMODE
 70
    34
  9
$PDSIZE
 40
0.0
  9
$PLINEWID
 40
0.0
  9
$SPLFRAME
 70
     0
  9
$SPLINETYPE
 70
     6
  9
$SPLINESEGS
 70
     8
  9
$HANDSEED
  5
208D5
  9
$SURFTAB1
 70
     6
  9
$SURFTAB2
 70
     6
  9
$SURFTYPE
 70
     6
  9
$SURFU
 70
     6
  9
$SURFV
 70
     6
  9
$UCSBASE
  2

  9
$UCSNAME
  2

  9
$UCSORG
 10
0.0
 20
0.0
 30
0.0
  9
$UCSXDIR
 10
1.0
 20
0.0
 30
0.0
  9
$UCSYDIR
 10
0.0
 20
1.0
 30
0.0
  9
$UCSORTHOREF
  2

  9
$UCSORTHOVIEW
 70
     0
  9
$UCSORGTOP
 10
0.0
 20
0.0
 30
0.0
  9
$UCSORGBOTTOM
 10
0.0
 20
0.0
 30
0.0
  9
$UCSORGLEFT
 10
0.0
 20
0.0
 30
0.0
  9
$UCSORGRIGHT
 10
0.0
 20
0.0
 30
0.0
  9
$UCSORGFRONT
 10
0.0
 20
0.0
 30
0.0
  9
$UCSORGBACK
 10
0.0
 20
0.0
 30
0.0
  9
$PUCSBASE
  2

  9
$PUCSNAME
  2

  9
$PUCSORG
 10
0.0
 20
0.0
 30
0.0
  9
$PUCSXDIR
 10
1.0
 20
0.0
 30
0.0
  9
$PUCSYDIR
 10
0.0
 20
1.0
 30
0.0
  9
$PUCSORTHOREF
  2

  9
$PUCSORTHOVIEW
 70
     0
  9
$PUCSORGTOP
 10
0.0
 20
0.0
 30
0.0
  9
$PUCSORGBOTTOM
 10
0.0
 20
0.0
 30
0.0
  9
$PUCSORGLEFT
 10
0.0
 20
0.0
 30
0.0
  9
$PUCSORGRIGHT
 10
0.0
 20
0.0
 30
0.0
  9
$PUCSORGFRONT
 10
0.0
 20
0.0
 30
0.0
  9
$PUCSORGBACK
 10
0.0
 20
0.0
 30
0.0
  9
$USERI1
 70
     0
  9
$USERI2
 70
     0
  9
$USERI3
 70
     0
  9
$USERI4
 70
     0
  9
$USERI5
 70
     0
  9
$USERR1
 40
0.0
  9
$USERR2
 40
0.0
  9
$USERR3
 40
0.0
  9
$USERR4
 40
0.0
  9
$USERR5
 40
0.0
  9
$WORLDVIEW
 70
     1
  9
$SHADEDGE
 70
     3
  9
$SHADEDIF
 70
    70
  9
$TILEMODE
 70
     1
  9
$MAXACTVP
 70
    64
  9
$PINSBASE
 10
0.0
 20
0.0
 30
0.0
  9
$PLIMCHECK
 70
     0
  9
$PEXTMIN
 10
0.0
 20
0.0
 30
0.0
  9
$PEXTMAX
 10
0.0
 20
0.0
 30
0.0
  9
$PLIMMIN
 10
-20.0
 20
-7.5
  9
$PLIMMAX
 10
277.0
 20
202.5
  9
$UNITMODE
 70
     0
  9
$VISRETAIN
 70
     1
  9
$PLINEGEN
 70
     0
  9
$PSLTSCALE
 70
     1
  9
$TREEDEPTH
 70
  3020
  9
$CMLSTYLE
  2
Standard
  9
$CMLJUST
 70
     0
  9
$CMLSCALE
 40
20.0
  9
$PROXYGRAPHICS
 70
     1
  9
$MEASUREMENT
 70
     1
  9
$CELWEIGHT
370
    -1
  9
$ENDCAPS
280
     0
  9
$JOINSTYLE
280
     0
  9
$LWDISPLAY
290
     0
  9
$INSUNITS
 70
     4
  9
$HYPERLINKBASE
  1

  9
$STYLESHEET
  1

  9
$XEDIT
290
     1
  9
$CEPSNTYPE
380
     0
  9
$PSTYLEMODE
290
     1
  9
$FINGERPRINTGUID
  2
{b83d25e9-e8cb-4ed2-a00d-e687f7064982}
  9
$VERSIONGUID
  2
{FAEB1C32-E019-11D5-929B-00C0DF256EC4}
  9
$EXTNAMES
290
     1
  9
$PSVPSCALE
 40
0.0
  9
$OLESTARTUP
290
     0
  9
$SORTENTS
280
   127
  9
$INDEXCTL
280
     0
  9
$HIDETEXT
280
     1
  9
$XCLIPFRAME
280
     2
  9
$HALOGAP
280
     0
  9
$OBSCOLOR
 70
   257
  9
$OBSLTYPE
280
     0
  9
$INTERSECTIONDISPLAY
280
     0
  9
$INTERSECTIONCOLOR
 70
   257
  9
$DIMASSOC
280
     2
  9
$PROJECTNAME
  1

  9
$CAMERADISPLAY
290
     0
  9
$LENSLENGTH
 40
50.0
  9
$CAMERAHEIGHT
 40
0.0
  9
$STEPSPERSEC
 40
2.0
  9
$STEPSIZE
 40
6.0
  9
$3DDWFPREC
 40
2.0
  9
$PSOLWIDTH
 40
0.25
  9
$PSOLHEIGHT
 40
4.0
  9
$LOFTANG1
 40
1.570796326794897
  9
$LOFTANG2
 40
1.570796326794897
  9
$LOFTMAG1
 40
0.0
  9
$LOFTMAG2
 40
0.0
  9
$LOFTPARAM
 70
     7
  9
$LOFTNORMALS
280
     1
  9
$LATITUDE
 40
37.795
  9
$LONGITUDE
 40
-122.394
  9
$NORTHDIRECTION
 40
0.0
  9
$TIMEZONE
 70
 -8000
  9
$LIGHTGLYPHDISPLAY
280
     1
  9
$TILEMODELIGHTSYNCH
280
     1
  9
$CMATERIAL
347
2083F
  9
$SOLIDHIST
280
     0
  9
$SHOWHIST
280
     1
  9
$DWFFRAME
280
     2
  9
$DGNFRAME
280
     2
  9
$REALWORLDSCALE
290
     1
  9
$INTERFERECOLOR
 62
   256
  9
$CSHADOW
280
     0
  9
$SHADOWPLANELOCATION
 40
0.0
  0
ENDSEC
  0
SECTION
  2
CLASSES
  0
CLASS
  1
ACDBDICTIONARYWDFLT
  2
AcDbDictionaryWithDefault
  3
ObjectDBX Classes
 90
        0
 91
        3
280
     0
281
     0
  0
CLASS
  1
VISUALSTYLE
  2
AcDbVisualStyle
  3
ObjectDBX Classes
 90
     4095
 91
        3
280
     0
281
     0
  0
CLASS
  1
MATERIAL
  2
AcDbMaterial
  3
ObjectDBX Classes
 90
     1153
 91
        3
280
     0
281
     0
  0
CLASS
  1
SCALE
  2
AcDbScale
  3
ObjectDBX Classes
 90
     1153
 91
        3
280
     0
281
     0
  0
CLASS
  1
TABLESTYLE
  2
AcDbTableStyle
  3
ObjectDBX Classes
 90
     4095
 91
        3
280
     0
281
     0
  0
CLASS
  1
MLEADERSTYLE
  2
AcDbMLeaderStyle
  3
ACDB_MLEADERSTYLE_CLASS
 90
     4095
 91
        3
280
     0
281
     0
  0
CLASS
  1
SUN
  2
AcDbSun
  3
SCENEOE
 90
     1153
 91
        3
280
     0
281
     0
  0
CLASS
  1
DICTIONARYVAR
  2
AcDbDictionaryVar
  3
ObjectDBX Classes
 90
        0
 91
        3
280
     0
281
     0
  0
CLASS
  1
CELLSTYLEMAP
  2
AcDbCellStyleMap
  3
ObjectDBX Classes
 90
     1152
 91
        3
280
     0
281
     0
  0
ENDSEC
  0
SECTION
  2
TABLES
  0
TABLE
  2
VPORT
  5
20804
330
0
100
AcDbSymbolTable
 70
     1
  0
VPORT
  5
20824
330
20804
100
AcDbSymbolTableRecord
100
AcDbViewportTableRecord
  2
*Active
 70
     0
 10
0.0
 20
0.0
 11
1.0
 21
1.0
 12
161.2792757246368
 22
70.47393744737188
 13
0.0
 23
0.0
 14
0.5
 24
0.5
 15
0.5
 25
0.5
 16
0.0
 26
0.0
 36
1.0
 17
0.0
 27
0.0
 37
0.0
 40
223.390297518282
 41
1.913881748071979
 42
50.0
 43
0.0
 44
0.0
 50
0.0
 51
0.0
 71
     0
 72
   100
 73
     1
 74
     3
 75
     0
 76
     0
 77
     0
 78
     0
281
     0
 65
     1
110
0.0
120
0.0
130
0.0
111
1.0
121
0.0
131
0.0
112
0.0
122
1.0
132
0.0
 79
     0
146
0.0
348
2082A
 60
     3
 61
     5
292
     1
282
     1
141
0.0
142
0.0
 63
   250
361
20858
  0
ENDTAB
  0
TABLE
  2
LTYPE
  5
20801
330
0
100
AcDbSymbolTable
 70
    54
  0
LTYPE
  5
2080F
330
20801
100
AcDbSymbolTableRecord
100
AcDbLinetypeTableRecord
  2
ByBlock
 70
     0
  3

 72
    65
 73
     0
 40
0.0
  0
LTYPE
  5
20810
330
20801
100
AcDbSymbolTableRecord
100
AcDbLinetypeTableRecord
  2
ByLayer
 70
     0
  3

 72
    65
 73
     0
 40
0.0
  0
LTYPE
  5
20811
330
20801
100
AcDbSymbolTableRecord
100
AcDbLinetypeTableRecord
  2
Continuous
 70
     0
  3
Solid line
 72
    65
 73
     0
 40
0.0
  0
LTYPE
  5
20892
330
20801
100
AcDbSymbolTableRecord
100
AcDbLinetypeTableRecord
  2
ACAD_ISO04W100
 70
     0
  3
ISO long-dash dot ____ . ____ . ____ . ____ . _
 72
    65
 73
     4
 40
30.0
 49
24.0
 74
     0
 49
-3.0
 74
     0
 49
0.0
 74
     0
 49
-3.0
 74
     0
  0
LTYPE
  5
20893
330
20801
100
AcDbSymbolTableRecord
100
AcDbLinetypeTableRecord
  2
ACAD_ISO05W100
 70
     0
  3
ISO long-dash double-dot ____ .. ____ .. ____ . 
 72
    65
 73
     6
 40
33.0
 49
24.0
 74
     0
 49
-3.0
 74
     0
 49
0.0
 74
     0
 49
-3.0
 74
     0
 49
0.0
 74
     0
 49
-3.0
 74
     0
  0
LTYPE
  5
20894
330
20801
100
AcDbSymbolTableRecord
100
AcDbLinetypeTableRecord
  2
ACAD_ISO02W100
 70
     0
  3
ISO dash __ __ __ __ __ __ __ __ __ __ __ __ __
 72
    65
 73
     2
 40
15.0
 49
12.0
 74
     0
 49
-3.0
 74
     0
  0
LTYPE
  5
20895
330
20801
100
AcDbSymbolTableRecord
100
AcDbLinetypeTableRecord
  2
ACAD_ISO03W100
 70
     0
  3
ISO dash space __    __    __    __    __    __
 72
    65
 73
     2
 40
30.0
 49
12.0
 74
     0
 49
-18.0
 74
     0
  0
LTYPE
  5
20896
330
20801
100
AcDbSymbolTableRecord
100
AcDbLinetypeTableRecord
  2
ACAD_ISO08W100
 70
     0
  3
ISO long-dash short-dash ____ __ ____ __ ____ _
 72
    65
 73
     4
 40
36.0
 49
24.0
 74
     0
 49
-3.0
 74
     0
 49
6.0
 74
     0
 49
-3.0
 74
     0
  0
LTYPE
  5
20897
330
20801
100
AcDbSymbolTableRecord
100
AcDbLinetypeTableRecord
  2
ACAD_ISO09W100
 70
     0
  3
ISO long-dash double-short-dash ____ __ __ ____
 72
    65
 73
     6
 40
45.0
 49
24.0
 74
     0
 49
-3.0
 74
     0
 49
6.0
 74
     0
 49
-3.0
 74
     0
 49
6.0
 74
     0
 49
-3.0
 74
     0
  0
LTYPE
  5
20898
330
20801
100
AcDbSymbolTableRecord
100
AcDbLinetypeTableRecord
  2
ACAD_ISO06W100
 70
     0
  3
ISO long-dash triple-dot ____ ... ____ ... ____
 72
    65
 73
     8
 40
36.0
 49
24.0
 74
     0
 49
-3.0
 74
     0
 49
0.0
 74
     0
 49
-3.0
 74
     0
 49
0.0
 74
     0
 49
-3.0
 74
     0
 49
0.0
 74
     0
 49
-3.0
 74
     0
  0
LTYPE
  5
20899
330
20801
100
AcDbSymbolTableRecord
100
AcDbLinetypeTableRecord
  2
ACAD_ISO07W100
 70
     0
  3
ISO dot . . . . . . . . . . . . . . . . . . . . 
 72
    65
 73
     2
 40
3.0
 49
0.0
 74
     0
 49
-3.0
 74
     0
  0
LTYPE
  5
2089A
330
20801
100
AcDbSymbolTableRecord
100
AcDbLinetypeTableRecord
  2
CENTER
 70
     0
  3
Center ____ _ ____ _ ____ _ ____ _ ____ _ ____
 72
    65
 73
     4
 40
50.8
 49
31.75
 74
     0
 49
-6.35
 74
     0
 49
6.35
 74
     0
 49
-6.35
 74
     0
  0
LTYPE
  5
2089B
330
20801
100
AcDbSymbolTableRecord
100
AcDbLinetypeTableRecord
  2
CENTER2
 70
     0
  3
Center (.5x) ___ _ ___ _ ___ _ ___ _ ___ _ ___
 72
    65
 73
     4
 40
28.575
 49
19.05
 74
     0
 49
-3.175
 74
     0
 49
3.175
 74
     0
 49
-3.175
 74
     0
  0
LTYPE
  5
2089C
330
20801
100
AcDbSymbolTableRecord
100
AcDbLinetypeTableRecord
  2
BORDER2
 70
     0
  3
Border (.5x) __.__.__.__.__.__.__.__.__.__.__.
 72
    65
 73
     6
 40
22.225
 49
6.35
 74
     0
 49
-3.175
 74
     0
 49
6.35
 74
     0
 49
-3.175
 74
     0
 49
0.0
 74
     0
 49
-3.175
 74
     0
  0
LTYPE
  5
2089D
330
20801
100
AcDbSymbolTableRecord
100
AcDbLinetypeTableRecord
  2
BORDERX2
 70
     0
  3
Border (2x) ____  ____  .  ____  ____  .  ___
 72
    65
 73
     6
 40
88.89999999999999
 49
25.4
 74
     0
 49
-12.7
 74
     0
 49
25.4
 74
     0
 49
-12.7
 74
     0
 49
0.0
 74
     0
 49
-12.7
 74
     0
  0
LTYPE
  5
2089E
330
20801
100
AcDbSymbolTableRecord
100
AcDbLinetypeTableRecord
  2
DASHDOT2
 70
     0
  3
Dash dot (.5x) _._._._._._._._._._._._._._._.
 72
    65
 73
     4
 40
12.7
 49
6.35
 74
     0
 49
-3.175
 74
     0
 49
0.0
 74
     0
 49
-3.175
 74
     0
  0
LTYPE
  5
2089F
330
20801
100
AcDbSymbolTableRecord
100
AcDbLinetypeTableRecord
  2
DASHDOTX2
 70
     0
  3
Dash dot (2x) ____  .  ____  .  ____  .  ___
 72
    65
 73
     4
 40
50.8
 49
25.4
 74
     0
 49
-12.7
 74
     0
 49
0.0
 74
     0
 49
-12.7
 74
     0
  0
LTYPE
  5
208A0
330
20801
100
AcDbSymbolTableRecord
100
AcDbLinetypeTableRecord
  2
CENTERX2
 70
     0
  3
Center (2x) ________  __  ________  __  _____
 72
    65
 73
     4
 40
101.6
 49
63.5
 74
     0
 49
-12.7
 74
     0
 49
12.7
 74
     0
 49
-12.7
 74
     0
  0
LTYPE
  5
208A1
330
20801
100
AcDbSymbolTableRecord
100
AcDbLinetypeTableRecord
  2
DASHDOT
 70
     0
  3
Dash dot __ . __ . __ . __ . __ . __ . __ . __
 72
    65
 73
     4
 40
25.4
 49
12.7
 74
     0
 49
-6.35
 74
     0
 49
0.0
 74
     0
 49
-6.35
 74
     0
  0
LTYPE
  5
208A2
330
20801
100
AcDbSymbolTableRecord
100
AcDbLinetypeTableRecord
  2
ACAD_ISO12W100
 70
     0
  3
ISO dash double-dot __ . . __ . . __ . . __ . . 
 72
    65
 73
     6
 40
21.0
 49
12.0
 74
     0
 49
-3.0
 74
     0
 49
0.0
 74
     0
 49
-3.0
 74
     0
 49
0.0
 74
     0
 49
-3.0
 74
     0
  0
LTYPE
  5
208A3
330
20801
100
AcDbSymbolTableRecord
100
AcDbLinetypeTableRecord
  2
ACAD_ISO13W100
 70
     0
  3
ISO double-dash double-dot __ __ . . __ __ . . _
 72
    65
 73
     8
 40
36.0
 49
12.0
 74
     0
 49
-3.0
 74
     0
 49
12.0
 74
     0
 49
-3.0
 74
     0
 49
0.0
 74
     0
 49
-3.0
 74
     0
 49
0.0
 74
     0
 49
-3.0
 74
     0
  0
LTYPE
  5
208A4
330
20801
100
AcDbSymbolTableRecord
100
AcDbLinetypeTableRecord
  2
ACAD_ISO10W100
 70
     0
  3
ISO dash dot __ . __ . __ . __ . __ . __ . __ . 
 72
    65
 73
     4
 40
18.0
 49
12.0
 74
     0
 49
-3.0
 74
     0
 49
0.0
 74
     0
 49
-3.0
 74
     0
  0
LTYPE
  5
208A5
330
20801
100
AcDbSymbolTableRecord
100
AcDbLinetypeTableRecord
  2
ACAD_ISO11W100
 70
     0
  3
ISO double-dash dot __ __ . __ __ . __ __ . __ _
 72
    65
 73
     6
 40
33.0
 49
12.0
 74
     0
 49
-3.0
 74
     0
 49
12.0
 74
     0
 49
-3.0
 74
     0
 49
0.0
 74
     0
 49
-3.0
 74
     0
  0
LTYPE
  5
208A7
330
20801
100
AcDbSymbolTableRecord
100
AcDbLinetypeTableRecord
  2
BATTING
 70
     0
  3
Batting SSSSSSSSSSSSSSSSSSSSSSSSSSSSSSSSSSSSSSSSSSSSSSS
 72
    65
 73
     4
 40
10.16254
 49
0.00254
 74
     0
 49
-2.54
 74
     2
 75
     0
340
208A6
 46
2.54
 50
0.0
 44
-2.54
 45
0.0
  9
BAT
 49
-5.08
 74
     2
 75
     0
340
208A6
 46
2.54
 50
180.0
 44
2.54
 45
0.0
  9
BAT
 49
-2.54
 74
     0
  0
LTYPE
  5
208A8
330
20801
100
AcDbSymbolTableRecord
100
AcDbLinetypeTableRecord
  2
BORDER
 70
     0
  3
Border __ __ . __ __ . __ __ . __ __ . __ __ .
 72
    65
 73
     6
 40
44.45
 49
12.7
 74
     0
 49
-6.35
 74
     0
 49
12.7
 74
     0
 49
-6.35
 74
     0
 49
0.0
 74
     0
 49
-6.35
 74
     0
  0
LTYPE
  5
208A9
330
20801
100
AcDbSymbolTableRecord
100
AcDbLinetypeTableRecord
  2
ACAD_ISO14W100
 70
     0
  3
ISO dash triple-dot __ . . . __ . . . __ . . . _
 72
    65
 73
     8
 40
24.0
 49
12.0
 74
     0
 49
-3.0
 74
     0
 49
0.0
 74
     0
 49
-3.0
 74
     0
 49
0.0
 74
     0
 49
-3.0
 74
     0
 49
0.0
 74
     0
 49
-3.0
 74
     0
  0
LTYPE
  5
208AA
330
20801
100
AcDbSymbolTableRecord
100
AcDbLinetypeTableRecord
  2
ACAD_ISO15W100
 70
     0
  3
ISO double-dash triple-dot __ __ . . . __ __ . .
 72
    65
 73
    10
 40
39.0
 49
12.0
 74
     0
 49
-3.0
 74
     0
 49
12.0
 74
     0
 49
-3.0
 74
     0
 49
0.0
 74
     0
 49
-3.0
 74
     0
 49
0.0
 74
     0
 49
-3.0
 74
     0
 49
0.0
 74
     0
 49
-3.0
 74
     0
  0
LTYPE
  5
208AC
330
20801
100
AcDbSymbolTableRecord
100
AcDbLinetypeTableRecord
  2
DRAINAGE2
 70
     0
  3
Drainage reversed----<----<----<----
 72
    65
 73
     2
 40
10.16
 49
5.08
 74
     2
 75
     0
340
208AB
 46
2.54
 50
0.0
 44
0.0
 45
0.0
  9
RIGHT_ARROW
 49
5.08
 74
     0
  0
LTYPE
  5
208AD
330
20801
100
AcDbSymbolTableRecord
100
AcDbLinetypeTableRecord
  2
FENCELINE1
 70
     0
  3
Fenceline circle ----0-----0----0-----0----0-----0--
 72
    65
 73
     4
 40
36.83
 49
6.35
 74
     0
 49
-2.54
 74
     2
 75
     0
340
208A6
 46
2.54
 50
0.0
 44
-2.54
 45
0.0
  9
CIRC1
 49
-2.54
 74
     0
 49
25.4
 74
     0
  0
LTYPE
  5
208AE
330
20801
100
AcDbSymbolTableRecord
100
AcDbLinetypeTableRecord
  2
DOTX2
 70
     0
  3
Dot (2x) .  .  .  .  .  .  .  .  .  .  .  .  .
 72
    65
 73
     2
 40
12.7
 49
0.0
 74
     0
 49
-12.7
 74
     0
  0
LTYPE
  5
208AF
330
20801
100
AcDbSymbolTableRecord
100
AcDbLinetypeTableRecord
  2
DRAINAGE
 70
     0
  3
Drainage ---->---->---->----
 72
    65
 73
     2
 40
10.16
 49
5.08
 74
     2
 75
     0
340
208AB
 46
2.54
 50
180.0
 44
0.0
 45
0.0
  9
RIGHT_ARROW
 49
5.08
 74
     0
  0
LTYPE
  5
208B0
330
20801
100
AcDbSymbolTableRecord
100
AcDbLinetypeTableRecord
  2
HIDDEN
 70
     0
  3
Hidden __ __ __ __ __ __ __ __ __ __ __ __ __ __
 72
    65
 73
     2
 40
9.524999999999999
 49
6.35
 74
     0
 49
-3.175
 74
     0
  0
LTYPE
  5
208B1
330
20801
100
AcDbSymbolTableRecord
100
AcDbLinetypeTableRecord
  2
HIDDEN2
 70
     0
  3
Hidden (.5x) _ _ _ _ _ _ _ _ _ _ _ _ _ _ _ _ _ 
 72
    65
 73
     2
 40
4.762499999999999
 49
3.175
 74
     0
 49
-1.5875
 74
     0
  0
LTYPE
  5
208B2
330
20801
100
AcDbSymbolTableRecord
100
AcDbLinetypeTableRecord
  2
FENCELINE2
 70
     0
  3
Fenceline square ----[]-----[]----[]-----[]----[]---
 72
    65
 73
     4
 40
36.83
 49
6.35
 74
     0
 49
-2.54
 74
     2
 75
     0
340
208A6
 46
2.54
 50
0.0
 44
-2.54
 45
0.0
  9
BOX
 49
-2.54
 74
     0
 49
25.4
 74
     0
  0
LTYPE
  5
208B4
330
20801
100
AcDbSymbolTableRecord
100
AcDbLinetypeTableRecord
  2
GAS_LINE
 70
     0
  3
Gas line ----GAS----GAS----GAS----GAS----GAS----GAS--
 72
    65
 73
     3
 40
24.13
 49
12.7
 74
     0
 49
-5.08
 74
     2
 75
     0
340
208B3
 46
2.54
 50
0.0
 44
-2.54
 45
-1.27
  9
GAS
 49
-6.35
 74
     0
  0
LTYPE
  5
208B5
330
20801
100
AcDbSymbolTableRecord
100
AcDbLinetypeTableRecord
  2
DASHEDX2
 70
     0
  3
Dashed (2x) ____  ____  ____  ____  ____  ___
 72
    65
 73
     2
 40
38.09999999999999
 49
25.4
 74
     0
 49
-12.7
 74
     0
  0
LTYPE
  5
208B6
330
20801
100
AcDbSymbolTableRecord
100
AcDbLinetypeTableRecord
  2
DIVIDE
 70
     0
  3
Divide ____ . . ____ . . ____ . . ____ . . ____
 72
    65
 73
     6
 40
31.75
 49
12.7
 74
     0
 49
-6.35
 74
     0
 49
0.0
 74
     0
 49
-6.35
 74
     0
 49
0.0
 74
     0
 49
-6.35
 74
     0
  0
LTYPE
  5
208B7
330
20801
100
AcDbSymbolTableRecord
100
AcDbLinetypeTableRecord
  2
DASHED
 70
     0
  3
Dashed _ _ _ _ _ _ _ _ _ _ _ _ _ _ _ _ _
 72
    65
 73
     2
 40
19.05
 49
12.7
 74
     0
 49
-6.35
 74
     0
  0
LTYPE
  5
208B8
330
20801
100
AcDbSymbolTableRecord
100
AcDbLinetypeTableRecord
  2
DASHED2
 70
     0
  3
Dashed (.5x) _ _ _ _ _ _ _ _ _ _ _ _ _ _ _ _ _
 72
    65
 73
     2
 40
9.524999999999999
 49
6.35
 74
     0
 49
-3.175
 74
     0
  0
LTYPE
  5
208B9
330
20801
100
AcDbSymbolTableRecord
100
AcDbLinetypeTableRecord
  2
DOT
 70
     0
  3
Dot . . . . . . . . . . . . . . . . . . . . . .
 72
    65
 73
     2
 40
6.35
 49
0.0
 74
     0
 49
-6.35
 74
     0
  0
LTYPE
  5
208BA
330
20801
100
AcDbSymbolTableRecord
100
AcDbLinetypeTableRecord
  2
DOT2
 70
     0
  3
Dot (.5x) .....................................
 72
    65
 73
     2
 40
3.175
 49
0.0
 74
     0
 49
-3.175
 74
     0
  0
LTYPE
  5
208BB
330
20801
100
AcDbSymbolTableRecord
100
AcDbLinetypeTableRecord
  2
DIVIDE2
 70
     0
  3
Divide (.5x) __..__..__..__..__..__..__..__.._
 72
    65
 73
     6
 40
15.875
 49
6.35
 74
     0
 49
-3.175
 74
     0
 49
0.0
 74
     0
 49
-3.175
 74
     0
 49
0.0
 74
     0
 49
-3.175
 74
     0
  0
LTYPE
  5
208BC
330
20801
100
AcDbSymbolTableRecord
100
AcDbLinetypeTableRecord
  2
DIVIDEX2
 70
     0
  3
Divide (2x) ________  .  .  ________  .  .  _
 72
    65
 73
     6
 40
63.5
 49
25.4
 74
     0
 49
-12.7
 74
     0
 49
0.0
 74
     0
 49
-12.7
 74
     0
 49
0.0
 74
     0
 49
-12.7
 74
     0
  0
LTYPE
  5
208BD
330
20801
100
AcDbSymbolTableRecord
100
AcDbLinetypeTableRecord
  2
DOTTINY
 70
     0
  3
Dot (.15x) .....................................
 72
    65
 73
     2
 40
0.9525
 49
0.0
 74
     0
 49
-0.9525
 74
     0
  0
LTYPE
  5
208BE
330
20801
100
AcDbSymbolTableRecord
100
AcDbLinetypeTableRecord
  2
DASHDOTTINY
 70
     0
  3
Dash dot (.15x) _._._._._._._._._._._._._._._.
 72
    65
 73
     4
 40
3.81
 49
1.905
 74
     0
 49
-0.9525
 74
     0
 49
0.0
 74
     0
 49
-0.9525
 74
     0
  0
LTYPE
  5
208BF
330
20801
100
AcDbSymbolTableRecord
100
AcDbLinetypeTableRecord
  2
DASHEDTINY
 70
     0
  3
Dashed (.15x) _ _ _ _ _ _ _ _ _ _ _ _ _ _ _ _ _
 72
    65
 73
     2
 40
2.8575
 49
1.905
 74
     0
 49
-0.9525
 74
     0
  0
LTYPE
  5
208C0
330
20801
100
AcDbSymbolTableRecord
100
AcDbLinetypeTableRecord
  2
BORDERTINY
 70
     0
  3
Border (.15x) __.__.__.__.__.__.__.__.__.__.__.
 72
    65
 73
     6
 40
6.6675
 49
1.905
 74
     0
 49
-0.9525
 74
     0
 49
1.905
 74
     0
 49
-0.9525
 74
     0
 49
0.0
 74
     0
 49
-0.9525
 74
     0
  0
LTYPE
  5
208C1
330
20801
100
AcDbSymbolTableRecord
100
AcDbLinetypeTableRecord
  2
DIVIDETINY
 70
     0
  3
Divide (.15x) __..__..__..__..__..__..__..__.._
 72
    65
 73
     6
 40
4.7625
 49
1.905
 74
     0
 49
-0.9525
 74
     0
 49
0.0
 74
     0
 49
-0.9525
 74
     0
 49
0.0
 74
     0
 49
-0.9525
 74
     0
  0
LTYPE
  5
208C2
330
20801
100
AcDbSymbolTableRecord
100
AcDbLinetypeTableRecord
  2
CENTERTINY
 70
     0
  3
Center (.15x) ___ _ ___ _ ___ _ ___ _ ___ _ ___
 72
    65
 73
     4
 40
7.619999999999999
 49
4.7625
 74
     0
 49
-0.9525
 74
     0
 49
0.9525
 74
     0
 49
-0.9525
 74
     0
  0
LTYPE
  5
208C3
330
20801
100
AcDbSymbolTableRecord
100
AcDbLinetypeTableRecord
  2
PHANTOM
 70
     0
  3
Phantom ______  __  __  ______  __  __  ______ 
 72
    65
 73
     6
 40
63.50000000000001
 49
31.75
 74
     0
 49
-6.35
 74
     0
 49
6.35
 74
     0
 49
-6.35
 74
     0
 49
6.35
 74
     0
 49
-6.35
 74
     0
  0
LTYPE
  5
208C4
330
20801
100
AcDbSymbolTableRecord
100
AcDbLinetypeTableRecord
  2
PHANTOM2
 70
     0
  3
Phantom (.5x) ___ _ _ ___ _ _ ___ _ _ ___ _ _
 72
    65
 73
     6
 40
31.75
 49
15.875
 74
     0
 49
-3.175
 74
     0
 49
3.175
 74
     0
 49
-3.175
 74
     0
 49
3.175
 74
     0
 49
-3.175
 74
     0
  0
LTYPE
  5
208C5
330
20801
100
AcDbSymbolTableRecord
100
AcDbLinetypeTableRecord
  2
HIDDENX2
 70
     0
  3
Hidden (2x) ____ ____ ____ ____ ____ ____ ____ 
 72
    65
 73
     2
 40
19.05
 49
12.7
 74
     0
 49
-6.35
 74
     0
  0
LTYPE
  5
208C6
330
20801
100
AcDbSymbolTableRecord
100
AcDbLinetypeTableRecord
  2
HOT_WATER_SUPPLY
 70
     0
  3
Hot water supply ---- HW ---- HW ---- HW ----
 72
    65
 73
     3
 40
22.86
 49
12.7
 74
     0
 49
-5.08
 74
     2
 75
     0
340
208B3
 46
2.54
 50
0.0
 44
-2.54
 45
-1.27
  9
HW
 49
-5.08
 74
     0
  0
LTYPE
  5
208C7
330
20801
100
AcDbSymbolTableRecord
100
AcDbLinetypeTableRecord
  2
ZIGZAG
 70
     0
  3
Zig zag /\/\/\/\/\/\/\/\/\/\/\/\/\/\/\/\/\/\/\/\/\/\/\/
 72
    65
 73
     4
 40
20.32254
 49
0.00254
 74
     0
 49
-5.08
 74
     2
 75
     0
340
208A6
 46
5.08
 50
0.0
 44
-5.08
 45
0.0
  9
ZIG
 49
-10.16
 74
     2
 75
     0
340
208A6
 46
5.08
 50
180.0
 44
5.08
 45
0.0
  9
ZIG
 49
-5.08
 74
     0
  0
LTYPE
  5
208C8
330
20801
100
AcDbSymbolTableRecord
100
AcDbLinetypeTableRecord
  2
PHANTOMX2
 70
     0
  3
Phantom (2x) ____________    ____    ____   _
 72
    65
 73
     6
 40
127.0
 49
63.5
 74
     0
 49
-12.7
 74
     0
 49
12.7
 74
     0
 49
-12.7
 74
     0
 49
12.7
 74
     0
 49
-12.7
 74
     0
  0
LTYPE
  5
208C9
330
20801
100
AcDbSymbolTableRecord
100
AcDbLinetypeTableRecord
  2
TRACKS
 70
     0
  3
Tracks -|-|-|-|-|-|-|-|-|-|-|-|-|-|-|-|-|-|-|-|-|-|-|-|-
 72
    65
 73
     2
 40
7.62
 49
3.81
 74
     2
 75
     0
340
208A6
 46
6.35
 50
0.0
 44
0.0
 45
0.0
  9
TRACK1
 49
3.81
 74
     0
  0
ENDTAB
  0
TABLE
  2
LAYER
  5
207FF
330
0
100
AcDbSymbolTable
 70
     1
  0
LAYER
  5
2080C
330
207FF
100
AcDbSymbolTableRecord
100
AcDbLayerTableRecord
  2
0
 70
     0
 62
     7
  6
Continuous
370
     0
390
2080B
347
20841
348
0
  0
ENDTAB
  0
TABLE
  2
STYLE
  5
20800
330
0
100
AcDbSymbolTable
 70
     4
  0
STYLE
  5
2080D
330
20800
100
AcDbSymbolTableRecord
100
AcDbTextStyleTableRecord
  2
Standard
 70
     0
 40
0.0
 41
1.0
 50
0.0
 71
     0
 42
1.0
  3
txt
  4

  0
STYLE
  5
208A6
330
20800
100
AcDbSymbolTableRecord
100
AcDbTextStyleTableRecord
  2
textstyle0
 70
     0
 40
0.0
 41
1.0
 50
0.0
 71
     0
 42
1.0
  3
ltypeshp.shx
  4

  0
STYLE
  5
208AB
330
20800
100
AcDbSymbolTableRecord
100
AcDbTextStyleTableRecord
  2
textstyle1
 70
     0
 40
0.0
 41
1.0
 50
0.0
 71
     0
 42
1.0
  3
qcadshp.shx
  4

  0
STYLE
  5
208B3
330
20800
100
AcDbSymbolTableRecord
100
AcDbTextStyleTableRecord
  2
textstyle2
 70
     0
 40
0.0
 41
1.0
 50
0.0
 71
     0
 42
1.0
  3
STANDARD
  4

  0
ENDTAB
  0
TABLE
  2
VIEW
  5
20802
330
0
100
AcDbSymbolTable
 70
     0
  0
ENDTAB
  0
TABLE
  2
UCS
  5
20803
330
0
100
AcDbSymbolTable
 70
     0
  0
ENDTAB
  0
TABLE
  2
APPID
  5
20805
330
0
100
AcDbSymbolTable
 70
     2
  0
APPID
  5
2080E
330
20805
100
AcDbSymbolTableRecord
100
AcDbRegAppTableRecord
  2
ACAD
 70
     0
  0
APPID
  5
20859
330
20805
100
AcDbSymbolTableRecord
100
AcDbRegAppTableRecord
  2
QCAD
 70
     0
  0
ENDTAB
  0
TABLE
  2
DIMSTYLE
  5
20806
330
0
100
AcDbSymbolTable
 70
     2
100
AcDbDimStyleTable
  0
DIMSTYLE
105
20822
330
20806
100
AcDbSymbolTableRecord
100
AcDbDimStyleTableRecord
  2
Standard
 70
     0
178
     0
340
2080D
  0
DIMSTYLE
105
20891
330
20806
100
AcDbSymbolTableRecord
100
AcDbDimStyleTableRecord
  2
QCADDimStyle
 70
     0
 40
2.5
 41
2.5
 42
0.625
 43
3.75
 44
1.25
 73
     0
 77
     1
 78
     8
140
2.5
147
0.625
178
     0
271
     2
278
    44
279
     2
340
2080D
  0
ENDTAB
  0
TABLE
  2
BLOCK_RECORD
  5
207FE
330
0
100
AcDbSymbolTable
 70
     0
  0
BLOCK_RECORD
  5
2081A
330
207FE
100
AcDbSymbolTableRecord
100
AcDbBlockTableRecord
  2
*Model_Space
340
2081D
 70
     0
280
     1
281
     0
  0
BLOCK_RECORD
  5
20816
330
207FE
100
AcDbSymbolTableRecord
100
AcDbBlockTableRecord
  2
*Paper_Space
340
20819
 70
     0
280
     1
281
     0
  0
ENDTAB
  0
ENDSEC
  0
SECTION
  2
BLOCKS
  0
BLOCK
  5
2081B
330
2081A
100
AcDbEntity
  8
0
100
AcDbBlockBegin
  2
*Model_Space
 70
     0
 10
0.0
 20
0.0
 30
0.0
  3
*Model_Space
  1

  0
ENDBLK
  5
2081C
330
2081A
100
AcDbEntity
  8
0
100
AcDbBlockEnd
  0
BLOCK
  5
20817
330
20816
100
AcDbEntity
 67
     1
  8
0
100
AcDbBlockBegin
  2
*Paper_Space
 70
     0
 10
0.0
 20
0.0
 30
0.0
  3
*Paper_Space
  1

  0
ENDBLK
  5
20818
330
20816
100
AcDbEntity
 67
     1
  8
0
100
AcDbBlockEnd
  0
ENDSEC
  0
SECTION
  2
ENTITIES
  0
LINE
  5
204DB
330
2081A
100
AcDbEntity
  8
0
100
AcDbLine
 10
125.5746435499566
 20
-1.74055723423314
 30
0.0
 11
114.8996435499574
 21
-1.740557234230607
 31
0.0
  0
LINE
  5
20716
330
2081A
100
AcDbEntity
  8
0
100
AcDbLine
 10
22.97936206903326
 20
-1.740557234209245
 30
0.0
 11
12.30436206903406
 21
-1.740557234206712
 31
0.0
  0
ARC
  5
204DC
330
2081A
100
AcDbEntity
  8
0
100
AcDbCircle
 10
114.8996435499568
 20
-2.740557234230323
 30
0.0
 40
0.9999999999997161
100
AcDbArc
 50
89.99999999996746
 51
180.0
  0
ARC
  5
20717
330
2081A
100
AcDbEntity
  8
0
100
AcDbCircle
 10
12.30436206903347
 20
-2.740557234206427
 30
0.0
 40
0.9999999999997161
100
AcDbArc
 50
89.99999999996746
 51
180.0
  0
LINE
  5
204DD
330
2081A
100
AcDbEntity
  8
0
100
AcDbLine
 10
113.8996435499571
 20
-2.740557234230096
 30
0.0
 11
113.8996435499568
 21
-4.040145377930401
 31
0.0
  0
LINE
  5
20718
330
2081A
100
AcDbEntity
  8
0
100
AcDbLine
 10
11.30436206903376
 20
-2.7405572342062
 30
0.0
 11
11.30436206903347
 21
-4.040145377906505
 31
0.0
  0
ARC
  5
204DE
330
2081A
100
AcDbEntity
  8
0
100
AcDbCircle
 10
114.8996435499568
 20
-4.040145377930365
 30
0.0
 40
1.000000000000036
100
AcDbArc
 50
180.0
 51
269.9999999999862
  0
ARC
  5
20719
330
2081A
100
AcDbEntity
  8
0
100
AcDbCircle
 10
12.30436206903347
 20
-4.04014537790647
 30
0.0
 40
1.000000000000036
100
AcDbArc
 50
180.0
 51
269.9999999999862
  0
LINE
  5
204DF
330
2081A
100
AcDbEntity
  8
0
100
AcDbLine
 10
114.8996435499566
 20
-5.040145377930401
 30
0.0
 11
170.8996485382406
 21
-5.040145377942338
 31
0.0
  0
LINE
  5
2071A
330
2081A
100
AcDbEntity
  8
0
100
AcDbLine
 10
12.30436206903325
 20
-5.040145377906505
 30
0.0
 11
68.30436705731726
 21
-5.040145377918442
 31
0.0
  0
ARC
  5
204E0
330
2081A
100
AcDbEntity
  8
0
100
AcDbCircle
 10
170.899648538241
 20
-4.040145377942544
 30
0.0
 40
0.999999999999794
100
AcDbArc
 50
269.9999999999772
 51
0.0
  0
ARC
  5
2071B
330
2081A
100
AcDbEntity
  8
0
100
AcDbCircle
 10
68.30436705731766
 20
-4.040145377918648
 30
0.0
 40
0.999999999999794
100
AcDbArc
 50
269.9999999999772
 51
0.0
  0
LINE
  5
204E1
330
2081A
100
AcDbEntity
  8
0
100
AcDbLine
 10
171.8996485382408
 20
-4.040145377942736
 30
0.0
 11
171.8996485382411
 21
-2.74055723424334
 31
0.0
  0
LINE
  5
2071C
330
2081A
100
AcDbEntity
  8
0
100
AcDbLine
 10
69.30436705731746
 20
-4.04014537791884
 30
0.0
 11
69.30436705731778
 21
-2.740557234219445
 31
0.0
  0
ARC
  5
204E2
330
2081A
100
AcDbEntity
  8
0
100
AcDbCircle
 10
170.8996485382412
 20
-2.740557234243269
 30
0.0
 40
0.9999999999999291
100
AcDbArc
 50
0.0
 51
89.99999999998697
  0
ARC
  5
2071D
330
2081A
100
AcDbEntity
  8
0
100
AcDbCircle
 10
68.30436705731786
 20
-2.740557234219374
 30
0.0
 40
0.9999999999999291
100
AcDbArc
 50
0.0
 51
89.99999999998697
  0
LINE
  5
204E3
330
2081A
100
AcDbEntity
  8
0
100
AcDbLine
 10
170.8996485382414
 20
-1.74055723424334
 30
0.0
 11
160.2514456461624
 21
-1.740557234240913
 31
0.0
  0
LINE
  5
2071E
330
2081A
100
AcDbEntity
  8
0
100
AcDbLine
 10
68.30436705731806
 20
-1.740557234219445
 30
0.0
 11
57.65616416523907
 21
-1.740557234217015
 31
0.0
  0
LINE
  5
204EB
330
2081A
100
AcDbEntity
  8
0
100
AcDbLine
 10
228.2001435499584
 20
-1.740557234255317
 30
0.0
 11
217.5251435499574
 21
-1.74055723425289
 31
0.0
  0
ARC
  5
204EC
330
2081A
100
AcDbEntity
  8
0
100
AcDbCircle
 10
217.5251435499574
 20
-2.740557234253132
 30
0.0
 40
1.000000000000241
100
AcDbArc
 50
90.00000000000325
 51
180.0
  0
LINE
  5
204ED
330
2081A
100
AcDbEntity
  8
0
100
AcDbLine
 10
216.5251435499572
 20
-2.740557234253458
 30
0.0
 11
216.5251435499569
 21
-4.040145377952797
 31
0.0
  0
ARC
  5
204EE
330
2081A
100
AcDbEntity
  8
0
100
AcDbCircle
 10
217.5251435499569
 20
-4.0401453779536
 30
0.0
 40
0.9999999999999929
100
AcDbArc
 50
180.0
 51
269.9999999999836
  0
LINE
  5
204EF
330
2081A
100
AcDbEntity
  8
0
100
AcDbLine
 10
217.5251435499566
 20
-5.040145377953593
 30
0.0
 11
273.5251485382407
 21
-5.040145377965302
 31
0.0
  0
ARC
  5
204F0
330
2081A
100
AcDbEntity
  8
0
100
AcDbCircle
 10
273.5251485382414
 20
-4.0401453779657
 30
0.0
 40
0.9999999999996019
100
AcDbArc
 50
269.9999999999642
 51
0.0
  0
LINE
  5
204F1
330
2081A
100
AcDbEntity
  8
0
100
AcDbLine
 10
274.5251485382409
 20
-4.040145377965985
 30
0.0
 11
274.5251485382411
 21
-2.740557234266589
 31
0.0
  0
ARC
  5
204F2
330
2081A
100
AcDbEntity
  8
0
100
AcDbCircle
 10
273.5251485382412
 20
-2.740557234265601
 30
0.0
 40
0.9999999999999215
100
AcDbArc
 50
0.0
 51
89.99999999999022
  0
LINE
  5
204F3
330
2081A
100
AcDbEntity
  8
0
100
AcDbLine
 10
273.5251485382414
 20
-1.74055723426568
 30
0.0
 11
262.8769456461616
 21
-1.7405572342632
 31
0.0
  0
LINE
  5
204FB
330
2081A
100
AcDbEntity
  8
0
100
AcDbLine
 10
284.3798060393612
 20
95.50984404087524
 30
0.0
 11
262.9001454200729
 21
95.50984404087946
 31
0.0
  0
LINE
  5
204FD
330
2081A
100
AcDbEntity
  8
0
100
AcDbLine
 10
262.9001454200733
 20
97.15984404087872
 30
0.0
 11
273.5751454200734
 21
97.1598440408763
 31
0.0
  0
ARC
  5
204FE
330
2081A
100
AcDbEntity
  8
0
100
AcDbCircle
 10
273.5751454200738
 20
98.1598440408761
 30
0.0
 40
0.999999999999801
100
AcDbArc
 50
269.9999999999772
 51
0.0
  0
LINE
  5
204FF
330
2081A
100
AcDbEntity
  8
0
100
AcDbLine
 10
274.5751454200736
 20
98.15984404087567
 30
0.0
 11
274.5751454200741
 21
99.45985347036662
 31
0.0
  0
ARC
  5
20500
330
2081A
100
AcDbEntity
  8
0
100
AcDbCircle
 10
273.5751454200741
 20
99.45985347036694
 30
0.0
 40
0.9999999999999681
100
AcDbArc
 50
0.0
 51
89.99999999999022
  0
LINE
  5
20501
330
2081A
100
AcDbEntity
  8
0
100
AcDbLine
 10
273.5751454200743
 20
100.4598534703669
 30
0.0
 11
217.4751437362393
 21
100.4598534703795
 31
0.0
  0
ARC
  5
20502
330
2081A
100
AcDbEntity
  8
0
100
AcDbCircle
 10
217.475143736239
 20
99.45985347037963
 30
0.0
 40
0.9999999999998791
100
AcDbArc
 50
89.99999999998208
 51
180.0
  0
LINE
  5
20503
330
2081A
100
AcDbEntity
  8
0
100
AcDbLine
 10
216.4751437362391
 20
99.45985347037987
 30
0.0
 11
216.4751437362389
 21
98.15984404088891
 31
0.0
  0
ARC
  5
20504
330
2081A
100
AcDbEntity
  8
0
100
AcDbCircle
 10
217.4751437362388
 20
98.15984404088853
 30
0.0
 40
0.9999999999999538
100
AcDbArc
 50
180.0
 51
269.9999999999804
  0
LINE
  5
20505
330
2081A
100
AcDbEntity
  8
0
100
AcDbLine
 10
217.4751437362385
 20
97.15984404088857
 30
0.0
 11
228.2233433238703
 21
97.15984404088657
 31
0.0
  0
LINE
  5
2050C
330
2081A
100
AcDbEntity
  8
0
100
AcDbLine
 10
170.8869458324412
 20
97.15984404089959
 30
0.0
 11
181.5619458324416
 21
97.15984404089721
 31
0.0
  0
ARC
  5
2050D
330
2081A
100
AcDbEntity
  8
0
100
AcDbCircle
 10
181.5619458324416
 20
98.15984404089747
 30
0.0
 40
1.000000000000249
100
AcDbArc
 50
270.0000000000015
 51
0.0
  0
LINE
  5
2050E
330
2081A
100
AcDbEntity
  8
0
100
AcDbLine
 10
182.5619458324418
 20
98.15984404089772
 30
0.0
 11
182.5619458324419
 21
99.4598534703876
 31
0.0
  0
ARC
  5
2050F
330
2081A
100
AcDbEntity
  8
0
100
AcDbCircle
 10
181.561945832442
 20
99.4598534703878
 30
0.0
 40
0.9999999999999041
100
AcDbArc
 50
0.0
 51
89.99999999998208
  0
LINE
  5
20510
330
2081A
100
AcDbEntity
  8
0
100
AcDbLine
 10
181.5619458324423
 20
100.4598534703877
 30
0.0
 11
125.5351437362393
 21
100.4598534704004
 31
0.0
  0
ARC
  5
20511
330
2081A
100
AcDbEntity
  8
0
100
AcDbCircle
 10
125.5351437362391
 20
99.45985347040029
 30
0.0
 40
1.000000000000099
100
AcDbArc
 50
89.99999999998779
 51
180.0
  0
LINE
  5
20512
330
2081A
100
AcDbEntity
  8
0
100
AcDbLine
 10
124.535143736239
 20
99.45985347040073
 30
0.0
 11
124.5351437362387
 21
98.1598440409108
 31
0.0
  0
ARC
  5
20513
330
2081A
100
AcDbEntity
  8
0
100
AcDbCircle
 10
125.5351437362387
 20
98.15984404091033
 30
0.0
 40
1.000000000000046
100
AcDbArc
 50
180.0
 51
269.9999999999919
  0
LINE
  5
20514
330
2081A
100
AcDbEntity
  8
0
100
AcDbLine
 10
125.5351437362386
 20
97.15984404091029
 30
0.0
 11
136.2101437362388
 21
97.15984404090754
 31
0.0
  0
LINE
  5
20516
330
2081A
100
AcDbEntity
  8
0
100
AcDbLine
 10
136.2101437362385
 20
95.50984404090822
 30
0.0
 11
78.88694583244185
 21
95.5098440409211
 31
0.0
  0
LINE
  5
20518
330
2081A
100
AcDbEntity
  8
0
100
AcDbLine
 10
78.88694583244221
 20
97.15984404092045
 30
0.0
 11
89.5619458324415
 21
97.15984404091807
 31
0.0
  0
ARC
  5
20519
330
2081A
100
AcDbEntity
  8
0
100
AcDbCircle
 10
89.56194583244155
 20
98.15984404091824
 30
0.0
 40
1.000000000000163
100
AcDbArc
 50
269.9999999999968
 51
0.0
  0
LINE
  5
2051A
330
2081A
100
AcDbEntity
  8
0
100
AcDbLine
 10
90.56194583244172
 20
98.15984404091853
 30
0.0
 11
90.56194583244206
 21
99.4598534704084
 31
0.0
  0
ARC
  5
2051B
330
2081A
100
AcDbEntity
  8
0
100
AcDbCircle
 10
89.5619458324421
 20
99.45985347040833
 30
0.0
 40
0.999999999999961
100
AcDbArc
 50
0.0
 51
89.99999999998941
  0
LINE
  5
2051C
330
2081A
100
AcDbEntity
  8
0
100
AcDbLine
 10
89.56194583244229
 20
100.4598534704083
 30
0.0
 11
33.53514373623926
 21
100.4598534704213
 31
0.0
  0
ARC
  5
2051D
330
2081A
100
AcDbEntity
  8
0
100
AcDbCircle
 10
33.5351437362392
 20
99.45985347042114
 30
0.0
 40
1.000000000000163
100
AcDbArc
 50
89.99999999999632
 51
180.0
  0
LINE
  5
2051E
330
2081A
100
AcDbEntity
  8
0
100
AcDbLine
 10
32.53514373623904
 20
99.45985347042165
 30
0.0
 11
32.53514373623881
 21
98.15984404093172
 31
0.0
  0
ARC
  5
2051F
330
2081A
100
AcDbEntity
  8
0
100
AcDbCircle
 10
33.5351437362388
 20
98.15984404093096
 30
0.0
 40
0.9999999999999895
100
AcDbArc
 50
180.0
 51
269.9999999999874
  0
LINE
  5
20520
330
2081A
100
AcDbEntity
  8
0
100
AcDbLine
 10
33.53514373623858
 20
97.15984404093098
 30
0.0
 11
44.21014373623893
 21
97.15984404092833
 31
0.0
  0
LINE
  5
20522
330
2081A
100
AcDbEntity
  8
0
100
AcDbLine
 10
44.21014373623854
 20
95.50984404092897
 30
0.0
 11
1.37514618433319
 21
95.5098440409388
 31
0.0
  0
LINE
  5
8F4
330
2081A
100
AcDbEntity
  8
0
100
AcDbLine
 10
7.284184498192471
 20
79.22583261935274
 30
0.0
 11
7.287632415818366
 21
92.22513261935275
 31
0.0
  0
LINE
  5
201EE
330
2081A
100
AcDbEntity
  8
0
100
AcDbLine
 10
7.284184498192471
 20
60.17583261935275
 30
0.0
 11
7.287632415818366
 21
73.17513261935275
 31
0.0
  0
LINE
  5
201F6
330
2081A
100
AcDbEntity
  8
0
100
AcDbLine
 10
7.284184498192471
 20
41.12583261935275
 30
0.0
 11
7.287632415818366
 21
54.12513261935275
 31
0.0
  0
LINE
  5
201FE
330
2081A
100
AcDbEntity
  8
0
100
AcDbLine
 10
7.284184498192471
 20
22.07583261935275
 30
0.0
 11
7.287632415818366
 21
35.07513261935276
 31
0.0
  0
LINE
  5
20206
330
2081A
100
AcDbEntity
  8
0
100
AcDbLine
 10
7.284184498192471
 20
3.025832619352762
 30
0.0
 11
7.287632415818366
 21
16.02513261935277
 31
0.0
  0
LINE
  5
2020E
330
2081A
100
AcDbEntity
  8
0
100
AcDbLine
 10
31.09668449819247
 20
79.22583261935274
 30
0.0
 11
31.10013241581836
 21
92.22513261935275
 31
0.0
  0
LINE
  5
2020F
330
2081A
100
AcDbEntity
  8
0
100
AcDbLine
 10
31.09668449819247
 20
60.17583261935275
 30
0.0
 11
31.10013241581836
 21
73.17513261935275
 31
0.0
  0
LINE
  5
20210
330
2081A
100
AcDbEntity
  8
0
100
AcDbLine
 10
31.09668449819247
 20
41.12583261935275
 30
0.0
 11
31.10013241581836
 21
54.12513261935275
 31
0.0
  0
LINE
  5
20211
330
2081A
100
AcDbEntity
  8
0
100
AcDbLine
 10
31.09668449819247
 20
22.07583261935275
 30
0.0
 11
31.10013241581836
 21
35.07513261935276
 31
0.0
  0
LINE
  5
20212
330
2081A
100
AcDbEntity
  8
0
100
AcDbLine
 10
31.09668449819247
 20
3.025832619352755
 30
0.0
 11
31.10013241581836
 21
16.02513261935276
 31
0.0
  0
LINE
  5
20236
330
2081A
100
AcDbEntity
  8
0
100
AcDbLine
 10
50.14668449819247
 20
79.22583261935274
 30
0.0
 11
50.15013241581836
 21
92.22513261935275
 31
0.0
  0
LINE
  5
20237
330
2081A
100
AcDbEntity
  8
0
100
AcDbLine
 10
50.14668449819247
 20
60.17583261935275
 30
0.0
 11
50.15013241581836
 21
73.17513261935275
 31
0.0
  0
LINE
  5
20238
330
2081A
100
AcDbEntity
  8
0
100
AcDbLine
 10
50.14668449819247
 20
41.12583261935275
 30
0.0
 11
50.15013241581836
 21
54.12513261935275
 31
0.0
  0
LINE
  5
20239
330
2081A
100
AcDbEntity
  8
0
100
AcDbLine
 10
50.14668449819247
 20
22.07583261935275
 30
0.0
 11
50.15013241581836
 21
35.07513261935276
 31
0.0
  0
LINE
  5
2023A
330
2081A
100
AcDbEntity
  8
0
100
AcDbLine
 10
50.14668449819247
 20
3.025832619352755
 30
0.0
 11
50.15013241581836
 21
16.02513261935276
 31
0.0
  0
LINE
  5
2025E
330
2081A
100
AcDbEntity
  8
0
100
AcDbLine
 10
69.19668449819247
 20
79.22583261935276
 30
0.0
 11
69.20013241581836
 21
92.22513261935276
 31
0.0
  0
LINE
  5
2025F
330
2081A
100
AcDbEntity
  8
0
100
AcDbLine
 10
69.19668449819247
 20
60.17583261935276
 30
0.0
 11
69.20013241581836
 21
73.17513261935277
 31
0.0
  0
LINE
  5
20260
330
2081A
100
AcDbEntity
  8
0
100
AcDbLine
 10
69.19668449819247
 20
41.12583261935276
 30
0.0
 11
69.20013241581836
 21
54.12513261935277
 31
0.0
  0
LINE
  5
20261
330
2081A
100
AcDbEntity
  8
0
100
AcDbLine
 10
69.19668449819247
 20
22.07583261935277
 30
0.0
 11
69.20013241581836
 21
35.07513261935277
 31
0.0
  0
LINE
  5
20262
330
2081A
100
AcDbEntity
  8
0
100
AcDbLine
 10
69.19668449819247
 20
3.025832619352769
 30
0.0
 11
69.20013241581836
 21
16.02513261935277
 31
0.0
  0
LINE
  5
20286
330
2081A
100
AcDbEntity
  8
0
100
AcDbLine
 10
88.24668449819247
 20
79.22583261935274
 30
0.0
 11
88.25013241581836
 21
92.22513261935275
 31
0.0
  0
LINE
  5
20287
330
2081A
100
AcDbEntity
  8
0
100
AcDbLine
 10
88.24668449819247
 20
60.17583261935275
 30
0.0
 11
88.25013241581836
 21
73.17513261935275
 31
0.0
  0
LINE
  5
20288
330
2081A
100
AcDbEntity
  8
0
100
AcDbLine
 10
88.24668449819247
 20
41.12583261935275
 30
0.0
 11
88.25013241581836
 21
54.12513261935275
 31
0.0
  0
LINE
  5
20289
330
2081A
100
AcDbEntity
  8
0
100
AcDbLine
 10
88.24668449819247
 20
22.07583261935275
 30
0.0
 11
88.25013241581836
 21
35.07513261935276
 31
0.0
  0
LINE
  5
202AE
330
2081A
100
AcDbEntity
  8
0
100
AcDbLine
 10
107.2966844981925
 20
79.22583261935279
 30
0.0
 11
107.3001324158184
 21
92.22513261935279
 31
0.0
  0
LINE
  5
202AF
330
2081A
100
AcDbEntity
  8
0
100
AcDbLine
 10
107.2966844981925
 20
60.17583261935279
 30
0.0
 11
107.3001324158184
 21
73.1751326193528
 31
0.0
  0
LINE
  5
202B0
330
2081A
100
AcDbEntity
  8
0
100
AcDbLine
 10
107.2966844981925
 20
41.12583261935279
 30
0.0
 11
107.3001324158184
 21
54.1251326193528
 31
0.0
  0
LINE
  5
202B1
330
2081A
100
AcDbEntity
  8
0
100
AcDbLine
 10
107.2966844981925
 20
22.07583261935279
 30
0.0
 11
107.3001324158184
 21
35.0751326193528
 31
0.0
  0
LINE
  5
202D6
330
2081A
100
AcDbEntity
  8
0
100
AcDbLine
 10
126.3466844981925
 20
79.22583261935279
 30
0.0
 11
126.3501324158184
 21
92.22513261935279
 31
0.0
  0
LINE
  5
202FE
330
2081A
100
AcDbEntity
  8
0
100
AcDbLine
 10
145.3966844981924
 20
79.22583261935267
 30
0.0
 11
145.4001324158183
 21
92.22513261935268
 31
0.0
  0
LINE
  5
20326
330
2081A
100
AcDbEntity
  8
0
100
AcDbLine
 10
164.4466844981924
 20
79.2258326193527
 30
0.0
 11
164.4501324158183
 21
92.2251326193527
 31
0.0
  0
LINE
  5
20327
330
2081A
100
AcDbEntity
  8
0
100
AcDbLine
 10
164.4466844981924
 20
60.1758326193527
 30
0.0
 11
164.4501324158183
 21
73.17513261935271
 31
0.0
  0
LINE
  5
20328
330
2081A
100
AcDbEntity
  8
0
100
AcDbLine
 10
164.4466844981924
 20
41.12583261935271
 30
0.0
 11
164.4501324158183
 21
54.12513261935271
 31
0.0
  0
LINE
  5
20329
330
2081A
100
AcDbEntity
  8
0
100
AcDbLine
 10
164.4466844981924
 20
22.07583261935271
 30
0.0
 11
164.4501324158183
 21
35.07513261935271
 31
0.0
  0
LINE
  5
2034E
330
2081A
100
AcDbEntity
  8
0
100
AcDbLine
 10
183.4966844981924
 20
79.2258326193527
 30
0.0
 11
183.5001324158183
 21
92.2251326193527
 31
0.0
  0
LINE
  5
2034F
330
2081A
100
AcDbEntity
  8
0
100
AcDbLine
 10
183.4966844981924
 20
60.1758326193527
 30
0.0
 11
183.5001324158183
 21
73.17513261935271
 31
0.0
  0
LINE
  5
20350
330
2081A
100
AcDbEntity
  8
0
100
AcDbLine
 10
183.4966844981924
 20
41.12583261935271
 30
0.0
 11
183.5001324158183
 21
54.12513261935271
 31
0.0
  0
LINE
  5
20351
330
2081A
100
AcDbEntity
  8
0
100
AcDbLine
 10
183.4966844981924
 20
22.07583261935271
 30
0.0
 11
183.5001324158183
 21
35.07513261935271
 31
0.0
  0
LINE
  5
20376
330
2081A
100
AcDbEntity
  8
0
100
AcDbLine
 10
202.5466844981925
 20
79.22583261935279
 30
0.0
 11
202.5501324158184
 21
92.22513261935279
 31
0.0
  0
LINE
  5
20377
330
2081A
100
AcDbEntity
  8
0
100
AcDbLine
 10
202.5466844981925
 20
60.17583261935279
 30
0.0
 11
202.5501324158184
 21
73.1751326193528
 31
0.0
  0
LINE
  5
20378
330
2081A
100
AcDbEntity
  8
0
100
AcDbLine
 10
202.5466844981925
 20
41.12583261935279
 30
0.0
 11
202.5501324158184
 21
54.1251326193528
 31
0.0
  0
LINE
  5
20379
330
2081A
100
AcDbEntity
  8
0
100
AcDbLine
 10
202.5466844981925
 20
22.07583261935279
 30
0.0
 11
202.5501324158184
 21
35.0751326193528
 31
0.0
  0
LINE
  5
2037A
330
2081A
100
AcDbEntity
  8
0
100
AcDbLine
 10
202.5466844981925
 20
3.025832619352798
 30
0.0
 11
202.5501324158184
 21
16.0251326193528
 31
0.0
  0
LINE
  5
2039E
330
2081A
100
AcDbEntity
  8
0
100
AcDbLine
 10
221.5966844981924
 20
79.2258326193527
 30
0.0
 11
221.6001324158183
 21
92.2251326193527
 31
0.0
  0
LINE
  5
2039F
330
2081A
100
AcDbEntity
  8
0
100
AcDbLine
 10
221.5966844981924
 20
60.1758326193527
 30
0.0
 11
221.6001324158183
 21
73.17513261935271
 31
0.0
  0
LINE
  5
203A0
330
2081A
100
AcDbEntity
  8
0
100
AcDbLine
 10
221.5966844981924
 20
41.12583261935271
 30
0.0
 11
221.6001324158183
 21
54.12513261935271
 31
0.0
  0
LINE
  5
203A1
330
2081A
100
AcDbEntity
  8
0
100
AcDbLine
 10
221.5966844981924
 20
22.07583261935271
 30
0.0
 11
221.6001324158183
 21
35.07513261935271
 31
0.0
  0
LINE
  5
203A2
330
2081A
100
AcDbEntity
  8
0
100
AcDbLine
 10
221.5966844981924
 20
3.025832619352713
 30
0.0
 11
221.6001324158183
 21
16.02513261935272
 31
0.0
  0
LINE
  5
203C6
330
2081A
100
AcDbEntity
  8
0
100
AcDbLine
 10
240.6466844981924
 20
79.22583261935279
 30
0.0
 11
240.6501324158183
 21
92.22513261935279
 31
0.0
  0
LINE
  5
203C7
330
2081A
100
AcDbEntity
  8
0
100
AcDbLine
 10
240.6466844981924
 20
60.17583261935279
 30
0.0
 11
240.6501324158183
 21
73.1751326193528
 31
0.0
  0
LINE
  5
203C8
330
2081A
100
AcDbEntity
  8
0
100
AcDbLine
 10
240.6466844981924
 20
41.12583261935279
 30
0.0
 11
240.6501324158183
 21
54.1251326193528
 31
0.0
  0
LINE
  5
203C9
330
2081A
100
AcDbEntity
  8
0
100
AcDbLine
 10
240.6466844981924
 20
22.07583261935279
 30
0.0
 11
240.6501324158183
 21
35.0751326193528
 31
0.0
  0
LINE
  5
203CA
330
2081A
100
AcDbEntity
  8
0
100
AcDbLine
 10
240.6466844981924
 20
3.025832619352798
 30
0.0
 11
240.6501324158183
 21
16.0251326193528
 31
0.0
  0
LINE
  5
203EE
330
2081A
100
AcDbEntity
  8
0
100
AcDbLine
 10
264.4591844981924
 20
79.2258326193527
 30
0.0
 11
264.4626324158183
 21
92.2251326193527
 31
0.0
  0
LINE
  5
203EF
330
2081A
100
AcDbEntity
  8
0
100
AcDbLine
 10
264.4591844981924
 20
60.1758326193527
 30
0.0
 11
264.4626324158183
 21
73.17513261935271
 31
0.0
  0
LINE
  5
203F0
330
2081A
100
AcDbEntity
  8
0
100
AcDbLine
 10
264.4591844981924
 20
41.12583261935271
 30
0.0
 11
264.4626324158183
 21
54.12513261935271
 31
0.0
  0
LINE
  5
203F1
330
2081A
100
AcDbEntity
  8
0
100
AcDbLine
 10
264.4591844981924
 20
22.07583261935271
 30
0.0
 11
264.4626324158183
 21
35.07513261935271
 31
0.0
  0
LINE
  5
203F2
330
2081A
100
AcDbEntity
  8
0
100
AcDbLine
 10
264.4591844981924
 20
3.025832619352713
 30
0.0
 11
264.4626324158183
 21
16.02513261935272
 31
0.0
  0
LINE
  5
8F6
330
2081A
100
AcDbEntity
  8
0
100
AcDbLine
 10
7.787632398230473
 20
92.725
 30
0.0
 11
20.78736760176954
 21
92.725
 31
0.0
  0
LINE
  5
201EF
330
2081A
100
AcDbEntity
  8
0
100
AcDbLine
 10
7.787632398230473
 20
73.675
 30
0.0
 11
20.78736760176954
 21
73.675
 31
0.0
  0
LINE
  5
201F7
330
2081A
100
AcDbEntity
  8
0
100
AcDbLine
 10
7.787632398230473
 20
54.625
 30
0.0
 11
20.78736760176954
 21
54.625
 31
0.0
  0
LINE
  5
201FF
330
2081A
100
AcDbEntity
  8
0
100
AcDbLine
 10
7.787632398230473
 20
35.575
 30
0.0
 11
20.78736760176954
 21
35.575
 31
0.0
  0
LINE
  5
20207
330
2081A
100
AcDbEntity
  8
0
100
AcDbLine
 10
7.787632398230473
 20
16.52500000000001
 30
0.0
 11
20.78736760176954
 21
16.52500000000001
 31
0.0
  0
LINE
  5
20213
330
2081A
100
AcDbEntity
  8
0
100
AcDbLine
 10
31.60013239823047
 20
92.725
 30
0.0
 11
44.59986760176953
 21
92.725
 31
0.0
  0
LINE
  5
20214
330
2081A
100
AcDbEntity
  8
0
100
AcDbLine
 10
31.60013239823047
 20
73.675
 30
0.0
 11
44.59986760176953
 21
73.675
 31
0.0
  0
LINE
  5
20215
330
2081A
100
AcDbEntity
  8
0
100
AcDbLine
 10
31.60013239823047
 20
54.625
 30
0.0
 11
44.59986760176953
 21
54.625
 31
0.0
  0
LINE
  5
20216
330
2081A
100
AcDbEntity
  8
0
100
AcDbLine
 10
31.60013239823047
 20
35.575
 30
0.0
 11
44.59986760176953
 21
35.575
 31
0.0
  0
LINE
  5
20217
330
2081A
100
AcDbEntity
  8
0
100
AcDbLine
 10
31.60013239823047
 20
16.52500000000002
 30
0.0
 11
44.59986760176953
 21
16.52500000000002
 31
0.0
  0
LINE
  5
2023B
330
2081A
100
AcDbEntity
  8
0
100
AcDbLine
 10
50.65013239823047
 20
92.725
 30
0.0
 11
63.64986760176954
 21
92.725
 31
0.0
  0
LINE
  5
2023C
330
2081A
100
AcDbEntity
  8
0
100
AcDbLine
 10
50.65013239823047
 20
73.675
 30
0.0
 11
63.64986760176954
 21
73.675
 31
0.0
  0
LINE
  5
2023D
330
2081A
100
AcDbEntity
  8
0
100
AcDbLine
 10
50.65013239823047
 20
54.625
 30
0.0
 11
63.64986760176954
 21
54.625
 31
0.0
  0
LINE
  5
2023E
330
2081A
100
AcDbEntity
  8
0
100
AcDbLine
 10
50.65013239823047
 20
35.575
 30
0.0
 11
63.64986760176954
 21
35.575
 31
0.0
  0
LINE
  5
2023F
330
2081A
100
AcDbEntity
  8
0
100
AcDbLine
 10
50.65013239823047
 20
16.52500000000002
 30
0.0
 11
63.64986760176954
 21
16.52500000000002
 31
0.0
  0
LINE
  5
20263
330
2081A
100
AcDbEntity
  8
0
100
AcDbLine
 10
69.70013239823047
 20
92.72500000000001
 30
0.0
 11
82.69986760176954
 21
92.72500000000001
 31
0.0
  0
LINE
  5
20264
330
2081A
100
AcDbEntity
  8
0
100
AcDbLine
 10
69.70013239823047
 20
73.67500000000001
 30
0.0
 11
82.69986760176954
 21
73.67500000000001
 31
0.0
  0
LINE
  5
20265
330
2081A
100
AcDbEntity
  8
0
100
AcDbLine
 10
69.70013239823047
 20
54.62500000000001
 30
0.0
 11
82.69986760176954
 21
54.62500000000001
 31
0.0
  0
LINE
  5
20266
330
2081A
100
AcDbEntity
  8
0
100
AcDbLine
 10
69.70013239823047
 20
35.57500000000002
 30
0.0
 11
82.69986760176954
 21
35.57500000000002
 31
0.0
  0
LINE
  5
20267
330
2081A
100
AcDbEntity
  8
0
100
AcDbLine
 10
69.70013239823047
 20
16.52500000000003
 30
0.0
 11
82.69986760176954
 21
16.52500000000003
 31
0.0
  0
LINE
  5
2028B
330
2081A
100
AcDbEntity
  8
0
100
AcDbLine
 10
88.75013239823046
 20
92.725
 30
0.0
 11
101.7498676017695
 21
92.725
 31
0.0
  0
LINE
  5
2028C
330
2081A
100
AcDbEntity
  8
0
100
AcDbLine
 10
88.75013239823046
 20
73.675
 30
0.0
 11
101.7498676017695
 21
73.675
 31
0.0
  0
LINE
  5
2028D
330
2081A
100
AcDbEntity
  8
0
100
AcDbLine
 10
88.75013239823046
 20
54.625
 30
0.0
 11
101.7498676017695
 21
54.625
 31
0.0
  0
LINE
  5
2028E
330
2081A
100
AcDbEntity
  8
0
100
AcDbLine
 10
88.75013239823046
 20
35.575
 30
0.0
 11
101.7498676017695
 21
35.575
 31
0.0
  0
LINE
  5
202B3
330
2081A
100
AcDbEntity
  8
0
100
AcDbLine
 10
107.8001323982305
 20
92.72500000000004
 30
0.0
 11
120.7998676017696
 21
92.72500000000004
 31
0.0
  0
LINE
  5
202B4
330
2081A
100
AcDbEntity
  8
0
100
AcDbLine
 10
107.8001323982305
 20
73.67500000000004
 30
0.0
 11
120.7998676017696
 21
73.67500000000004
 31
0.0
  0
LINE
  5
202B5
330
2081A
100
AcDbEntity
  8
0
100
AcDbLine
 10
107.8001323982305
 20
54.62500000000004
 30
0.0
 11
120.7998676017696
 21
54.62500000000004
 31
0.0
  0
LINE
  5
202B6
330
2081A
100
AcDbEntity
  8
0
100
AcDbLine
 10
107.8001323982305
 20
35.57500000000005
 30
0.0
 11
120.7998676017696
 21
35.57500000000005
 31
0.0
  0
LINE
  5
202DB
330
2081A
100
AcDbEntity
  8
0
100
AcDbLine
 10
126.8501323982305
 20
92.72500000000004
 30
0.0
 11
139.8498676017696
 21
92.72500000000004
 31
0.0
  0
LINE
  5
20303
330
2081A
100
AcDbEntity
  8
0
100
AcDbLine
 10
145.9001323982304
 20
92.72499999999992
 30
0.0
 11
158.8998676017695
 21
92.72499999999992
 31
0.0
  0
LINE
  5
2032B
330
2081A
100
AcDbEntity
  8
0
100
AcDbLine
 10
164.9501323982304
 20
92.72499999999995
 30
0.0
 11
177.9498676017695
 21
92.72499999999995
 31
0.0
  0
LINE
  5
2032C
330
2081A
100
AcDbEntity
  8
0
100
AcDbLine
 10
164.9501323982304
 20
73.67499999999995
 30
0.0
 11
177.9498676017695
 21
73.67499999999995
 31
0.0
  0
LINE
  5
2032D
330
2081A
100
AcDbEntity
  8
0
100
AcDbLine
 10
164.9501323982304
 20
54.62499999999996
 30
0.0
 11
177.9498676017695
 21
54.62499999999996
 31
0.0
  0
LINE
  5
2032E
330
2081A
100
AcDbEntity
  8
0
100
AcDbLine
 10
164.9501323982304
 20
35.57499999999996
 30
0.0
 11
177.9498676017695
 21
35.57499999999996
 31
0.0
  0
LINE
  5
20353
330
2081A
100
AcDbEntity
  8
0
100
AcDbLine
 10
184.0001323982304
 20
92.72499999999995
 30
0.0
 11
196.9998676017695
 21
92.72499999999995
 31
0.0
  0
LINE
  5
20354
330
2081A
100
AcDbEntity
  8
0
100
AcDbLine
 10
184.0001323982304
 20
73.67499999999995
 30
0.0
 11
196.9998676017695
 21
73.67499999999995
 31
0.0
  0
LINE
  5
20355
330
2081A
100
AcDbEntity
  8
0
100
AcDbLine
 10
184.0001323982304
 20
54.62499999999996
 30
0.0
 11
196.9998676017695
 21
54.62499999999996
 31
0.0
  0
LINE
  5
20356
330
2081A
100
AcDbEntity
  8
0
100
AcDbLine
 10
184.0001323982304
 20
35.57499999999996
 30
0.0
 11
196.9998676017695
 21
35.57499999999996
 31
0.0
  0
LINE
  5
2037B
330
2081A
100
AcDbEntity
  8
0
100
AcDbLine
 10
203.0501323982305
 20
92.72500000000004
 30
0.0
 11
216.0498676017696
 21
92.72500000000004
 31
0.0
  0
LINE
  5
2037C
330
2081A
100
AcDbEntity
  8
0
100
AcDbLine
 10
203.0501323982305
 20
73.67500000000004
 30
0.0
 11
216.0498676017696
 21
73.67500000000004
 31
0.0
  0
LINE
  5
2037D
330
2081A
100
AcDbEntity
  8
0
100
AcDbLine
 10
203.0501323982305
 20
54.62500000000004
 30
0.0
 11
216.0498676017696
 21
54.62500000000004
 31
0.0
  0
LINE
  5
2037E
330
2081A
100
AcDbEntity
  8
0
100
AcDbLine
 10
203.0501323982305
 20
35.57500000000005
 30
0.0
 11
216.0498676017696
 21
35.57500000000005
 31
0.0
  0
LINE
  5
2037F
330
2081A
100
AcDbEntity
  8
0
100
AcDbLine
 10
203.0501323982305
 20
16.52500000000006
 30
0.0
 11
216.0498676017696
 21
16.52500000000006
 31
0.0
  0
LINE
  5
203A3
330
2081A
100
AcDbEntity
  8
0
100
AcDbLine
 10
222.1001323982304
 20
92.72499999999995
 30
0.0
 11
235.0998676017695
 21
92.72499999999995
 31
0.0
  0
LINE
  5
203A4
330
2081A
100
AcDbEntity
  8
0
100
AcDbLine
 10
222.1001323982304
 20
73.67499999999995
 30
0.0
 11
235.0998676017695
 21
73.67499999999995
 31
0.0
  0
LINE
  5
203A5
330
2081A
100
AcDbEntity
  8
0
100
AcDbLine
 10
222.1001323982304
 20
54.62499999999996
 30
0.0
 11
235.0998676017695
 21
54.62499999999996
 31
0.0
  0
LINE
  5
203A6
330
2081A
100
AcDbEntity
  8
0
100
AcDbLine
 10
222.1001323982304
 20
35.57499999999996
 30
0.0
 11
235.0998676017695
 21
35.57499999999996
 31
0.0
  0
LINE
  5
203A7
330
2081A
100
AcDbEntity
  8
0
100
AcDbLine
 10
222.1001323982304
 20
16.52499999999998
 30
0.0
 11
235.0998676017695
 21
16.52499999999998
 31
0.0
  0
LINE
  5
203CB
330
2081A
100
AcDbEntity
  8
0
100
AcDbLine
 10
241.1501323982304
 20
92.72500000000004
 30
0.0
 11
254.1498676017695
 21
92.72500000000004
 31
0.0
  0
LINE
  5
203CC
330
2081A
100
AcDbEntity
  8
0
100
AcDbLine
 10
241.1501323982304
 20
73.67500000000004
 30
0.0
 11
254.1498676017695
 21
73.67500000000004
 31
0.0
  0
LINE
  5
203CD
330
2081A
100
AcDbEntity
  8
0
100
AcDbLine
 10
241.1501323982304
 20
54.62500000000004
 30
0.0
 11
254.1498676017695
 21
54.62500000000004
 31
0.0
  0
LINE
  5
203CE
330
2081A
100
AcDbEntity
  8
0
100
AcDbLine
 10
241.1501323982304
 20
35.57500000000005
 30
0.0
 11
254.1498676017695
 21
35.57500000000005
 31
0.0
  0
LINE
  5
203CF
330
2081A
100
AcDbEntity
  8
0
100
AcDbLine
 10
241.1501323982304
 20
16.52500000000006
 30
0.0
 11
254.1498676017695
 21
16.52500000000006
 31
0.0
  0
LINE
  5
203F3
330
2081A
100
AcDbEntity
  8
0
100
AcDbLine
 10
264.9626323982304
 20
92.72499999999995
 30
0.0
 11
277.9623676017695
 21
92.72499999999995
 31
0.0
  0
LINE
  5
203F4
330
2081A
100
AcDbEntity
  8
0
100
AcDbLine
 10
264.9626323982304
 20
73.67499999999995
 30
0.0
 11
277.9623676017695
 21
73.67499999999995
 31
0.0
  0
LINE
  5
203F5
330
2081A
100
AcDbEntity
  8
0
100
AcDbLine
 10
264.9626323982304
 20
54.62499999999996
 30
0.0
 11
277.9623676017695
 21
54.62499999999996
 31
0.0
  0
LINE
  5
203F6
330
2081A
100
AcDbEntity
  8
0
100
AcDbLine
 10
264.9626323982304
 20
35.57499999999996
 30
0.0
 11
277.9623676017695
 21
35.57499999999996
 31
0.0
  0
LINE
  5
203F7
330
2081A
100
AcDbEntity
  8
0
100
AcDbLine
 10
264.9626323982304
 20
16.52499999999998
 30
0.0
 11
277.9623676017695
 21
16.52499999999998
 31
0.0
  0
LINE
  5
8F7
330
2081A
100
AcDbEntity
  8
0
100
AcDbLine
 10
21.28736758418164
 20
92.22513261935276
 30
0.0
 11
21.29081550180735
 21
79.22583261935276
 31
0.0
  0
LINE
  5
201F0
330
2081A
100
AcDbEntity
  8
0
100
AcDbLine
 10
21.28736758418164
 20
73.17513261935277
 30
0.0
 11
21.29081550180735
 21
60.17583261935276
 31
0.0
  0
LINE
  5
201F8
330
2081A
100
AcDbEntity
  8
0
100
AcDbLine
 10
21.28736758418164
 20
54.12513261935277
 30
0.0
 11
21.29081550180735
 21
41.12583261935276
 31
0.0
  0
LINE
  5
20200
330
2081A
100
AcDbEntity
  8
0
100
AcDbLine
 10
21.28736758418164
 20
35.07513261935277
 30
0.0
 11
21.29081550180735
 21
22.07583261935277
 31
0.0
  0
LINE
  5
20208
330
2081A
100
AcDbEntity
  8
0
100
AcDbLine
 10
21.28736758418164
 20
16.02513261935278
 30
0.0
 11
21.29081550180735
 21
3.025832619352776
 31
0.0
  0
LINE
  5
20218
330
2081A
100
AcDbEntity
  8
0
100
AcDbLine
 10
45.09986758418164
 20
92.22513261935276
 30
0.0
 11
45.10331550180734
 21
79.22583261935276
 31
0.0
  0
LINE
  5
20219
330
2081A
100
AcDbEntity
  8
0
100
AcDbLine
 10
45.09986758418164
 20
73.17513261935277
 30
0.0
 11
45.10331550180734
 21
60.17583261935276
 31
0.0
  0
LINE
  5
2021A
330
2081A
100
AcDbEntity
  8
0
100
AcDbLine
 10
45.09986758418164
 20
54.12513261935277
 30
0.0
 11
45.10331550180734
 21
41.12583261935276
 31
0.0
  0
LINE
  5
2021B
330
2081A
100
AcDbEntity
  8
0
100
AcDbLine
 10
45.09986758418164
 20
35.07513261935277
 30
0.0
 11
45.10331550180734
 21
22.07583261935277
 31
0.0
  0
LINE
  5
2021C
330
2081A
100
AcDbEntity
  8
0
100
AcDbLine
 10
45.09986758418164
 20
16.02513261935279
 30
0.0
 11
45.10331550180734
 21
3.025832619352784
 31
0.0
  0
LINE
  5
20240
330
2081A
100
AcDbEntity
  8
0
100
AcDbLine
 10
64.14986758418164
 20
92.22513261935276
 30
0.0
 11
64.15331550180736
 21
79.22583261935276
 31
0.0
  0
LINE
  5
20241
330
2081A
100
AcDbEntity
  8
0
100
AcDbLine
 10
64.14986758418164
 20
73.17513261935277
 30
0.0
 11
64.15331550180736
 21
60.17583261935276
 31
0.0
  0
LINE
  5
20242
330
2081A
100
AcDbEntity
  8
0
100
AcDbLine
 10
64.14986758418164
 20
54.12513261935277
 30
0.0
 11
64.15331550180736
 21
41.12583261935276
 31
0.0
  0
LINE
  5
20243
330
2081A
100
AcDbEntity
  8
0
100
AcDbLine
 10
64.14986758418164
 20
35.07513261935277
 30
0.0
 11
64.15331550180736
 21
22.07583261935277
 31
0.0
  0
LINE
  5
20244
330
2081A
100
AcDbEntity
  8
0
100
AcDbLine
 10
64.14986758418164
 20
16.02513261935279
 30
0.0
 11
64.15331550180736
 21
3.025832619352784
 31
0.0
  0
LINE
  5
20268
330
2081A
100
AcDbEntity
  8
0
100
AcDbLine
 10
83.19986758418163
 20
92.22513261935278
 30
0.0
 11
83.20331550180734
 21
79.22583261935277
 31
0.0
  0
LINE
  5
20269
330
2081A
100
AcDbEntity
  8
0
100
AcDbLine
 10
83.19986758418163
 20
73.17513261935278
 30
0.0
 11
83.20331550180734
 21
60.17583261935278
 31
0.0
  0
LINE
  5
2026A
330
2081A
100
AcDbEntity
  8
0
100
AcDbLine
 10
83.19986758418163
 20
54.12513261935278
 30
0.0
 11
83.20331550180734
 21
41.12583261935278
 31
0.0
  0
LINE
  5
2026B
330
2081A
100
AcDbEntity
  8
0
100
AcDbLine
 10
83.19986758418163
 20
35.07513261935279
 30
0.0
 11
83.20331550180734
 21
22.07583261935278
 31
0.0
  0
LINE
  5
2026C
330
2081A
100
AcDbEntity
  8
0
100
AcDbLine
 10
83.19986758418163
 20
16.0251326193528
 30
0.0
 11
83.20331550180734
 21
3.025832619352798
 31
0.0
  0
LINE
  5
20290
330
2081A
100
AcDbEntity
  8
0
100
AcDbLine
 10
102.2498675841816
 20
92.22513261935276
 30
0.0
 11
102.2533155018074
 21
79.22583261935276
 31
0.0
  0
LINE
  5
20291
330
2081A
100
AcDbEntity
  8
0
100
AcDbLine
 10
102.2498675841816
 20
73.17513261935277
 30
0.0
 11
102.2533155018074
 21
60.17583261935276
 31
0.0
  0
LINE
  5
20292
330
2081A
100
AcDbEntity
  8
0
100
AcDbLine
 10
102.2498675841816
 20
54.12513261935277
 30
0.0
 11
102.2533155018074
 21
41.12583261935276
 31
0.0
  0
LINE
  5
20293
330
2081A
100
AcDbEntity
  8
0
100
AcDbLine
 10
102.2498675841816
 20
35.07513261935277
 30
0.0
 11
102.2533155018074
 21
22.07583261935277
 31
0.0
  0
LINE
  5
202B8
330
2081A
100
AcDbEntity
  8
0
100
AcDbLine
 10
121.2998675841817
 20
92.2251326193528
 30
0.0
 11
121.3033155018074
 21
79.2258326193528
 31
0.0
  0
LINE
  5
202B9
330
2081A
100
AcDbEntity
  8
0
100
AcDbLine
 10
121.2998675841817
 20
73.17513261935281
 30
0.0
 11
121.3033155018074
 21
60.1758326193528
 31
0.0
  0
LINE
  5
202BA
330
2081A
100
AcDbEntity
  8
0
100
AcDbLine
 10
121.2998675841817
 20
54.12513261935281
 30
0.0
 11
121.3033155018074
 21
41.12583261935281
 31
0.0
  0
LINE
  5
202BB
330
2081A
100
AcDbEntity
  8
0
100
AcDbLine
 10
121.2998675841817
 20
35.07513261935281
 30
0.0
 11
121.3033155018074
 21
22.07583261935281
 31
0.0
  0
LINE
  5
202E0
330
2081A
100
AcDbEntity
  8
0
100
AcDbLine
 10
140.3498675841817
 20
92.2251326193528
 30
0.0
 11
140.3533155018074
 21
79.2258326193528
 31
0.0
  0
LINE
  5
20308
330
2081A
100
AcDbEntity
  8
0
100
AcDbLine
 10
159.3998675841816
 20
92.22513261935269
 30
0.0
 11
159.4033155018073
 21
79.22583261935269
 31
0.0
  0
LINE
  5
20330
330
2081A
100
AcDbEntity
  8
0
100
AcDbLine
 10
178.4498675841816
 20
92.22513261935272
 30
0.0
 11
178.4533155018073
 21
79.22583261935272
 31
0.0
  0
LINE
  5
20331
330
2081A
100
AcDbEntity
  8
0
100
AcDbLine
 10
178.4498675841816
 20
73.17513261935272
 30
0.0
 11
178.4533155018073
 21
60.17583261935272
 31
0.0
  0
LINE
  5
20332
330
2081A
100
AcDbEntity
  8
0
100
AcDbLine
 10
178.4498675841816
 20
54.12513261935273
 30
0.0
 11
178.4533155018073
 21
41.12583261935272
 31
0.0
  0
LINE
  5
20333
330
2081A
100
AcDbEntity
  8
0
100
AcDbLine
 10
178.4498675841816
 20
35.07513261935273
 30
0.0
 11
178.4533155018073
 21
22.07583261935272
 31
0.0
  0
LINE
  5
20358
330
2081A
100
AcDbEntity
  8
0
100
AcDbLine
 10
197.4998675841816
 20
92.22513261935272
 30
0.0
 11
197.5033155018073
 21
79.22583261935272
 31
0.0
  0
LINE
  5
20359
330
2081A
100
AcDbEntity
  8
0
100
AcDbLine
 10
197.4998675841816
 20
73.17513261935272
 30
0.0
 11
197.5033155018073
 21
60.17583261935272
 31
0.0
  0
LINE
  5
2035A
330
2081A
100
AcDbEntity
  8
0
100
AcDbLine
 10
197.4998675841816
 20
54.12513261935273
 30
0.0
 11
197.5033155018073
 21
41.12583261935272
 31
0.0
  0
LINE
  5
2035B
330
2081A
100
AcDbEntity
  8
0
100
AcDbLine
 10
197.4998675841816
 20
35.07513261935273
 30
0.0
 11
197.5033155018073
 21
22.07583261935272
 31
0.0
  0
LINE
  5
20380
330
2081A
100
AcDbEntity
  8
0
100
AcDbLine
 10
216.5498675841817
 20
92.2251326193528
 30
0.0
 11
216.5533155018074
 21
79.2258326193528
 31
0.0
  0
LINE
  5
20381
330
2081A
100
AcDbEntity
  8
0
100
AcDbLine
 10
216.5498675841817
 20
73.17513261935281
 30
0.0
 11
216.5533155018074
 21
60.1758326193528
 31
0.0
  0
LINE
  5
20382
330
2081A
100
AcDbEntity
  8
0
100
AcDbLine
 10
216.5498675841817
 20
54.12513261935281
 30
0.0
 11
216.5533155018074
 21
41.12583261935281
 31
0.0
  0
LINE
  5
20383
330
2081A
100
AcDbEntity
  8
0
100
AcDbLine
 10
216.5498675841817
 20
35.07513261935281
 30
0.0
 11
216.5533155018074
 21
22.07583261935281
 31
0.0
  0
LINE
  5
20384
330
2081A
100
AcDbEntity
  8
0
100
AcDbLine
 10
216.5498675841817
 20
16.02513261935283
 30
0.0
 11
216.5533155018074
 21
3.025832619352826
 31
0.0
  0
LINE
  5
203A8
330
2081A
100
AcDbEntity
  8
0
100
AcDbLine
 10
235.5998675841816
 20
92.22513261935272
 30
0.0
 11
235.6033155018073
 21
79.22583261935272
 31
0.0
  0
LINE
  5
203A9
330
2081A
100
AcDbEntity
  8
0
100
AcDbLine
 10
235.5998675841816
 20
73.17513261935272
 30
0.0
 11
235.6033155018073
 21
60.17583261935272
 31
0.0
  0
LINE
  5
203AA
330
2081A
100
AcDbEntity
  8
0
100
AcDbLine
 10
235.5998675841816
 20
54.12513261935273
 30
0.0
 11
235.6033155018073
 21
41.12583261935272
 31
0.0
  0
LINE
  5
203AB
330
2081A
100
AcDbEntity
  8
0
100
AcDbLine
 10
235.5998675841816
 20
35.07513261935273
 30
0.0
 11
235.6033155018073
 21
22.07583261935272
 31
0.0
  0
LINE
  5
203AC
330
2081A
100
AcDbEntity
  8
0
100
AcDbLine
 10
235.5998675841816
 20
16.02513261935275
 30
0.0
 11
235.6033155018073
 21
3.025832619352741
 31
0.0
  0
LINE
  5
203D0
330
2081A
100
AcDbEntity
  8
0
100
AcDbLine
 10
254.6498675841816
 20
92.2251326193528
 30
0.0
 11
254.6533155018073
 21
79.2258326193528
 31
0.0
  0
LINE
  5
203D1
330
2081A
100
AcDbEntity
  8
0
100
AcDbLine
 10
254.6498675841816
 20
73.17513261935281
 30
0.0
 11
254.6533155018073
 21
60.1758326193528
 31
0.0
  0
LINE
  5
203D2
330
2081A
100
AcDbEntity
  8
0
100
AcDbLine
 10
254.6498675841816
 20
54.12513261935281
 30
0.0
 11
254.6533155018073
 21
41.12583261935281
 31
0.0
  0
LINE
  5
203D3
330
2081A
100
AcDbEntity
  8
0
100
AcDbLine
 10
254.6498675841816
 20
35.07513261935281
 30
0.0
 11
254.6533155018073
 21
22.07583261935281
 31
0.0
  0
LINE
  5
203D4
330
2081A
100
AcDbEntity
  8
0
100
AcDbLine
 10
254.6498675841816
 20
16.02513261935283
 30
0.0
 11
254.6533155018073
 21
3.025832619352826
 31
0.0
  0
LINE
  5
203F8
330
2081A
100
AcDbEntity
  8
0
100
AcDbLine
 10
278.4623675841815
 20
92.22513261935272
 30
0.0
 11
278.4658155018073
 21
79.22583261935272
 31
0.0
  0
LINE
  5
203F9
330
2081A
100
AcDbEntity
  8
0
100
AcDbLine
 10
278.4623675841815
 20
73.17513261935272
 30
0.0
 11
278.4658155018073
 21
60.17583261935272
 31
0.0
  0
LINE
  5
203FA
330
2081A
100
AcDbEntity
  8
0
100
AcDbLine
 10
278.4623675841815
 20
54.12513261935273
 30
0.0
 11
278.4658155018073
 21
41.12583261935272
 31
0.0
  0
LINE
  5
203FB
330
2081A
100
AcDbEntity
  8
0
100
AcDbLine
 10
278.4623675841815
 20
35.07513261935273
 30
0.0
 11
278.4658155018073
 21
22.07583261935272
 31
0.0
  0
LINE
  5
203FC
330
2081A
100
AcDbEntity
  8
0
100
AcDbLine
 10
278.4623675841815
 20
16.02513261935275
 30
0.0
 11
278.4658155018073
 21
3.025832619352741
 31
0.0
  0
LINE
  5
8FC
330
2081A
100
AcDbEntity
  8
0
100
AcDbLine
 10
20.79081551939525
 20
78.72569999999999
 30
0.0
 11
7.784184480604578
 21
78.72569999999999
 31
0.0
  0
LINE
  5
201F1
330
2081A
100
AcDbEntity
  8
0
100
AcDbLine
 10
20.79081551939525
 20
59.67569999999999
 30
0.0
 11
7.784184480604578
 21
59.67569999999999
 31
0.0
  0
LINE
  5
201F9
330
2081A
100
AcDbEntity
  8
0
100
AcDbLine
 10
20.79081551939525
 20
40.62569999999999
 30
0.0
 11
7.784184480604578
 21
40.62569999999999
 31
0.0
  0
LINE
  5
20201
330
2081A
100
AcDbEntity
  8
0
100
AcDbLine
 10
20.79081551939525
 20
21.5757
 30
0.0
 11
7.784184480604578
 21
21.5757
 31
0.0
  0
LINE
  5
20209
330
2081A
100
AcDbEntity
  8
0
100
AcDbLine
 10
20.79081551939525
 20
2.525700000000008
 30
0.0
 11
7.784184480604578
 21
2.525700000000008
 31
0.0
  0
LINE
  5
2021D
330
2081A
100
AcDbEntity
  8
0
100
AcDbLine
 10
44.60331551939525
 20
78.72569999999999
 30
0.0
 11
31.59668448060457
 21
78.72569999999999
 31
0.0
  0
LINE
  5
2021E
330
2081A
100
AcDbEntity
  8
0
100
AcDbLine
 10
44.60331551939525
 20
59.67569999999999
 30
0.0
 11
31.59668448060457
 21
59.67569999999999
 31
0.0
  0
LINE
  5
2021F
330
2081A
100
AcDbEntity
  8
0
100
AcDbLine
 10
44.60331551939525
 20
40.62569999999999
 30
0.0
 11
31.59668448060457
 21
40.62569999999999
 31
0.0
  0
LINE
  5
20220
330
2081A
100
AcDbEntity
  8
0
100
AcDbLine
 10
44.60331551939525
 20
21.5757
 30
0.0
 11
31.59668448060457
 21
21.5757
 31
0.0
  0
LINE
  5
20221
330
2081A
100
AcDbEntity
  8
0
100
AcDbLine
 10
44.60331551939525
 20
2.525700000000015
 30
0.0
 11
31.59668448060457
 21
2.525700000000015
 31
0.0
  0
LINE
  5
20245
330
2081A
100
AcDbEntity
  8
0
100
AcDbLine
 10
63.65331551939525
 20
78.72569999999999
 30
0.0
 11
50.64668448060458
 21
78.72569999999999
 31
0.0
  0
LINE
  5
20246
330
2081A
100
AcDbEntity
  8
0
100
AcDbLine
 10
63.65331551939525
 20
59.67569999999999
 30
0.0
 11
50.64668448060458
 21
59.67569999999999
 31
0.0
  0
LINE
  5
20247
330
2081A
100
AcDbEntity
  8
0
100
AcDbLine
 10
63.65331551939525
 20
40.62569999999999
 30
0.0
 11
50.64668448060458
 21
40.62569999999999
 31
0.0
  0
LINE
  5
20248
330
2081A
100
AcDbEntity
  8
0
100
AcDbLine
 10
63.65331551939525
 20
21.5757
 30
0.0
 11
50.64668448060458
 21
21.5757
 31
0.0
  0
LINE
  5
20249
330
2081A
100
AcDbEntity
  8
0
100
AcDbLine
 10
63.65331551939525
 20
2.525700000000015
 30
0.0
 11
50.64668448060458
 21
2.525700000000015
 31
0.0
  0
LINE
  5
2026D
330
2081A
100
AcDbEntity
  8
0
100
AcDbLine
 10
82.70331551939525
 20
78.7257
 30
0.0
 11
69.69668448060457
 21
78.7257
 31
0.0
  0
LINE
  5
2026E
330
2081A
100
AcDbEntity
  8
0
100
AcDbLine
 10
82.70331551939525
 20
59.67570000000001
 30
0.0
 11
69.69668448060457
 21
59.67570000000001
 31
0.0
  0
LINE
  5
2026F
330
2081A
100
AcDbEntity
  8
0
100
AcDbLine
 10
82.70331551939525
 20
40.62570000000001
 30
0.0
 11
69.69668448060457
 21
40.62570000000001
 31
0.0
  0
LINE
  5
20270
330
2081A
100
AcDbEntity
  8
0
100
AcDbLine
 10
82.70331551939525
 20
21.57570000000001
 30
0.0
 11
69.69668448060457
 21
21.57570000000001
 31
0.0
  0
LINE
  5
20271
330
2081A
100
AcDbEntity
  8
0
100
AcDbLine
 10
82.70331551939525
 20
2.525700000000029
 30
0.0
 11
69.69668448060457
 21
2.525700000000029
 31
0.0
  0
LINE
  5
20295
330
2081A
100
AcDbEntity
  8
0
100
AcDbLine
 10
101.7533155193952
 20
78.72569999999999
 30
0.0
 11
88.74668448060457
 21
78.72569999999999
 31
0.0
  0
LINE
  5
20296
330
2081A
100
AcDbEntity
  8
0
100
AcDbLine
 10
101.7533155193952
 20
59.67569999999999
 30
0.0
 11
88.74668448060457
 21
59.67569999999999
 31
0.0
  0
LINE
  5
20297
330
2081A
100
AcDbEntity
  8
0
100
AcDbLine
 10
101.7533155193952
 20
40.62569999999999
 30
0.0
 11
88.74668448060457
 21
40.62569999999999
 31
0.0
  0
LINE
  5
20298
330
2081A
100
AcDbEntity
  8
0
100
AcDbLine
 10
101.7533155193952
 20
21.5757
 30
0.0
 11
88.74668448060457
 21
21.5757
 31
0.0
  0
LINE
  5
202BD
330
2081A
100
AcDbEntity
  8
0
100
AcDbLine
 10
120.8033155193953
 20
78.72570000000003
 30
0.0
 11
107.7966844806046
 21
78.72570000000003
 31
0.0
  0
LINE
  5
202BE
330
2081A
100
AcDbEntity
  8
0
100
AcDbLine
 10
120.8033155193953
 20
59.67570000000003
 30
0.0
 11
107.7966844806046
 21
59.67570000000003
 31
0.0
  0
LINE
  5
202BF
330
2081A
100
AcDbEntity
  8
0
100
AcDbLine
 10
120.8033155193953
 20
40.62570000000004
 30
0.0
 11
107.7966844806046
 21
40.62570000000004
 31
0.0
  0
LINE
  5
202C0
330
2081A
100
AcDbEntity
  8
0
100
AcDbLine
 10
120.8033155193953
 20
21.57570000000004
 30
0.0
 11
107.7966844806046
 21
21.57570000000004
 31
0.0
  0
LINE
  5
202E5
330
2081A
100
AcDbEntity
  8
0
100
AcDbLine
 10
139.8533155193953
 20
78.72570000000003
 30
0.0
 11
126.8466844806046
 21
78.72570000000003
 31
0.0
  0
LINE
  5
2030D
330
2081A
100
AcDbEntity
  8
0
100
AcDbLine
 10
158.9033155193952
 20
78.72569999999992
 30
0.0
 11
145.8966844806045
 21
78.72569999999992
 31
0.0
  0
LINE
  5
20335
330
2081A
100
AcDbEntity
  8
0
100
AcDbLine
 10
177.9533155193952
 20
78.72569999999995
 30
0.0
 11
164.9466844806045
 21
78.72569999999995
 31
0.0
  0
LINE
  5
20336
330
2081A
100
AcDbEntity
  8
0
100
AcDbLine
 10
177.9533155193952
 20
59.67569999999995
 30
0.0
 11
164.9466844806045
 21
59.67569999999995
 31
0.0
  0
LINE
  5
20337
330
2081A
100
AcDbEntity
  8
0
100
AcDbLine
 10
177.9533155193952
 20
40.62569999999995
 30
0.0
 11
164.9466844806045
 21
40.62569999999995
 31
0.0
  0
LINE
  5
20338
330
2081A
100
AcDbEntity
  8
0
100
AcDbLine
 10
177.9533155193952
 20
21.57569999999996
 30
0.0
 11
164.9466844806045
 21
21.57569999999996
 31
0.0
  0
LINE
  5
2035D
330
2081A
100
AcDbEntity
  8
0
100
AcDbLine
 10
197.0033155193952
 20
78.72569999999995
 30
0.0
 11
183.9966844806045
 21
78.72569999999995
 31
0.0
  0
LINE
  5
2035E
330
2081A
100
AcDbEntity
  8
0
100
AcDbLine
 10
197.0033155193952
 20
59.67569999999995
 30
0.0
 11
183.9966844806045
 21
59.67569999999995
 31
0.0
  0
LINE
  5
2035F
330
2081A
100
AcDbEntity
  8
0
100
AcDbLine
 10
197.0033155193952
 20
40.62569999999995
 30
0.0
 11
183.9966844806045
 21
40.62569999999995
 31
0.0
  0
LINE
  5
20360
330
2081A
100
AcDbEntity
  8
0
100
AcDbLine
 10
197.0033155193952
 20
21.57569999999996
 30
0.0
 11
183.9966844806045
 21
21.57569999999996
 31
0.0
  0
LINE
  5
20385
330
2081A
100
AcDbEntity
  8
0
100
AcDbLine
 10
216.0533155193953
 20
78.72570000000003
 30
0.0
 11
203.0466844806046
 21
78.72570000000003
 31
0.0
  0
LINE
  5
20386
330
2081A
100
AcDbEntity
  8
0
100
AcDbLine
 10
216.0533155193953
 20
59.67570000000003
 30
0.0
 11
203.0466844806046
 21
59.67570000000003
 31
0.0
  0
LINE
  5
20387
330
2081A
100
AcDbEntity
  8
0
100
AcDbLine
 10
216.0533155193953
 20
40.62570000000004
 30
0.0
 11
203.0466844806046
 21
40.62570000000004
 31
0.0
  0
LINE
  5
20388
330
2081A
100
AcDbEntity
  8
0
100
AcDbLine
 10
216.0533155193953
 20
21.57570000000004
 30
0.0
 11
203.0466844806046
 21
21.57570000000004
 31
0.0
  0
LINE
  5
20389
330
2081A
100
AcDbEntity
  8
0
100
AcDbLine
 10
216.0533155193953
 20
2.525700000000057
 30
0.0
 11
203.0466844806046
 21
2.525700000000057
 31
0.0
  0
LINE
  5
203AD
330
2081A
100
AcDbEntity
  8
0
100
AcDbLine
 10
235.1033155193952
 20
78.72569999999995
 30
0.0
 11
222.0966844806045
 21
78.72569999999995
 31
0.0
  0
LINE
  5
203AE
330
2081A
100
AcDbEntity
  8
0
100
AcDbLine
 10
235.1033155193952
 20
59.67569999999995
 30
0.0
 11
222.0966844806045
 21
59.67569999999995
 31
0.0
  0
LINE
  5
203AF
330
2081A
100
AcDbEntity
  8
0
100
AcDbLine
 10
235.1033155193952
 20
40.62569999999995
 30
0.0
 11
222.0966844806045
 21
40.62569999999995
 31
0.0
  0
LINE
  5
203B0
330
2081A
100
AcDbEntity
  8
0
100
AcDbLine
 10
235.1033155193952
 20
21.57569999999996
 30
0.0
 11
222.0966844806045
 21
21.57569999999996
 31
0.0
  0
LINE
  5
203B1
330
2081A
100
AcDbEntity
  8
0
100
AcDbLine
 10
235.1033155193952
 20
2.525699999999972
 30
0.0
 11
222.0966844806045
 21
2.525699999999972
 31
0.0
  0
LINE
  5
203D5
330
2081A
100
AcDbEntity
  8
0
100
AcDbLine
 10
254.1533155193952
 20
78.72570000000003
 30
0.0
 11
241.1466844806045
 21
78.72570000000003
 31
0.0
  0
LINE
  5
203D6
330
2081A
100
AcDbEntity
  8
0
100
AcDbLine
 10
254.1533155193952
 20
59.67570000000003
 30
0.0
 11
241.1466844806045
 21
59.67570000000003
 31
0.0
  0
LINE
  5
203D7
330
2081A
100
AcDbEntity
  8
0
100
AcDbLine
 10
254.1533155193952
 20
40.62570000000004
 30
0.0
 11
241.1466844806045
 21
40.62570000000004
 31
0.0
  0
LINE
  5
203D8
330
2081A
100
AcDbEntity
  8
0
100
AcDbLine
 10
254.1533155193952
 20
21.57570000000004
 30
0.0
 11
241.1466844806045
 21
21.57570000000004
 31
0.0
  0
LINE
  5
203D9
330
2081A
100
AcDbEntity
  8
0
100
AcDbLine
 10
254.1533155193952
 20
2.525700000000057
 30
0.0
 11
241.1466844806045
 21
2.525700000000057
 31
0.0
  0
LINE
  5
203FD
330
2081A
100
AcDbEntity
  8
0
100
AcDbLine
 10
277.9658155193952
 20
78.72569999999995
 30
0.0
 11
264.9591844806045
 21
78.72569999999995
 31
0.0
  0
LINE
  5
203FE
330
2081A
100
AcDbEntity
  8
0
100
AcDbLine
 10
277.9658155193952
 20
59.67569999999995
 30
0.0
 11
264.9591844806045
 21
59.67569999999995
 31
0.0
  0
LINE
  5
203FF
330
2081A
100
AcDbEntity
  8
0
100
AcDbLine
 10
277.9658155193952
 20
40.62569999999995
 30
0.0
 11
264.9591844806045
 21
40.62569999999995
 31
0.0
  0
LINE
  5
20400
330
2081A
100
AcDbEntity
  8
0
100
AcDbLine
 10
277.9658155193952
 20
21.57569999999996
 30
0.0
 11
264.9591844806045
 21
21.57569999999996
 31
0.0
  0
LINE
  5
20401
330
2081A
100
AcDbEntity
  8
0
100
AcDbLine
 10
277.9658155193952
 20
2.525699999999972
 30
0.0
 11
264.9591844806045
 21
2.525699999999972
 31
0.0
  0
LINE
  5
B35
330
2081A
100
AcDbEntity
  8
0
100
AcDbLine
 10
88.2501326012943
 20
3.025567566221546
 30
0.0
 11
88.24668950837791
 21
16.02486742672317
 31
0.0
  0
LINE
  5
BBD
330
2081A
100
AcDbEntity
  8
0
100
AcDbLine
 10
126.3365789031534
 20
22.07583261935279
 30
0.0
 11
126.3501324158184
 21
73.17513261935281
 31
0.0
  0
LINE
  5
BBF
330
2081A
100
AcDbEntity
  8
0
100
AcDbLine
 10
126.8501323982305
 20
73.675
 30
0.0
 11
139.8498676017695
 21
73.675
 31
0.0
  0
LINE
  5
BC0
330
2081A
100
AcDbEntity
  8
0
100
AcDbLine
 10
140.3498675841816
 20
73.1751326193528
 30
0.0
 11
140.3634210968466
 21
22.07583261935279
 31
0.0
  0
LINE
  5
BE1
330
2081A
100
AcDbEntity
  8
0
100
AcDbLine
 10
139.8634211144345
 20
21.5757
 30
0.0
 11
126.8365788855655
 21
21.5757
 31
0.0
  0
LINE
  5
C09
330
2081A
100
AcDbEntity
  8
0
100
AcDbLine
 10
145.3865789031649
 20
22.07583261935268
 30
0.0
 11
145.4001324158183
 21
73.17513261935267
 31
0.0
  0
LINE
  5
C0B
330
2081A
100
AcDbEntity
  8
0
100
AcDbLine
 10
145.9001323982304
 20
73.675
 30
0.0
 11
158.8998676017695
 21
73.675
 31
0.0
  0
LINE
  5
C0C
330
2081A
100
AcDbEntity
  8
0
100
AcDbLine
 10
159.3998675841816
 20
73.1751326193528
 30
0.0
 11
159.4134210968466
 21
22.07583261935279
 31
0.0
  0
LINE
  5
C2D
330
2081A
100
AcDbEntity
  8
0
100
AcDbLine
 10
158.9134211144345
 20
21.5757
 30
0.0
 11
145.8865788855771
 21
21.5757
 31
0.0
  0
LINE
  5
CF6
330
2081A
100
AcDbEntity
  8
0
100
AcDbLine
 10
197.4998675841817
 20
16.02513261894462
 30
0.0
 11
197.5033155018085
 21
3.025832619352796
 31
0.0
  0
LINE
  5
EE2
330
2081A
100
AcDbEntity
  8
0
100
AcDbLine
 10
88.75013258375559
 20
2.525700000000001
 30
0.0
 11
197.0033155193964
 21
2.525700000000001
 31
0.0
  0
LINE
  5
EE3
330
2081A
100
AcDbEntity
  8
0
100
AcDbLine
 10
88.74666929128868
 20
16.5249998600936
 30
0.0
 11
91.225435
 21
16.52509999999999
 31
0.0
  0
LINE
  5
EE4
330
2081A
100
AcDbEntity
  8
0
100
AcDbLine
 10
91.225435
 20
16.52509999999999
 30
0.0
 11
91.225435
 21
17.4952
 31
0.0
  0
LINE
  5
EE5
330
2081A
100
AcDbEntity
  8
0
100
AcDbLine
 10
91.225435
 20
17.4952
 30
0.0
 11
97.025735
 21
17.4952
 31
0.0
  0
LINE
  5
EE6
330
2081A
100
AcDbEntity
  8
0
100
AcDbLine
 10
97.025735
 20
17.4952
 30
0.0
 11
97.025735
 21
16.52509999999999
 31
0.0
  0
LINE
  5
EE7
330
2081A
100
AcDbEntity
  8
0
100
AcDbLine
 10
97.025735
 20
16.52509999999999
 30
0.0
 11
110.275035
 21
16.52509999999999
 31
0.0
  0
LINE
  5
EE8
330
2081A
100
AcDbEntity
  8
0
100
AcDbLine
 10
110.275035
 20
16.52509999999999
 30
0.0
 11
110.275035
 21
17.4952
 31
0.0
  0
LINE
  5
EE9
330
2081A
100
AcDbEntity
  8
0
100
AcDbLine
 10
110.275035
 20
17.4952
 30
0.0
 11
118.326035
 21
17.4952
 31
0.0
  0
LINE
  5
EEA
330
2081A
100
AcDbEntity
  8
0
100
AcDbLine
 10
118.326035
 20
17.4952
 30
0.0
 11
118.326035
 21
16.52509999999999
 31
0.0
  0
LINE
  5
EEB
330
2081A
100
AcDbEntity
  8
0
100
AcDbLine
 10
118.326035
 20
16.52509999999999
 30
0.0
 11
129.325035
 21
16.52509999999999
 31
0.0
  0
LINE
  5
EEC
330
2081A
100
AcDbEntity
  8
0
100
AcDbLine
 10
129.325035
 20
16.52509999999999
 30
0.0
 11
129.325035
 21
17.4952
 31
0.0
  0
LINE
  5
EED
330
2081A
100
AcDbEntity
  8
0
100
AcDbLine
 10
129.325035
 20
17.4952
 30
0.0
 11
137.376035
 21
17.4952
 31
0.0
  0
LINE
  5
EEE
330
2081A
100
AcDbEntity
  8
0
100
AcDbLine
 10
137.376035
 20
17.4952
 30
0.0
 11
137.376035
 21
16.52509999999999
 31
0.0
  0
LINE
  5
EEF
330
2081A
100
AcDbEntity
  8
0
100
AcDbLine
 10
137.376035
 20
16.52509999999999
 30
0.0
 11
148.375035
 21
16.52509999999999
 31
0.0
  0
LINE
  5
EF0
330
2081A
100
AcDbEntity
  8
0
100
AcDbLine
 10
148.375035
 20
16.52509999999999
 30
0.0
 11
148.375035
 21
17.4952
 31
0.0
  0
LINE
  5
EF1
330
2081A
100
AcDbEntity
  8
0
100
AcDbLine
 10
148.375035
 20
17.4952
 30
0.0
 11
156.425035
 21
17.4952
 31
0.0
  0
LINE
  5
EF2
330
2081A
100
AcDbEntity
  8
0
100
AcDbLine
 10
156.425035
 20
17.4952
 30
0.0
 11
156.425035
 21
16.52509999999999
 31
0.0
  0
LINE
  5
EF3
330
2081A
100
AcDbEntity
  8
0
100
AcDbLine
 10
156.425035
 20
16.52509999999999
 30
0.0
 11
167.424035
 21
16.52509999999999
 31
0.0
  0
LINE
  5
EF4
330
2081A
100
AcDbEntity
  8
0
100
AcDbLine
 10
167.424035
 20
16.52509999999999
 30
0.0
 11
167.424035
 21
17.4952
 31
0.0
  0
LINE
  5
EF5
330
2081A
100
AcDbEntity
  8
0
100
AcDbLine
 10
167.424035
 20
17.4952
 30
0.0
 11
175.476035
 21
17.4952
 31
0.0
  0
LINE
  5
EF6
330
2081A
100
AcDbEntity
  8
0
100
AcDbLine
 10
175.476035
 20
17.4952
 30
0.0
 11
175.476035
 21
16.52509999999999
 31
0.0
  0
LINE
  5
EF7
330
2081A
100
AcDbEntity
  8
0
100
AcDbLine
 10
175.476035
 20
16.52509999999999
 30
0.0
 11
188.726035
 21
16.52509999999999
 31
0.0
  0
LINE
  5
EF8
330
2081A
100
AcDbEntity
  8
0
100
AcDbLine
 10
188.726035
 20
16.52509999999999
 30
0.0
 11
188.726035
 21
17.4952
 31
0.0
  0
LINE
  5
EF9
330
2081A
100
AcDbEntity
  8
0
100
AcDbLine
 10
188.726035
 20
17.4952
 30
0.0
 11
194.525035
 21
17.4952
 31
0.0
  0
LINE
  5
EFA
330
2081A
100
AcDbEntity
  8
0
100
AcDbLine
 10
194.525035
 20
17.4952
 30
0.0
 11
194.525035
 21
16.52509999999999
 31
0.0
  0
LINE
  5
EFB
330
2081A
100
AcDbEntity
  8
0
100
AcDbLine
 10
194.525035
 20
16.52509999999999
 30
0.0
 11
196.9998878051562
 21
16.52499999918366
 31
0.0
  0
ARC
  5
201EA
330
2081A
100
AcDbEntity
  8
0
100
AcDbCircle
 10
7.787632398230473
 20
92.225
 30
0.0
 40
0.5
100
AcDbArc
 50
90.0
 51
179.9848029414341
1001
QCAD
1000
reversed:1
  0
ARC
  5
201F2
330
2081A
100
AcDbEntity
  8
0
100
AcDbCircle
 10
7.787632398230473
 20
73.175
 30
0.0
 40
0.5
100
AcDbArc
 50
90.0
 51
179.9848029414341
1001
QCAD
1000
reversed:1
  0
ARC
  5
201FA
330
2081A
100
AcDbEntity
  8
0
100
AcDbCircle
 10
7.787632398230473
 20
54.125
 30
0.0
 40
0.5
100
AcDbArc
 50
90.0
 51
179.9848029414341
1001
QCAD
1000
reversed:1
  0
ARC
  5
20202
330
2081A
100
AcDbEntity
  8
0
100
AcDbCircle
 10
7.787632398230473
 20
35.075
 30
0.0
 40
0.5
100
AcDbArc
 50
90.0
 51
179.9848029414341
1001
QCAD
1000
reversed:1
  0
ARC
  5
2020A
330
2081A
100
AcDbEntity
  8
0
100
AcDbCircle
 10
7.787632398230473
 20
16.02500000000001
 30
0.0
 40
0.5
100
AcDbArc
 50
90.0
 51
179.9848029414341
1001
QCAD
1000
reversed:1
  0
ARC
  5
20222
330
2081A
100
AcDbEntity
  8
0
100
AcDbCircle
 10
31.60013239823047
 20
92.225
 30
0.0
 40
0.5
100
AcDbArc
 50
90.0
 51
179.9848029414341
1001
QCAD
1000
reversed:1
  0
ARC
  5
20223
330
2081A
100
AcDbEntity
  8
0
100
AcDbCircle
 10
31.60013239823047
 20
73.175
 30
0.0
 40
0.5
100
AcDbArc
 50
90.0
 51
179.9848029414341
1001
QCAD
1000
reversed:1
  0
ARC
  5
20224
330
2081A
100
AcDbEntity
  8
0
100
AcDbCircle
 10
31.60013239823047
 20
54.125
 30
0.0
 40
0.5
100
AcDbArc
 50
90.0
 51
179.9848029414341
1001
QCAD
1000
reversed:1
  0
ARC
  5
20225
330
2081A
100
AcDbEntity
  8
0
100
AcDbCircle
 10
31.60013239823047
 20
35.075
 30
0.0
 40
0.5
100
AcDbArc
 50
90.0
 51
179.9848029414341
1001
QCAD
1000
reversed:1
  0
ARC
  5
20226
330
2081A
100
AcDbEntity
  8
0
100
AcDbCircle
 10
31.60013239823047
 20
16.02500000000002
 30
0.0
 40
0.5
100
AcDbArc
 50
90.0
 51
179.9848029414341
1001
QCAD
1000
reversed:1
  0
ARC
  5
2024A
330
2081A
100
AcDbEntity
  8
0
100
AcDbCircle
 10
50.65013239823047
 20
92.225
 30
0.0
 40
0.5
100
AcDbArc
 50
90.0
 51
179.9848029414341
1001
QCAD
1000
reversed:1
  0
ARC
  5
2024B
330
2081A
100
AcDbEntity
  8
0
100
AcDbCircle
 10
50.65013239823047
 20
73.175
 30
0.0
 40
0.5
100
AcDbArc
 50
90.0
 51
179.9848029414341
1001
QCAD
1000
reversed:1
  0
ARC
  5
2024C
330
2081A
100
AcDbEntity
  8
0
100
AcDbCircle
 10
50.65013239823047
 20
54.125
 30
0.0
 40
0.5
100
AcDbArc
 50
90.0
 51
179.9848029414341
1001
QCAD
1000
reversed:1
  0
ARC
  5
2024D
330
2081A
100
AcDbEntity
  8
0
100
AcDbCircle
 10
50.65013239823047
 20
35.075
 30
0.0
 40
0.5
100
AcDbArc
 50
90.0
 51
179.9848029414341
1001
QCAD
1000
reversed:1
  0
ARC
  5
2024E
330
2081A
100
AcDbEntity
  8
0
100
AcDbCircle
 10
50.65013239823047
 20
16.02500000000002
 30
0.0
 40
0.5
100
AcDbArc
 50
90.0
 51
179.9848029414341
1001
QCAD
1000
reversed:1
  0
ARC
  5
20272
330
2081A
100
AcDbEntity
  8
0
100
AcDbCircle
 10
69.70013239823047
 20
92.22500000000001
 30
0.0
 40
0.5
100
AcDbArc
 50
90.0
 51
179.9848029414341
1001
QCAD
1000
reversed:1
  0
ARC
  5
20273
330
2081A
100
AcDbEntity
  8
0
100
AcDbCircle
 10
69.70013239823047
 20
73.17500000000001
 30
0.0
 40
0.5
100
AcDbArc
 50
90.0
 51
179.9848029414341
1001
QCAD
1000
reversed:1
  0
ARC
  5
20274
330
2081A
100
AcDbEntity
  8
0
100
AcDbCircle
 10
69.70013239823047
 20
54.12500000000001
 30
0.0
 40
0.5
100
AcDbArc
 50
90.0
 51
179.9848029414341
1001
QCAD
1000
reversed:1
  0
ARC
  5
20275
330
2081A
100
AcDbEntity
  8
0
100
AcDbCircle
 10
69.70013239823047
 20
35.07500000000002
 30
0.0
 40
0.5
100
AcDbArc
 50
90.0
 51
179.9848029414341
1001
QCAD
1000
reversed:1
  0
ARC
  5
20276
330
2081A
100
AcDbEntity
  8
0
100
AcDbCircle
 10
69.70013239823047
 20
16.02500000000003
 30
0.0
 40
0.5
100
AcDbArc
 50
90.0
 51
179.9848029414341
1001
QCAD
1000
reversed:1
  0
ARC
  5
2029A
330
2081A
100
AcDbEntity
  8
0
100
AcDbCircle
 10
88.75013239823046
 20
92.225
 30
0.0
 40
0.5
100
AcDbArc
 50
90.0
 51
179.9848029414341
1001
QCAD
1000
reversed:1
  0
ARC
  5
2029B
330
2081A
100
AcDbEntity
  8
0
100
AcDbCircle
 10
88.75013239823046
 20
73.175
 30
0.0
 40
0.5
100
AcDbArc
 50
90.0
 51
179.9848029414341
1001
QCAD
1000
reversed:1
  0
ARC
  5
2029C
330
2081A
100
AcDbEntity
  8
0
100
AcDbCircle
 10
88.75013239823046
 20
54.125
 30
0.0
 40
0.5
100
AcDbArc
 50
90.0
 51
179.9848029414341
1001
QCAD
1000
reversed:1
  0
ARC
  5
2029D
330
2081A
100
AcDbEntity
  8
0
100
AcDbCircle
 10
88.75013239823046
 20
35.075
 30
0.0
 40
0.5
100
AcDbArc
 50
90.0
 51
179.9848029414341
1001
QCAD
1000
reversed:1
  0
ARC
  5
202C2
330
2081A
100
AcDbEntity
  8
0
100
AcDbCircle
 10
107.8001323982305
 20
92.22500000000004
 30
0.0
 40
0.5
100
AcDbArc
 50
90.0
 51
179.9848029414341
1001
QCAD
1000
reversed:1
  0
ARC
  5
202C3
330
2081A
100
AcDbEntity
  8
0
100
AcDbCircle
 10
107.8001323982305
 20
73.17500000000004
 30
0.0
 40
0.5
100
AcDbArc
 50
90.0
 51
179.9848029414341
1001
QCAD
1000
reversed:1
  0
ARC
  5
202C4
330
2081A
100
AcDbEntity
  8
0
100
AcDbCircle
 10
107.8001323982305
 20
54.12500000000004
 30
0.0
 40
0.5
100
AcDbArc
 50
90.0
 51
179.9848029414341
1001
QCAD
1000
reversed:1
  0
ARC
  5
202C5
330
2081A
100
AcDbEntity
  8
0
100
AcDbCircle
 10
107.8001323982305
 20
35.07500000000005
 30
0.0
 40
0.5
100
AcDbArc
 50
90.0
 51
179.9848029414341
1001
QCAD
1000
reversed:1
  0
ARC
  5
202EA
330
2081A
100
AcDbEntity
  8
0
100
AcDbCircle
 10
126.8501323982305
 20
92.22500000000004
 30
0.0
 40
0.5
100
AcDbArc
 50
90.0
 51
179.9848029414341
1001
QCAD
1000
reversed:1
  0
ARC
  5
20312
330
2081A
100
AcDbEntity
  8
0
100
AcDbCircle
 10
145.9001323982304
 20
92.22499999999992
 30
0.0
 40
0.5
100
AcDbArc
 50
90.0
 51
179.9848029414341
1001
QCAD
1000
reversed:1
  0
ARC
  5
2033A
330
2081A
100
AcDbEntity
  8
0
100
AcDbCircle
 10
164.9501323982304
 20
92.22499999999995
 30
0.0
 40
0.5
100
AcDbArc
 50
90.0
 51
179.9848029414341
1001
QCAD
1000
reversed:1
  0
ARC
  5
2033B
330
2081A
100
AcDbEntity
  8
0
100
AcDbCircle
 10
164.9501323982304
 20
73.17499999999995
 30
0.0
 40
0.5
100
AcDbArc
 50
90.0
 51
179.9848029414341
1001
QCAD
1000
reversed:1
  0
ARC
  5
2033C
330
2081A
100
AcDbEntity
  8
0
100
AcDbCircle
 10
164.9501323982304
 20
54.12499999999996
 30
0.0
 40
0.5
100
AcDbArc
 50
90.0
 51
179.9848029414341
1001
QCAD
1000
reversed:1
  0
ARC
  5
2033D
330
2081A
100
AcDbEntity
  8
0
100
AcDbCircle
 10
164.9501323982304
 20
35.07499999999996
 30
0.0
 40
0.5
100
AcDbArc
 50
90.0
 51
179.9848029414341
1001
QCAD
1000
reversed:1
  0
ARC
  5
20362
330
2081A
100
AcDbEntity
  8
0
100
AcDbCircle
 10
184.0001323982304
 20
92.22499999999995
 30
0.0
 40
0.5
100
AcDbArc
 50
90.0
 51
179.9848029414341
1001
QCAD
1000
reversed:1
  0
ARC
  5
20363
330
2081A
100
AcDbEntity
  8
0
100
AcDbCircle
 10
184.0001323982304
 20
73.17499999999995
 30
0.0
 40
0.5
100
AcDbArc
 50
90.0
 51
179.9848029414341
1001
QCAD
1000
reversed:1
  0
ARC
  5
20364
330
2081A
100
AcDbEntity
  8
0
100
AcDbCircle
 10
184.0001323982304
 20
54.12499999999996
 30
0.0
 40
0.5
100
AcDbArc
 50
90.0
 51
179.9848029414341
1001
QCAD
1000
reversed:1
  0
ARC
  5
20365
330
2081A
100
AcDbEntity
  8
0
100
AcDbCircle
 10
184.0001323982304
 20
35.07499999999996
 30
0.0
 40
0.5
100
AcDbArc
 50
90.0
 51
179.9848029414341
1001
QCAD
1000
reversed:1
  0
ARC
  5
2038A
330
2081A
100
AcDbEntity
  8
0
100
AcDbCircle
 10
203.0501323982305
 20
92.22500000000004
 30
0.0
 40
0.5
100
AcDbArc
 50
90.0
 51
179.9848029414341
1001
QCAD
1000
reversed:1
  0
ARC
  5
2038B
330
2081A
100
AcDbEntity
  8
0
100
AcDbCircle
 10
203.0501323982305
 20
73.17500000000004
 30
0.0
 40
0.5
100
AcDbArc
 50
90.0
 51
179.9848029414341
1001
QCAD
1000
reversed:1
  0
ARC
  5
2038C
330
2081A
100
AcDbEntity
  8
0
100
AcDbCircle
 10
203.0501323982305
 20
54.12500000000004
 30
0.0
 40
0.5
100
AcDbArc
 50
90.0
 51
179.9848029414341
1001
QCAD
1000
reversed:1
  0
ARC
  5
2038D
330
2081A
100
AcDbEntity
  8
0
100
AcDbCircle
 10
203.0501323982305
 20
35.07500000000005
 30
0.0
 40
0.5
100
AcDbArc
 50
90.0
 51
179.9848029414341
1001
QCAD
1000
reversed:1
  0
ARC
  5
2038E
330
2081A
100
AcDbEntity
  8
0
100
AcDbCircle
 10
203.0501323982305
 20
16.02500000000006
 30
0.0
 40
0.5
100
AcDbArc
 50
90.0
 51
179.9848029414341
1001
QCAD
1000
reversed:1
  0
ARC
  5
203B2
330
2081A
100
AcDbEntity
  8
0
100
AcDbCircle
 10
222.1001323982304
 20
92.22499999999995
 30
0.0
 40
0.5
100
AcDbArc
 50
90.0
 51
179.9848029414341
1001
QCAD
1000
reversed:1
  0
ARC
  5
203B3
330
2081A
100
AcDbEntity
  8
0
100
AcDbCircle
 10
222.1001323982304
 20
73.17499999999995
 30
0.0
 40
0.5
100
AcDbArc
 50
90.0
 51
179.9848029414341
1001
QCAD
1000
reversed:1
  0
ARC
  5
203B4
330
2081A
100
AcDbEntity
  8
0
100
AcDbCircle
 10
222.1001323982304
 20
54.12499999999996
 30
0.0
 40
0.5
100
AcDbArc
 50
90.0
 51
179.9848029414341
1001
QCAD
1000
reversed:1
  0
ARC
  5
203B5
330
2081A
100
AcDbEntity
  8
0
100
AcDbCircle
 10
222.1001323982304
 20
35.07499999999996
 30
0.0
 40
0.5
100
AcDbArc
 50
90.0
 51
179.9848029414341
1001
QCAD
1000
reversed:1
  0
ARC
  5
203B6
330
2081A
100
AcDbEntity
  8
0
100
AcDbCircle
 10
222.1001323982304
 20
16.02499999999998
 30
0.0
 40
0.5
100
AcDbArc
 50
90.0
 51
179.9848029414341
1001
QCAD
1000
reversed:1
  0
ARC
  5
203DA
330
2081A
100
AcDbEntity
  8
0
100
AcDbCircle
 10
241.1501323982304
 20
92.22500000000004
 30
0.0
 40
0.5
100
AcDbArc
 50
90.0
 51
179.9848029414341
1001
QCAD
1000
reversed:1
  0
ARC
  5
203DB
330
2081A
100
AcDbEntity
  8
0
100
AcDbCircle
 10
241.1501323982304
 20
73.17500000000004
 30
0.0
 40
0.5
100
AcDbArc
 50
90.0
 51
179.9848029414341
1001
QCAD
1000
reversed:1
  0
ARC
  5
203DC
330
2081A
100
AcDbEntity
  8
0
100
AcDbCircle
 10
241.1501323982304
 20
54.12500000000004
 30
0.0
 40
0.5
100
AcDbArc
 50
90.0
 51
179.9848029414341
1001
QCAD
1000
reversed:1
  0
ARC
  5
203DD
330
2081A
100
AcDbEntity
  8
0
100
AcDbCircle
 10
241.1501323982304
 20
35.07500000000005
 30
0.0
 40
0.5
100
AcDbArc
 50
90.0
 51
179.9848029414341
1001
QCAD
1000
reversed:1
  0
ARC
  5
203DE
330
2081A
100
AcDbEntity
  8
0
100
AcDbCircle
 10
241.1501323982304
 20
16.02500000000006
 30
0.0
 40
0.5
100
AcDbArc
 50
90.0
 51
179.9848029414341
1001
QCAD
1000
reversed:1
  0
ARC
  5
20402
330
2081A
100
AcDbEntity
  8
0
100
AcDbCircle
 10
264.9626323982304
 20
92.22499999999995
 30
0.0
 40
0.5
100
AcDbArc
 50
90.0
 51
179.9848029414341
1001
QCAD
1000
reversed:1
  0
ARC
  5
20403
330
2081A
100
AcDbEntity
  8
0
100
AcDbCircle
 10
264.9626323982304
 20
73.17499999999995
 30
0.0
 40
0.5
100
AcDbArc
 50
90.0
 51
179.9848029414341
1001
QCAD
1000
reversed:1
  0
ARC
  5
20404
330
2081A
100
AcDbEntity
  8
0
100
AcDbCircle
 10
264.9626323982304
 20
54.12499999999996
 30
0.0
 40
0.5
100
AcDbArc
 50
90.0
 51
179.9848029414341
1001
QCAD
1000
reversed:1
  0
ARC
  5
20405
330
2081A
100
AcDbEntity
  8
0
100
AcDbCircle
 10
264.9626323982304
 20
35.07499999999996
 30
0.0
 40
0.5
100
AcDbArc
 50
90.0
 51
179.9848029414341
1001
QCAD
1000
reversed:1
  0
ARC
  5
20406
330
2081A
100
AcDbEntity
  8
0
100
AcDbCircle
 10
264.9626323982304
 20
16.02499999999998
 30
0.0
 40
0.5
100
AcDbArc
 50
90.0
 51
179.9848029414341
1001
QCAD
1000
reversed:1
  0
ARC
  5
201EB
330
2081A
100
AcDbEntity
  8
0
100
AcDbCircle
 10
20.78736760176954
 20
92.22500000000001
 30
0.0
 40
0.5
100
AcDbArc
 50
0.0151970585658567
 51
90.0
1001
QCAD
1000
reversed:1
  0
ARC
  5
201F3
330
2081A
100
AcDbEntity
  8
0
100
AcDbCircle
 10
20.78736760176954
 20
73.17500000000001
 30
0.0
 40
0.5
100
AcDbArc
 50
0.0151970585658567
 51
90.0
1001
QCAD
1000
reversed:1
  0
ARC
  5
201FB
330
2081A
100
AcDbEntity
  8
0
100
AcDbCircle
 10
20.78736760176954
 20
54.12500000000001
 30
0.0
 40
0.5
100
AcDbArc
 50
0.0151970585658567
 51
90.0
1001
QCAD
1000
reversed:1
  0
ARC
  5
20203
330
2081A
100
AcDbEntity
  8
0
100
AcDbCircle
 10
20.78736760176954
 20
35.07500000000002
 30
0.0
 40
0.5
100
AcDbArc
 50
0.0151970585658567
 51
90.0
1001
QCAD
1000
reversed:1
  0
ARC
  5
2020B
330
2081A
100
AcDbEntity
  8
0
100
AcDbCircle
 10
20.78736760176954
 20
16.02500000000003
 30
0.0
 40
0.5
100
AcDbArc
 50
0.0151970585658567
 51
90.0
1001
QCAD
1000
reversed:1
  0
ARC
  5
20227
330
2081A
100
AcDbEntity
  8
0
100
AcDbCircle
 10
44.59986760176953
 20
92.22500000000001
 30
0.0
 40
0.5
100
AcDbArc
 50
0.0151970585658567
 51
90.0
1001
QCAD
1000
reversed:1
  0
ARC
  5
20228
330
2081A
100
AcDbEntity
  8
0
100
AcDbCircle
 10
44.59986760176953
 20
73.17500000000001
 30
0.0
 40
0.5
100
AcDbArc
 50
0.0151970585658567
 51
90.0
1001
QCAD
1000
reversed:1
  0
ARC
  5
20229
330
2081A
100
AcDbEntity
  8
0
100
AcDbCircle
 10
44.59986760176953
 20
54.12500000000001
 30
0.0
 40
0.5
100
AcDbArc
 50
0.0151970585658567
 51
90.0
1001
QCAD
1000
reversed:1
  0
ARC
  5
2022A
330
2081A
100
AcDbEntity
  8
0
100
AcDbCircle
 10
44.59986760176953
 20
35.07500000000002
 30
0.0
 40
0.5
100
AcDbArc
 50
0.0151970585658567
 51
90.0
1001
QCAD
1000
reversed:1
  0
ARC
  5
2022B
330
2081A
100
AcDbEntity
  8
0
100
AcDbCircle
 10
44.59986760176953
 20
16.02500000000002
 30
0.0
 40
0.5
100
AcDbArc
 50
0.0151970585658567
 51
90.0
1001
QCAD
1000
reversed:1
  0
ARC
  5
2024F
330
2081A
100
AcDbEntity
  8
0
100
AcDbCircle
 10
63.64986760176954
 20
92.22500000000001
 30
0.0
 40
0.5
100
AcDbArc
 50
0.0151970585658567
 51
90.0
1001
QCAD
1000
reversed:1
  0
ARC
  5
20250
330
2081A
100
AcDbEntity
  8
0
100
AcDbCircle
 10
63.64986760176954
 20
73.17500000000001
 30
0.0
 40
0.5
100
AcDbArc
 50
0.0151970585658567
 51
90.0
1001
QCAD
1000
reversed:1
  0
ARC
  5
20251
330
2081A
100
AcDbEntity
  8
0
100
AcDbCircle
 10
63.64986760176954
 20
54.12500000000001
 30
0.0
 40
0.5
100
AcDbArc
 50
0.0151970585658567
 51
90.0
1001
QCAD
1000
reversed:1
  0
ARC
  5
20252
330
2081A
100
AcDbEntity
  8
0
100
AcDbCircle
 10
63.64986760176954
 20
35.07500000000002
 30
0.0
 40
0.5
100
AcDbArc
 50
0.0151970585658567
 51
90.0
1001
QCAD
1000
reversed:1
  0
ARC
  5
20253
330
2081A
100
AcDbEntity
  8
0
100
AcDbCircle
 10
63.64986760176954
 20
16.02500000000002
 30
0.0
 40
0.5
100
AcDbArc
 50
0.0151970585658567
 51
90.0
1001
QCAD
1000
reversed:1
  0
ARC
  5
20277
330
2081A
100
AcDbEntity
  8
0
100
AcDbCircle
 10
82.69986760176954
 20
92.22500000000002
 30
0.0
 40
0.5
100
AcDbArc
 50
0.0151970585658567
 51
90.0
1001
QCAD
1000
reversed:1
  0
ARC
  5
20278
330
2081A
100
AcDbEntity
  8
0
100
AcDbCircle
 10
82.69986760176954
 20
73.17500000000003
 30
0.0
 40
0.5
100
AcDbArc
 50
0.0151970585658567
 51
90.0
1001
QCAD
1000
reversed:1
  0
ARC
  5
20279
330
2081A
100
AcDbEntity
  8
0
100
AcDbCircle
 10
82.69986760176954
 20
54.12500000000003
 30
0.0
 40
0.5
100
AcDbArc
 50
0.0151970585658567
 51
90.0
1001
QCAD
1000
reversed:1
  0
ARC
  5
2027A
330
2081A
100
AcDbEntity
  8
0
100
AcDbCircle
 10
82.69986760176954
 20
35.07500000000003
 30
0.0
 40
0.5
100
AcDbArc
 50
0.0151970585658567
 51
90.0
1001
QCAD
1000
reversed:1
  0
ARC
  5
2027B
330
2081A
100
AcDbEntity
  8
0
100
AcDbCircle
 10
82.69986760176954
 20
16.02500000000003
 30
0.0
 40
0.5
100
AcDbArc
 50
0.0151970585658567
 51
90.0
1001
QCAD
1000
reversed:1
  0
ARC
  5
2029F
330
2081A
100
AcDbEntity
  8
0
100
AcDbCircle
 10
101.7498676017695
 20
92.22500000000001
 30
0.0
 40
0.5
100
AcDbArc
 50
0.0151970585658567
 51
90.0
1001
QCAD
1000
reversed:1
  0
ARC
  5
202A0
330
2081A
100
AcDbEntity
  8
0
100
AcDbCircle
 10
101.7498676017695
 20
73.17500000000001
 30
0.0
 40
0.5
100
AcDbArc
 50
0.0151970585658567
 51
90.0
1001
QCAD
1000
reversed:1
  0
ARC
  5
202A1
330
2081A
100
AcDbEntity
  8
0
100
AcDbCircle
 10
101.7498676017695
 20
54.12500000000001
 30
0.0
 40
0.5
100
AcDbArc
 50
0.0151970585658567
 51
90.0
1001
QCAD
1000
reversed:1
  0
ARC
  5
202A2
330
2081A
100
AcDbEntity
  8
0
100
AcDbCircle
 10
101.7498676017695
 20
35.07500000000002
 30
0.0
 40
0.5
100
AcDbArc
 50
0.0151970585658567
 51
90.0
1001
QCAD
1000
reversed:1
  0
ARC
  5
202C7
330
2081A
100
AcDbEntity
  8
0
100
AcDbCircle
 10
120.7998676017696
 20
92.22500000000005
 30
0.0
 40
0.5
100
AcDbArc
 50
0.0151970585658567
 51
90.0
1001
QCAD
1000
reversed:1
  0
ARC
  5
202C8
330
2081A
100
AcDbEntity
  8
0
100
AcDbCircle
 10
120.7998676017696
 20
73.17500000000005
 30
0.0
 40
0.5
100
AcDbArc
 50
0.0151970585658567
 51
90.0
1001
QCAD
1000
reversed:1
  0
ARC
  5
202C9
330
2081A
100
AcDbEntity
  8
0
100
AcDbCircle
 10
120.7998676017696
 20
54.12500000000006
 30
0.0
 40
0.5
100
AcDbArc
 50
0.0151970585658567
 51
90.0
1001
QCAD
1000
reversed:1
  0
ARC
  5
202CA
330
2081A
100
AcDbEntity
  8
0
100
AcDbCircle
 10
120.7998676017696
 20
35.07500000000006
 30
0.0
 40
0.5
100
AcDbArc
 50
0.0151970585658567
 51
90.0
1001
QCAD
1000
reversed:1
  0
ARC
  5
202EF
330
2081A
100
AcDbEntity
  8
0
100
AcDbCircle
 10
139.8498676017696
 20
92.22500000000005
 30
0.0
 40
0.5
100
AcDbArc
 50
0.0151970585658567
 51
90.0
1001
QCAD
1000
reversed:1
  0
ARC
  5
20317
330
2081A
100
AcDbEntity
  8
0
100
AcDbCircle
 10
158.8998676017695
 20
92.22499999999994
 30
0.0
 40
0.5
100
AcDbArc
 50
0.0151970585658567
 51
90.0
1001
QCAD
1000
reversed:1
  0
ARC
  5
2033F
330
2081A
100
AcDbEntity
  8
0
100
AcDbCircle
 10
177.9498676017695
 20
92.22499999999997
 30
0.0
 40
0.5
100
AcDbArc
 50
0.0151970585658567
 51
90.0
1001
QCAD
1000
reversed:1
  0
ARC
  5
20340
330
2081A
100
AcDbEntity
  8
0
100
AcDbCircle
 10
177.9498676017695
 20
73.17499999999997
 30
0.0
 40
0.5
100
AcDbArc
 50
0.0151970585658567
 51
90.0
1001
QCAD
1000
reversed:1
  0
ARC
  5
20341
330
2081A
100
AcDbEntity
  8
0
100
AcDbCircle
 10
177.9498676017695
 20
54.12499999999997
 30
0.0
 40
0.5
100
AcDbArc
 50
0.0151970585658567
 51
90.0
1001
QCAD
1000
reversed:1
  0
ARC
  5
20342
330
2081A
100
AcDbEntity
  8
0
100
AcDbCircle
 10
177.9498676017695
 20
35.07499999999997
 30
0.0
 40
0.5
100
AcDbArc
 50
0.0151970585658567
 51
90.0
1001
QCAD
1000
reversed:1
  0
ARC
  5
20367
330
2081A
100
AcDbEntity
  8
0
100
AcDbCircle
 10
196.9998676017695
 20
92.22499999999997
 30
0.0
 40
0.5
100
AcDbArc
 50
0.0151970585658567
 51
90.0
1001
QCAD
1000
reversed:1
  0
ARC
  5
20368
330
2081A
100
AcDbEntity
  8
0
100
AcDbCircle
 10
196.9998676017695
 20
73.17499999999997
 30
0.0
 40
0.5
100
AcDbArc
 50
0.0151970585658567
 51
90.0
1001
QCAD
1000
reversed:1
  0
ARC
  5
20369
330
2081A
100
AcDbEntity
  8
0
100
AcDbCircle
 10
196.9998676017695
 20
54.12499999999997
 30
0.0
 40
0.5
100
AcDbArc
 50
0.0151970585658567
 51
90.0
1001
QCAD
1000
reversed:1
  0
ARC
  5
2036A
330
2081A
100
AcDbEntity
  8
0
100
AcDbCircle
 10
196.9998676017695
 20
35.07499999999997
 30
0.0
 40
0.5
100
AcDbArc
 50
0.0151970585658567
 51
90.0
1001
QCAD
1000
reversed:1
  0
ARC
  5
2038F
330
2081A
100
AcDbEntity
  8
0
100
AcDbCircle
 10
216.0498676017696
 20
92.22500000000005
 30
0.0
 40
0.5
100
AcDbArc
 50
0.0151970585658567
 51
90.0
1001
QCAD
1000
reversed:1
  0
ARC
  5
20390
330
2081A
100
AcDbEntity
  8
0
100
AcDbCircle
 10
216.0498676017696
 20
73.17500000000005
 30
0.0
 40
0.5
100
AcDbArc
 50
0.0151970585658567
 51
90.0
1001
QCAD
1000
reversed:1
  0
ARC
  5
20391
330
2081A
100
AcDbEntity
  8
0
100
AcDbCircle
 10
216.0498676017696
 20
54.12500000000006
 30
0.0
 40
0.5
100
AcDbArc
 50
0.0151970585658567
 51
90.0
1001
QCAD
1000
reversed:1
  0
ARC
  5
20392
330
2081A
100
AcDbEntity
  8
0
100
AcDbCircle
 10
216.0498676017696
 20
35.07500000000006
 30
0.0
 40
0.5
100
AcDbArc
 50
0.0151970585658567
 51
90.0
1001
QCAD
1000
reversed:1
  0
ARC
  5
20393
330
2081A
100
AcDbEntity
  8
0
100
AcDbCircle
 10
216.0498676017696
 20
16.02500000000006
 30
0.0
 40
0.5
100
AcDbArc
 50
0.0151970585658567
 51
90.0
1001
QCAD
1000
reversed:1
  0
ARC
  5
203B7
330
2081A
100
AcDbEntity
  8
0
100
AcDbCircle
 10
235.0998676017695
 20
92.22499999999997
 30
0.0
 40
0.5
100
AcDbArc
 50
0.0151970585658567
 51
90.0
1001
QCAD
1000
reversed:1
  0
ARC
  5
203B8
330
2081A
100
AcDbEntity
  8
0
100
AcDbCircle
 10
235.0998676017695
 20
73.17499999999997
 30
0.0
 40
0.5
100
AcDbArc
 50
0.0151970585658567
 51
90.0
1001
QCAD
1000
reversed:1
  0
ARC
  5
203B9
330
2081A
100
AcDbEntity
  8
0
100
AcDbCircle
 10
235.0998676017695
 20
54.12499999999997
 30
0.0
 40
0.5
100
AcDbArc
 50
0.0151970585658567
 51
90.0
1001
QCAD
1000
reversed:1
  0
ARC
  5
203BA
330
2081A
100
AcDbEntity
  8
0
100
AcDbCircle
 10
235.0998676017695
 20
35.07499999999997
 30
0.0
 40
0.5
100
AcDbArc
 50
0.0151970585658567
 51
90.0
1001
QCAD
1000
reversed:1
  0
ARC
  5
203BB
330
2081A
100
AcDbEntity
  8
0
100
AcDbCircle
 10
235.0998676017695
 20
16.02499999999998
 30
0.0
 40
0.5
100
AcDbArc
 50
0.0151970585658567
 51
90.0
1001
QCAD
1000
reversed:1
  0
ARC
  5
203DF
330
2081A
100
AcDbEntity
  8
0
100
AcDbCircle
 10
254.1498676017695
 20
92.22500000000005
 30
0.0
 40
0.5
100
AcDbArc
 50
0.0151970585658567
 51
90.0
1001
QCAD
1000
reversed:1
  0
ARC
  5
203E0
330
2081A
100
AcDbEntity
  8
0
100
AcDbCircle
 10
254.1498676017695
 20
73.17500000000005
 30
0.0
 40
0.5
100
AcDbArc
 50
0.0151970585658567
 51
90.0
1001
QCAD
1000
reversed:1
  0
ARC
  5
203E1
330
2081A
100
AcDbEntity
  8
0
100
AcDbCircle
 10
254.1498676017695
 20
54.12500000000006
 30
0.0
 40
0.5
100
AcDbArc
 50
0.0151970585658567
 51
90.0
1001
QCAD
1000
reversed:1
  0
ARC
  5
203E2
330
2081A
100
AcDbEntity
  8
0
100
AcDbCircle
 10
254.1498676017695
 20
35.07500000000006
 30
0.0
 40
0.5
100
AcDbArc
 50
0.0151970585658567
 51
90.0
1001
QCAD
1000
reversed:1
  0
ARC
  5
203E3
330
2081A
100
AcDbEntity
  8
0
100
AcDbCircle
 10
254.1498676017695
 20
16.02500000000006
 30
0.0
 40
0.5
100
AcDbArc
 50
0.0151970585658567
 51
90.0
1001
QCAD
1000
reversed:1
  0
ARC
  5
20407
330
2081A
100
AcDbEntity
  8
0
100
AcDbCircle
 10
277.9623676017695
 20
92.22499999999997
 30
0.0
 40
0.5
100
AcDbArc
 50
0.0151970585658567
 51
90.0
1001
QCAD
1000
reversed:1
  0
ARC
  5
20408
330
2081A
100
AcDbEntity
  8
0
100
AcDbCircle
 10
277.9623676017695
 20
73.17499999999997
 30
0.0
 40
0.5
100
AcDbArc
 50
0.0151970585658567
 51
90.0
1001
QCAD
1000
reversed:1
  0
ARC
  5
20409
330
2081A
100
AcDbEntity
  8
0
100
AcDbCircle
 10
277.9623676017695
 20
54.12499999999997
 30
0.0
 40
0.5
100
AcDbArc
 50
0.0151970585658567
 51
90.0
1001
QCAD
1000
reversed:1
  0
ARC
  5
2040A
330
2081A
100
AcDbEntity
  8
0
100
AcDbCircle
 10
277.9623676017695
 20
35.07499999999997
 30
0.0
 40
0.5
100
AcDbArc
 50
0.0151970585658567
 51
90.0
1001
QCAD
1000
reversed:1
  0
ARC
  5
2040B
330
2081A
100
AcDbEntity
  8
0
100
AcDbCircle
 10
277.9623676017695
 20
16.02499999999998
 30
0.0
 40
0.5
100
AcDbArc
 50
0.0151970585658567
 51
90.0
1001
QCAD
1000
reversed:1
  0
ARC
  5
201EC
330
2081A
100
AcDbEntity
  8
0
100
AcDbCircle
 10
20.79081551939525
 20
79.2257
 30
0.0
 40
0.5
100
AcDbArc
 50
270.0
 51
0.0151970585658567
1001
QCAD
1000
reversed:1
  0
ARC
  5
201F4
330
2081A
100
AcDbEntity
  8
0
100
AcDbCircle
 10
20.79081551939525
 20
60.17570000000001
 30
0.0
 40
0.5
100
AcDbArc
 50
270.0
 51
0.0151970585658567
1001
QCAD
1000
reversed:1
  0
ARC
  5
201FC
330
2081A
100
AcDbEntity
  8
0
100
AcDbCircle
 10
20.79081551939525
 20
41.12570000000001
 30
0.0
 40
0.5
100
AcDbArc
 50
270.0
 51
0.0151970585658567
1001
QCAD
1000
reversed:1
  0
ARC
  5
20204
330
2081A
100
AcDbEntity
  8
0
100
AcDbCircle
 10
20.79081551939525
 20
22.07570000000001
 30
0.0
 40
0.5
100
AcDbArc
 50
270.0
 51
0.0151970585658567
1001
QCAD
1000
reversed:1
  0
ARC
  5
2020C
330
2081A
100
AcDbEntity
  8
0
100
AcDbCircle
 10
20.79081551939525
 20
3.025700000000022
 30
0.0
 40
0.5
100
AcDbArc
 50
270.0
 51
0.0151970585658567
1001
QCAD
1000
reversed:1
  0
ARC
  5
2022C
330
2081A
100
AcDbEntity
  8
0
100
AcDbCircle
 10
44.60331551939525
 20
79.2257
 30
0.0
 40
0.5
100
AcDbArc
 50
270.0
 51
0.0151970585658567
1001
QCAD
1000
reversed:1
  0
ARC
  5
2022D
330
2081A
100
AcDbEntity
  8
0
100
AcDbCircle
 10
44.60331551939525
 20
60.17570000000001
 30
0.0
 40
0.5
100
AcDbArc
 50
270.0
 51
0.0151970585658567
1001
QCAD
1000
reversed:1
  0
ARC
  5
2022E
330
2081A
100
AcDbEntity
  8
0
100
AcDbCircle
 10
44.60331551939525
 20
41.12570000000001
 30
0.0
 40
0.5
100
AcDbArc
 50
270.0
 51
0.0151970585658567
1001
QCAD
1000
reversed:1
  0
ARC
  5
2022F
330
2081A
100
AcDbEntity
  8
0
100
AcDbCircle
 10
44.60331551939525
 20
22.07570000000001
 30
0.0
 40
0.5
100
AcDbArc
 50
270.0
 51
0.0151970585658567
1001
QCAD
1000
reversed:1
  0
ARC
  5
20230
330
2081A
100
AcDbEntity
  8
0
100
AcDbCircle
 10
44.60331551939525
 20
3.025700000000015
 30
0.0
 40
0.5
100
AcDbArc
 50
270.0
 51
0.0151970585658567
1001
QCAD
1000
reversed:1
  0
ARC
  5
20254
330
2081A
100
AcDbEntity
  8
0
100
AcDbCircle
 10
63.65331551939525
 20
79.2257
 30
0.0
 40
0.5
100
AcDbArc
 50
270.0
 51
0.0151970585658567
1001
QCAD
1000
reversed:1
  0
ARC
  5
20255
330
2081A
100
AcDbEntity
  8
0
100
AcDbCircle
 10
63.65331551939525
 20
60.17570000000001
 30
0.0
 40
0.5
100
AcDbArc
 50
270.0
 51
0.0151970585658567
1001
QCAD
1000
reversed:1
  0
ARC
  5
20256
330
2081A
100
AcDbEntity
  8
0
100
AcDbCircle
 10
63.65331551939525
 20
41.12570000000001
 30
0.0
 40
0.5
100
AcDbArc
 50
270.0
 51
0.0151970585658567
1001
QCAD
1000
reversed:1
  0
ARC
  5
20257
330
2081A
100
AcDbEntity
  8
0
100
AcDbCircle
 10
63.65331551939525
 20
22.07570000000001
 30
0.0
 40
0.5
100
AcDbArc
 50
270.0
 51
0.0151970585658567
1001
QCAD
1000
reversed:1
  0
ARC
  5
20258
330
2081A
100
AcDbEntity
  8
0
100
AcDbCircle
 10
63.65331551939525
 20
3.025700000000015
 30
0.0
 40
0.5
100
AcDbArc
 50
270.0
 51
0.0151970585658567
1001
QCAD
1000
reversed:1
  0
ARC
  5
2027C
330
2081A
100
AcDbEntity
  8
0
100
AcDbCircle
 10
82.70331551939525
 20
79.22570000000002
 30
0.0
 40
0.5
100
AcDbArc
 50
270.0
 51
0.0151970585658567
1001
QCAD
1000
reversed:1
  0
ARC
  5
2027D
330
2081A
100
AcDbEntity
  8
0
100
AcDbCircle
 10
82.70331551939525
 20
60.17570000000002
 30
0.0
 40
0.5
100
AcDbArc
 50
270.0
 51
0.0151970585658567
1001
QCAD
1000
reversed:1
  0
ARC
  5
2027E
330
2081A
100
AcDbEntity
  8
0
100
AcDbCircle
 10
82.70331551939525
 20
41.12570000000002
 30
0.0
 40
0.5
100
AcDbArc
 50
270.0
 51
0.0151970585658567
1001
QCAD
1000
reversed:1
  0
ARC
  5
2027F
330
2081A
100
AcDbEntity
  8
0
100
AcDbCircle
 10
82.70331551939525
 20
22.07570000000003
 30
0.0
 40
0.5
100
AcDbArc
 50
270.0
 51
0.0151970585658567
1001
QCAD
1000
reversed:1
  0
ARC
  5
20280
330
2081A
100
AcDbEntity
  8
0
100
AcDbCircle
 10
82.70331551939525
 20
3.025700000000029
 30
0.0
 40
0.5
100
AcDbArc
 50
270.0
 51
0.0151970585658567
1001
QCAD
1000
reversed:1
  0
ARC
  5
202A4
330
2081A
100
AcDbEntity
  8
0
100
AcDbCircle
 10
101.7533155193952
 20
79.2257
 30
0.0
 40
0.5
100
AcDbArc
 50
270.0
 51
0.0151970585658567
1001
QCAD
1000
reversed:1
  0
ARC
  5
202A5
330
2081A
100
AcDbEntity
  8
0
100
AcDbCircle
 10
101.7533155193952
 20
60.17570000000001
 30
0.0
 40
0.5
100
AcDbArc
 50
270.0
 51
0.0151970585658567
1001
QCAD
1000
reversed:1
  0
ARC
  5
202A6
330
2081A
100
AcDbEntity
  8
0
100
AcDbCircle
 10
101.7533155193952
 20
41.12570000000001
 30
0.0
 40
0.5
100
AcDbArc
 50
270.0
 51
0.0151970585658567
1001
QCAD
1000
reversed:1
  0
ARC
  5
202A7
330
2081A
100
AcDbEntity
  8
0
100
AcDbCircle
 10
101.7533155193952
 20
22.07570000000001
 30
0.0
 40
0.5
100
AcDbArc
 50
270.0
 51
0.0151970585658567
1001
QCAD
1000
reversed:1
  0
ARC
  5
202CC
330
2081A
100
AcDbEntity
  8
0
100
AcDbCircle
 10
120.8033155193953
 20
79.22570000000005
 30
0.0
 40
0.5
100
AcDbArc
 50
270.0
 51
0.0151970585658567
1001
QCAD
1000
reversed:1
  0
ARC
  5
202CD
330
2081A
100
AcDbEntity
  8
0
100
AcDbCircle
 10
120.8033155193953
 20
60.17570000000005
 30
0.0
 40
0.5
100
AcDbArc
 50
270.0
 51
0.0151970585658567
1001
QCAD
1000
reversed:1
  0
ARC
  5
202CE
330
2081A
100
AcDbEntity
  8
0
100
AcDbCircle
 10
120.8033155193953
 20
41.12570000000005
 30
0.0
 40
0.5
100
AcDbArc
 50
270.0
 51
0.0151970585658567
1001
QCAD
1000
reversed:1
  0
ARC
  5
202CF
330
2081A
100
AcDbEntity
  8
0
100
AcDbCircle
 10
120.8033155193953
 20
22.07570000000005
 30
0.0
 40
0.5
100
AcDbArc
 50
270.0
 51
0.0151970585658567
1001
QCAD
1000
reversed:1
  0
ARC
  5
202F4
330
2081A
100
AcDbEntity
  8
0
100
AcDbCircle
 10
139.8533155193953
 20
79.22570000000005
 30
0.0
 40
0.5
100
AcDbArc
 50
270.0
 51
0.0151970585658567
1001
QCAD
1000
reversed:1
  0
ARC
  5
2031C
330
2081A
100
AcDbEntity
  8
0
100
AcDbCircle
 10
158.9033155193952
 20
79.22569999999993
 30
0.0
 40
0.5
100
AcDbArc
 50
270.0
 51
0.0151970585658567
1001
QCAD
1000
reversed:1
  0
ARC
  5
20344
330
2081A
100
AcDbEntity
  8
0
100
AcDbCircle
 10
177.9533155193952
 20
79.22569999999996
 30
0.0
 40
0.5
100
AcDbArc
 50
270.0
 51
0.0151970585658567
1001
QCAD
1000
reversed:1
  0
ARC
  5
20345
330
2081A
100
AcDbEntity
  8
0
100
AcDbCircle
 10
177.9533155193952
 20
60.17569999999996
 30
0.0
 40
0.5
100
AcDbArc
 50
270.0
 51
0.0151970585658567
1001
QCAD
1000
reversed:1
  0
ARC
  5
20346
330
2081A
100
AcDbEntity
  8
0
100
AcDbCircle
 10
177.9533155193952
 20
41.12569999999997
 30
0.0
 40
0.5
100
AcDbArc
 50
270.0
 51
0.0151970585658567
1001
QCAD
1000
reversed:1
  0
ARC
  5
20347
330
2081A
100
AcDbEntity
  8
0
100
AcDbCircle
 10
177.9533155193952
 20
22.07569999999997
 30
0.0
 40
0.5
100
AcDbArc
 50
270.0
 51
0.0151970585658567
1001
QCAD
1000
reversed:1
  0
ARC
  5
2036C
330
2081A
100
AcDbEntity
  8
0
100
AcDbCircle
 10
197.0033155193952
 20
79.22569999999996
 30
0.0
 40
0.5
100
AcDbArc
 50
270.0
 51
0.0151970585658567
1001
QCAD
1000
reversed:1
  0
ARC
  5
2036D
330
2081A
100
AcDbEntity
  8
0
100
AcDbCircle
 10
197.0033155193952
 20
60.17569999999996
 30
0.0
 40
0.5
100
AcDbArc
 50
270.0
 51
0.0151970585658567
1001
QCAD
1000
reversed:1
  0
ARC
  5
2036E
330
2081A
100
AcDbEntity
  8
0
100
AcDbCircle
 10
197.0033155193952
 20
41.12569999999997
 30
0.0
 40
0.5
100
AcDbArc
 50
270.0
 51
0.0151970585658567
1001
QCAD
1000
reversed:1
  0
ARC
  5
2036F
330
2081A
100
AcDbEntity
  8
0
100
AcDbCircle
 10
197.0033155193952
 20
22.07569999999997
 30
0.0
 40
0.5
100
AcDbArc
 50
270.0
 51
0.0151970585658567
1001
QCAD
1000
reversed:1
  0
ARC
  5
20394
330
2081A
100
AcDbEntity
  8
0
100
AcDbCircle
 10
216.0533155193953
 20
79.22570000000005
 30
0.0
 40
0.5
100
AcDbArc
 50
270.0
 51
0.0151970585658567
1001
QCAD
1000
reversed:1
  0
ARC
  5
20395
330
2081A
100
AcDbEntity
  8
0
100
AcDbCircle
 10
216.0533155193953
 20
60.17570000000005
 30
0.0
 40
0.5
100
AcDbArc
 50
270.0
 51
0.0151970585658567
1001
QCAD
1000
reversed:1
  0
ARC
  5
20396
330
2081A
100
AcDbEntity
  8
0
100
AcDbCircle
 10
216.0533155193953
 20
41.12570000000005
 30
0.0
 40
0.5
100
AcDbArc
 50
270.0
 51
0.0151970585658567
1001
QCAD
1000
reversed:1
  0
ARC
  5
20397
330
2081A
100
AcDbEntity
  8
0
100
AcDbCircle
 10
216.0533155193953
 20
22.07570000000005
 30
0.0
 40
0.5
100
AcDbArc
 50
270.0
 51
0.0151970585658567
1001
QCAD
1000
reversed:1
  0
ARC
  5
20398
330
2081A
100
AcDbEntity
  8
0
100
AcDbCircle
 10
216.0533155193953
 20
3.025700000000057
 30
0.0
 40
0.5
100
AcDbArc
 50
270.0
 51
0.0151970585658567
1001
QCAD
1000
reversed:1
  0
ARC
  5
203BC
330
2081A
100
AcDbEntity
  8
0
100
AcDbCircle
 10
235.1033155193952
 20
79.22569999999996
 30
0.0
 40
0.5
100
AcDbArc
 50
270.0
 51
0.0151970585658567
1001
QCAD
1000
reversed:1
  0
ARC
  5
203BD
330
2081A
100
AcDbEntity
  8
0
100
AcDbCircle
 10
235.1033155193952
 20
60.17569999999996
 30
0.0
 40
0.5
100
AcDbArc
 50
270.0
 51
0.0151970585658567
1001
QCAD
1000
reversed:1
  0
ARC
  5
203BE
330
2081A
100
AcDbEntity
  8
0
100
AcDbCircle
 10
235.1033155193952
 20
41.12569999999997
 30
0.0
 40
0.5
100
AcDbArc
 50
270.0
 51
0.0151970585658567
1001
QCAD
1000
reversed:1
  0
ARC
  5
203BF
330
2081A
100
AcDbEntity
  8
0
100
AcDbCircle
 10
235.1033155193952
 20
22.07569999999997
 30
0.0
 40
0.5
100
AcDbArc
 50
270.0
 51
0.0151970585658567
1001
QCAD
1000
reversed:1
  0
ARC
  5
203C0
330
2081A
100
AcDbEntity
  8
0
100
AcDbCircle
 10
235.1033155193952
 20
3.025699999999972
 30
0.0
 40
0.5
100
AcDbArc
 50
270.0
 51
0.0151970585658567
1001
QCAD
1000
reversed:1
  0
ARC
  5
203E4
330
2081A
100
AcDbEntity
  8
0
100
AcDbCircle
 10
254.1533155193952
 20
79.22570000000005
 30
0.0
 40
0.5
100
AcDbArc
 50
270.0
 51
0.0151970585658567
1001
QCAD
1000
reversed:1
  0
ARC
  5
203E5
330
2081A
100
AcDbEntity
  8
0
100
AcDbCircle
 10
254.1533155193952
 20
60.17570000000005
 30
0.0
 40
0.5
100
AcDbArc
 50
270.0
 51
0.0151970585658567
1001
QCAD
1000
reversed:1
  0
ARC
  5
203E6
330
2081A
100
AcDbEntity
  8
0
100
AcDbCircle
 10
254.1533155193952
 20
41.12570000000005
 30
0.0
 40
0.5
100
AcDbArc
 50
270.0
 51
0.0151970585658567
1001
QCAD
1000
reversed:1
  0
ARC
  5
203E7
330
2081A
100
AcDbEntity
  8
0
100
AcDbCircle
 10
254.1533155193952
 20
22.07570000000005
 30
0.0
 40
0.5
100
AcDbArc
 50
270.0
 51
0.0151970585658567
1001
QCAD
1000
reversed:1
  0
ARC
  5
203E8
330
2081A
100
AcDbEntity
  8
0
100
AcDbCircle
 10
254.1533155193952
 20
3.025700000000057
 30
0.0
 40
0.5
100
AcDbArc
 50
270.0
 51
0.0151970585658567
1001
QCAD
1000
reversed:1
  0
ARC
  5
2040C
330
2081A
100
AcDbEntity
  8
0
100
AcDbCircle
 10
277.9658155193952
 20
79.22569999999996
 30
0.0
 40
0.5
100
AcDbArc
 50
270.0
 51
0.0151970585658567
1001
QCAD
1000
reversed:1
  0
ARC
  5
2040D
330
2081A
100
AcDbEntity
  8
0
100
AcDbCircle
 10
277.9658155193952
 20
60.17569999999996
 30
0.0
 40
0.5
100
AcDbArc
 50
270.0
 51
0.0151970585658567
1001
QCAD
1000
reversed:1
  0
ARC
  5
2040E
330
2081A
100
AcDbEntity
  8
0
100
AcDbCircle
 10
277.9658155193952
 20
41.12569999999997
 30
0.0
 40
0.5
100
AcDbArc
 50
270.0
 51
0.0151970585658567
1001
QCAD
1000
reversed:1
  0
ARC
  5
2040F
330
2081A
100
AcDbEntity
  8
0
100
AcDbCircle
 10
277.9658155193952
 20
22.07569999999997
 30
0.0
 40
0.5
100
AcDbArc
 50
270.0
 51
0.0151970585658567
1001
QCAD
1000
reversed:1
  0
ARC
  5
20410
330
2081A
100
AcDbEntity
  8
0
100
AcDbCircle
 10
277.9658155193952
 20
3.025699999999972
 30
0.0
 40
0.5
100
AcDbArc
 50
270.0
 51
0.0151970585658567
1001
QCAD
1000
reversed:1
  0
ARC
  5
201ED
330
2081A
100
AcDbEntity
  8
0
100
AcDbCircle
 10
7.784184480604577
 20
79.22569999999999
 30
0.0
 40
0.5
100
AcDbArc
 50
179.9848029414341
 51
270.0000000000001
1001
QCAD
1000
reversed:1
  0
ARC
  5
201F5
330
2081A
100
AcDbEntity
  8
0
100
AcDbCircle
 10
7.784184480604577
 20
60.17569999999999
 30
0.0
 40
0.5
100
AcDbArc
 50
179.9848029414341
 51
270.0000000000001
1001
QCAD
1000
reversed:1
  0
ARC
  5
201FD
330
2081A
100
AcDbEntity
  8
0
100
AcDbCircle
 10
7.784184480604577
 20
41.12569999999999
 30
0.0
 40
0.5
100
AcDbArc
 50
179.9848029414341
 51
270.0000000000001
1001
QCAD
1000
reversed:1
  0
ARC
  5
20205
330
2081A
100
AcDbEntity
  8
0
100
AcDbCircle
 10
7.784184480604577
 20
22.0757
 30
0.0
 40
0.5
100
AcDbArc
 50
179.9848029414341
 51
270.0000000000001
1001
QCAD
1000
reversed:1
  0
ARC
  5
2020D
330
2081A
100
AcDbEntity
  8
0
100
AcDbCircle
 10
7.784184480604577
 20
3.025700000000008
 30
0.0
 40
0.5
100
AcDbArc
 50
179.9848029414341
 51
270.0000000000001
1001
QCAD
1000
reversed:1
  0
ARC
  5
20231
330
2081A
100
AcDbEntity
  8
0
100
AcDbCircle
 10
31.59668448060457
 20
79.22569999999999
 30
0.0
 40
0.5
100
AcDbArc
 50
179.9848029414341
 51
270.0000000000001
1001
QCAD
1000
reversed:1
  0
ARC
  5
20232
330
2081A
100
AcDbEntity
  8
0
100
AcDbCircle
 10
31.59668448060457
 20
60.17569999999999
 30
0.0
 40
0.5
100
AcDbArc
 50
179.9848029414341
 51
270.0000000000001
1001
QCAD
1000
reversed:1
  0
ARC
  5
20233
330
2081A
100
AcDbEntity
  8
0
100
AcDbCircle
 10
31.59668448060457
 20
41.12569999999999
 30
0.0
 40
0.5
100
AcDbArc
 50
179.9848029414341
 51
270.0000000000001
1001
QCAD
1000
reversed:1
  0
ARC
  5
20234
330
2081A
100
AcDbEntity
  8
0
100
AcDbCircle
 10
31.59668448060457
 20
22.0757
 30
0.0
 40
0.5
100
AcDbArc
 50
179.9848029414341
 51
270.0000000000001
1001
QCAD
1000
reversed:1
  0
ARC
  5
20235
330
2081A
100
AcDbEntity
  8
0
100
AcDbCircle
 10
31.59668448060457
 20
3.025700000000015
 30
0.0
 40
0.5
100
AcDbArc
 50
179.9848029414341
 51
270.0000000000001
1001
QCAD
1000
reversed:1
  0
ARC
  5
20259
330
2081A
100
AcDbEntity
  8
0
100
AcDbCircle
 10
50.64668448060458
 20
79.22569999999999
 30
0.0
 40
0.5
100
AcDbArc
 50
179.9848029414341
 51
270.0000000000001
1001
QCAD
1000
reversed:1
  0
ARC
  5
2025A
330
2081A
100
AcDbEntity
  8
0
100
AcDbCircle
 10
50.64668448060458
 20
60.17569999999999
 30
0.0
 40
0.5
100
AcDbArc
 50
179.9848029414341
 51
270.0000000000001
1001
QCAD
1000
reversed:1
  0
ARC
  5
2025B
330
2081A
100
AcDbEntity
  8
0
100
AcDbCircle
 10
50.64668448060458
 20
41.12569999999999
 30
0.0
 40
0.5
100
AcDbArc
 50
179.9848029414341
 51
270.0000000000001
1001
QCAD
1000
reversed:1
  0
ARC
  5
2025C
330
2081A
100
AcDbEntity
  8
0
100
AcDbCircle
 10
50.64668448060458
 20
22.0757
 30
0.0
 40
0.5
100
AcDbArc
 50
179.9848029414341
 51
270.0000000000001
1001
QCAD
1000
reversed:1
  0
ARC
  5
2025D
330
2081A
100
AcDbEntity
  8
0
100
AcDbCircle
 10
50.64668448060458
 20
3.025700000000015
 30
0.0
 40
0.5
100
AcDbArc
 50
179.9848029414341
 51
270.0000000000001
1001
QCAD
1000
reversed:1
  0
ARC
  5
20281
330
2081A
100
AcDbEntity
  8
0
100
AcDbCircle
 10
69.69668448060457
 20
79.2257
 30
0.0
 40
0.5
100
AcDbArc
 50
179.9848029414341
 51
270.0000000000001
1001
QCAD
1000
reversed:1
  0
ARC
  5
20282
330
2081A
100
AcDbEntity
  8
0
100
AcDbCircle
 10
69.69668448060457
 20
60.17570000000001
 30
0.0
 40
0.5
100
AcDbArc
 50
179.9848029414341
 51
270.0000000000001
1001
QCAD
1000
reversed:1
  0
ARC
  5
20283
330
2081A
100
AcDbEntity
  8
0
100
AcDbCircle
 10
69.69668448060457
 20
41.12570000000001
 30
0.0
 40
0.5
100
AcDbArc
 50
179.9848029414341
 51
270.0000000000001
1001
QCAD
1000
reversed:1
  0
ARC
  5
20284
330
2081A
100
AcDbEntity
  8
0
100
AcDbCircle
 10
69.69668448060457
 20
22.07570000000001
 30
0.0
 40
0.5
100
AcDbArc
 50
179.9848029414341
 51
270.0000000000001
1001
QCAD
1000
reversed:1
  0
ARC
  5
20285
330
2081A
100
AcDbEntity
  8
0
100
AcDbCircle
 10
69.69668448060457
 20
3.025700000000029
 30
0.0
 40
0.5
100
AcDbArc
 50
179.9848029414341
 51
270.0000000000001
1001
QCAD
1000
reversed:1
  0
ARC
  5
202A9
330
2081A
100
AcDbEntity
  8
0
100
AcDbCircle
 10
88.74668448060457
 20
79.22569999999999
 30
0.0
 40
0.5
100
AcDbArc
 50
179.9848029414341
 51
270.0000000000001
1001
QCAD
1000
reversed:1
  0
ARC
  5
202AA
330
2081A
100
AcDbEntity
  8
0
100
AcDbCircle
 10
88.74668448060457
 20
60.17569999999999
 30
0.0
 40
0.5
100
AcDbArc
 50
179.9848029414341
 51
270.0000000000001
1001
QCAD
1000
reversed:1
  0
ARC
  5
202AB
330
2081A
100
AcDbEntity
  8
0
100
AcDbCircle
 10
88.74668448060457
 20
41.12569999999999
 30
0.0
 40
0.5
100
AcDbArc
 50
179.9848029414341
 51
270.0000000000001
1001
QCAD
1000
reversed:1
  0
ARC
  5
202AC
330
2081A
100
AcDbEntity
  8
0
100
AcDbCircle
 10
88.74668448060457
 20
22.0757
 30
0.0
 40
0.5
100
AcDbArc
 50
179.9848029414341
 51
270.0000000000001
1001
QCAD
1000
reversed:1
  0
ARC
  5
202D1
330
2081A
100
AcDbEntity
  8
0
100
AcDbCircle
 10
107.7966844806046
 20
79.22570000000003
 30
0.0
 40
0.5
100
AcDbArc
 50
179.9848029414341
 51
270.0000000000001
1001
QCAD
1000
reversed:1
  0
ARC
  5
202D2
330
2081A
100
AcDbEntity
  8
0
100
AcDbCircle
 10
107.7966844806046
 20
60.17570000000003
 30
0.0
 40
0.5
100
AcDbArc
 50
179.9848029414341
 51
270.0000000000001
1001
QCAD
1000
reversed:1
  0
ARC
  5
202D3
330
2081A
100
AcDbEntity
  8
0
100
AcDbCircle
 10
107.7966844806046
 20
41.12570000000004
 30
0.0
 40
0.5
100
AcDbArc
 50
179.9848029414341
 51
270.0000000000001
1001
QCAD
1000
reversed:1
  0
ARC
  5
202D4
330
2081A
100
AcDbEntity
  8
0
100
AcDbCircle
 10
107.7966844806046
 20
22.07570000000004
 30
0.0
 40
0.5
100
AcDbArc
 50
179.9848029414341
 51
270.0000000000001
1001
QCAD
1000
reversed:1
  0
ARC
  5
202F9
330
2081A
100
AcDbEntity
  8
0
100
AcDbCircle
 10
126.8466844806046
 20
79.22570000000003
 30
0.0
 40
0.5
100
AcDbArc
 50
179.9848029414341
 51
270.0000000000001
1001
QCAD
1000
reversed:1
  0
ARC
  5
20321
330
2081A
100
AcDbEntity
  8
0
100
AcDbCircle
 10
145.8966844806045
 20
79.22569999999992
 30
0.0
 40
0.5
100
AcDbArc
 50
179.9848029414341
 51
270.0000000000001
1001
QCAD
1000
reversed:1
  0
ARC
  5
20349
330
2081A
100
AcDbEntity
  8
0
100
AcDbCircle
 10
164.9466844806045
 20
79.22569999999995
 30
0.0
 40
0.5
100
AcDbArc
 50
179.9848029414341
 51
270.0000000000001
1001
QCAD
1000
reversed:1
  0
ARC
  5
2034A
330
2081A
100
AcDbEntity
  8
0
100
AcDbCircle
 10
164.9466844806045
 20
60.17569999999995
 30
0.0
 40
0.5
100
AcDbArc
 50
179.9848029414341
 51
270.0000000000001
1001
QCAD
1000
reversed:1
  0
ARC
  5
2034B
330
2081A
100
AcDbEntity
  8
0
100
AcDbCircle
 10
164.9466844806045
 20
41.12569999999995
 30
0.0
 40
0.5
100
AcDbArc
 50
179.9848029414341
 51
270.0000000000001
1001
QCAD
1000
reversed:1
  0
ARC
  5
2034C
330
2081A
100
AcDbEntity
  8
0
100
AcDbCircle
 10
164.9466844806045
 20
22.07569999999996
 30
0.0
 40
0.5
100
AcDbArc
 50
179.9848029414341
 51
270.0000000000001
1001
QCAD
1000
reversed:1
  0
ARC
  5
20371
330
2081A
100
AcDbEntity
  8
0
100
AcDbCircle
 10
183.9966844806045
 20
79.22569999999995
 30
0.0
 40
0.5
100
AcDbArc
 50
179.9848029414341
 51
270.0000000000001
1001
QCAD
1000
reversed:1
  0
ARC
  5
20372
330
2081A
100
AcDbEntity
  8
0
100
AcDbCircle
 10
183.9966844806045
 20
60.17569999999995
 30
0.0
 40
0.5
100
AcDbArc
 50
179.9848029414341
 51
270.0000000000001
1001
QCAD
1000
reversed:1
  0
ARC
  5
20373
330
2081A
100
AcDbEntity
  8
0
100
AcDbCircle
 10
183.9966844806045
 20
41.12569999999995
 30
0.0
 40
0.5
100
AcDbArc
 50
179.9848029414341
 51
270.0000000000001
1001
QCAD
1000
reversed:1
  0
ARC
  5
20374
330
2081A
100
AcDbEntity
  8
0
100
AcDbCircle
 10
183.9966844806045
 20
22.07569999999996
 30
0.0
 40
0.5
100
AcDbArc
 50
179.9848029414341
 51
270.0000000000001
1001
QCAD
1000
reversed:1
  0
ARC
  5
20399
330
2081A
100
AcDbEntity
  8
0
100
AcDbCircle
 10
203.0466844806046
 20
79.22570000000003
 30
0.0
 40
0.5
100
AcDbArc
 50
179.9848029414341
 51
270.0000000000001
1001
QCAD
1000
reversed:1
  0
ARC
  5
2039A
330
2081A
100
AcDbEntity
  8
0
100
AcDbCircle
 10
203.0466844806046
 20
60.17570000000003
 30
0.0
 40
0.5
100
AcDbArc
 50
179.9848029414341
 51
270.0000000000001
1001
QCAD
1000
reversed:1
  0
ARC
  5
2039B
330
2081A
100
AcDbEntity
  8
0
100
AcDbCircle
 10
203.0466844806046
 20
41.12570000000004
 30
0.0
 40
0.5
100
AcDbArc
 50
179.9848029414341
 51
270.0000000000001
1001
QCAD
1000
reversed:1
  0
ARC
  5
2039C
330
2081A
100
AcDbEntity
  8
0
100
AcDbCircle
 10
203.0466844806046
 20
22.07570000000004
 30
0.0
 40
0.5
100
AcDbArc
 50
179.9848029414341
 51
270.0000000000001
1001
QCAD
1000
reversed:1
  0
ARC
  5
2039D
330
2081A
100
AcDbEntity
  8
0
100
AcDbCircle
 10
203.0466844806046
 20
3.025700000000057
 30
0.0
 40
0.5
100
AcDbArc
 50
179.9848029414341
 51
270.0000000000001
1001
QCAD
1000
reversed:1
  0
ARC
  5
203C1
330
2081A
100
AcDbEntity
  8
0
100
AcDbCircle
 10
222.0966844806045
 20
79.22569999999995
 30
0.0
 40
0.5
100
AcDbArc
 50
179.9848029414341
 51
270.0000000000001
1001
QCAD
1000
reversed:1
  0
ARC
  5
203C2
330
2081A
100
AcDbEntity
  8
0
100
AcDbCircle
 10
222.0966844806045
 20
60.17569999999995
 30
0.0
 40
0.5
100
AcDbArc
 50
179.9848029414341
 51
270.0000000000001
1001
QCAD
1000
reversed:1
  0
ARC
  5
203C3
330
2081A
100
AcDbEntity
  8
0
100
AcDbCircle
 10
222.0966844806045
 20
41.12569999999995
 30
0.0
 40
0.5
100
AcDbArc
 50
179.9848029414341
 51
270.0000000000001
1001
QCAD
1000
reversed:1
  0
ARC
  5
203C4
330
2081A
100
AcDbEntity
  8
0
100
AcDbCircle
 10
222.0966844806045
 20
22.07569999999996
 30
0.0
 40
0.5
100
AcDbArc
 50
179.9848029414341
 51
270.0000000000001
1001
QCAD
1000
reversed:1
  0
ARC
  5
203C5
330
2081A
100
AcDbEntity
  8
0
100
AcDbCircle
 10
222.0966844806045
 20
3.025699999999972
 30
0.0
 40
0.5
100
AcDbArc
 50
179.9848029414341
 51
270.0000000000001
1001
QCAD
1000
reversed:1
  0
ARC
  5
203E9
330
2081A
100
AcDbEntity
  8
0
100
AcDbCircle
 10
241.1466844806045
 20
79.22570000000003
 30
0.0
 40
0.5
100
AcDbArc
 50
179.9848029414341
 51
270.0000000000001
1001
QCAD
1000
reversed:1
  0
ARC
  5
203EA
330
2081A
100
AcDbEntity
  8
0
100
AcDbCircle
 10
241.1466844806045
 20
60.17570000000003
 30
0.0
 40
0.5
100
AcDbArc
 50
179.9848029414341
 51
270.0000000000001
1001
QCAD
1000
reversed:1
  0
ARC
  5
203EB
330
2081A
100
AcDbEntity
  8
0
100
AcDbCircle
 10
241.1466844806045
 20
41.12570000000004
 30
0.0
 40
0.5
100
AcDbArc
 50
179.9848029414341
 51
270.0000000000001
1001
QCAD
1000
reversed:1
  0
ARC
  5
203EC
330
2081A
100
AcDbEntity
  8
0
100
AcDbCircle
 10
241.1466844806045
 20
22.07570000000004
 30
0.0
 40
0.5
100
AcDbArc
 50
179.9848029414341
 51
270.0000000000001
1001
QCAD
1000
reversed:1
  0
ARC
  5
203ED
330
2081A
100
AcDbEntity
  8
0
100
AcDbCircle
 10
241.1466844806045
 20
3.025700000000057
 30
0.0
 40
0.5
100
AcDbArc
 50
179.9848029414341
 51
270.0000000000001
1001
QCAD
1000
reversed:1
  0
ARC
  5
20411
330
2081A
100
AcDbEntity
  8
0
100
AcDbCircle
 10
264.9591844806045
 20
79.22569999999995
 30
0.0
 40
0.5
100
AcDbArc
 50
179.9848029414341
 51
270.0000000000001
1001
QCAD
1000
reversed:1
  0
ARC
  5
20412
330
2081A
100
AcDbEntity
  8
0
100
AcDbCircle
 10
264.9591844806045
 20
60.17569999999995
 30
0.0
 40
0.5
100
AcDbArc
 50
179.9848029414341
 51
270.0000000000001
1001
QCAD
1000
reversed:1
  0
ARC
  5
20413
330
2081A
100
AcDbEntity
  8
0
100
AcDbCircle
 10
264.9591844806045
 20
41.12569999999995
 30
0.0
 40
0.5
100
AcDbArc
 50
179.9848029414341
 51
270.0000000000001
1001
QCAD
1000
reversed:1
  0
ARC
  5
20414
330
2081A
100
AcDbEntity
  8
0
100
AcDbCircle
 10
264.9591844806045
 20
22.07569999999996
 30
0.0
 40
0.5
100
AcDbArc
 50
179.9848029414341
 51
270.0000000000001
1001
QCAD
1000
reversed:1
  0
ARC
  5
20415
330
2081A
100
AcDbEntity
  8
0
100
AcDbCircle
 10
264.9591844806045
 20
3.025699999999972
 30
0.0
 40
0.5
100
AcDbArc
 50
179.9848029414341
 51
270.0000000000001
1001
QCAD
1000
reversed:1
  0
ARC
  5
20486
330
2081A
100
AcDbEntity
  8
0
100
AcDbCircle
 10
126.8501323982305
 20
73.175
 30
0.0
 40
0.5
100
AcDbArc
 50
90.0
 51
179.9848029414341
1001
QCAD
1000
reversed:1
  0
ARC
  5
20487
330
2081A
100
AcDbEntity
  8
0
100
AcDbCircle
 10
139.8498676017695
 20
73.175
 30
0.0
 40
0.5
100
AcDbArc
 50
0.0151970585658567
 51
90.0
1001
QCAD
1000
reversed:1
  0
ARC
  5
20488
330
2081A
100
AcDbEntity
  8
0
100
AcDbCircle
 10
145.9001323982304
 20
73.175
 30
0.0
 40
0.5
100
AcDbArc
 50
90.0
 51
179.9848029414341
1001
QCAD
1000
reversed:1
  0
ARC
  5
20489
330
2081A
100
AcDbEntity
  8
0
100
AcDbCircle
 10
158.8998676017695
 20
73.175
 30
0.0
 40
0.5
100
AcDbArc
 50
0.0151970585658567
 51
90.0
1001
QCAD
1000
reversed:1
  0
ARC
  5
2048A
330
2081A
100
AcDbEntity
  8
0
100
AcDbCircle
 10
158.9134211144345
 20
22.0757
 30
0.0
 40
0.5
100
AcDbArc
 50
270.0
 51
0.0151970585658567
1001
QCAD
1000
reversed:1
  0
ARC
  5
2048B
330
2081A
100
AcDbEntity
  8
0
100
AcDbCircle
 10
145.8865788855771
 20
22.0757
 30
0.0
 40
0.5
100
AcDbArc
 50
179.9848029414341
 51
270.0
  0
ARC
  5
2048C
330
2081A
100
AcDbEntity
  8
0
100
AcDbCircle
 10
139.8634211144345
 20
22.0757
 30
0.0
 40
0.5
100
AcDbArc
 50
270.0
 51
0.0151970585658567
1001
QCAD
1000
reversed:1
  0
ARC
  5
2048D
330
2081A
100
AcDbEntity
  8
0
100
AcDbCircle
 10
126.8365788855655
 20
22.0757
 30
0.0
 40
0.5
100
AcDbArc
 50
179.9848029414341
 51
270.0
  0
ARC
  5
204BE
330
2081A
100
AcDbEntity
  8
0
100
AcDbCircle
 10
88.7466894908392
 20
16.02499986050163
 30
0.0
 40
0.5
100
AcDbArc
 50
90.00231469798628
 51
180.0151757933201
  0
ARC
  5
204BF
330
2081A
100
AcDbEntity
  8
0
100
AcDbCircle
 10
88.75013258375559
 20
3.025700000000001
 30
0.0
 40
0.5
100
AcDbArc
 50
180.0151757933201
 51
270.0
  0
ARC
  5
204C0
330
2081A
100
AcDbEntity
  8
0
100
AcDbCircle
 10
196.9998676017696
 20
16.02499999959183
 30
0.0
 40
0.5
100
AcDbArc
 50
0.0151970585658567
 51
89.9976848624267
1001
QCAD
1000
reversed:1
  0
ARC
  5
204C1
330
2081A
100
AcDbEntity
  8
0
100
AcDbCircle
 10
197.0033155193964
 20
3.025700000000001
 30
0.0
 40
0.5
100
AcDbArc
 50
270.0
 51
0.0151970585658567
1001
QCAD
1000
reversed:1
  0
ARC
  5
20537
330
2081A
100
AcDbEntity
  8
0
100
AcDbCircle
 10
262.9001454200731
 20
96.33484404087926
 30
0.0
 40
0.8249999999997044
100
AcDbArc
 50
89.99999999998818
 51
269.9999999999881
  0
ARC
  5
20536
330
2081A
100
AcDbEntity
  8
0
100
AcDbCircle
 10
228.2233433238702
 20
96.33484404088622
 30
0.0
 40
0.8250000000003439
100
AcDbArc
 50
269.9999999999881
 51
89.99999999999014
  0
ARC
  5
2053B
330
2081A
100
AcDbEntity
  8
0
100
AcDbCircle
 10
170.8869458324411
 20
96.33484404090008
 30
0.0
 40
0.8249999999995055
100
AcDbArc
 50
89.99999999998818
 51
269.9999999999862
  0
ARC
  5
2053A
330
2081A
100
AcDbEntity
  8
0
100
AcDbCircle
 10
136.2101437362386
 20
96.33484404090765
 30
0.0
 40
0.8249999999998892
100
AcDbArc
 50
269.9999999999862
 51
89.99999999998421
  0
ARC
  5
2053F
330
2081A
100
AcDbEntity
  8
0
100
AcDbCircle
 10
78.88694583244202
 20
96.33484404092094
 30
0.0
 40
0.8249999999995055
100
AcDbArc
 50
89.99999999998718
 51
269.9999999999872
  0
ARC
  5
2053E
330
2081A
100
AcDbEntity
  8
0
100
AcDbCircle
 10
44.21014373623873
 20
96.33484404092844
 30
0.0
 40
0.8249999999998892
100
AcDbArc
 50
269.9999999999866
 51
89.99999999998569
  0
LINE
  5
20541
330
2081A
100
AcDbEntity
  8
0
100
AcDbLine
 10
170.8869458324409
 20
95.50984404090057
 30
0.0
 11
228.22334332387
 21
95.50984404088588
 31
0.0
  0
LINE
  5
2054C
330
2081A
100
AcDbEntity
  8
0
100
AcDbLine
 10
22.97936206903366
 20
-0.0905572342073275
 30
0.0
 11
1.375146184311696
 21
-0.0905572342022959
 31
0.0
  0
LINE
  5
20550
330
2081A
100
AcDbEntity
  8
0
100
AcDbLine
 10
125.574643549957
 20
-0.0905572342312222
 30
0.0
 11
57.65616416523947
 21
-0.0905572342154038
 31
0.0
  0
LINE
  5
20554
330
2081A
100
AcDbEntity
  8
0
100
AcDbLine
 10
228.2001435499588
 20
-0.0905572342551239
 30
0.0
 11
160.2514456461628
 21
-0.0905572342392985
 31
0.0
  0
LINE
  5
20555
330
2081A
100
AcDbEntity
  8
0
100
AcDbLine
 10
284.3798060393398
 20
-0.0905572342682082
 30
0.0
 11
262.876945646162
 21
-0.0905572342632002
 31
0.0
  0
ARC
  5
2055E
330
2081A
100
AcDbEntity
  8
0
100
AcDbCircle
 10
125.5746435499568
 20
-0.9155572342323895
 30
0.0
 40
0.8250000000011674
100
AcDbArc
 50
269.9999999999862
 51
89.99999999998619
  0
ARC
  5
2071F
330
2081A
100
AcDbEntity
  8
0
100
AcDbCircle
 10
22.97936206903346
 20
-0.9155572342084923
 30
0.0
 40
0.8250000000011674
100
AcDbArc
 50
269.9999999999862
 51
89.99999999998619
  0
ARC
  5
20560
330
2081A
100
AcDbEntity
  8
0
100
AcDbCircle
 10
160.2514456461626
 20
-0.9155572342399093
 30
0.0
 40
0.8250000000006108
100
AcDbArc
 50
89.99999999998619
 51
269.9999999999862
  0
ARC
  5
20720
330
2081A
100
AcDbEntity
  8
0
100
AcDbCircle
 10
57.65616416523927
 20
-0.9155572342160134
 30
0.0
 40
0.8250000000006108
100
AcDbArc
 50
89.99999999998619
 51
269.9999999999862
  0
ARC
  5
20565
330
2081A
100
AcDbEntity
  8
0
100
AcDbCircle
 10
228.2001435499586
 20
-0.9155572342554134
 30
0.0
 40
0.8250000000001023
100
AcDbArc
 50
269.9999999999862
 51
89.99999999998619
  0
ARC
  5
20566
330
2081A
100
AcDbEntity
  8
0
100
AcDbCircle
 10
262.8769456461618
 20
-0.9155572342629836
 30
0.0
 40
0.8249999999997835
100
AcDbArc
 50
89.99999999998818
 51
269.9999999999881
  0
LINE
  5
207F7
330
2081A
100
AcDbEntity
  8
0
100
AcDbLine
 10
286.3798060393402
 20
1.909442765731341
 30
0.0
 11
286.3798060393608
 21
93.50984404087477
 31
0.0
  0
LINE
  5
207F8
330
2081A
100
AcDbEntity
  8
0
100
AcDbLine
 10
-0.624853815667268
 20
93.50984404093926
 30
0.0
 11
-0.6248538156878328
 21
1.909442765798147
 31
0.0
  0
ARC
  5
207F9
330
2081A
100
AcDbEntity
  8
0
100
AcDbCircle
 10
1.375146184332732
 20
93.5098440409388
 30
0.0
 40
2.0
100
AcDbArc
 50
89.9999999999869
 51
180.0
1001
QCAD
1000
reversed:1
  0
ARC
  5
207FA
330
2081A
100
AcDbEntity
  8
0
100
AcDbCircle
 10
1.375146184312167
 20
1.909442765797704
 30
0.0
 40
2.0
100
AcDbArc
 50
180.0
 51
269.9999999999866
  0
ARC
  5
207FB
330
2081A
100
AcDbEntity
  8
0
100
AcDbCircle
 10
284.3798060393402
 20
1.909442765731792
 30
0.0
 40
2.0
100
AcDbArc
 50
269.999999999987
 51
0.0
  0
ARC
  5
207FC
330
2081A
100
AcDbEntity
  8
0
100
AcDbCircle
 10
284.3798060393608
 20
93.50984404087525
 30
0.0
 40
2.0
100
AcDbArc
 50
0.0
 51
89.9999999999886
1001
QCAD
1000
reversed:1
  0
VIEWPORT
  5
208CA
330
20816
100
AcDbEntity
 67
     1
  8
0
100
AcDbViewport
 10
128.5
 20
97.5
 30
0.0
 40
314.226
 41
222.18
 68
     1
 69
     1
 12
128.5
 22
97.5
 13
0.0
 23
0.0
 14
10.0
 24
10.0
 15
10.0
 25
10.0
 16
0.0
 26
0.0
 36
1.0
 17
0.0
 27
0.0
 37
0.0
 42
50.0
 43
0.0
 44
0.0
 45
222.18
 50
0.0
 51
0.0
 72
   100
 90
   557152
  1

281
     0
 71
     1
 74
     0
110
0.0
120
0.0
130
0.0
111
1.0
121
0.0
131
0.0
112
0.0
122
1.0
132
0.0
 79
     0
146
0.0
170
     0
 61
     5
348
2082A
292
     1
282
     1
141
0.0
142
0.0
 63
   256
361
208CB
  0
ENDSEC
  0
SECTION
  2
OBJECTS
  0
DICTIONARY
  5
20808
330
0
100
AcDbDictionary
281
     1
  3
ACAD_DETAILVIEWSTYLE
350
208D3
  3
ACAD_GROUP
350
20809
  3
ACAD_LAYOUT
350
20815
  3
ACAD_MATERIAL
350
2083E
  3
ACAD_MLEADERSTYLE
350
20856
  3
ACAD_MLINESTYLE
350
20812
  3
ACAD_PLOTSETTINGS
350
20814
  3
ACAD_PLOTSTYLENAME
350
2080A
  3
ACAD_SCALELIST
350
20842
  3
ACAD_SECTIONVIEWSTYLE
350
208D4
  3
ACAD_TABLESTYLE
350
20854
  3
ACAD_VISUALSTYLE
350
20825
  3
ACDB_RECOMPOSE_DATA
350
208D0
  3
AcDbVariableDictionary
350
208CC
  3
QCAD_OBJECTS
350
2085A
  0
SUN
  5
20858
330
20824
100
AcDbSun
 90
        1
290
     0
 63
     7
421
 16777215
 40
1.0
291
     1
 91
  2455826
 92
 54000000
292
     0
 70
     2
 71
   256
280
     1
  0
SUN
  5
208CB
330
208CA
100
AcDbSun
 90
        1
290
     0
 63
     7
421
 16777215
 40
1.0
291
     1
 91
  2455826
 92
 54000000
292
     0
 70
     2
 71
   256
280
     1
  0
DICTIONARY
  5
208D3
102
{ACAD_REACTORS
330
20808
102
}
330
20808
100
AcDbDictionary
281
     1
  0
DICTIONARY
  5
20809
102
{ACAD_REACTORS
330
20808
102
}
330
20808
100
AcDbDictionary
281
     1
  0
DICTIONARY
  5
20815
102
{ACAD_REACTORS
330
20808
102
}
330
20808
100
AcDbDictionary
281
     1
  3
Layout1
350
20819
  3
Model
350
2081D
  0
DICTIONARY
  5
2083E
102
{ACAD_REACTORS
330
20808
102
}
330
20808
100
AcDbDictionary
281
     1
  3
ByBlock
350
20840
  3
ByLayer
350
2083F
  3
Global
350
20841
  0
DICTIONARY
  5
20856
102
{ACAD_REACTORS
330
20808
102
}
330
20808
100
AcDbDictionary
281
     1
  3
Standard
350
20857
  0
DICTIONARY
  5
20812
102
{ACAD_REACTORS
330
20808
102
}
330
20808
100
AcDbDictionary
281
     1
  3
Standard
350
20813
  0
DICTIONARY
  5
20814
102
{ACAD_REACTORS
330
20808
102
}
330
20808
100
AcDbDictionary
281
     1
  0
ACDBDICTIONARYWDFLT
  5
2080A
102
{ACAD_REACTORS
330
20808
102
}
330
20808
100
AcDbDictionary
281
     1
  3
Normal
350
2080B
100
AcDbDictionaryWithDefault
340
2080B
  0
DICTIONARY
  5
20842
102
{ACAD_REACTORS
330
20808
102
}
330
20808
100
AcDbDictionary
281
     1
  3
A0
350
20843
  3
A1
350
20844
  3
A2
350
20845
  3
A3
350
20846
  3
A4
350
20847
  3
A5
350
20848
  3
A6
350
20849
  3
A7
350
2084A
  3
A8
350
2084B
  3
A9
350
2084C
  3
B1
350
2084D
  3
B2
350
2084E
  3
B3
350
2084F
  3
B4
350
20850
  3
B5
350
20851
  3
B6
350
20852
  3
B7
350
20853
  0
DICTIONARY
  5
208D4
102
{ACAD_REACTORS
330
20808
102
}
330
20808
100
AcDbDictionary
281
     1
  0
DICTIONARY
  5
20854
102
{ACAD_REACTORS
330
20808
102
}
330
20808
100
AcDbDictionary
281
     1
  3
Standard
350
20855
  0
DICTIONARY
  5
20825
102
{ACAD_REACTORS
330
20808
102
}
330
20808
100
AcDbDictionary
281
     1
  3
2dWireframe
350
2082A
  3
Basic
350
2082D
  3
Brighten
350
20831
  3
ColorChange
350
20835
  3
Conceptual
350
2082F
  3
Dim
350
20830
  3
EdgeColorOff
350
20838
  3
Facepattern
350
20834
  3
Flat
350
20826
  3
FlatWithEdges
350
20827
  3
Gouraud
350
20828
  3
GouraudWithEdges
350
20829
  3
Hidden
350
2082C
  3
JitterOff
350
20836
  3
Linepattern
350
20833
  3
OverhangOff
350
20837
  3
Realistic
350
2082E
  3
Shaded
350
2083D
  3
Shaded with edges
350
2083C
  3
Shades of Gray
350
20839
  3
Sketchy
350
2083A
  3
Thicken
350
20832
  3
Wireframe
350
2082B
  3
X-Ray
350
2083B
  0
XRECORD
  5
208D0
102
{ACAD_REACTORS
330
20808
102
}
330
20808
100
AcDbXrecord
280
     1
 90
        1
330
20855
  0
DICTIONARY
  5
208CC
102
{ACAD_REACTORS
330
20808
102
}
330
20808
100
AcDbDictionary
281
     1
  3
CANNOSCALE
350
208CD
  3
CMLEADERSTYLE
350
208D2
  3
CTABLESTYLE
350
208D1
  0
DICTIONARY
  5
2085A
102
{ACAD_REACTORS
330
20808
102
}
330
20808
100
AcDbDictionary
281
     1
  3
ColorSettings/BackgroundColor
350
2085C
  3
ColorSettings/ColorMode
350
2085D
  3
Grid/DisplayGrid00
350
2085E
  3
Grid/DisplayGrid01
350
2085F
  3
Grid/DisplayGrid02
350
20860
  3
Grid/DisplayGrid03
350
20861
  3
Grid/GridSpacingX00
350
20862
  3
Grid/GridSpacingX01
350
20863
  3
Grid/GridSpacingX02
350
20864
  3
Grid/GridSpacingX03
350
20865
  3
Grid/GridSpacingY00
350
20866
  3
Grid/GridSpacingY01
350
20867
  3
Grid/GridSpacingY02
350
20868
  3
Grid/GridSpacingY03
350
20869
  3
Grid/IsometricGrid00
350
2086A
  3
Grid/IsometricGrid01
350
2086B
  3
Grid/IsometricGrid02
350
2086C
  3
Grid/IsometricGrid03
350
2086D
  3
Grid/IsometricProjection00
350
2086E
  3
Grid/IsometricProjection01
350
2086F
  3
Grid/IsometricProjection02
350
20870
  3
Grid/IsometricProjection03
350
20871
  3
Grid/MetaGridSpacingX00
350
20872
  3
Grid/MetaGridSpacingX01
350
20873
  3
Grid/MetaGridSpacingX02
350
20874
  3
Grid/MetaGridSpacingX03
350
20875
  3
Grid/MetaGridSpacingY00
350
20876
  3
Grid/MetaGridSpacingY01
350
20877
  3
Grid/MetaGridSpacingY02
350
20878
  3
Grid/MetaGridSpacingY03
350
20879
  3
MultiPageSettings/Columns
350
2087A
  3
MultiPageSettings/GlueMarginsBottom
350
2087B
  3
MultiPageSettings/GlueMarginsLeft
350
2087C
  3
MultiPageSettings/GlueMarginsRight
350
2087D
  3
MultiPageSettings/GlueMarginsTop
350
2087E
  3
MultiPageSettings/PrintCropMarks
350
2087F
  3
MultiPageSettings/Rows
350
20880
  3
PageSettings/OffsetX
350
20881
  3
PageSettings/OffsetY
350
20882
  3
PageSettings/PageOrientation
350
20883
  3
PageSettings/PaperHeight
350
20884
  3
PageSettings/PaperWidth
350
20885
  3
PageSettings/Scale
350
20886
  3
PageSettings/ShowPaperBorders
350
20887
  3
PageTagSettings/EnablePageTags
350
20888
  3
PageTagSettings/TagAlignment
350
20889
  3
PageTagSettings/TagFont
350
2088A
  3
PageTagSettings/TagPosition
350
2088B
  3
QCADVersion
350
2088C
  3
UnitSettings/PaperUnit
350
2088D
  3
ViewportCenter
350
2088E
  3
ViewportHeight
350
2088F
  3
ViewportWidth
350
20890
  0
LAYOUT
  5
20819
102
{ACAD_REACTORS
330
20815
102
}
330
20815
100
AcDbPlotSettings
  1

  2
none_device
  4
ISO_A4_(210.00_x_297.00_MM)
  6

 40
7.5
 41
20.0
 42
7.5
 43
20.0
 44
210.0
 45
297.0
 46
0.0
 47
0.0
 48
0.0
 49
0.0
140
0.0
141
0.0
142
1.0
143
1.0
 70
   688
 72
     1
 73
     1
 74
     5
  7

 75
    16
 76
     0
 77
     2
 78
   300
147
1.0
148
0.0
149
0.0
100
AcDbLayout
  1
Layout1
 70
     1
 71
     1
 10
-20.0
 20
-7.5
 11
277.0
 21
202.5
 12
0.0
 22
0.0
 32
0.0
 14
0.0
 24
0.0
 34
0.0
 15
0.0
 25
0.0
 35
0.0
146
0.0
 13
0.0
 23
0.0
 33
0.0
 16
1.0
 26
0.0
 36
0.0
 17
0.0
 27
1.0
 37
0.0
 76
     0
330
20816
331
208CA
  0
LAYOUT
  5
2081D
102
{ACAD_REACTORS
330
20815
102
}
330
20815
100
AcDbPlotSettings
  1

  2
none_device
  4
Letter_(8.50_x_11.00_Inches)
  6

 40
6.35
 41
6.35
 42
6.35000508
 43
6.35000508
 44
215.9
 45
279.4
 46
0.0
 47
0.0
 48
0.0
 49
0.0
140
0.0
141
0.0
142
1.0
143
1.0
 70
  1712
 72
     0
 73
     0
 74
     0
  7

 75
     0
 76
     0
 77
     2
 78
   300
147
1.0
148
0.0
149
0.0
100
AcDbLayout
  1
Model
 70
     1
 71
     0
 10
0.0
 20
0.0
 11
420.0
 21
297.0
 12
0.0
 22
0.0
 32
0.0
 14
-0.6248538156878328
 24
-5.040145377965302
 34
0.0
 15
286.3798060393608
 25
100.4598534704213
 35
0.0
146
0.0
 13
0.0
 23
0.0
 33
0.0
 16
1.0
 26
0.0
 36
0.0
 17
0.0
 27
1.0
 37
0.0
 76
     0
330
2081A
331
20824
  0
MATERIAL
  5
20840
102
{ACAD_REACTORS
330
2083E
102
}
330
2083E
100
AcDbMaterial
  1
ByBlock
 72
     1
 94
      127
  0
MATERIAL
  5
2083F
102
{ACAD_REACTORS
330
2083E
102
}
330
2083E
100
AcDbMaterial
  1
ByLayer
 72
     1
 94
      127
  0
MATERIAL
  5
20841
102
{ACAD_REACTORS
330
2083E
102
}
330
2083E
100
AcDbMaterial
  1
Global
 72
     1
 94
      127
  0
MLEADERSTYLE
  5
20857
102
{ACAD_REACTORS
330
20856
102
}
330
20856
100
AcDbMLeaderStyle
179
     2
170
     2
171
     1
172
     0
 90
        2
 40
0.0
 41
0.0
173
     1
 91
-1056964608
340
2080F
 92
       -2
290
     1
 42
0.09
291
     1
 43
0.36
  3
Standard
341
0
 44
0.18
300

342
2080D
174
     1
178
     6
175
     1
176
     0
 93
-1056964608
 45
0.18
292
     0
297
     0
 46
0.18
343
0
 94
-1056964608
 47
1.0
 49
1.0
140
1.0
293
     1
141
0.0
294
     1
177
     0
142
1.0
295
     0
296
     0
143
0.125
271
     0
272
     9
273
     9
298
     0
  0
MLINESTYLE
  5
20813
102
{ACAD_REACTORS
330
20812
102
}
330
20812
100
AcDbMlineStyle
  2
Standard
 70
     0
  3

 62
   256
 51
90.0
 52
90.0
 71
     2
 49
0.5
 62
   256
  6
BYLAYER
 49
-0.5
 62
   256
  6
BYLAYER
  0
ACDBPLACEHOLDER
  5
2080B
102
{ACAD_REACTORS
330
2080A
102
}
330
2080A
  0
SCALE
  5
20843
102
{ACAD_REACTORS
330
20842
102
}
330
20842
100
AcDbScale
 70
     0
300
1:1
140
1.0
141
1.0
290
     1
  0
SCALE
  5
20844
102
{ACAD_REACTORS
330
20842
102
}
330
20842
100
AcDbScale
 70
     0
300
1/128" = 1'-0"
140
0.0078125
141
12.0
290
     0
  0
SCALE
  5
20845
102
{ACAD_REACTORS
330
20842
102
}
330
20842
100
AcDbScale
 70
     0
300
1/64" = 1'-0"
140
0.015625
141
12.0
290
     0
  0
SCALE
  5
20846
102
{ACAD_REACTORS
330
20842
102
}
330
20842
100
AcDbScale
 70
     0
300
1/32" = 1'-0"
140
0.03125
141
12.0
290
     0
  0
SCALE
  5
20847
102
{ACAD_REACTORS
330
20842
102
}
330
20842
100
AcDbScale
 70
     0
300
1/16" = 1'-0"
140
0.0625
141
12.0
290
     0
  0
SCALE
  5
20848
102
{ACAD_REACTORS
330
20842
102
}
330
20842
100
AcDbScale
 70
     0
300
3/32" = 1'-0"
140
0.09375
141
12.0
290
     0
  0
SCALE
  5
20849
102
{ACAD_REACTORS
330
20842
102
}
330
20842
100
AcDbScale
 70
     0
300
1/8" = 1'-0"
140
0.125
141
12.0
290
     0
  0
SCALE
  5
2084A
102
{ACAD_REACTORS
330
20842
102
}
330
20842
100
AcDbScale
 70
     0
300
3/16" = 1'-0"
140
0.1875
141
12.0
290
     0
  0
SCALE
  5
2084B
102
{ACAD_REACTORS
330
20842
102
}
330
20842
100
AcDbScale
 70
     0
300
1/4" = 1'-0"
140
0.25
141
12.0
290
     0
  0
SCALE
  5
2084C
102
{ACAD_REACTORS
330
20842
102
}
330
20842
100
AcDbScale
 70
     0
300
3/8" = 1'-0"
140
0.375
141
12.0
290
     0
  0
SCALE
  5
2084D
102
{ACAD_REACTORS
330
20842
102
}
330
20842
100
AcDbScale
 70
     0
300
1/2" = 1'-0"
140
0.5
141
12.0
290
     0
  0
SCALE
  5
2084E
102
{ACAD_REACTORS
330
20842
102
}
330
20842
100
AcDbScale
 70
     0
300
3/4" = 1'-0"
140
0.75
141
12.0
290
     0
  0
SCALE
  5
2084F
102
{ACAD_REACTORS
330
20842
102
}
330
20842
100
AcDbScale
 70
     0
300
1" = 1'-0"
140
1.0
141
12.0
290
     0
  0
SCALE
  5
20850
102
{ACAD_REACTORS
330
20842
102
}
330
20842
100
AcDbScale
 70
     0
300
1-1/2" = 1'-0"
140
1.5
141
12.0
290
     0
  0
SCALE
  5
20851
102
{ACAD_REACTORS
330
20842
102
}
330
20842
100
AcDbScale
 70
     0
300
3" = 1'-0"
140
3.0
141
12.0
290
     0
  0
SCALE
  5
20852
102
{ACAD_REACTORS
330
20842
102
}
330
20842
100
AcDbScale
 70
     0
300
6" = 1'-0"
140
6.0
141
12.0
290
     0
  0
SCALE
  5
20853
102
{ACAD_REACTORS
330
20842
102
}
330
20842
100
AcDbScale
 70
     0
300
1'-0" = 1'-0"
140
12.0
141
12.0
290
     0
  0
TABLESTYLE
  5
20855
102
{ACAD_REACTORS
330
20854
102
}
102
{ACAD_XDICTIONARY
360
208CE
102
}
330
20854
100
AcDbTableStyle
  3
Standard
 70
     0
 71
     0
 40
0.06
 41
0.06
280
     0
281
     0
  7
Standard
140
0.18
170
     2
 62
     0
 63
   257
283
     0
 90
        4
 91
        0
  1

274
    -2
284
     1
 64
     0
275
    -2
285
     1
 65
     0
276
    -2
286
     1
 66
     0
277
    -2
287
     1
 67
     0
278
    -2
288
     1
 68
     0
279
    -2
289
     1
 69
     0
  7
Standard
140
0.25
170
     5
 62
     0
 63
   257
283
     0
 90
        4
 91
        0
  1

274
    -2
284
     1
 64
     0
275
    -2
285
     1
 65
     0
276
    -2
286
     1
 66
     0
277
    -2
287
     1
 67
     0
278
    -2
288
     1
 68
     0
279
    -2
289
     1
 69
     0
  7
Standard
140
0.18
170
     5
 62
     0
 63
   257
283
     0
 90
        4
 91
        0
  1

274
    -2
284
     1
 64
     0
275
    -2
285
     1
 65
     0
276
    -2
286
     1
 66
     0
277
    -2
287
     1
 67
     0
278
    -2
288
     1
 68
     0
279
    -2
289
     1
 69
     0
  0
VISUALSTYLE
  5
2082A
102
{ACAD_REACTORS
330
20825
102
}
330
20825
100
AcDbVisualStyle
  2
2dWireframe
 70
     4
177
     3
291
     0
 70
    58
 90
        0
176
     1
 90
        2
176
     1
 90
        0
176
     1
 90
        0
176
     1
 40
0.6
176
     1
 40
30.0
176
     1
 62
     7
420
 16777215
176
     1
 90
        1
176
     1
 90
        4
176
     1
 62
     7
176
     1
 62
   257
176
     1
 90
        1
176
     1
 90
        1
176
     1
 40
1.0
176
     1
 90
        0
176
     1
 62
   257
176
     1
 40
1.0
176
     1
 90
        1
176
     1
 90
        6
176
     1
 90
        2
176
     1
 62
     7
176
     1
 90
        5
176
     1
 90
        0
176
     1
 90
        0
176
     1
290
     0
176
     1
 90
        1
176
     1
 40
0.0
176
     1
 90
        0
176
     1
290
     1
176
     1
290
     1
176
     1
290
     0
176
     1
290
     0
176
     1
290
     0
176
     1
290
     0
176
     1
290
     0
176
     1
290
     0
176
     1
290
     0
176
     1
 90
       50
176
     1
 40
0.0
176
     1
 40
1.0
176
     1
 90
        0
176
     1
 62
    18
420
        0
176
     1
 90
       50
176
     1
 90
        3
176
     1
 62
     5
420
      255
176
     1
290
     0
176
     1
 90
       50
176
     1
 90
       50
176
     1
 90
       50
176
     1
290
     0
176
     1
 90
       50
176
     1
 62
   256
176
     0
 40
1.0
176
     0
 90
        2
176
     1
  1
strokes_ogs.tif
176
     1
290
     0
176
     1
 40
1.0
176
     1
 40
1.0
176
     1
  0
VISUALSTYLE
  5
2082D
102
{ACAD_REACTORS
330
20825
102
}
330
20825
100
AcDbVisualStyle
  2
Basic
 70
     7
177
     3
291
     1
 70
    58
 90
        1
176
     1
 90
        0
176
     1
 90
        1
176
     1
 90
        0
176
     1
 40
0.6
176
     1
 40
30.0
176
     1
 62
     7
420
 16777215
176
     1
 90
        0
176
     1
 90
        4
176
     1
 62
     7
176
     1
 62
   257
176
     1
 90
        1
176
     1
 90
        1
176
     1
 40
1.0
176
     1
 90
        8
176
     1
 62
     7
176
     1
 40
1.0
176
     1
 90
        1
176
     1
 90
        6
176
     1
 90
        2
176
     1
 62
     7
176
     1
 90
        5
176
     1
 90
        0
176
     1
 90
        0
176
     1
290
     0
176
     1
 90
        1
176
     1
 40
0.0
176
     1
 90
        0
176
     1
290
     0
176
     1
290
     1
176
     1
290
     1
176
     1
290
     0
176
     1
290
     0
176
     1
290
     0
176
     1
290
     0
176
     1
290
     0
176
     1
290
     0
176
     1
 90
       50
176
     1
 40
0.0
176
     1
 40
1.0
176
     1
 90
        0
176
     1
 62
    18
420
        0
176
     1
 90
       50
176
     1
 90
        3
176
     1
 62
     5
420
      255
176
     1
290
     0
176
     1
 90
       50
176
     1
 90
       50
176
     1
 90
       50
176
     1
290
     0
176
     1
 90
       50
176
     1
 62
   256
176
     0
 40
1.0
176
     0
 90
        2
176
     1
  1
strokes_ogs.tif
176
     1
290
     0
176
     1
 40
1.0
176
     1
 40
1.0
176
     1
  0
VISUALSTYLE
  5
20831
102
{ACAD_REACTORS
330
20825
102
}
330
20825
100
AcDbVisualStyle
  2
Brighten
 70
    12
177
     3
291
     1
 70
    58
 90
        2
176
     1
 90
        2
176
     1
 90
        0
176
     1
 90
        0
176
     1
 40
0.6
176
     1
 40
30.0
176
     1
 62
     7
420
 16777215
176
     1
 90
        1
176
     1
 90
        4
176
     1
 62
     7
176
     1
 62
   257
176
     1
 90
        1
176
     1
 90
        1
176
     1
 40
1.0
176
     1
 90
        8
176
     1
 62
     7
176
     1
 40
1.0
176
     1
 90
        1
176
     1
 90
        6
176
     1
 90
        2
176
     1
 62
     7
176
     1
 90
        5
176
     1
 90
        0
176
     1
 90
        0
176
     1
290
     0
176
     1
 90
        1
176
     1
 40
50.0
176
     1
 90
        0
176
     1
290
     0
176
     1
290
     1
176
     1
290
     1
176
     1
290
     0
176
     1
290
     0
176
     1
290
     0
176
     1
290
     0
176
     1
290
     0
176
     1
290
     0
176
     1
 90
       50
176
     1
 40
0.0
176
     1
 40
1.0
176
     1
 90
        0
176
     1
 62
    18
420
        0
176
     1
 90
       50
176
     1
 90
        3
176
     1
 62
     5
420
      255
176
     1
290
     0
176
     1
 90
       50
176
     1
 90
       50
176
     1
 90
       50
176
     1
290
     0
176
     1
 90
       50
176
     1
 62
   256
176
     0
 40
1.0
176
     0
 90
        2
176
     1
  1
strokes_ogs.tif
176
     1
290
     0
176
     1
 40
1.0
176
     1
 40
1.0
176
     1
  0
VISUALSTYLE
  5
20835
102
{ACAD_REACTORS
330
20825
102
}
330
20825
100
AcDbVisualStyle
  2
ColorChange
 70
    16
177
     3
291
     1
 70
    58
 90
        2
176
     1
 90
        2
176
     1
 90
        3
176
     1
 90
        0
176
     1
 40
0.6
176
     1
 40
30.0
176
     1
 62
     8
420
  8421504
176
     1
 90
        1
176
     1
 90
        4
176
     1
 62
     7
176
     1
 62
   257
176
     1
 90
        1
176
     1
 90
        1
176
     1
 40
1.0
176
     1
 90
        8
176
     1
 62
     8
420
  8421504
176
     1
 40
1.0
176
     1
 90
        1
176
     1
 90
        6
176
     1
 90
        2
176
     1
 62
     7
176
     1
 90
        5
176
     1
 90
        0
176
     1
 90
        0
176
     1
290
     0
176
     1
 90
        1
176
     1
 40
0.0
176
     1
 90
        0
176
     1
290
     0
176
     1
290
     1
176
     1
290
     1
176
     1
290
     0
176
     1
290
     0
176
     1
290
     0
176
     1
290
     0
176
     1
290
     0
176
     1
290
     0
176
     1
 90
       50
176
     1
 40
0.0
176
     1
 40
1.0
176
     1
 90
        0
176
     1
 62
    18
420
        0
176
     1
 90
       50
176
     1
 90
        3
176
     1
 62
     5
420
      255
176
     1
290
     0
176
     1
 90
       50
176
     1
 90
       50
176
     1
 90
       50
176
     1
290
     0
176
     1
 90
       50
176
     1
 62
   256
176
     0
 40
1.0
176
     0
 90
        2
176
     1
  1
strokes_ogs.tif
176
     1
290
     0
176
     1
 40
1.0
176
     1
 40
1.0
176
     1
  0
VISUALSTYLE
  5
2082F
102
{ACAD_REACTORS
330
20825
102
}
330
20825
100
AcDbVisualStyle
  2
Conceptual
 70
     9
177
     3
291
     0
 70
    58
 90
        3
176
     1
 90
        2
176
     1
 90
        0
176
     1
 90
        0
176
     1
 40
0.6
176
     1
 40
30.0
176
     1
 62
     7
420
 16777215
176
     1
 90
        2
176
     1
 90
        2
176
     1
 62
     7
176
     1
 62
   257
176
     1
 90
        1
176
     1
 90
        1
176
     1
 40
179.0
176
     1
 90
        8
176
     1
 62
     7
176
     1
 40
1.0
176
     1
 90
        1
176
     1
 90
        6
176
     1
 90
        2
176
     1
 62
     7
176
     1
 90
        3
176
     1
 90
        0
176
     1
 90
        0
176
     1
290
     0
176
     1
 90
        1
176
     1
 40
0.0
176
     1
 90
        0
176
     1
290
     0
176
     1
290
     1
176
     1
290
     1
176
     1
290
     0
176
     1
290
     0
176
     1
290
     0
176
     1
290
     0
176
     1
290
     0
176
     1
290
     0
176
     1
 90
       50
176
     1
 40
0.0
176
     1
 40
1.0
176
     1
 90
        0
176
     1
 62
    18
420
        0
176
     1
 90
       50
176
     1
 90
        3
176
     1
 62
     5
420
      255
176
     1
290
     0
176
     1
 90
       50
176
     1
 90
       50
176
     1
 90
       50
176
     1
290
     0
176
     1
 90
       50
176
     1
 62
   256
176
     0
 40
1.0
176
     0
 90
        2
176
     1
  1
strokes_ogs.tif
176
     1
290
     0
176
     1
 40
1.0
176
     1
 40
1.0
176
     1
  0
VISUALSTYLE
  5
20830
102
{ACAD_REACTORS
330
20825
102
}
330
20825
100
AcDbVisualStyle
  2
Dim
 70
    11
177
     3
291
     1
 70
    58
 90
        2
176
     1
 90
        2
176
     1
 90
        0
176
     1
 90
        0
176
     1
 40
0.6
176
     1
 40
30.0
176
     1
 62
     7
420
 16777215
176
     1
 90
        1
176
     1
 90
        4
176
     1
 62
     7
176
     1
 62
   257
176
     1
 90
        1
176
     1
 90
        1
176
     1
 40
1.0
176
     1
 90
        8
176
     1
 62
     7
176
     1
 40
1.0
176
     1
 90
        1
176
     1
 90
        6
176
     1
 90
        2
176
     1
 62
     7
176
     1
 90
        5
176
     1
 90
        0
176
     1
 90
        0
176
     1
290
     0
176
     1
 90
        1
176
     1
 40
-50.0
176
     1
 90
        0
176
     1
290
     0
176
     1
290
     1
176
     1
290
     1
176
     1
290
     0
176
     1
290
     0
176
     1
290
     0
176
     1
290
     0
176
     1
290
     0
176
     1
290
     0
176
     1
 90
       50
176
     1
 40
0.0
176
     1
 40
1.0
176
     1
 90
        0
176
     1
 62
    18
420
        0
176
     1
 90
       50
176
     1
 90
        3
176
     1
 62
     5
420
      255
176
     1
290
     0
176
     1
 90
       50
176
     1
 90
       50
176
     1
 90
       50
176
     1
290
     0
176
     1
 90
       50
176
     1
 62
   256
176
     0
 40
1.0
176
     0
 90
        2
176
     1
  1
strokes_ogs.tif
176
     1
290
     0
176
     1
 40
1.0
176
     1
 40
1.0
176
     1
  0
VISUALSTYLE
  5
20838
102
{ACAD_REACTORS
330
20825
102
}
330
20825
100
AcDbVisualStyle
  2
EdgeColorOff
 70
    22
177
     3
291
     1
 70
    58
 90
        2
176
     0
 90
        2
176
     0
 90
        0
176
     0
 90
        0
176
     0
 40
0.6
176
     0
 40
30.0
176
     0
 62
     7
420
 16777215
176
     0
 90
        1
176
     0
 90
        4
176
     0
 62
     7
176
     0
 62
   257
176
     0
 90
        1
176
     0
 90
        1
176
     0
 40
1.0
176
     0
 90
        8
176
     2
 62
     7
176
     0
 40
1.0
176
     0
 90
        1
176
     0
 90
        6
176
     0
 90
        2
176
     0
 62
     7
176
     0
 90
        5
176
     0
 90
        0
176
     0
 90
        0
176
     0
290
     0
176
     0
 90
        1
176
     0
 40
0.0
176
     0
 90
        0
176
     0
290
     0
176
     0
290
     1
176
     0
290
     1
176
     0
290
     0
176
     0
290
     0
176
     0
290
     0
176
     0
290
     0
176
     0
290
     0
176
     0
290
     0
176
     0
 90
       50
176
     0
 40
0.0
176
     0
 40
1.0
176
     0
 90
        0
176
     0
 62
    18
420
        0
176
     0
 90
       50
176
     0
 90
        3
176
     0
 62
     5
420
      255
176
     0
290
     0
176
     0
 90
       50
176
     0
 90
       50
176
     0
 90
       50
176
     0
290
     0
176
     0
 90
       50
176
     0
 62
   256
176
     0
 40
1.0
176
     0
 90
        2
176
     0
  1
strokes_ogs.tif
176
     0
290
     0
176
     0
 40
1.0
176
     0
 40
1.0
176
     0
  0
VISUALSTYLE
  5
20834
102
{ACAD_REACTORS
330
20825
102
}
330
20825
100
AcDbVisualStyle
  2
Facepattern
 70
    15
177
     3
291
     1
 70
    58
 90
        2
176
     1
 90
        2
176
     1
 90
        0
176
     1
 90
        0
176
     1
 40
0.6
176
     1
 40
30.0
176
     1
 62
     7
420
 16777215
176
     1
 90
        1
176
     1
 90
        4
176
     1
 62
     7
176
     1
 62
   257
176
     1
 90
        1
176
     1
 90
        1
176
     1
 40
1.0
176
     1
 90
        8
176
     1
 62
     7
176
     1
 40
1.0
176
     1
 90
        1
176
     1
 90
        6
176
     1
 90
        2
176
     1
 62
     7
176
     1
 90
        5
176
     1
 90
        0
176
     1
 90
        0
176
     1
290
     0
176
     1
 90
        1
176
     1
 40
0.0
176
     1
 90
        0
176
     1
290
     0
176
     1
290
     1
176
     1
290
     1
176
     1
290
     0
176
     1
290
     0
176
     1
290
     0
176
     1
290
     0
176
     1
290
     0
176
     1
290
     0
176
     1
 90
       50
176
     1
 40
0.0
176
     1
 40
1.0
176
     1
 90
        0
176
     1
 62
    18
420
        0
176
     1
 90
       50
176
     1
 90
        3
176
     1
 62
     5
420
      255
176
     1
290
     0
176
     1
 90
       50
176
     1
 90
       50
176
     1
 90
       50
176
     1
290
     0
176
     1
 90
       50
176
     1
 62
   256
176
     0
 40
1.0
176
     0
 90
        2
176
     1
  1
strokes_ogs.tif
176
     1
290
     0
176
     1
 40
1.0
176
     1
 40
1.0
176
     1
  0
VISUALSTYLE
  5
20826
102
{ACAD_REACTORS
330
20825
102
}
330
20825
100
AcDbVisualStyle
  2
Flat
 70
     0
177
     3
291
     1
 70
    58
 90
        2
176
     1
 90
        1
176
     1
 90
        1
176
     1
 90
        2
176
     1
 40
0.6
176
     1
 40
30.0
176
     1
 62
     7
420
 16777215
176
     1
 90
        0
176
     1
 90
        0
176
     1
 62
     7
176
     1
 62
   257
176
     1
 90
        1
176
     1
 90
        1
176
     1
 40
1.0
176
     1
 90
        8
176
     1
 62
     7
176
     1
 40
1.0
176
     1
 90
        1
176
     1
 90
        6
176
     1
 90
        2
176
     1
 62
     7
176
     1
 90
        5
176
     1
 90
        0
176
     1
 90
        0
176
     1
290
     0
176
     1
 90
       13
176
     1
 40
0.0
176
     1
 90
        0
176
     1
290
     0
176
     1
290
     1
176
     1
290
     1
176
     1
290
     0
176
     1
290
     0
176
     1
290
     0
176
     1
290
     0
176
     1
290
     0
176
     1
290
     0
176
     1
 90
       50
176
     1
 40
0.0
176
     1
 40
1.0
176
     1
 90
        0
176
     1
 62
    18
420
        0
176
     1
 90
       50
176
     1
 90
        3
176
     1
 62
     5
420
      255
176
     1
290
     0
176
     1
 90
       50
176
     1
 90
       50
176
     1
 90
       50
176
     1
290
     0
176
     1
 90
       50
176
     1
 62
   256
176
     0
 40
1.0
176
     0
 90
        2
176
     1
  1
strokes_ogs.tif
176
     1
290
     0
176
     1
 40
1.0
176
     1
 40
1.0
176
     1
  0
VISUALSTYLE
  5
20827
102
{ACAD_REACTORS
330
20825
102
}
330
20825
100
AcDbVisualStyle
  2
FlatWithEdges
 70
     1
177
     3
291
     1
 70
    58
 90
        2
176
     1
 90
        1
176
     1
 90
        1
176
     1
 90
        2
176
     1
 40
0.6
176
     1
 40
30.0
176
     1
 62
     7
420
 16777215
176
     1
 90
        1
176
     1
 90
        0
176
     1
 62
     7
176
     1
 62
   257
176
     1
 90
        1
176
     1
 90
        1
176
     1
 40
1.0
176
     1
 90
        0
176
     1
 62
   257
176
     1
 40
1.0
176
     1
 90
        1
176
     1
 90
        6
176
     1
 90
        2
176
     1
 62
     7
176
     1
 90
        5
176
     1
 90
        0
176
     1
 90
        0
176
     1
290
     0
176
     1
 90
       13
176
     1
 40
0.0
176
     1
 90
        0
176
     1
290
     0
176
     1
290
     1
176
     1
290
     1
176
     1
290
     0
176
     1
290
     0
176
     1
290
     0
176
     1
290
     0
176
     1
290
     0
176
     1
290
     0
176
     1
 90
       50
176
     1
 40
0.0
176
     1
 40
1.0
176
     1
 90
        0
176
     1
 62
    18
420
        0
176
     1
 90
       50
176
     1
 90
        3
176
     1
 62
     5
420
      255
176
     1
290
     0
176
     1
 90
       50
176
     1
 90
       50
176
     1
 90
       50
176
     1
290
     0
176
     1
 90
       50
176
     1
 62
   256
176
     0
 40
1.0
176
     0
 90
        2
176
     1
  1
strokes_ogs.tif
176
     1
290
     0
176
     1
 40
1.0
176
     1
 40
1.0
176
     1
  0
VISUALSTYLE
  5
20828
102
{ACAD_REACTORS
330
20825
102
}
330
20825
100
AcDbVisualStyle
  2
Gouraud
 70
     2
177
     3
291
     1
 70
    58
 90
        2
176
     1
 90
        2
176
     1
 90
        1
176
     1
 90
        2
176
     1
 40
0.6
176
     1
 40
30.0
176
     1
 62
     7
420
 16777215
176
     1
 90
        0
176
     1
 90
        0
176
     1
 62
     7
176
     1
 62
   257
176
     1
 90
        1
176
     1
 90
        1
176
     1
 40
1.0
176
     1
 90
        0
176
     1
 62
     7
176
     1
 40
1.0
176
     1
 90
        1
176
     1
 90
        6
176
     1
 90
        2
176
     1
 62
     7
176
     1
 90
        5
176
     1
 90
        0
176
     1
 90
        0
176
     1
290
     0
176
     1
 90
       13
176
     1
 40
0.0
176
     1
 90
        0
176
     1
290
     0
176
     1
290
     1
176
     1
290
     1
176
     1
290
     0
176
     1
290
     0
176
     1
290
     0
176
     1
290
     0
176
     1
290
     0
176
     1
290
     0
176
     1
 90
       50
176
     1
 40
0.0
176
     1
 40
1.0
176
     1
 90
        0
176
     1
 62
    18
420
        0
176
     1
 90
       50
176
     1
 90
        3
176
     1
 62
     5
420
      255
176
     1
290
     0
176
     1
 90
       50
176
     1
 90
       50
176
     1
 90
       50
176
     1
290
     0
176
     1
 90
       50
176
     1
 62
   256
176
     0
 40
1.0
176
     0
 90
        2
176
     1
  1
strokes_ogs.tif
176
     1
290
     0
176
     1
 40
1.0
176
     1
 40
1.0
176
     1
  0
VISUALSTYLE
  5
20829
102
{ACAD_REACTORS
330
20825
102
}
330
20825
100
AcDbVisualStyle
  2
GouraudWithEdges
 70
     3
177
     3
291
     1
 70
    58
 90
        2
176
     1
 90
        2
176
     1
 90
        1
176
     1
 90
        2
176
     1
 40
0.6
176
     1
 40
30.0
176
     1
 62
     7
420
 16777215
176
     1
 90
        1
176
     1
 90
        0
176
     1
 62
     7
176
     1
 62
   257
176
     1
 90
        1
176
     1
 90
        1
176
     1
 40
1.0
176
     1
 90
        0
176
     1
 62
   257
176
     1
 40
1.0
176
     1
 90
        1
176
     1
 90
        6
176
     1
 90
        2
176
     1
 62
     7
176
     1
 90
        5
176
     1
 90
        0
176
     1
 90
        0
176
     1
290
     0
176
     1
 90
       13
176
     1
 40
0.0
176
     1
 90
        0
176
     1
290
     0
176
     1
290
     1
176
     1
290
     1
176
     1
290
     0
176
     1
290
     0
176
     1
290
     0
176
     1
290
     0
176
     1
290
     0
176
     1
290
     0
176
     1
 90
       50
176
     1
 40
0.0
176
     1
 40
1.0
176
     1
 90
        0
176
     1
 62
    18
420
        0
176
     1
 90
       50
176
     1
 90
        3
176
     1
 62
     5
420
      255
176
     1
290
     0
176
     1
 90
       50
176
     1
 90
       50
176
     1
 90
       50
176
     1
290
     0
176
     1
 90
       50
176
     1
 62
   256
176
     0
 40
1.0
176
     0
 90
        2
176
     1
  1
strokes_ogs.tif
176
     1
290
     0
176
     1
 40
1.0
176
     1
 40
1.0
176
     1
  0
VISUALSTYLE
  5
2082C
102
{ACAD_REACTORS
330
20825
102
}
330
20825
100
AcDbVisualStyle
  2
Hidden
 70
     6
177
     3
291
     0
 70
    58
 90
        1
176
     1
 90
        2
176
     1
 90
        2
176
     1
 90
        0
176
     1
 40
0.6
176
     1
 40
30.0
176
     1
 62
     7
420
 16777215
176
     1
 90
        2
176
     1
 90
        2
176
     1
 62
     7
176
     1
 62
   257
176
     1
 90
        2
176
     1
 90
        1
176
     1
 40
40.0
176
     1
 90
        0
176
     1
 62
   257
176
     1
 40
1.0
176
     1
 90
        1
176
     1
 90
        6
176
     1
 90
        2
176
     1
 62
     7
176
     1
 90
        3
176
     1
 90
        0
176
     1
 90
        0
176
     1
290
     0
176
     1
 90
        1
176
     1
 40
0.0
176
     1
 90
        0
176
     1
290
     0
176
     1
290
     1
176
     1
290
     1
176
     1
290
     0
176
     1
290
     0
176
     1
290
     0
176
     1
290
     0
176
     1
290
     0
176
     1
290
     0
176
     1
 90
       50
176
     1
 40
0.0
176
     1
 40
1.0
176
     1
 90
        0
176
     1
 62
    18
420
        0
176
     1
 90
       50
176
     1
 90
        3
176
     1
 62
     5
420
      255
176
     1
290
     0
176
     1
 90
       50
176
     1
 90
       50
176
     1
 90
       50
176
     1
290
     0
176
     1
 90
       50
176
     1
 62
   256
176
     0
 40
1.0
176
     0
 90
        2
176
     1
  1
strokes_ogs.tif
176
     1
290
     0
176
     1
 40
1.0
176
     1
 40
1.0
176
     1
  0
VISUALSTYLE
  5
20836
102
{ACAD_REACTORS
330
20825
102
}
330
20825
100
AcDbVisualStyle
  2
JitterOff
 70
    20
177
     3
291
     1
 70
    58
 90
        2
176
     0
 90
        2
176
     0
 90
        0
176
     0
 90
        0
176
     0
 40
0.6
176
     0
 40
30.0
176
     0
 62
     7
420
 16777215
176
     0
 90
        1
176
     0
 90
        4
176
     0
 62
     7
176
     0
 62
   257
176
     0
 90
        1
176
     0
 90
        1
176
     0
 40
1.0
176
     0
 90
       10
176
     2
 62
     7
176
     0
 40
1.0
176
     0
 90
        1
176
     0
 90
        6
176
     0
 90
        2
176
     0
 62
     7
176
     0
 90
        5
176
     0
 90
        0
176
     0
 90
        0
176
     0
290
     0
176
     0
 90
        1
176
     0
 40
0.0
176
     0
 90
        0
176
     0
290
     0
176
     0
290
     1
176
     0
290
     1
176
     0
290
     0
176
     0
290
     0
176
     0
290
     0
176
     0
290
     0
176
     0
290
     0
176
     0
290
     0
176
     0
 90
       50
176
     0
 40
0.0
176
     0
 40
1.0
176
     0
 90
        0
176
     0
 62
    18
420
        0
176
     0
 90
       50
176
     0
 90
        3
176
     0
 62
     5
420
      255
176
     0
290
     0
176
     0
 90
       50
176
     0
 90
       50
176
     0
 90
       50
176
     0
290
     0
176
     0
 90
       50
176
     0
 62
   256
176
     0
 40
1.0
176
     0
 90
        2
176
     0
  1
strokes_ogs.tif
176
     0
290
     0
176
     0
 40
1.0
176
     0
 40
1.0
176
     0
  0
VISUALSTYLE
  5
20833
102
{ACAD_REACTORS
330
20825
102
}
330
20825
100
AcDbVisualStyle
  2
Linepattern
 70
    14
177
     3
291
     1
 70
    58
 90
        2
176
     1
 90
        2
176
     1
 90
        0
176
     1
 90
        0
176
     1
 40
0.6
176
     1
 40
30.0
176
     1
 62
     7
420
 16777215
176
     1
 90
        1
176
     1
 90
        4
176
     1
 62
     7
176
     1
 62
   257
176
     1
 90
        7
176
     1
 90
        7
176
     1
 40
1.0
176
     1
 90
        8
176
     1
 62
     7
176
     1
 40
1.0
176
     1
 90
        1
176
     1
 90
        6
176
     1
 90
        2
176
     1
 62
     7
176
     1
 90
        5
176
     1
 90
        0
176
     1
 90
        0
176
     1
290
     0
176
     1
 90
        1
176
     1
 40
0.0
176
     1
 90
        0
176
     1
290
     0
176
     1
290
     1
176
     1
290
     1
176
     1
290
     0
176
     1
290
     0
176
     1
290
     0
176
     1
290
     0
176
     1
290
     0
176
     1
290
     0
176
     1
 90
       50
176
     1
 40
0.0
176
     1
 40
1.0
176
     1
 90
        0
176
     1
 62
    18
420
        0
176
     1
 90
       50
176
     1
 90
        3
176
     1
 62
     5
420
      255
176
     1
290
     0
176
     1
 90
       50
176
     1
 90
       50
176
     1
 90
       50
176
     1
290
     0
176
     1
 90
       50
176
     1
 62
   256
176
     0
 40
1.0
176
     0
 90
        2
176
     1
  1
strokes_ogs.tif
176
     1
290
     0
176
     1
 40
1.0
176
     1
 40
1.0
176
     1
  0
VISUALSTYLE
  5
20837
102
{ACAD_REACTORS
330
20825
102
}
330
20825
100
AcDbVisualStyle
  2
OverhangOff
 70
    21
177
     3
291
     1
 70
    58
 90
        2
176
     0
 90
        2
176
     0
 90
        0
176
     0
 90
        0
176
     0
 40
0.6
176
     0
 40
30.0
176
     0
 62
     7
420
 16777215
176
     0
 90
        1
176
     0
 90
        4
176
     0
 62
     7
176
     0
 62
   257
176
     0
 90
        1
176
     0
 90
        1
176
     0
 40
1.0
176
     0
 90
        9
176
     2
 62
     7
176
     0
 40
1.0
176
     0
 90
        1
176
     0
 90
        6
176
     0
 90
        2
176
     0
 62
     7
176
     0
 90
        5
176
     0
 90
        0
176
     0
 90
        0
176
     0
290
     0
176
     0
 90
        1
176
     0
 40
0.0
176
     0
 90
        0
176
     0
290
     0
176
     0
290
     1
176
     0
290
     1
176
     0
290
     0
176
     0
290
     0
176
     0
290
     0
176
     0
290
     0
176
     0
290
     0
176
     0
290
     0
176
     0
 90
       50
176
     0
 40
0.0
176
     0
 40
1.0
176
     0
 90
        0
176
     0
 62
    18
420
        0
176
     0
 90
       50
176
     0
 90
        3
176
     0
 62
     5
420
      255
176
     0
290
     0
176
     0
 90
       50
176
     0
 90
       50
176
     0
 90
       50
176
     0
290
     0
176
     0
 90
       50
176
     0
 62
   256
176
     0
 40
1.0
176
     0
 90
        2
176
     0
  1
strokes_ogs.tif
176
     0
290
     0
176
     0
 40
1.0
176
     0
 40
1.0
176
     0
  0
VISUALSTYLE
  5
2082E
102
{ACAD_REACTORS
330
20825
102
}
330
20825
100
AcDbVisualStyle
  2
Realistic
 70
     8
177
     3
291
     0
 70
    58
 90
        2
176
     1
 90
        3
176
     1
 90
        0
176
     1
 90
        2
176
     1
 40
0.6
176
     1
 40
30.0
176
     1
 62
     7
420
 16777215
176
     1
 90
        0
176
     1
 90
        0
176
     1
 62
     7
176
     1
 62
   257
176
     1
 90
        1
176
     1
 90
        1
176
     1
 40
1.0
176
     1
 90
        8
176
     1
 62
   257
176
     1
 40
1.0
176
     1
 90
        1
176
     1
 90
        6
176
     1
 90
        2
176
     1
 62
     7
176
     1
 90
        3
176
     1
 90
        0
176
     1
 90
        0
176
     1
290
     0
176
     1
 90
       13
176
     1
 40
0.0
176
     1
 90
        0
176
     1
290
     0
176
     1
290
     1
176
     1
290
     1
176
     1
290
     0
176
     1
290
     0
176
     1
290
     0
176
     1
290
     0
176
     1
290
     0
176
     1
290
     0
176
     1
 90
       50
176
     1
 40
0.0
176
     1
 40
1.0
176
     1
 90
        0
176
     1
 62
    18
420
        0
176
     1
 90
       50
176
     1
 90
        3
176
     1
 62
     5
420
      255
176
     1
290
     0
176
     1
 90
       50
176
     1
 90
       50
176
     1
 90
       50
176
     1
290
     0
176
     1
 90
       50
176
     1
 62
   256
176
     0
 40
1.0
176
     0
 90
        2
176
     1
  1
strokes_ogs.tif
176
     1
290
     0
176
     1
 40
1.0
176
     1
 40
1.0
176
     1
  0
VISUALSTYLE
  5
2083D
102
{ACAD_REACTORS
330
20825
102
}
330
20825
100
AcDbVisualStyle
  2
Shaded
 70
    27
177
     3
291
     0
 70
    58
 90
        2
176
     1
 90
        2
176
     1
 90
        1
176
     1
 90
        2
176
     1
 40
0.6
176
     1
 40
30.0
176
     1
 62
     7
420
 16777215
176
     1
 90
        0
176
     1
 90
        4
176
     1
 62
     7
176
     1
 62
   257
176
     1
 90
        1
176
     1
 90
        1
176
     1
 40
1.0
176
     1
 90
        8
176
     1
 62
   257
176
     1
 40
1.0
176
     1
 90
        1
176
     1
 90
        6
176
     1
 90
        2
176
     1
 62
     8
420
  7895160
176
     1
 90
        3
176
     1
 90
        0
176
     1
 90
        0
176
     1
290
     0
176
     1
 90
        5
176
     1
 40
0.0
176
     1
 90
        0
176
     1
290
     0
176
     1
290
     1
176
     1
290
     1
176
     1
290
     0
176
     1
290
     0
176
     1
290
     0
176
     1
290
     0
176
     1
290
     0
176
     1
290
     0
176
     1
 90
       50
176
     1
 40
0.0
176
     1
 40
1.0
176
     1
 90
        0
176
     1
 62
    18
420
        0
176
     1
 90
       50
176
     1
 90
        3
176
     1
 62
     5
420
      255
176
     1
290
     0
176
     1
 90
       50
176
     1
 90
       50
176
     1
 90
       50
176
     1
290
     0
176
     1
 90
       50
176
     1
 62
   256
176
     0
 40
1.0
176
     0
 90
        2
176
     1
  1
strokes_ogs.tif
176
     1
290
     0
176
     1
 40
1.0
176
     1
 40
1.0
176
     1
  0
VISUALSTYLE
  5
2083C
102
{ACAD_REACTORS
330
20825
102
}
330
20825
100
AcDbVisualStyle
  2
Shaded with edges
 70
    26
177
     3
291
     0
 70
    58
 90
        2
176
     1
 90
        2
176
     1
 90
        1
176
     1
 90
        2
176
     1
 40
0.6
176
     1
 40
30.0
176
     1
 62
     7
420
 16777215
176
     1
 90
        1
176
     1
 90
       10
176
     1
 62
     7
176
     1
 62
   257
176
     1
 90
        2
176
     1
 90
        1
176
     1
 40
1.0
176
     1
 90
        8
176
     1
 62
   257
176
     1
 40
1.0
176
     1
 90
        1
176
     1
 90
        6
176
     1
 90
        2
176
     1
 62
     7
176
     1
 90
        3
176
     1
 90
        0
176
     1
 90
        0
176
     1
290
     0
176
     1
 90
        5
176
     1
 40
0.0
176
     1
 90
        0
176
     1
290
     0
176
     1
290
     1
176
     1
290
     1
176
     1
290
     0
176
     1
290
     0
176
     1
290
     0
176
     1
290
     0
176
     1
290
     0
176
     1
290
     0
176
     1
 90
       50
176
     1
 40
0.0
176
     1
 40
1.0
176
     1
 90
        0
176
     1
 62
    18
420
        0
176
     1
 90
       50
176
     1
 90
        3
176
     1
 62
     5
420
      255
176
     1
290
     0
176
     1
 90
       50
176
     1
 90
       50
176
     1
 90
       50
176
     1
290
     0
176
     1
 90
       50
176
     1
 62
   256
176
     0
 40
1.0
176
     0
 90
        2
176
     1
  1
strokes_ogs.tif
176
     1
290
     0
176
     1
 40
1.0
176
     1
 40
1.0
176
     1
  0
VISUALSTYLE
  5
20839
102
{ACAD_REACTORS
330
20825
102
}
330
20825
100
AcDbVisualStyle
  2
Shades of Gray
 70
    23
177
     3
291
     0
 70
    58
 90
        2
176
     1
 90
        2
176
     1
 90
        3
176
     1
 90
        0
176
     1
 40
0.6
176
     1
 40
30.0
176
     1
 62
     7
420
 16777215
176
     1
 90
        2
176
     1
 90
        2
176
     1
 62
     7
176
     1
 62
     7
176
     1
 90
        1
176
     1
 90
        1
176
     1
 40
40.0
176
     1
 90
        8
176
     1
 62
     7
176
     1
 40
1.0
176
     1
 90
        1
176
     1
 90
        6
176
     1
 90
        2
176
     1
 62
     7
176
     1
 90
        3
176
     1
 90
        0
176
     1
 90
        0
176
     1
290
     0
176
     1
 90
        1
176
     1
 40
0.0
176
     1
 90
        0
176
     1
290
     0
176
     1
290
     1
176
     1
290
     1
176
     1
290
     0
176
     1
290
     0
176
     1
290
     0
176
     1
290
     0
176
     1
290
     0
176
     1
290
     0
176
     1
 90
       50
176
     1
 40
0.0
176
     1
 40
1.0
176
     1
 90
        0
176
     1
 62
    18
420
        0
176
     1
 90
       50
176
     1
 90
        3
176
     1
 62
     5
420
      255
176
     1
290
     0
176
     1
 90
       50
176
     1
 90
       50
176
     1
 90
       50
176
     1
290
     0
176
     1
 90
       50
176
     1
 62
   256
176
     0
 40
1.0
176
     0
 90
        2
176
     1
  1
strokes_ogs.tif
176
     1
290
     0
176
     1
 40
1.0
176
     1
 40
1.0
176
     1
  0
VISUALSTYLE
  5
2083A
102
{ACAD_REACTORS
330
20825
102
}
330
20825
100
AcDbVisualStyle
  2
Sketchy
 70
    24
177
     3
291
     0
 70
    58
 90
        1
176
     1
 90
        2
176
     1
 90
        2
176
     1
 90
        0
176
     1
 40
0.6
176
     1
 40
30.0
176
     1
 62
     7
420
 16777215
176
     1
 90
        2
176
     1
 90
        2
176
     1
 62
     7
176
     1
 62
     7
176
     1
 90
        1
176
     1
 90
        1
176
     1
 40
40.0
176
     1
 90
       11
176
     1
 62
     7
176
     1
 40
1.0
176
     1
 90
        1
176
     1
 90
        6
176
     1
 90
        2
176
     1
 62
     7
176
     1
 90
        6
176
     1
 90
        0
176
     1
 90
        0
176
     1
290
     0
176
     1
 90
        1
176
     1
 40
0.0
176
     1
 90
        0
176
     1
290
     0
176
     1
290
     1
176
     1
290
     1
176
     1
290
     0
176
     1
290
     0
176
     1
290
     0
176
     1
290
     0
176
     1
290
     0
176
     1
290
     0
176
     1
 90
       50
176
     1
 40
0.0
176
     1
 40
1.0
176
     1
 90
        0
176
     1
 62
    18
420
        0
176
     1
 90
       50
176
     1
 90
        3
176
     1
 62
     5
420
      255
176
     1
290
     0
176
     1
 90
       50
176
     1
 90
       50
176
     1
 90
       50
176
     1
290
     0
176
     1
 90
       50
176
     1
 62
   256
176
     0
 40
1.0
176
     0
 90
        2
176
     1
  1
strokes_ogs.tif
176
     1
290
     0
176
     1
 40
1.0
176
     1
 40
1.0
176
     1
  0
VISUALSTYLE
  5
20832
102
{ACAD_REACTORS
330
20825
102
}
330
20825
100
AcDbVisualStyle
  2
Thicken
 70
    13
177
     3
291
     1
 70
    58
 90
        2
176
     1
 90
        2
176
     1
 90
        0
176
     1
 90
        0
176
     1
 40
0.6
176
     1
 40
30.0
176
     1
 62
     7
420
 16777215
176
     1
 90
        1
176
     1
 90
        4
176
     1
 62
     7
176
     1
 62
   257
176
     1
 90
        1
176
     1
 90
        1
176
     1
 40
1.0
176
     1
 90
       12
176
     1
 62
     7
176
     1
 40
1.0
176
     1
 90
        1
176
     1
 90
        6
176
     1
 90
        2
176
     1
 62
     7
176
     1
 90
        5
176
     1
 90
        0
176
     1
 90
        0
176
     1
290
     0
176
     1
 90
        1
176
     1
 40
0.0
176
     1
 90
        0
176
     1
290
     0
176
     1
290
     1
176
     1
290
     1
176
     1
290
     0
176
     1
290
     0
176
     1
290
     0
176
     1
290
     0
176
     1
290
     0
176
     1
290
     0
176
     1
 90
       50
176
     1
 40
0.0
176
     1
 40
1.0
176
     1
 90
        0
176
     1
 62
    18
420
        0
176
     1
 90
       50
176
     1
 90
        3
176
     1
 62
     5
420
      255
176
     1
290
     0
176
     1
 90
       50
176
     1
 90
       50
176
     1
 90
       50
176
     1
290
     0
176
     1
 90
       50
176
     1
 62
   256
176
     0
 40
1.0
176
     0
 90
        2
176
     1
  1
strokes_ogs.tif
176
     1
290
     0
176
     1
 40
1.0
176
     1
 40
1.0
176
     1
  0
VISUALSTYLE
  5
2082B
102
{ACAD_REACTORS
330
20825
102
}
330
20825
100
AcDbVisualStyle
  2
Wireframe
 70
     5
177
     3
291
     0
 70
    58
 90
        0
176
     1
 90
        2
176
     1
 90
        0
176
     1
 90
        0
176
     1
 40
0.6
176
     1
 40
30.0
176
     1
 62
     7
420
 16777215
176
     1
 90
        1
176
     1
 90
        4
176
     1
 62
     7
176
     1
 62
   257
176
     1
 90
        1
176
     1
 90
        1
176
     1
 40
1.0
176
     1
 90
        0
176
     1
 62
   257
176
     1
 40
1.0
176
     1
 90
        1
176
     1
 90
        6
176
     1
 90
        2
176
     1
 62
     7
176
     1
 90
        3
176
     1
 90
        0
176
     1
 90
        0
176
     1
290
     0
176
     1
 90
        1
176
     1
 40
0.0
176
     1
 90
        0
176
     1
290
     0
176
     1
290
     1
176
     1
290
     1
176
     1
290
     0
176
     1
290
     0
176
     1
290
     0
176
     1
290
     0
176
     1
290
     0
176
     1
290
     0
176
     1
 90
       50
176
     1
 40
0.0
176
     1
 40
1.0
176
     1
 90
        0
176
     1
 62
    18
420
        0
176
     1
 90
       50
176
     1
 90
        3
176
     1
 62
     5
420
      255
176
     1
290
     0
176
     1
 90
       50
176
     1
 90
       50
176
     1
 90
       50
176
     1
290
     0
176
     1
 90
       50
176
     1
 62
   256
176
     0
 40
1.0
176
     0
 90
        2
176
     1
  1
strokes_ogs.tif
176
     1
290
     0
176
     1
 40
1.0
176
     1
 40
1.0
176
     1
  0
VISUALSTYLE
  5
2083B
102
{ACAD_REACTORS
330
20825
102
}
330
20825
100
AcDbVisualStyle
  2
X-Ray
 70
    25
177
     3
291
     0
 70
    58
 90
        2
176
     1
 90
        2
176
     1
 90
        1
176
     1
 90
        1
176
     1
 40
0.5
176
     1
 40
30.0
176
     1
 62
     7
420
 16777215
176
     1
 90
        1
176
     1
 90
        0
176
     1
 62
     7
176
     1
 62
   257
176
     1
 90
        1
176
     1
 90
        1
176
     1
 40
1.0
176
     1
 90
        8
176
     1
 62
     7
176
     1
 40
1.0
176
     1
 90
        1
176
     1
 90
        6
176
     1
 90
        2
176
     1
 62
     7
176
     1
 90
        3
176
     1
 90
        0
176
     1
 90
        0
176
     1
290
     0
176
     1
 90
       13
176
     1
 40
0.0
176
     1
 90
        0
176
     1
290
     0
176
     1
290
     1
176
     1
290
     1
176
     1
290
     0
176
     1
290
     0
176
     1
290
     0
176
     1
290
     0
176
     1
290
     0
176
     1
290
     0
176
     1
 90
       50
176
     1
 40
0.0
176
     1
 40
1.0
176
     1
 90
        0
176
     1
 62
    18
420
        0
176
     1
 90
       50
176
     1
 90
        3
176
     1
 62
     5
420
      255
176
     1
290
     0
176
     1
 90
       50
176
     1
 90
       50
176
     1
 90
       50
176
     1
290
     0
176
     1
 90
       50
176
     1
 62
   256
176
     0
 40
1.0
176
     0
 90
        2
176
     1
  1
strokes_ogs.tif
176
     1
290
     0
176
     1
 40
1.0
176
     1
 40
1.0
176
     1
  0
DICTIONARYVAR
  5
208CD
102
{ACAD_REACTORS
330
208CC
102
}
330
208CC
100
DictionaryVariables
280
     0
  1
1:1
  0
DICTIONARYVAR
  5
208D2
102
{ACAD_REACTORS
330
208CC
102
}
330
208CC
100
DictionaryVariables
280
     0
  1
Standard
  0
DICTIONARYVAR
  5
208D1
102
{ACAD_REACTORS
330
208CC
102
}
330
208CC
100
DictionaryVariables
280
     0
  1
Standard
  0
XRECORD
  5
2085C
102
{ACAD_REACTORS
330
2085A
102
}
330
2085A
100
AcDbXrecord
280
     1
1000
#ffffff
  0
XRECORD
  5
2085D
102
{ACAD_REACTORS
330
2085A
102
}
330
2085A
100
AcDbXrecord
280
     1
1000
FullColor
  0
XRECORD
  5
2085E
102
{ACAD_REACTORS
330
2085A
102
}
330
2085A
100
AcDbXrecord
280
     1
290
     1
  0
XRECORD
  5
2085F
102
{ACAD_REACTORS
330
2085A
102
}
330
2085A
100
AcDbXrecord
280
     1
290
     1
  0
XRECORD
  5
20860
102
{ACAD_REACTORS
330
2085A
102
}
330
2085A
100
AcDbXrecord
280
     1
290
     1
  0
XRECORD
  5
20861
102
{ACAD_REACTORS
330
2085A
102
}
330
2085A
100
AcDbXrecord
280
     1
290
     1
  0
XRECORD
  5
20862
102
{ACAD_REACTORS
330
2085A
102
}
330
2085A
100
AcDbXrecord
280
     1
1000
auto
  0
XRECORD
  5
20863
102
{ACAD_REACTORS
330
2085A
102
}
330
2085A
100
AcDbXrecord
280
     1
1000
auto
  0
XRECORD
  5
20864
102
{ACAD_REACTORS
330
2085A
102
}
330
2085A
100
AcDbXrecord
280
     1
1000
auto
  0
XRECORD
  5
20865
102
{ACAD_REACTORS
330
2085A
102
}
330
2085A
100
AcDbXrecord
280
     1
1000
auto
  0
XRECORD
  5
20866
102
{ACAD_REACTORS
330
2085A
102
}
330
2085A
100
AcDbXrecord
280
     1
1000
auto
  0
XRECORD
  5
20867
102
{ACAD_REACTORS
330
2085A
102
}
330
2085A
100
AcDbXrecord
280
     1
1000
auto
  0
XRECORD
  5
20868
102
{ACAD_REACTORS
330
2085A
102
}
330
2085A
100
AcDbXrecord
280
     1
1000
auto
  0
XRECORD
  5
20869
102
{ACAD_REACTORS
330
2085A
102
}
330
2085A
100
AcDbXrecord
280
     1
1000
auto
  0
XRECORD
  5
2086A
102
{ACAD_REACTORS
330
2085A
102
}
330
2085A
100
AcDbXrecord
280
     1
290
     0
  0
XRECORD
  5
2086B
102
{ACAD_REACTORS
330
2085A
102
}
330
2085A
100
AcDbXrecord
280
     1
290
     0
  0
XRECORD
  5
2086C
102
{ACAD_REACTORS
330
2085A
102
}
330
2085A
100
AcDbXrecord
280
     1
290
     0
  0
XRECORD
  5
2086D
102
{ACAD_REACTORS
330
2085A
102
}
330
2085A
100
AcDbXrecord
280
     1
290
     0
  0
XRECORD
  5
2086E
102
{ACAD_REACTORS
330
2085A
102
}
330
2085A
100
AcDbXrecord
280
     1
 90
    65537
  0
XRECORD
  5
2086F
102
{ACAD_REACTORS
330
2085A
102
}
330
2085A
100
AcDbXrecord
280
     1
 90
    65537
  0
XRECORD
  5
20870
102
{ACAD_REACTORS
330
2085A
102
}
330
2085A
100
AcDbXrecord
280
     1
 90
    65537
  0
XRECORD
  5
20871
102
{ACAD_REACTORS
330
2085A
102
}
330
2085A
100
AcDbXrecord
280
     1
 90
    65537
  0
XRECORD
  5
20872
102
{ACAD_REACTORS
330
2085A
102
}
330
2085A
100
AcDbXrecord
280
     1
1000
auto
  0
XRECORD
  5
20873
102
{ACAD_REACTORS
330
2085A
102
}
330
2085A
100
AcDbXrecord
280
     1
1000
auto
  0
XRECORD
  5
20874
102
{ACAD_REACTORS
330
2085A
102
}
330
2085A
100
AcDbXrecord
280
     1
1000
auto
  0
XRECORD
  5
20875
102
{ACAD_REACTORS
330
2085A
102
}
330
2085A
100
AcDbXrecord
280
     1
1000
auto
  0
XRECORD
  5
20876
102
{ACAD_REACTORS
330
2085A
102
}
330
2085A
100
AcDbXrecord
280
     1
1000
auto
  0
XRECORD
  5
20877
102
{ACAD_REACTORS
330
2085A
102
}
330
2085A
100
AcDbXrecord
280
     1
1000
auto
  0
XRECORD
  5
20878
102
{ACAD_REACTORS
330
2085A
102
}
330
2085A
100
AcDbXrecord
280
     1
1000
auto
  0
XRECORD
  5
20879
102
{ACAD_REACTORS
330
2085A
102
}
330
2085A
100
AcDbXrecord
280
     1
1000
auto
  0
XRECORD
  5
2087A
102
{ACAD_REACTORS
330
2085A
102
}
330
2085A
100
AcDbXrecord
280
     1
 90
        1
  0
XRECORD
  5
2087B
102
{ACAD_REACTORS
330
2085A
102
}
330
2085A
100
AcDbXrecord
280
     1
 40
10.0
  0
XRECORD
  5
2087C
102
{ACAD_REACTORS
330
2085A
102
}
330
2085A
100
AcDbXrecord
280
     1
 40
10.0
  0
XRECORD
  5
2087D
102
{ACAD_REACTORS
330
2085A
102
}
330
2085A
100
AcDbXrecord
280
     1
 40
10.0
  0
XRECORD
  5
2087E
102
{ACAD_REACTORS
330
2085A
102
}
330
2085A
100
AcDbXrecord
280
     1
 40
10.0
  0
XRECORD
  5
2087F
102
{ACAD_REACTORS
330
2085A
102
}
330
2085A
100
AcDbXrecord
280
     1
290
     0
  0
XRECORD
  5
20880
102
{ACAD_REACTORS
330
2085A
102
}
330
2085A
100
AcDbXrecord
280
     1
 90
        1
  0
XRECORD
  5
20881
102
{ACAD_REACTORS
330
2085A
102
}
330
2085A
100
AcDbXrecord
280
     1
 40
0.0
  0
XRECORD
  5
20882
102
{ACAD_REACTORS
330
2085A
102
}
330
2085A
100
AcDbXrecord
280
     1
 40
0.0
  0
XRECORD
  5
20883
102
{ACAD_REACTORS
330
2085A
102
}
330
2085A
100
AcDbXrecord
280
     1
1000
Portrait
  0
XRECORD
  5
20884
102
{ACAD_REACTORS
330
2085A
102
}
330
2085A
100
AcDbXrecord
280
     1
 40
297.0
  0
XRECORD
  5
20885
102
{ACAD_REACTORS
330
2085A
102
}
330
2085A
100
AcDbXrecord
280
     1
 40
210.0
  0
XRECORD
  5
20886
102
{ACAD_REACTORS
330
2085A
102
}
330
2085A
100
AcDbXrecord
280
     1
1000
1:1
  0
XRECORD
  5
20887
102
{ACAD_REACTORS
330
2085A
102
}
330
2085A
100
AcDbXrecord
280
     1
290
     1
  0
XRECORD
  5
20888
102
{ACAD_REACTORS
330
2085A
102
}
330
2085A
100
AcDbXrecord
280
     1
290
     0
  0
XRECORD
  5
20889
102
{ACAD_REACTORS
330
2085A
102
}
330
2085A
100
AcDbXrecord
280
     1
1000
Inside
  0
XRECORD
  5
2088A
102
{ACAD_REACTORS
330
2085A
102
}
330
2085A
100
AcDbXrecord
280
     1
1000
Arial,10,-1,5,50,0,0,0,0,0
  0
XRECORD
  5
2088B
102
{ACAD_REACTORS
330
2085A
102
}
330
2085A
100
AcDbXrecord
280
     1
1000
TopLeft
  0
XRECORD
  5
2088C
102
{ACAD_REACTORS
330
2085A
102
}
330
2085A
100
AcDbXrecord
280
     1
1000
3.28.2
  0
XRECORD
  5
2088D
102
{ACAD_REACTORS
330
2085A
102
}
330
2085A
100
AcDbXrecord
280
     1
 90
        4
  0
XRECORD
  5
2088E
102
{ACAD_REACTORS
330
2085A
102
}
330
2085A
100
AcDbXrecord
280
     1
  0
XRECORD
  5
2088F
102
{ACAD_REACTORS
330
2085A
102
}
330
2085A
100
AcDbXrecord
280
     1
 40
223.390297518282
  0
XRECORD
  5
20890
102
{ACAD_REACTORS
330
2085A
102
}
330
2085A
100
AcDbXrecord
280
     1
 40
427.5426131166092
  0
DICTIONARY
  5
208CE
330
20855
100
AcDbDictionary
280
     1
281
     1
  3
ACAD_ROUNDTRIP_2008_TABLESTYLE_CELLSTYLEMAP
360
208CF
  0
CELLSTYLEMAP
  5
208CF
102
{ACAD_REACTORS
330
208CE
102
}
330
208CE
100
AcDbCellStyleMap
 90
        3
300
CELLSTYLE
  1
TABLEFORMAT_BEGIN
 90
        5
170
     1
 91
        0
 92
    32768
 62
   257
 93
        1
300
CONTENTFORMAT
  1
CONTENTFORMAT_BEGIN
 90
        0
 91
        0
 92
        4
 93
        0
300

 40
0.0
140
1.0
 94
        5
 62
     0
340
2080D
144
0.25
309
CONTENTFORMAT_END
171
     1
301
MARGIN
  1
CELLMARGIN_BEGIN
 40
0.06
 40
0.06
 40
0.06
 40
0.06
 40
0.06
 40
0.06
309
CELLMARGIN_END
 94
        6
 95
        1
302
GRIDFORMAT
  1
GRIDFORMAT_BEGIN
 90
        0
 91
        1
 62
     0
 92
       -2
340
2080F
 93
        0
 40
0.045
309
GRIDFORMAT_END
 95
        2
302
GRIDFORMAT
  1
GRIDFORMAT_BEGIN
 90
        0
 91
        1
 62
     0
 92
       -2
340
2080F
 93
        0
 40
0.045
309
GRIDFORMAT_END
 95
        4
302
GRIDFORMAT
  1
GRIDFORMAT_BEGIN
 90
        0
 91
        1
 62
     0
 92
       -2
340
2080F
 93
        0
 40
0.045
309
GRIDFORMAT_END
 95
        8
302
GRIDFORMAT
  1
GRIDFORMAT_BEGIN
 90
        0
 91
        1
 62
     0
 92
       -2
340
2080F
 93
        0
 40
0.045
309
GRIDFORMAT_END
 95
       16
302
GRIDFORMAT
  1
GRIDFORMAT_BEGIN
 90
        0
 91
        1
 62
     0
 92
       -2
340
2080F
 93
        0
 40
0.045
309
GRIDFORMAT_END
 95
       32
302
GRIDFORMAT
  1
GRIDFORMAT_BEGIN
 90
        0
 91
        1
 62
     0
 92
       -2
340
2080F
 93
        0
 40
0.045
309
GRIDFORMAT_END
309
TABLEFORMAT_END
  1
CELLSTYLE_BEGIN
 90
        1
 91
        1
300
_TITLE
309
CELLSTYLE_END
300
CELLSTYLE
  1
TABLEFORMAT_BEGIN
 90
        5
170
     1
 91
        0
 92
        0
 62
   257
 93
        1
300
CONTENTFORMAT
  1
CONTENTFORMAT_BEGIN
 90
        0
 91
        0
 92
        4
 93
        0
300

 40
0.0
140
1.0
 94
        5
 62
     0
340
2080D
144
0.18
309
CONTENTFORMAT_END
171
     1
301
MARGIN
  1
CELLMARGIN_BEGIN
 40
0.06
 40
0.06
 40
0.06
 40
0.06
 40
0.06
 40
0.06
309
CELLMARGIN_END
 94
        6
 95
        1
302
GRIDFORMAT
  1
GRIDFORMAT_BEGIN
 90
        0
 91
        1
 62
     0
 92
       -2
340
2080F
 93
        0
 40
0.045
309
GRIDFORMAT_END
 95
        2
302
GRIDFORMAT
  1
GRIDFORMAT_BEGIN
 90
        0
 91
        1
 62
     0
 92
       -2
340
2080F
 93
        0
 40
0.045
309
GRIDFORMAT_END
 95
        4
302
GRIDFORMAT
  1
GRIDFORMAT_BEGIN
 90
        0
 91
        1
 62
     0
 92
       -2
340
2080F
 93
        0
 40
0.045
309
GRIDFORMAT_END
 95
        8
302
GRIDFORMAT
  1
GRIDFORMAT_BEGIN
 90
        0
 91
        1
 62
     0
 92
       -2
340
2080F
 93
        0
 40
0.045
309
GRIDFORMAT_END
 95
       16
302
GRIDFORMAT
  1
GRIDFORMAT_BEGIN
 90
        0
 91
        1
 62
     0
 92
       -2
340
2080F
 93
        0
 40
0.045
309
GRIDFORMAT_END
 95
       32
302
GRIDFORMAT
  1
GRIDFORMAT_BEGIN
 90
        0
 91
        1
 62
     0
 92
       -2
340
2080F
 93
        0
 40
0.045
309
GRIDFORMAT_END
309
TABLEFORMAT_END
  1
CELLSTYLE_BEGIN
 90
        2
 91
        1
300
_HEADER
309
CELLSTYLE_END
300
CELLSTYLE
  1
TABLEFORMAT_BEGIN
 90
        5
170
     1
 91
        0
 92
        0
 62
   257
 93
        1
300
CONTENTFORMAT
  1
CONTENTFORMAT_BEGIN
 90
        0
 91
        0
 92
        4
 93
        0
300

 40
0.0
140
1.0
 94
        2
 62
     0
340
2080D
144
0.18
309
CONTENTFORMAT_END
171
     1
301
MARGIN
  1
CELLMARGIN_BEGIN
 40
0.06
 40
0.06
 40
0.06
 40
0.06
 40
0.06
 40
0.06
309
CELLMARGIN_END
 94
        6
 95
        1
302
GRIDFORMAT
  1
GRIDFORMAT_BEGIN
 90
        0
 91
        1
 62
     0
 92
       -2
340
2080F
 93
        0
 40
0.045
309
GRIDFORMAT_END
 95
        2
302
GRIDFORMAT
  1
GRIDFORMAT_BEGIN
 90
        0
 91
        1
 62
     0
 92
       -2
340
2080F
 93
        0
 40
0.045
309
GRIDFORMAT_END
 95
        4
302
GRIDFORMAT
  1
GRIDFORMAT_BEGIN
 90
        0
 91
        1
 62
     0
 92
       -2
340
2080F
 93
        0
 40
0.045
309
GRIDFORMAT_END
 95
        8
302
GRIDFORMAT
  1
GRIDFORMAT_BEGIN
 90
        0
 91
        1
 62
     0
 92
       -2
340
2080F
 93
        0
 40
0.045
309
GRIDFORMAT_END
 95
       16
302
GRIDFORMAT
  1
GRIDFORMAT_BEGIN
 90
        0
 91
        1
 62
     0
 92
       -2
340
2080F
 93
        0
 40
0.045
309
GRIDFORMAT_END
 95
       32
302
GRIDFORMAT
  1
GRIDFORMAT_BEGIN
 90
        0
 91
        1
 62
     0
 92
       -2
340
2080F
 93
        0
 40
0.045
309
GRIDFORMAT_END
309
TABLEFORMAT_END
  1
CELLSTYLE_BEGIN
 90
        3
 91
        2
300
_DATA
309
CELLSTYLE_END
  0
ENDSEC
  0
EOF
