M48
; DRILL file {KiCad (6.0.7)} date Fri Oct 14 17:00:14 2022
; FORMAT={-:-/ absolute / inch / decimal}
; #@! TF.CreationDate,2022-10-14T17:00:14+02:00
; #@! TF.GenerationSoftware,Kicad,Pcbnew,(6.0.7)
; #@! TF.FileFunction,NonPlated,1,2,NPTH
FMAT,2
INCH
; #@! TA.AperFunction,NonPlated,NPTH,ComponentDrill
T1C0.0197
; #@! TA.AperFunction,NonPlated,NPTH,ComponentDrill
T2C0.0256
; #@! TA.AperFunction,NonPlated,NPTH,ComponentDrill
T3C0.0454
; #@! TA.AperFunction,NonPlated,NPTH,ComponentDrill
T4C0.0689
; #@! TA.AperFunction,NonPlated,NPTH,ComponentDrill
T5C0.1200
; #@! TA.AperFunction,NonPlated,NPTH,ComponentDrill
T6C0.1570
%
G90
G05
T1
X0.5906Y-1.0787
X0.5906Y-4.8228
X0.6299Y-1.0787
X0.6299Y-4.8228
X0.6693Y-1.0787
X0.6693Y-4.8228
X0.7087Y-1.0787
X0.7087Y-4.8228
X0.748Y-1.0787
X0.748Y-4.8228
X0.7874Y-1.0787
X0.7874Y-4.8228
X0.8268Y-1.0787
X0.8268Y-4.8228
X0.8661Y-1.0787
X0.8661Y-4.8228
X0.9055Y-1.0787
X0.9055Y-4.8228
X0.9449Y-1.0787
X0.9449Y-4.8228
X0.9843Y-1.0787
X0.9843Y-4.8228
X1.0689Y-2.4272
X1.0689Y-2.4665
X1.0689Y-2.5059
X1.0689Y-2.5453
X1.0689Y-2.5846
X1.0689Y-2.624
X1.0689Y-2.6634
X1.0689Y-2.7028
X1.0689Y-2.7421
X1.0787Y-0.5906
X1.0787Y-0.6299
X1.0787Y-0.6693
X1.0787Y-0.7087
X1.0787Y-0.748
X1.0787Y-0.7874
X1.0787Y-0.8268
X1.0787Y-0.8661
X1.0787Y-0.9055
X1.0787Y-0.9449
X1.0787Y-0.9843
X1.0787Y-4.9173
X1.0787Y-4.9567
X1.0787Y-4.9961
X1.0787Y-5.0354
X1.0787Y-5.0748
X1.0787Y-5.1142
X1.0787Y-5.1535
X1.0787Y-5.1929
X1.0787Y-5.2323
X1.0787Y-5.2717
X1.0787Y-5.311
X2.7815Y-1.0886
X2.8209Y-1.0886
X2.8602Y-1.0886
X2.8996Y-1.0886
X2.939Y-1.0886
X2.9783Y-1.0886
X3.0177Y-1.0886
X3.0571Y-1.0886
X3.0965Y-1.0886
X4.2815Y-4.8327
X4.3209Y-4.8327
X4.3602Y-4.8327
X4.3996Y-4.8327
X4.439Y-4.8327
X4.4783Y-4.8327
X4.5177Y-4.8327
X4.5571Y-4.8327
X4.5965Y-4.8327
X8.7815Y-4.8327
X8.8209Y-4.8327
X8.8602Y-4.8327
X8.8996Y-4.8327
X8.939Y-4.8327
X8.9783Y-4.8327
X9.0177Y-4.8327
X9.0571Y-4.8327
X9.0965Y-4.8327
X10.2815Y-1.0886
X10.3209Y-1.0886
X10.3602Y-1.0886
X10.3996Y-1.0886
X10.439Y-1.0886
X10.4783Y-1.0886
X10.5177Y-1.0886
X10.5571Y-1.0886
X10.5965Y-1.0886
X12.2992Y-0.5906
X12.2992Y-0.6299
X12.2992Y-0.6693
X12.2992Y-0.7087
X12.2992Y-0.748
X12.2992Y-0.7874
X12.2992Y-0.8268
X12.2992Y-0.8661
X12.2992Y-0.9055
X12.2992Y-0.9449
X12.2992Y-0.9843
X12.2992Y-4.9173
X12.2992Y-4.9567
X12.2992Y-4.9961
X12.2992Y-5.0354
X12.2992Y-5.0748
X12.2992Y-5.1142
X12.2992Y-5.1535
X12.2992Y-5.1929
X12.2992Y-5.2323
X12.2992Y-5.2717
X12.2992Y-5.311
X12.3091Y-2.4272
X12.3091Y-2.4665
X12.3091Y-2.5059
X12.3091Y-2.5453
X12.3091Y-2.5846
X12.3091Y-2.624
X12.3091Y-2.6634
X12.3091Y-2.7028
X12.3091Y-2.7421
X12.3937Y-1.0787
X12.3937Y-4.8228
X12.4331Y-1.0787
X12.4331Y-4.8228
X12.4724Y-1.0787
X12.4724Y-4.8228
X12.5118Y-1.0787
X12.5118Y-4.8228
X12.5512Y-1.0787
X12.5512Y-4.8228
X12.5906Y-1.0787
X12.5906Y-4.8228
X12.6299Y-1.0787
X12.6299Y-4.8228
X12.6693Y-1.0787
X12.6693Y-4.8228
X12.7087Y-1.0787
X12.7087Y-4.8228
X12.748Y-1.0787
X12.748Y-4.8228
X12.7874Y-1.0787
X12.7874Y-4.8228
T2
X1.6802Y-1.258
X1.9078Y-1.258
T3
X0.7283Y-0.7283
X0.7283Y-5.1732
X12.6496Y-0.7283
T4
X1.4265Y-2.2106
X1.4265Y-2.9606
X1.4265Y-3.7106
X1.4265Y-4.4606
X1.6265Y-1.6606
X1.8265Y-2.2106
X1.8265Y-2.9606
X1.8265Y-3.7106
X1.8265Y-4.4606
X2.364Y-1.4606
X2.364Y-2.2106
X2.364Y-2.9606
X2.364Y-3.7106
X2.364Y-4.4606
X2.764Y-1.4606
X2.764Y-2.2106
X2.764Y-2.9606
X2.764Y-3.7106
X2.764Y-4.4606
X3.114Y-1.4606
X3.114Y-2.2106
X3.114Y-2.9606
X3.114Y-3.7106
X3.114Y-4.4606
X3.3015Y-4.4606
X3.514Y-1.4606
X3.514Y-2.2106
X3.514Y-2.9606
X3.514Y-3.7106
X3.514Y-4.4606
X3.7015Y-4.4606
X3.864Y-1.4606
X3.864Y-2.2106
X3.864Y-2.9606
X3.864Y-3.7106
X3.864Y-4.4606
X4.264Y-1.4606
X4.264Y-2.2106
X4.264Y-2.9606
X4.264Y-3.7106
X4.264Y-4.4606
X4.614Y-1.4606
X4.614Y-2.2106
X4.614Y-2.9606
X4.614Y-3.7106
X4.614Y-4.4606
X4.989Y-4.4606
X5.014Y-1.4606
X5.014Y-2.2106
X5.014Y-2.9606
X5.014Y-3.7106
X5.014Y-4.4606
X5.364Y-1.4606
X5.364Y-2.2106
X5.364Y-2.9606
X5.364Y-3.7106
X5.364Y-4.4606
X5.389Y-4.4606
X5.739Y-4.4606
X5.764Y-1.4606
X5.764Y-2.2106
X5.764Y-2.9606
X5.764Y-3.7106
X5.764Y-4.4606
X6.114Y-1.4606
X6.114Y-2.2106
X6.114Y-2.3981
X6.114Y-2.9606
X6.114Y-3.5231
X6.114Y-3.7106
X6.114Y-4.4606
X6.139Y-4.4606
X6.489Y-4.4606
X6.514Y-1.4606
X6.514Y-2.2106
X6.514Y-2.3981
X6.514Y-2.9606
X6.514Y-3.5231
X6.514Y-3.7106
X6.514Y-4.4606
X6.864Y-1.4606
X6.864Y-2.2106
X6.864Y-2.3981
X6.864Y-2.9606
X6.864Y-3.5231
X6.864Y-3.7106
X6.864Y-4.4606
X6.889Y-4.4606
X7.239Y-4.4606
X7.264Y-1.4606
X7.264Y-2.2106
X7.264Y-2.3981
X7.264Y-2.9606
X7.264Y-3.5231
X7.264Y-3.7106
X7.264Y-4.4606
X7.614Y-1.4606
X7.614Y-2.2106
X7.614Y-2.9606
X7.614Y-3.7106
X7.614Y-4.4606
X7.639Y-4.4606
X7.989Y-4.4606
X8.014Y-1.4606
X8.014Y-2.2106
X8.014Y-2.9606
X8.014Y-3.7106
X8.014Y-4.4606
X8.364Y-1.4606
X8.364Y-2.2106
X8.364Y-2.9606
X8.364Y-3.7106
X8.364Y-4.4606
X8.389Y-4.4606
X8.764Y-1.4606
X8.764Y-2.2106
X8.764Y-2.9606
X8.764Y-3.7106
X8.764Y-4.4606
X9.114Y-1.4606
X9.114Y-2.2106
X9.114Y-2.9606
X9.114Y-3.7106
X9.114Y-4.4606
X9.514Y-1.4606
X9.514Y-2.2106
X9.514Y-2.9606
X9.514Y-3.7106
X9.514Y-4.4606
X9.6765Y-4.4606
X9.864Y-1.4606
X9.864Y-2.2106
X9.864Y-2.9606
X9.864Y-3.7106
X9.864Y-4.4606
X10.0765Y-4.4606
X10.264Y-1.4606
X10.264Y-2.2106
X10.264Y-2.9606
X10.264Y-3.7106
X10.264Y-4.4606
X10.614Y-1.4606
X10.614Y-2.2106
X10.614Y-2.9606
X10.614Y-3.7106
X10.614Y-4.4606
X11.014Y-1.4606
X11.014Y-2.2106
X11.014Y-2.9606
X11.014Y-3.7106
X11.014Y-4.4606
X11.5515Y-1.4606
X11.5515Y-2.2106
X11.5515Y-2.9606
X11.5515Y-3.7106
X11.5515Y-4.4606
X11.9515Y-1.4606
X11.9515Y-2.2106
X11.9515Y-2.9606
X11.9515Y-3.7106
X11.9515Y-4.4606
T5
X4.439Y-4.7356
X4.719Y-4.7356
X4.814Y-4.7356
X5.469Y-4.7356
X5.659Y-4.7356
X6.219Y-4.7356
X6.409Y-4.7356
X6.969Y-4.7356
X7.159Y-4.7356
X7.719Y-4.7356
X7.909Y-4.7356
X8.564Y-4.7356
X8.659Y-4.7356
X8.939Y-4.7356
T6
X1.6265Y-1.4606
X1.6265Y-2.2106
X1.6265Y-2.9606
X1.6265Y-3.7106
X1.6265Y-4.4606
X2.564Y-1.4606
X2.564Y-2.2106
X2.564Y-2.9606
X2.564Y-3.7106
X2.564Y-4.4606
X3.314Y-1.4606
X3.314Y-2.2106
X3.314Y-2.9606
X3.314Y-3.7106
X3.314Y-4.4606
X3.5015Y-4.4606
X4.064Y-1.4606
X4.064Y-2.2106
X4.064Y-2.9606
X4.064Y-3.7106
X4.064Y-4.4606
X4.439Y-4.1356
X4.719Y-4.1356
X4.814Y-1.4606
X4.814Y-2.2106
X4.814Y-2.9606
X4.814Y-3.7106
X4.814Y-4.1356
X4.814Y-4.4606
X5.189Y-4.4606
X5.469Y-4.1356
X5.564Y-1.4606
X5.564Y-2.2106
X5.564Y-2.9606
X5.564Y-3.7106
X5.564Y-4.4606
X5.659Y-4.1356
X5.939Y-4.4606
X6.219Y-4.1356
X6.314Y-1.4606
X6.314Y-2.2106
X6.314Y-2.3981
X6.314Y-2.9606
X6.314Y-3.5231
X6.314Y-3.7106
X6.314Y-4.4606
X6.409Y-4.1356
X6.689Y-4.4606
X6.969Y-4.1356
X7.064Y-1.4606
X7.064Y-2.2106
X7.064Y-2.3981
X7.064Y-2.9606
X7.064Y-3.5231
X7.064Y-3.7106
X7.064Y-4.4606
X7.159Y-4.1356
X7.439Y-4.4606
X7.719Y-4.1356
X7.814Y-1.4606
X7.814Y-2.2106
X7.814Y-2.9606
X7.814Y-3.7106
X7.814Y-4.4606
X7.909Y-4.1356
X8.189Y-4.4606
X8.564Y-1.4606
X8.564Y-2.2106
X8.564Y-2.9606
X8.564Y-3.7106
X8.564Y-4.1356
X8.564Y-4.4606
X8.659Y-4.1356
X8.939Y-4.1356
X9.314Y-1.4606
X9.314Y-2.2106
X9.314Y-2.9606
X9.314Y-3.7106
X9.314Y-4.4606
X9.8765Y-4.4606
X10.064Y-1.4606
X10.064Y-2.2106
X10.064Y-2.9606
X10.064Y-3.7106
X10.064Y-4.4606
X10.814Y-1.4606
X10.814Y-2.2106
X10.814Y-2.9606
X10.814Y-3.7106
X10.814Y-4.4606
X11.7515Y-1.4606
X11.7515Y-2.2106
X11.7515Y-2.9606
X11.7515Y-3.7106
X11.7515Y-4.4606
T0
M30
