%TF.GenerationSoftware,KiCad,Pcbnew,7.0.7*%
%TF.CreationDate,2024-01-22T13:40:03+01:00*%
%TF.ProjectId,0x42_panel,30783432-5f70-4616-9e65-6c2e6b696361,2*%
%TF.SameCoordinates,Original*%
%TF.FileFunction,Profile,NP*%
%FSLAX46Y46*%
G04 Gerber Fmt 4.6, Leading zero omitted, Abs format (unit mm)*
G04 Created by KiCad (PCBNEW 7.0.7) date 2024-01-22 13:40:03*
%MOMM*%
%LPD*%
G01*
G04 APERTURE LIST*
%TA.AperFunction,Profile*%
%ADD10C,0.100000*%
%TD*%
G04 APERTURE END LIST*
D10*
X12645561Y-106459598D02*
X12657607Y-106481301D01*
X208045229Y-108392963D02*
X208048804Y-108441423D01*
X299789281Y-45805262D02*
X299780974Y-45853138D01*
X92759877Y-109900000D02*
X10990122Y-109900000D01*
X299399740Y-109705173D02*
X299360012Y-109733152D01*
X297397188Y-67996840D02*
X297397517Y-67996477D01*
X11697380Y-54692631D02*
X11743519Y-54707874D01*
X297090453Y-13831707D02*
X297090317Y-13831494D01*
X12400081Y-70809318D02*
X12400057Y-70809809D01*
X297390681Y-67999918D02*
X297391169Y-67999870D01*
X297442631Y-45947380D02*
X297429671Y-45900549D01*
X17493584Y-69934342D02*
X17485746Y-69952936D01*
X10844737Y-10010718D02*
X10892963Y-10004770D01*
X292296500Y-69909642D02*
X292278991Y-69862368D01*
X297397517Y-70803522D02*
X297397188Y-70803159D01*
X297400000Y-45659877D02*
X297400000Y-14906333D01*
X297034176Y-106652541D02*
X297048356Y-106632168D01*
X297400000Y-55640122D02*
X297401195Y-55591423D01*
X6582Y-890086D02*
X5142Y-901768D01*
X17025178Y-68269529D02*
X17064726Y-68299485D01*
X36099976Y-12402055D02*
X36099562Y-12401771D01*
X309580172Y-375268D02*
X309572930Y-365989D01*
X16452967Y-70776550D02*
X16433095Y-70780054D01*
X93707368Y-108202619D02*
X93720328Y-108249450D01*
X10325158Y-54906460D02*
X10361952Y-54874721D01*
X24916925Y-12632197D02*
X24879842Y-12665194D01*
X10042631Y-109197380D02*
X10029671Y-109150549D01*
X721382Y-119859859D02*
X721619Y-119859922D01*
X309101839Y-119852805D02*
X309171128Y-119828014D01*
X159339987Y-12733152D02*
X159300259Y-12705173D01*
X297540851Y-55131039D02*
X297566847Y-55089987D01*
X175841Y-434572D02*
X175697Y-434771D01*
X14406333Y-107500000D02*
X92759877Y-107500000D01*
X10194826Y-46249740D02*
X10166847Y-46210012D01*
X64173318Y-10116900D02*
X64216721Y-10095053D01*
X12401353Y-70805125D02*
X12401122Y-70805558D01*
X149958576Y-12898804D02*
X149909877Y-12899999D01*
X72071Y-119271358D02*
X76307Y-119282340D01*
X112831Y-119360302D02*
X112939Y-119360523D01*
X102594737Y-107510718D02*
X102642963Y-107504770D01*
X12402170Y-67996097D02*
X12402482Y-67996477D01*
X293281Y-292934D02*
X292934Y-293281D01*
X297761952Y-54874721D02*
X297800259Y-54844826D01*
X159602619Y-10042631D02*
X159649450Y-10029671D01*
X10140851Y-109418960D02*
X10116900Y-109376681D01*
X299780974Y-10796861D02*
X299789281Y-10844737D01*
X292304105Y-68871316D02*
X292323986Y-68824990D01*
X297279516Y-106182861D02*
X297279601Y-106182623D01*
X150197380Y-12857368D02*
X150150549Y-12870328D01*
X207825278Y-109538047D02*
X207793539Y-109574841D01*
X299683099Y-109376681D02*
X299659148Y-109418960D01*
X246092125Y-10656480D02*
X246107368Y-10702619D01*
X64399450Y-10029671D02*
X64446861Y-10019025D01*
X14286322Y-12903512D02*
X14286069Y-12903528D01*
X297103583Y-106547227D02*
X297103715Y-106547010D01*
X292203711Y-69496050D02*
X292201158Y-69445702D01*
X297332735Y-14386759D02*
X297332669Y-14386515D01*
X12380974Y-45853138D02*
X12370328Y-45900549D01*
X309723692Y-119282340D02*
X309727928Y-119271358D01*
X295715075Y-12925256D02*
X295690539Y-12921498D01*
X292838397Y-70574226D02*
X292821277Y-70562943D01*
X207157036Y-107504770D02*
X207205262Y-107510718D01*
X297399839Y-105506331D02*
X297399841Y-105506205D01*
X150895229Y-12007036D02*
X150889281Y-12055262D01*
X55648804Y-10941423D02*
X55650000Y-10990122D01*
X55210012Y-12733152D02*
X55168960Y-12759148D01*
X207649740Y-107694826D02*
X207688047Y-107724721D01*
X150243519Y-12842125D02*
X150197380Y-12857368D01*
X150376681Y-10116900D02*
X150418960Y-10140851D01*
X101760718Y-108344737D02*
X101769025Y-108296861D01*
X150900000Y-10990122D02*
X150900000Y-11909877D01*
X159744737Y-10010718D02*
X159792963Y-10004770D01*
X16588770Y-68055477D02*
X16636178Y-68070100D01*
X55574637Y-12288855D02*
X55554946Y-12333278D01*
X296840804Y-106886710D02*
X296857906Y-106868719D01*
X36860764Y-12895021D02*
X36811513Y-12888814D01*
X309759922Y-721619D02*
X309759859Y-721382D01*
X299770328Y-45900549D02*
X299757368Y-45947380D01*
X12765970Y-13747252D02*
X12765823Y-13747458D01*
X10116900Y-46126681D02*
X10095053Y-46083278D01*
X12400000Y-105493792D02*
X12400158Y-105506205D01*
X102189987Y-107666847D02*
X102231039Y-107640851D01*
X11650549Y-46620328D02*
X11603138Y-46630974D01*
X309572619Y-365610D02*
X309564931Y-356697D01*
X12400160Y-105506331D02*
X12402246Y-105588634D01*
X255140122Y-12899999D02*
X255091423Y-12898804D01*
X175697Y-434771D02*
X168919Y-444394D01*
X63844826Y-12499740D02*
X63816847Y-12460012D01*
X17465341Y-69998158D02*
X17456586Y-70016338D01*
X10656480Y-46592125D02*
X10611144Y-46574637D01*
X246074637Y-12288855D02*
X246054946Y-12333278D01*
X12425298Y-105815325D02*
X12438704Y-105890127D01*
X17452Y-119083193D02*
X19465Y-119094790D01*
X297396477Y-70802482D02*
X297396097Y-70802170D01*
X297398121Y-70804296D02*
X297397829Y-70803902D01*
X10289966Y-46360033D02*
X10256460Y-46324841D01*
X112939Y-539476D02*
X112831Y-539697D01*
X309624302Y-119465228D02*
X309631080Y-119455605D01*
X207760033Y-109610033D02*
X207724841Y-109643539D01*
X309777803Y-119106994D02*
X309777860Y-119106756D01*
X295889210Y-107438957D02*
X295913240Y-107432735D01*
X296552747Y-13265971D02*
X296552541Y-13265823D01*
X158919025Y-10796861D02*
X158929671Y-10749450D01*
X292779901Y-68265854D02*
X292821277Y-68237056D01*
X297399918Y-70809318D02*
X297399870Y-70808830D01*
X293224845Y-68051628D02*
X293273647Y-68038992D01*
X299605173Y-10400259D02*
X299633152Y-10439987D01*
X299659148Y-10481039D02*
X299683099Y-10523318D01*
X208020328Y-109150549D02*
X208007368Y-109197380D01*
X296840804Y-13513289D02*
X296840627Y-13513108D01*
X64542963Y-10004770D02*
X64591423Y-10001195D01*
X299438047Y-109675278D02*
X299399740Y-109705173D01*
X11833278Y-54745053D02*
X11876681Y-54766900D01*
X17558776Y-69064424D02*
X17569815Y-69112792D01*
X309345043Y-162221D02*
X309281923Y-124388D01*
X10095053Y-109333278D02*
X10075362Y-109288855D01*
X13013289Y-13459195D02*
X13013107Y-13459372D01*
X40077Y-721619D02*
X22196Y-793005D01*
X216846861Y-107519025D02*
X216894737Y-107510718D01*
X296200223Y-13067373D02*
X296199991Y-13067270D01*
X12657607Y-106481301D02*
X12657733Y-106481521D01*
X150418960Y-10140851D02*
X150460012Y-10166847D01*
X12409809Y-70800057D02*
X12409318Y-70800081D01*
X93349740Y-109705173D02*
X93310012Y-109733152D01*
X292934Y-293281D02*
X284818Y-301806D01*
X296531958Y-13251501D02*
X296468505Y-13209682D01*
X254899450Y-12870328D02*
X254852619Y-12857368D01*
X17321730Y-68562979D02*
X17350691Y-68603260D01*
X158942631Y-12197380D02*
X158929671Y-12150549D01*
X293024990Y-70676013D02*
X293006359Y-70667453D01*
X159016900Y-10523318D02*
X159040851Y-10481039D01*
X299474841Y-109643539D02*
X299438047Y-109675278D01*
X245710012Y-12733152D02*
X245668960Y-12759148D01*
X11555262Y-54660718D02*
X11603138Y-54669025D01*
X93739281Y-109055262D02*
X93730974Y-109103138D01*
X12407387Y-67999583D02*
X12407863Y-67999702D01*
X292238992Y-69726352D02*
X292234357Y-69706379D01*
X246145229Y-10892963D02*
X246148804Y-10941423D01*
X159094826Y-12499740D02*
X159066847Y-12460012D01*
X299757368Y-45947380D02*
X299742125Y-45993519D01*
X102361144Y-109824637D02*
X102316721Y-109804946D01*
X43279Y-119189961D02*
X43422Y-119190431D01*
X25103146Y-12400533D02*
X25102667Y-12400681D01*
X12421462Y-105790288D02*
X12421497Y-105790539D01*
X308994790Y-119880534D02*
X308995271Y-119880438D01*
X245493519Y-12842125D02*
X245447380Y-12857368D01*
X292205268Y-69516494D02*
X292203711Y-69496050D01*
X17232816Y-70344549D02*
X17219091Y-70359341D01*
X299276681Y-10116900D02*
X299318960Y-10140851D01*
X299789281Y-55494737D02*
X299795229Y-55542963D01*
X17493584Y-68865657D02*
X17511710Y-68911839D01*
X296010713Y-12995818D02*
X296010472Y-12995740D01*
X36528089Y-12800865D02*
X36483975Y-12778100D01*
X309727928Y-119271358D02*
X309728014Y-119271128D01*
X207059877Y-107500000D02*
X207108576Y-107501195D01*
X13267831Y-13251643D02*
X13247458Y-13265823D01*
X296381521Y-107242266D02*
X296447010Y-107203715D01*
X293090357Y-68096500D02*
X293137631Y-68078991D01*
X12038047Y-46425278D02*
X11999740Y-46455173D01*
X13910789Y-12961042D02*
X13886759Y-12967263D01*
X17598327Y-69459685D02*
X17597322Y-69479839D01*
X150898804Y-10941423D02*
X150900000Y-10990122D01*
X217040122Y-107500000D02*
X295393666Y-107500000D01*
X17413Y-119082950D02*
X17452Y-119083193D01*
X284818Y-119598193D02*
X292934Y-119606718D01*
X309777860Y-793243D02*
X309777803Y-793005D01*
X102150259Y-109705173D02*
X102111952Y-109675278D01*
X296269276Y-107300898D02*
X296269505Y-107300789D01*
X297390190Y-67999942D02*
X297390681Y-67999918D01*
X296359375Y-107254558D02*
X296359598Y-107254438D01*
X207526681Y-107616900D02*
X207568960Y-107640851D01*
X295690288Y-107478537D02*
X295690539Y-107478501D01*
X298292963Y-54654770D02*
X298341423Y-54651195D01*
X297378501Y-14609460D02*
X297374743Y-14584924D01*
X54853138Y-12880974D02*
X54805262Y-12889281D01*
X101974721Y-109538047D02*
X101944826Y-109499740D01*
X159339987Y-10166847D02*
X159381039Y-10140851D01*
X255042963Y-10004770D02*
X255091423Y-10001195D01*
X297356250Y-105914690D02*
X297361246Y-105890376D01*
X297270804Y-106206375D02*
X297270895Y-106206138D01*
X721619Y-119859922D02*
X793005Y-119877803D01*
X298196861Y-46630974D02*
X298149450Y-46620328D01*
X292205268Y-69283505D02*
X292210368Y-69233352D01*
X159156460Y-12574841D02*
X159124721Y-12538047D01*
X309345043Y-119737778D02*
X309345252Y-119737650D01*
X13717138Y-13020483D02*
X13693861Y-13029103D01*
X309089961Y-43279D02*
X309078617Y-40140D01*
X13717376Y-107379601D02*
X13789286Y-107404181D01*
X297142266Y-13918478D02*
X297103715Y-13852989D01*
X12304946Y-55216721D02*
X12324637Y-55261144D01*
X296359598Y-13145561D02*
X296359375Y-13145441D01*
X36125257Y-12442429D02*
X36102674Y-12404990D01*
X12488236Y-14313453D02*
X12467330Y-14386515D01*
X309718632Y-606222D02*
X309687168Y-539697D01*
X295690539Y-12921498D02*
X295690288Y-12921462D01*
X13508208Y-107289858D02*
X13530494Y-107300789D01*
X297429671Y-45900549D02*
X297419025Y-45853138D01*
X162349Y-119445252D02*
X168647Y-119455197D01*
X292961099Y-68154747D02*
X293006359Y-68132546D01*
X246033099Y-10523318D02*
X246054946Y-10566721D01*
X12401605Y-70804704D02*
X12401353Y-70805125D01*
X12407387Y-70800416D02*
X12406917Y-70800559D01*
X295986546Y-107411763D02*
X295986789Y-107411690D01*
X296857906Y-13531280D02*
X296840804Y-13513289D01*
X16187595Y-68000000D02*
X16212401Y-68000309D01*
X14185096Y-12911861D02*
X14109711Y-12921462D01*
X208048804Y-108958576D02*
X208045229Y-109007036D01*
X150333278Y-10095053D02*
X150376681Y-10116900D01*
X17350691Y-70196739D02*
X17321730Y-70237020D01*
X297399702Y-70807863D02*
X297399583Y-70807387D01*
X12398804Y-55591423D02*
X12400000Y-55640122D01*
X14210042Y-107490678D02*
X14210295Y-107490700D01*
X25097572Y-12404568D02*
X25097302Y-12404991D01*
X12403512Y-14786322D02*
X12402255Y-14811112D01*
X309675611Y-119381923D02*
X309675735Y-119381711D01*
X14311365Y-107497753D02*
X14393668Y-107499839D01*
X168919Y-119455605D02*
X175697Y-119465228D01*
X295406205Y-107499841D02*
X295406331Y-107499839D01*
X297154438Y-13940401D02*
X297142392Y-13918698D01*
X207760033Y-107789966D02*
X207793539Y-107825158D01*
X150783099Y-12376681D02*
X150759148Y-12418960D01*
X296082861Y-107379516D02*
X296106138Y-107370895D01*
X14406207Y-107499999D02*
X14406333Y-107500000D01*
X102316721Y-107595053D02*
X102361144Y-107575362D01*
X295589957Y-107490678D02*
X295614651Y-107488166D01*
X24841152Y-12696291D02*
X24800952Y-12725410D01*
X159261952Y-12675278D02*
X159225158Y-12643539D01*
X10611144Y-54725362D02*
X10656480Y-54707874D01*
X13985062Y-107456196D02*
X13985309Y-107456250D01*
X25075119Y-12441767D02*
X25047383Y-12482933D01*
X308983193Y-119882547D02*
X308994790Y-119880534D01*
X12400559Y-67993082D02*
X12400724Y-67993544D01*
X10566721Y-54745053D02*
X10611144Y-54725362D01*
X159381039Y-12759148D02*
X159339987Y-12733152D01*
X293554297Y-70798841D02*
X293503949Y-70796288D01*
X309728014Y-628871D02*
X309727928Y-628641D01*
X292251628Y-69024845D02*
X292257268Y-69005132D01*
X216190851Y-109418960D02*
X216166900Y-109376681D01*
X309182340Y-76307D02*
X309171358Y-72071D01*
X10140851Y-46168960D02*
X10116900Y-46126681D01*
X12110033Y-54939966D02*
X12143539Y-54975158D01*
X539476Y-119787060D02*
X539697Y-119787168D01*
X308982950Y-119882586D02*
X308983193Y-119882547D01*
X207933099Y-109376681D02*
X207909148Y-109418960D01*
X16452967Y-68023449D02*
X16501596Y-68033280D01*
X245893539Y-12574841D02*
X245860033Y-12610033D01*
X16314650Y-68005102D02*
X16364016Y-68010042D01*
X297391655Y-70800201D02*
X297391169Y-70800129D01*
X219678Y-119524535D02*
X219827Y-119524731D01*
X245626681Y-10116900D02*
X245668960Y-10140851D01*
X246054946Y-10566721D02*
X246074637Y-10611144D01*
X296291791Y-107289858D02*
X296292017Y-107289743D01*
X36101473Y-12403387D02*
X36101124Y-12403026D01*
X13789526Y-12995739D02*
X13789286Y-12995818D01*
X24437793Y-12879476D02*
X24388918Y-12888146D01*
X309759922Y-119178380D02*
X309777803Y-119106994D01*
X13623052Y-107342615D02*
X13693624Y-107370805D01*
X158904770Y-12007036D02*
X158901195Y-11958576D01*
X308910156Y-119893383D02*
X308982950Y-119882586D01*
X10656480Y-54707874D02*
X10702619Y-54692631D01*
X1012027Y-3D02*
X987987Y-593D01*
X12400057Y-70809809D02*
X12400003Y-70812027D01*
X309631352Y-444802D02*
X309631080Y-444394D01*
X10224721Y-55011952D02*
X10256460Y-54975158D01*
X12400297Y-67992136D02*
X12400416Y-67992612D01*
X913995Y-119895771D02*
X914240Y-119895786D01*
X295488634Y-107497753D02*
X295488887Y-107497744D01*
X11409877Y-54650000D02*
X11458576Y-54651195D01*
X987742Y-602D02*
X914240Y-4213D01*
X93183278Y-107595053D02*
X93226681Y-107616900D01*
X10256460Y-46324841D02*
X10224721Y-46288047D01*
X292251628Y-69775154D02*
X292238992Y-69726352D01*
X10289966Y-10289966D02*
X10325158Y-10256460D01*
X101769025Y-108296861D02*
X101779671Y-108249450D01*
X216092631Y-109197380D02*
X216079671Y-109150549D01*
X12421462Y-14609711D02*
X12411861Y-14685096D01*
X299605173Y-109499740D02*
X299575278Y-109538047D01*
X254511952Y-12675278D02*
X254475158Y-12643539D01*
X76495Y-119282793D02*
X81265Y-119293554D01*
X308994790Y-19465D02*
X308983193Y-17452D01*
X47194Y-698160D02*
X47114Y-698392D01*
X309355197Y-119731352D02*
X309355605Y-119731080D01*
X295986789Y-107411690D02*
X296010472Y-107404259D01*
X297399583Y-67992612D02*
X297399702Y-67992136D01*
X292723510Y-70491152D02*
X292707619Y-70478195D01*
X6616Y-119010156D02*
X17413Y-119082950D01*
X292238992Y-69073647D02*
X292251628Y-69024845D01*
X216706480Y-107557874D02*
X216752619Y-107542631D01*
X297393082Y-70800559D02*
X297392612Y-70800416D01*
X12400201Y-67991655D02*
X12400297Y-67992136D01*
X12529194Y-14193624D02*
X12529103Y-14193861D01*
X11507036Y-54654770D02*
X11555262Y-54660718D01*
X12412027Y-67999996D02*
X12412272Y-68000000D01*
X292568386Y-68454155D02*
X292603119Y-68417617D01*
X309572930Y-365989D02*
X309572619Y-365610D01*
X101769025Y-109103138D02*
X101760718Y-109055262D01*
X12400724Y-70806455D02*
X12400559Y-70806917D01*
X216107874Y-108156480D02*
X216125362Y-108111144D01*
X159696861Y-12880974D02*
X159649450Y-12870328D01*
X55620328Y-12150549D02*
X55607368Y-12197380D01*
X63654770Y-12007036D02*
X63651195Y-11958576D01*
X292477990Y-68563374D02*
X292508847Y-68523510D01*
X297516900Y-46126681D02*
X297495053Y-46083278D01*
X64399450Y-12870328D02*
X64352619Y-12857368D01*
X14185096Y-107488138D02*
X14185348Y-107488167D01*
X309281923Y-124388D02*
X309281711Y-124264D01*
X12411832Y-14685348D02*
X12409321Y-14710042D01*
X12380974Y-55446861D02*
X12389281Y-55494737D01*
X297395295Y-67998394D02*
X297395703Y-67998121D01*
X208045229Y-109007036D02*
X208039281Y-109055262D01*
X309182340Y-119823692D02*
X309182793Y-119823504D01*
X93226681Y-107616900D02*
X93268960Y-107640851D01*
X254344826Y-12499740D02*
X254316847Y-12460012D01*
X13886759Y-107432736D02*
X13910789Y-107438957D01*
X13530494Y-13099210D02*
X13508208Y-13110141D01*
X14084924Y-107474743D02*
X14109460Y-107478502D01*
X254946861Y-12880974D02*
X254899450Y-12870328D01*
X299659148Y-46168960D02*
X299633152Y-46210012D01*
X55509148Y-10481039D02*
X55533099Y-10523318D01*
X54708576Y-12898804D02*
X54659877Y-12899999D01*
X297387727Y-68000000D02*
X297387972Y-67999996D01*
X159016900Y-12376681D02*
X158995053Y-12333278D01*
X12959195Y-13513289D02*
X12942093Y-13531280D01*
X293413013Y-68012958D02*
X293433352Y-68010368D01*
X63651195Y-10941423D02*
X63654770Y-10892963D01*
X93183278Y-109804946D02*
X93138855Y-109824637D01*
X12421497Y-105790539D02*
X12425256Y-105815075D01*
X296973703Y-13666168D02*
X296973545Y-13665969D01*
X297394874Y-70801353D02*
X297394441Y-70801122D01*
X207347380Y-109857368D02*
X207300549Y-109870328D01*
X255091423Y-12898804D02*
X255042963Y-12895229D01*
X293281Y-119607065D02*
X301806Y-119615181D01*
X297048356Y-106632168D02*
X297048498Y-106631958D01*
X295715075Y-107474743D02*
X295715325Y-107474701D01*
X14009872Y-12938704D02*
X14009623Y-12938752D01*
X293137631Y-68078991D02*
X293157032Y-68072360D01*
X297656460Y-54975158D02*
X297689966Y-54939966D01*
X12400000Y-14906207D02*
X12400000Y-14906333D01*
X297400000Y-14906333D02*
X297399999Y-14906207D01*
X36399446Y-12726085D02*
X36359243Y-12696966D01*
X11999740Y-54844826D02*
X12038047Y-54874721D01*
X93730974Y-109103138D02*
X93720328Y-109150549D01*
X295715325Y-12925298D02*
X295715075Y-12925256D01*
X159744737Y-12889281D02*
X159696861Y-12880974D01*
X208007368Y-108202619D02*
X208020328Y-108249450D01*
X17362058Y-68619933D02*
X17388975Y-68661608D01*
X12495818Y-106110713D02*
X12520398Y-106182623D01*
X12467263Y-106013240D02*
X12467330Y-106013484D01*
X92759877Y-107500000D02*
X92808576Y-107501195D01*
X299757368Y-55352619D02*
X299770328Y-55399450D01*
X25112246Y-12400000D02*
X25112001Y-12400002D01*
X12404296Y-70801878D02*
X12403902Y-70802170D01*
X254290851Y-10481039D02*
X254316847Y-10439987D01*
X297232729Y-106299991D02*
X297242518Y-106277181D01*
X914240Y-119895786D02*
X987742Y-119899397D01*
X36100758Y-12402683D02*
X36100375Y-12402359D01*
X296552747Y-107134028D02*
X296614000Y-107089049D01*
X10749450Y-54679671D02*
X10796861Y-54669025D01*
X158995053Y-12333278D02*
X158975362Y-12288855D01*
X297034176Y-13747458D02*
X297034028Y-13747252D01*
X299724637Y-109288855D02*
X299704946Y-109333278D01*
X101760718Y-109055262D02*
X101754770Y-109007036D01*
X309800000Y-118887727D02*
X309800000Y-1012272D01*
X299318960Y-46509148D02*
X299276681Y-46533099D01*
X93226681Y-109783099D02*
X93183278Y-109804946D01*
X297410718Y-55494737D02*
X297419025Y-55446861D01*
X309101839Y-47194D02*
X309101607Y-47114D01*
X10990122Y-54650000D02*
X11409877Y-54650000D01*
X293612605Y-68000000D02*
X297387727Y-68000000D01*
X296614000Y-13310950D02*
X296552747Y-13265971D01*
X17433953Y-68739513D02*
X17456586Y-68783661D01*
X298809877Y-109900000D02*
X217040122Y-109900000D01*
X5094Y-118997743D02*
X5142Y-118998231D01*
X309794857Y-901768D02*
X309793417Y-890086D01*
X12567373Y-14099776D02*
X12567270Y-14100008D01*
X12400160Y-14893668D02*
X12400158Y-14893794D01*
X159792963Y-10004770D02*
X159841423Y-10001195D01*
X297800259Y-46455173D02*
X297761952Y-46425278D01*
X12402482Y-67996477D02*
X12402811Y-67996840D01*
X297311690Y-106086789D02*
X297311763Y-106086546D01*
X76307Y-119282340D02*
X76495Y-119282793D01*
X816806Y-119882547D02*
X817049Y-119882586D01*
X150675278Y-12538047D02*
X150643539Y-12574841D01*
X297048356Y-13767831D02*
X297034176Y-13747458D01*
X124388Y-518076D02*
X124264Y-518288D01*
X10256460Y-54975158D02*
X10289966Y-54939966D01*
X17599564Y-69410089D02*
X17598327Y-69459685D01*
X309631080Y-119455605D02*
X309631352Y-119455197D01*
X297400000Y-70812272D02*
X297399996Y-70812027D01*
X11458576Y-46648804D02*
X11409877Y-46650000D01*
X16784819Y-68128438D02*
X16829518Y-68149963D01*
X150418960Y-12759148D02*
X150376681Y-12783099D01*
X292437056Y-68621277D02*
X292465854Y-68579901D01*
X216216847Y-109460012D02*
X216190851Y-109418960D01*
X13530722Y-107300898D02*
X13599776Y-107332626D01*
X158904770Y-10892963D02*
X158910718Y-10844737D01*
X299795229Y-109007036D02*
X299789281Y-109055262D01*
X296989049Y-106714000D02*
X297034028Y-106652747D01*
X309793383Y-119010156D02*
X309793417Y-119009913D01*
X817049Y-119882586D02*
X889843Y-119893383D01*
X10166847Y-10439987D02*
X10194826Y-10400259D01*
X793243Y-22139D02*
X793005Y-22196D01*
X54900549Y-10029671D02*
X54947380Y-10042631D01*
X207724841Y-109643539D02*
X207688047Y-109675278D01*
X12403159Y-70802811D02*
X12402811Y-70803159D01*
X901768Y-119894857D02*
X902256Y-119894905D01*
X12400000Y-14906333D02*
X12400000Y-45659877D01*
X13789526Y-107404260D02*
X13813210Y-107411690D01*
X17265643Y-70307351D02*
X17232816Y-70344549D01*
X124388Y-119381923D02*
X162221Y-119445043D01*
X309580321Y-375464D02*
X309580172Y-375268D01*
X292669369Y-70445358D02*
X292654155Y-70431613D01*
X309795786Y-914240D02*
X309795771Y-913995D01*
X297400000Y-105493666D02*
X297400000Y-70812272D01*
X12610141Y-106391791D02*
X12610256Y-106392017D01*
X299097380Y-109857368D02*
X299050549Y-109870328D01*
X4228Y-118986004D02*
X5094Y-118997743D01*
X63975158Y-10256460D02*
X64011952Y-10224721D01*
X299780974Y-55446861D02*
X299789281Y-55494737D01*
X36152996Y-12483597D02*
X36125257Y-12442429D01*
X17265643Y-68492648D02*
X17278614Y-68508105D01*
X54805262Y-10010718D02*
X54853138Y-10019025D01*
X14406317Y-12899999D02*
X14406190Y-12900000D01*
X150007036Y-12895229D02*
X149958576Y-12898804D01*
X150333278Y-12804946D02*
X150288855Y-12824637D01*
X207610012Y-107666847D02*
X207649740Y-107694826D01*
X16766426Y-70679861D02*
X16720710Y-70699132D01*
X297374743Y-105815075D02*
X297378501Y-105790539D01*
X292304105Y-69928683D02*
X292296500Y-69909642D01*
X297242518Y-14122818D02*
X297232729Y-14100008D01*
X216375158Y-109643539D02*
X216339966Y-109610033D01*
X150610033Y-12610033D02*
X150574841Y-12643539D01*
X10116900Y-10523318D02*
X10140851Y-10481039D01*
X296712145Y-13390976D02*
X296711954Y-13390809D01*
X216216847Y-107939987D02*
X216244826Y-107900259D01*
X63975158Y-12643539D02*
X63939966Y-12610033D01*
X297232729Y-14100008D02*
X297232626Y-14099776D01*
X295406205Y-12900158D02*
X295393792Y-12900000D01*
X14286069Y-12903528D02*
X14210295Y-12909299D01*
X12425256Y-14584924D02*
X12421497Y-14609460D01*
X12110033Y-46360033D02*
X12074841Y-46393539D01*
X297279601Y-14217376D02*
X297279516Y-14217138D01*
X158929671Y-10749450D02*
X158942631Y-10702619D01*
X93525278Y-109538047D02*
X93493539Y-109574841D01*
X309515348Y-301986D02*
X309515181Y-301806D01*
X216339966Y-109610033D02*
X216306460Y-109574841D01*
X297200898Y-14030723D02*
X297200789Y-14030494D01*
X246009148Y-10481039D02*
X246033099Y-10523318D01*
X10361952Y-10224721D02*
X10400259Y-10194826D01*
X13087854Y-107009023D02*
X13088044Y-107009191D01*
X36097781Y-12400853D02*
X36097310Y-12400681D01*
X293071316Y-68104105D02*
X293090357Y-68096500D01*
X254192631Y-10702619D02*
X254207874Y-10656480D01*
X297395703Y-70801878D02*
X297395295Y-70801605D01*
X55455173Y-10400259D02*
X55483152Y-10439987D01*
X10439987Y-46483152D02*
X10400259Y-46455173D01*
X299659148Y-109418960D02*
X299633152Y-109460012D01*
X36483975Y-12778100D02*
X36441058Y-12753153D01*
X150842125Y-10656480D02*
X150857368Y-10702619D01*
X12389281Y-45805262D02*
X12380974Y-45853138D01*
X10796861Y-10019025D02*
X10844737Y-10010718D01*
X297399702Y-67992136D02*
X297399798Y-67991655D01*
X101751195Y-108958576D02*
X101750000Y-108909877D01*
X297378537Y-14609711D02*
X297378501Y-14609460D01*
X299233278Y-54745053D02*
X299276681Y-54766900D01*
X16294528Y-70796405D02*
X16244978Y-70798878D01*
X17511710Y-68911839D02*
X17518611Y-68930801D01*
X207108576Y-109898804D02*
X207059877Y-109900000D01*
X293587398Y-68000319D02*
X293612605Y-68000000D01*
X12403522Y-67997517D02*
X12403902Y-67997829D01*
X168647Y-119455197D02*
X168919Y-119455605D01*
X159040851Y-12418960D02*
X159016900Y-12376681D01*
X301986Y-119615348D02*
X356513Y-119664768D01*
X12557384Y-106276947D02*
X12557481Y-106277181D01*
X12407863Y-67999702D02*
X12408344Y-67999798D01*
X17184450Y-70394857D02*
X17170005Y-70408946D01*
X25112001Y-12400002D02*
X25105620Y-12400159D01*
X698392Y-47114D02*
X698160Y-47194D01*
X207974637Y-109288855D02*
X207954946Y-109333278D01*
X295690288Y-12921462D02*
X295614903Y-12911861D01*
X12400559Y-70806917D02*
X12400416Y-70807387D01*
X12400912Y-70806002D02*
X12400724Y-70806455D01*
X295589704Y-12909299D02*
X295513930Y-12903528D01*
X54659877Y-10000000D02*
X54708576Y-10001195D01*
X118231Y-119371036D02*
X118462Y-119371469D01*
X292234357Y-69093620D02*
X292238992Y-69073647D01*
X150898804Y-11958576D02*
X150895229Y-12007036D01*
X6582Y-119009913D02*
X6616Y-119010156D01*
X159696861Y-10019025D02*
X159744737Y-10010718D01*
X309780438Y-119095271D02*
X309780534Y-119094790D01*
X246120328Y-12150549D02*
X246107368Y-12197380D01*
X150824637Y-12288855D02*
X150804946Y-12333278D01*
X12405558Y-70801122D02*
X12405125Y-70801353D01*
X14393668Y-107499839D02*
X14393794Y-107499841D01*
X10656480Y-10057874D02*
X10702619Y-10042631D01*
X518076Y-124388D02*
X454956Y-162221D01*
X10116900Y-109376681D02*
X10095053Y-109333278D01*
X216375158Y-107756460D02*
X216411952Y-107724721D01*
X101750000Y-108490122D02*
X101751195Y-108441423D01*
X13087854Y-13390976D02*
X13031465Y-13441921D01*
X24290173Y-12898089D02*
X24240425Y-12899340D01*
X292399107Y-70118820D02*
X292388705Y-70101151D01*
X207300549Y-107529671D02*
X207347380Y-107542631D01*
X254150000Y-11909877D02*
X254150000Y-10990122D01*
X296552541Y-13265823D02*
X296532168Y-13251643D01*
X14393794Y-107499841D02*
X14406207Y-107499999D01*
X805209Y-119880534D02*
X816806Y-119882547D01*
X207855173Y-109499740D02*
X207825278Y-109538047D01*
X299780974Y-45853138D02*
X299770328Y-45900549D01*
X24985899Y-12560838D02*
X24952307Y-12597383D01*
X63745053Y-10566721D02*
X63766900Y-10523318D01*
X298341423Y-54651195D02*
X298390122Y-54650000D01*
X159124721Y-10361952D02*
X159156460Y-10325158D01*
X17184450Y-68405142D02*
X17219091Y-68440658D01*
X25098504Y-12403387D02*
X25098173Y-12403765D01*
X296634030Y-13326454D02*
X296633831Y-13326296D01*
X25017618Y-12522657D02*
X24985899Y-12560838D01*
X308897743Y-5094D02*
X308886004Y-4228D01*
X246120328Y-10749450D02*
X246130974Y-10796861D01*
X296973703Y-106733831D02*
X296988897Y-106714203D01*
X158957874Y-10656480D02*
X158975362Y-10611144D01*
X297378501Y-105790539D02*
X297378537Y-105790288D01*
X10796861Y-46630974D02*
X10749450Y-46620328D01*
X55425278Y-10361952D02*
X55455173Y-10400259D01*
X150538047Y-12675278D02*
X150499740Y-12705173D01*
X63790851Y-12418960D02*
X63766900Y-12376681D01*
X309271036Y-118231D02*
X309260523Y-112939D01*
X54993519Y-10057874D02*
X55038855Y-10075362D01*
X17413Y-817049D02*
X6616Y-889843D01*
X13106878Y-107025359D02*
X13107072Y-107025522D01*
X365989Y-119672930D02*
X375268Y-119680172D01*
X36102405Y-12404567D02*
X36102114Y-12404158D01*
X295814937Y-107456196D02*
X295888964Y-107439017D01*
X12143539Y-54975158D02*
X12175278Y-55011952D01*
X216107874Y-109243519D02*
X216092631Y-109197380D01*
X805209Y-19465D02*
X804728Y-19561D01*
X207883152Y-107939987D02*
X207909148Y-107981039D01*
X296989049Y-13685999D02*
X296988897Y-13685796D01*
X63844826Y-10400259D02*
X63874721Y-10361952D01*
X16720710Y-70699132D02*
X16701926Y-70706504D01*
X12403522Y-70802482D02*
X12403159Y-70802811D01*
X297923318Y-46533099D02*
X297881039Y-46509148D01*
X102273318Y-109783099D02*
X102231039Y-109759148D01*
X102691423Y-109898804D02*
X102642963Y-109895229D01*
X10004770Y-109007036D02*
X10001195Y-108958576D01*
X296909190Y-106811954D02*
X296925359Y-106793121D01*
X12438752Y-105890376D02*
X12443749Y-105914690D01*
X298390122Y-46650000D02*
X298341423Y-46648804D01*
X254673318Y-10116900D02*
X254716721Y-10095053D01*
X292821277Y-70562943D02*
X292779901Y-70534145D01*
X297390700Y-14710295D02*
X297390678Y-14710042D01*
X17219091Y-70359341D02*
X17184450Y-70394857D01*
X12826453Y-13665969D02*
X12826296Y-13666167D01*
X297457874Y-45993519D02*
X297442631Y-45947380D01*
X102231039Y-107640851D02*
X102273318Y-107616900D01*
X150759148Y-12418960D02*
X150733152Y-12460012D01*
X299704946Y-46083278D02*
X299683099Y-46126681D01*
X292399107Y-68681179D02*
X292425773Y-68638397D01*
X299143519Y-10057874D02*
X299188855Y-10075362D01*
X54805262Y-12889281D02*
X54757036Y-12895229D01*
X216573318Y-107616900D02*
X216616721Y-107595053D01*
X12657733Y-106481521D02*
X12696284Y-106547010D01*
X6616Y-889843D02*
X6582Y-890086D01*
X11697380Y-46607368D02*
X11650549Y-46620328D01*
X17585436Y-69201382D02*
X17591605Y-69250609D01*
X76495Y-617206D02*
X76307Y-617659D01*
X309687168Y-119360302D02*
X309718632Y-119293777D01*
X168647Y-444802D02*
X162349Y-454747D01*
X254406460Y-10325158D02*
X254439966Y-10289966D01*
X13165969Y-107073546D02*
X13166167Y-107073703D01*
X12407863Y-70800297D02*
X12407387Y-70800416D01*
X299050549Y-46620328D02*
X299003138Y-46630974D01*
X309434389Y-119672619D02*
X309443302Y-119664931D01*
X298955262Y-10010718D02*
X299003138Y-10019025D01*
X10075362Y-46038855D02*
X10057874Y-45993519D01*
X245983152Y-10439987D02*
X246009148Y-10481039D01*
X12610141Y-14008208D02*
X12599210Y-14030494D01*
X308812012Y-119899406D02*
X308812257Y-119899397D01*
X295715325Y-107474701D02*
X295790127Y-107461294D01*
X299757368Y-10702619D02*
X299770328Y-10749450D01*
X17591605Y-69250609D02*
X17593614Y-69270687D01*
X245788047Y-10224721D02*
X245824841Y-10256460D01*
X12402811Y-70803159D02*
X12402482Y-70803522D01*
X518288Y-124264D02*
X518076Y-124388D01*
X12557481Y-14122818D02*
X12557384Y-14123052D01*
X254169025Y-12103138D02*
X254160718Y-12055262D01*
X207883152Y-109460012D02*
X207855173Y-109499740D01*
X159556480Y-10057874D02*
X159602619Y-10042631D01*
X245710012Y-10166847D02*
X245749740Y-10194826D01*
X296447227Y-13196416D02*
X296447010Y-13196284D01*
X299633152Y-46210012D02*
X299605173Y-46249740D01*
X13418478Y-13157733D02*
X13352989Y-13196284D01*
X207610012Y-109733152D02*
X207568960Y-109759148D01*
X309777860Y-119106756D02*
X309780438Y-119095271D01*
X150880974Y-12103138D02*
X150870328Y-12150549D01*
X93730974Y-108296861D02*
X93739281Y-108344737D01*
X13623052Y-13057384D02*
X13622818Y-13057481D01*
X54757036Y-10004770D02*
X54805262Y-10010718D01*
X299704946Y-10566721D02*
X299724637Y-10611144D01*
X296925521Y-13607073D02*
X296925359Y-13606878D01*
X12400000Y-45659877D02*
X12398804Y-45708576D01*
X10004770Y-10892963D02*
X10010718Y-10844737D01*
X63816847Y-12460012D02*
X63790851Y-12418960D01*
X12400416Y-67992612D02*
X12400559Y-67993082D01*
X10400259Y-46455173D02*
X10361952Y-46425278D01*
X292568386Y-70345844D02*
X292554641Y-70330630D01*
X292554641Y-70330630D02*
X292521804Y-70292380D01*
X295614651Y-12911833D02*
X295589957Y-12909321D01*
X13886515Y-107432669D02*
X13886759Y-107432736D01*
X245955173Y-12499740D02*
X245925278Y-12538047D01*
X297356196Y-14485062D02*
X297339017Y-14411035D01*
X309564768Y-119543486D02*
X309564931Y-119543302D01*
X12389281Y-55494737D02*
X12395229Y-55542963D01*
X296010472Y-12995740D02*
X295986789Y-12988309D01*
X216942963Y-109895229D02*
X216894737Y-109889281D01*
X150895229Y-10892963D02*
X150898804Y-10941423D01*
X207688047Y-109675278D02*
X207649740Y-109705173D01*
X102006460Y-109574841D02*
X101974721Y-109538047D01*
X10095053Y-46083278D02*
X10075362Y-46038855D01*
X292272360Y-68957032D02*
X292278991Y-68937631D01*
X12438704Y-105890127D02*
X12438752Y-105890376D01*
X296176947Y-107342614D02*
X296177181Y-107342518D01*
X16433095Y-68019945D02*
X16452967Y-68023449D01*
X17350691Y-68603260D02*
X17362058Y-68619933D01*
X890086Y-119893417D02*
X901768Y-119894857D01*
X375268Y-119680172D02*
X375464Y-119680321D01*
X297392136Y-70800297D02*
X297391655Y-70800201D01*
X14009623Y-107461247D02*
X14009872Y-107461295D01*
X208050000Y-108909877D02*
X208048804Y-108958576D01*
X245305262Y-12889281D02*
X245257036Y-12895229D01*
X298809877Y-54650000D02*
X298858576Y-54651195D01*
X296988897Y-13685796D02*
X296973703Y-13666168D01*
X159649450Y-12870328D02*
X159602619Y-12857368D01*
X25100842Y-12401509D02*
X25100414Y-12401772D01*
X309687168Y-539697D02*
X309687060Y-539476D01*
X150889281Y-12055262D02*
X150880974Y-12103138D01*
X297396840Y-70802811D02*
X297396477Y-70802482D01*
X124264Y-518288D02*
X118462Y-528530D01*
X12520398Y-14217376D02*
X12495818Y-14289286D01*
X10029671Y-10749450D02*
X10042631Y-10702619D01*
X309631352Y-119455197D02*
X309637650Y-119445252D01*
X55126681Y-10116900D02*
X55168960Y-10140851D01*
X528963Y-119781768D02*
X539476Y-119787060D01*
X207909148Y-107981039D02*
X207933099Y-108023318D01*
X299003138Y-109880974D02*
X298955262Y-109889281D01*
X309675735Y-119381711D02*
X309681537Y-119371469D01*
X296786891Y-13459372D02*
X296786710Y-13459195D01*
X10523318Y-46533099D02*
X10481039Y-46509148D01*
X297397829Y-67996097D02*
X297398121Y-67995703D01*
X293343000Y-68024209D02*
X293363182Y-68020592D01*
X12461042Y-14410789D02*
X12460981Y-14411035D01*
X216125362Y-109288855D02*
X216107874Y-109243519D01*
X10361952Y-46425278D02*
X10325158Y-46393539D01*
X12520483Y-14217138D02*
X12520398Y-14217376D01*
X793005Y-22196D02*
X721619Y-40077D01*
X309515181Y-119598193D02*
X309515348Y-119598013D01*
X16569346Y-68050012D02*
X16588770Y-68055477D01*
X309795786Y-118985759D02*
X309799397Y-118912257D01*
X16364016Y-70789957D02*
X16314650Y-70794897D01*
X14311365Y-12902246D02*
X14311112Y-12902255D01*
X12406455Y-67999275D02*
X12406917Y-67999440D01*
X299143519Y-54707874D02*
X299188855Y-54725362D01*
X216145053Y-108066721D02*
X216166900Y-108023318D01*
X14109460Y-12921497D02*
X14084924Y-12925256D01*
X159423318Y-12783099D02*
X159381039Y-12759148D01*
X297399798Y-70808344D02*
X297399702Y-70807863D01*
X309780534Y-805209D02*
X309780438Y-804728D01*
X297399841Y-14893794D02*
X297399839Y-14893668D01*
X92953138Y-109880974D02*
X92905262Y-109889281D01*
X297374701Y-105815325D02*
X297374743Y-105815075D01*
X299276681Y-46533099D02*
X299233278Y-46554946D01*
X63669025Y-10796861D02*
X63679671Y-10749450D01*
X12696284Y-13852989D02*
X12657733Y-13918478D01*
X150857368Y-10702619D02*
X150870328Y-10749450D01*
X43422Y-119190431D02*
X47114Y-119201607D01*
X17433953Y-70060486D02*
X17424302Y-70078208D01*
X93388047Y-109675278D02*
X93349740Y-109705173D01*
X356513Y-235231D02*
X301986Y-284651D01*
X309718632Y-119293777D02*
X309718734Y-119293554D01*
X297090453Y-106568292D02*
X297103583Y-106547227D01*
X36359243Y-12696966D02*
X36320549Y-12665868D01*
X12467263Y-14386759D02*
X12461042Y-14410789D01*
X10289966Y-54939966D02*
X10325158Y-54906460D01*
X93460033Y-107789966D02*
X93493539Y-107825158D01*
X63660718Y-12055262D02*
X63654770Y-12007036D01*
X12495739Y-106110473D02*
X12495818Y-106110713D01*
X5142Y-118998231D02*
X6582Y-119009913D01*
X36102674Y-12404990D02*
X36102405Y-12404567D01*
X159649450Y-10029671D02*
X159696861Y-10019025D01*
X25099219Y-12402684D02*
X25098852Y-12403027D01*
X64306480Y-10057874D02*
X64352619Y-10042631D01*
X246107368Y-12197380D02*
X246092125Y-12243519D01*
X308898231Y-5142D02*
X308897743Y-5094D01*
X309728014Y-119271128D02*
X309752805Y-119201839D01*
X63707874Y-10656480D02*
X63725362Y-10611144D01*
X64089987Y-12733152D02*
X64050259Y-12705173D01*
X12400081Y-67990681D02*
X12400129Y-67991169D01*
X245159877Y-10000000D02*
X245208576Y-10001195D01*
X296614203Y-107088897D02*
X296633831Y-107073703D01*
X36101803Y-12403765D02*
X36101473Y-12403387D01*
X101866900Y-108023318D02*
X101890851Y-107981039D01*
X93633099Y-108023318D02*
X93654946Y-108066721D01*
X12406002Y-67999087D02*
X12406455Y-67999275D01*
X454747Y-119737650D02*
X454956Y-119737778D01*
X299050549Y-54679671D02*
X299097380Y-54692631D01*
X76307Y-617659D02*
X72071Y-628641D01*
X17573814Y-69132570D02*
X17582429Y-69181429D01*
X11650549Y-54679671D02*
X11697380Y-54692631D01*
X309782586Y-817049D02*
X309782547Y-816806D01*
X309795771Y-118986004D02*
X309795786Y-118985759D01*
X12557481Y-106277181D02*
X12567270Y-106299991D01*
X55509148Y-12418960D02*
X55483152Y-12460012D01*
X208050000Y-108490122D02*
X208050000Y-108909877D01*
X10941423Y-109898804D02*
X10892963Y-109895229D01*
X309434010Y-227069D02*
X309424731Y-219827D01*
X12520398Y-106182623D02*
X12520483Y-106182861D01*
X299795229Y-55542963D02*
X299798804Y-55591423D01*
X10439987Y-54816847D02*
X10481039Y-54790851D01*
X25101733Y-12401049D02*
X25101282Y-12401268D01*
X216190851Y-107981039D02*
X216216847Y-107939987D01*
X17553796Y-69044869D02*
X17558776Y-69064424D01*
X93493539Y-109574841D02*
X93460033Y-109610033D01*
X102231039Y-109759148D02*
X102189987Y-109733152D01*
X101779671Y-109150549D02*
X101769025Y-109103138D01*
X293612605Y-70800000D02*
X293587398Y-70799680D01*
X16784819Y-70671561D02*
X16766426Y-70679861D01*
X299003138Y-54669025D02*
X299050549Y-54679671D01*
X297242614Y-14123052D02*
X297242518Y-14122818D01*
X297396487Y-105613677D02*
X297397744Y-105588887D01*
X12890976Y-13587854D02*
X12890808Y-13588044D01*
X246148804Y-10941423D02*
X246150000Y-10990122D01*
X297393544Y-67999275D02*
X297393997Y-67999087D01*
X13331493Y-13209682D02*
X13268041Y-13251501D01*
X12370328Y-55399450D02*
X12380974Y-55446861D01*
X246033099Y-12376681D02*
X246009148Y-12418960D01*
X309365427Y-119724158D02*
X309424535Y-119680321D01*
X93000549Y-109870328D02*
X92953138Y-109880974D01*
X55554946Y-12333278D02*
X55533099Y-12376681D01*
X10400259Y-109705173D02*
X10361952Y-109675278D01*
X55324841Y-12643539D02*
X55288047Y-12675278D01*
X25100001Y-12402056D02*
X25099602Y-12402360D01*
X216060718Y-108344737D02*
X216069025Y-108296861D01*
X12751501Y-106631958D02*
X12751643Y-106632168D01*
X63874721Y-12538047D02*
X63844826Y-12499740D01*
X434771Y-175697D02*
X434572Y-175841D01*
X709568Y-119856577D02*
X710038Y-119856720D01*
X293433352Y-68010368D02*
X293483505Y-68005268D01*
X93720328Y-108249450D02*
X93730974Y-108296861D01*
X296106138Y-107370895D02*
X296106375Y-107370804D01*
X12874477Y-106792927D02*
X12874640Y-106793121D01*
X299575278Y-46288047D02*
X299543539Y-46324841D01*
X12038047Y-54874721D02*
X12074841Y-54906460D01*
X13911035Y-107439018D02*
X13985062Y-107456196D01*
X710038Y-43279D02*
X709568Y-43422D01*
X309756577Y-119190431D02*
X309756720Y-119189961D01*
X10224721Y-46288047D02*
X10194826Y-46249740D01*
X309675611Y-518076D02*
X309637778Y-454956D01*
X721619Y-40077D02*
X721382Y-40140D01*
X245925278Y-12538047D02*
X245893539Y-12574841D01*
X298858576Y-46648804D02*
X298809877Y-46650000D01*
X55533099Y-12376681D02*
X55509148Y-12418960D01*
X356697Y-119664931D02*
X365610Y-119672619D01*
X10796861Y-109880974D02*
X10749450Y-109870328D01*
X296199991Y-13067270D02*
X296177181Y-13057481D01*
X254511952Y-10224721D02*
X254550259Y-10194826D01*
X309727928Y-628641D02*
X309723692Y-617659D01*
X593Y-987987D02*
X3Y-1012027D01*
X93138855Y-107575362D02*
X93183278Y-107595053D01*
X12400129Y-70808830D02*
X12400081Y-70809318D01*
X297399942Y-67990190D02*
X297399996Y-67987972D01*
X296106138Y-13029104D02*
X296082861Y-13020483D01*
X254899450Y-10029671D02*
X254946861Y-10019025D01*
X17170005Y-70408946D02*
X17133636Y-70442691D01*
X297399999Y-14906207D02*
X297399841Y-14893794D01*
X63692631Y-12197380D02*
X63679671Y-12150549D01*
X254160718Y-12055262D02*
X254154770Y-12007036D01*
X297304181Y-106110713D02*
X297304259Y-106110472D01*
X12324637Y-46038855D02*
X12304946Y-46083278D01*
X55650000Y-11909877D02*
X55648804Y-11958576D01*
X1012027Y-119899996D02*
X1012272Y-119900000D01*
X16891044Y-70617103D02*
X16847474Y-70640830D01*
X245305262Y-10010718D02*
X245353138Y-10019025D01*
X81265Y-119293554D02*
X81367Y-119293777D01*
X92808576Y-107501195D02*
X92857036Y-107504770D01*
X12283099Y-46126681D02*
X12259148Y-46168960D01*
X375268Y-219827D02*
X365989Y-227069D01*
X10004770Y-45757036D02*
X10001195Y-45708576D01*
X10566721Y-10095053D02*
X10611144Y-10075362D01*
X10325158Y-10256460D02*
X10361952Y-10224721D01*
X12890976Y-106812145D02*
X12941921Y-106868534D01*
X10481039Y-10140851D02*
X10523318Y-10116900D01*
X13031280Y-13442093D02*
X13013289Y-13459195D01*
X17388975Y-68661608D02*
X17399496Y-68678826D01*
X292617617Y-70396880D02*
X292603119Y-70382382D01*
X10001195Y-10941423D02*
X10004770Y-10892963D01*
X299399740Y-46455173D02*
X299360012Y-46483152D01*
X25047383Y-12482933D02*
X25017618Y-12522657D01*
X64011952Y-12675278D02*
X63975158Y-12643539D01*
X297392136Y-67999702D02*
X297392612Y-67999583D01*
X158957874Y-12243519D02*
X158942631Y-12197380D01*
X63939966Y-10289966D02*
X63975158Y-10256460D01*
X12765823Y-106652541D02*
X12765970Y-106652747D01*
X216894737Y-109889281D02*
X216846861Y-109880974D01*
X55288047Y-10224721D02*
X55324841Y-10256460D01*
X216244826Y-107900259D02*
X216274721Y-107861952D01*
X296633831Y-13326296D02*
X296614203Y-13311102D01*
X293024990Y-68123986D02*
X293071316Y-68104105D01*
X12412272Y-70800000D02*
X12412027Y-70800003D01*
X309260523Y-112939D02*
X309260302Y-112831D01*
X10019025Y-45853138D02*
X10010718Y-45805262D01*
X298809877Y-46650000D02*
X298390122Y-46650000D01*
X64591423Y-10001195D02*
X64640122Y-10000000D01*
X10481039Y-46509148D02*
X10439987Y-46483152D01*
X40140Y-721382D02*
X40077Y-721619D01*
X36619459Y-12839623D02*
X36573288Y-12821390D01*
X292838397Y-68225773D02*
X292881179Y-68199107D01*
X246148804Y-11958576D02*
X246145229Y-12007036D01*
X10019025Y-55446861D02*
X10029671Y-55399450D01*
X292257268Y-69794867D02*
X292251628Y-69775154D01*
X216991423Y-109898804D02*
X216942963Y-109895229D01*
X539697Y-112831D02*
X539476Y-112939D01*
X1012272Y-119900000D02*
X308787727Y-119900000D01*
X216069025Y-108296861D02*
X216079671Y-108249450D01*
X606445Y-81265D02*
X606222Y-81367D01*
X47114Y-119201607D02*
X47194Y-119201839D01*
X24716430Y-12777424D02*
X24672320Y-12800189D01*
X254266900Y-12376681D02*
X254245053Y-12333278D01*
X12409318Y-70800081D02*
X12408830Y-70800129D01*
X219827Y-375268D02*
X219678Y-375464D01*
X101845053Y-108066721D02*
X101866900Y-108023318D01*
X64640122Y-12899999D02*
X64591423Y-12898804D01*
X63725362Y-10611144D02*
X63745053Y-10566721D01*
X628871Y-119828014D02*
X698160Y-119852805D01*
X296291791Y-13110141D02*
X296269505Y-13099210D01*
X17008795Y-68257750D02*
X17025178Y-68269529D01*
X93424841Y-109643539D02*
X93388047Y-109675278D01*
X296857906Y-106868719D02*
X296858078Y-106868533D01*
X93525278Y-107861952D02*
X93555173Y-107900259D01*
X16908519Y-70607014D02*
X16891044Y-70617103D01*
X159841423Y-12898804D02*
X159792963Y-12895229D01*
X296082623Y-107379601D02*
X296082861Y-107379516D01*
X297395295Y-70801605D02*
X297394874Y-70801353D01*
X245824841Y-12643539D02*
X245788047Y-12675278D01*
X245668960Y-10140851D02*
X245710012Y-10166847D01*
X55168960Y-10140851D02*
X55210012Y-10166847D01*
X101754770Y-109007036D02*
X101751195Y-108958576D01*
X24486172Y-12868366D02*
X24437793Y-12879476D01*
X13622818Y-13057481D02*
X13600008Y-13067270D01*
X297689966Y-46360033D02*
X297656460Y-46324841D01*
X293137631Y-70721008D02*
X293090357Y-70703499D01*
X14406190Y-12900000D02*
X14393811Y-12900157D01*
X216411952Y-109675278D02*
X216375158Y-109643539D01*
X309434010Y-119672930D02*
X309434389Y-119672619D01*
X207483278Y-107595053D02*
X207526681Y-107616900D01*
X296909190Y-13588045D02*
X296909023Y-13587854D01*
X793005Y-119877803D02*
X793243Y-119877860D01*
X13600008Y-13067270D02*
X13599776Y-13067373D01*
X292201158Y-69354297D02*
X292203711Y-69303949D01*
X17309546Y-68546894D02*
X17321730Y-68562979D01*
X219827Y-119524731D02*
X227069Y-119534010D01*
X227380Y-365610D02*
X227069Y-365989D01*
X93720328Y-109150549D02*
X93707368Y-109197380D01*
X150870328Y-12150549D02*
X150857368Y-12197380D01*
X14210295Y-107490700D02*
X14286069Y-107496471D01*
X150376681Y-12783099D02*
X150333278Y-12804946D01*
X295406331Y-107499839D02*
X295488634Y-107497753D01*
X10325158Y-109643539D02*
X10289966Y-109610033D01*
X11918960Y-46509148D02*
X11876681Y-46533099D01*
X12400000Y-67987727D02*
X12400003Y-67987972D01*
X292425773Y-68638397D02*
X292437056Y-68621277D01*
X10941423Y-46648804D02*
X10892963Y-46645229D01*
X93138855Y-109824637D02*
X93093519Y-109842125D01*
X17080502Y-68312066D02*
X17118507Y-68343956D01*
X309443486Y-119664768D02*
X309498013Y-119615348D01*
X10941423Y-10001195D02*
X10990122Y-10000000D01*
X901768Y-5142D02*
X890086Y-6582D01*
X254439966Y-12610033D02*
X254406460Y-12574841D01*
X297189858Y-14008208D02*
X297189743Y-14007982D01*
X150675278Y-10361952D02*
X150705173Y-10400259D01*
X12765970Y-106652747D02*
X12810950Y-106714001D01*
X295513677Y-12903512D02*
X295488887Y-12902255D01*
X13886515Y-12967330D02*
X13813453Y-12988236D01*
X296925521Y-106792926D02*
X296973545Y-106734030D01*
X309507065Y-293281D02*
X309506718Y-292934D01*
X297399996Y-70812027D02*
X297399942Y-70809809D01*
X13165969Y-13326453D02*
X13107072Y-13374477D01*
X12411832Y-105714651D02*
X12411861Y-105714903D01*
X297392612Y-67999583D02*
X297393082Y-67999440D01*
X12404704Y-70801605D02*
X12404296Y-70801878D01*
X444802Y-119731352D02*
X454747Y-119737650D01*
X617659Y-76307D02*
X617206Y-76495D01*
X292210368Y-69566647D02*
X292205268Y-69516494D01*
X102642963Y-107504770D02*
X102691423Y-107501195D01*
X293205132Y-70742731D02*
X293157032Y-70727639D01*
X12874640Y-106793121D02*
X12890808Y-106811955D01*
X13247458Y-107134176D02*
X13267831Y-107148356D01*
X64306480Y-12842125D02*
X64261144Y-12824637D01*
X245257036Y-10004770D02*
X245305262Y-10010718D01*
X24580957Y-12838949D02*
X24533933Y-12854846D01*
X254475158Y-12643539D02*
X254439966Y-12610033D01*
X93093519Y-109842125D02*
X93047380Y-109857368D01*
X246009148Y-12418960D02*
X245983152Y-12460012D01*
X16433095Y-70780054D02*
X16384038Y-70787448D01*
X102691423Y-107501195D02*
X102740122Y-107500000D01*
X299800000Y-108909877D02*
X299798804Y-108958576D01*
X12421497Y-14609460D02*
X12421462Y-14609711D01*
X292220592Y-69636817D02*
X292212958Y-69586986D01*
X12412027Y-70800003D02*
X12409809Y-70800057D01*
X11833278Y-46554946D02*
X11788855Y-46574637D01*
X246139281Y-12055262D02*
X246130974Y-12103138D01*
X297442631Y-55352619D02*
X297457874Y-55306480D01*
X55038855Y-12824637D02*
X54993519Y-12842125D01*
X245583278Y-10095053D02*
X245626681Y-10116900D01*
X12412272Y-68000000D02*
X16187595Y-68000000D01*
X10361952Y-109675278D02*
X10325158Y-109643539D01*
X159189966Y-12610033D02*
X159156460Y-12574841D01*
X101890851Y-107981039D02*
X101916847Y-107939987D01*
X158900000Y-11909877D02*
X158900000Y-10990122D01*
X12400000Y-70812272D02*
X12400000Y-105493666D01*
X295589704Y-107490700D02*
X295589957Y-107490678D01*
X292779901Y-70534145D02*
X292763374Y-70522009D01*
X150574841Y-10256460D02*
X150610033Y-10289966D01*
X13530722Y-13099101D02*
X13530494Y-13099210D01*
X297419025Y-55446861D02*
X297429671Y-55399450D01*
X297395703Y-67998121D02*
X297396097Y-67997829D01*
X207688047Y-107724721D02*
X207724841Y-107756460D01*
X17553796Y-69755130D02*
X17540359Y-69802887D01*
X13693861Y-13029103D02*
X13693624Y-13029194D01*
X297361246Y-14509623D02*
X297356250Y-14485309D01*
X254374721Y-12538047D02*
X254344826Y-12499740D01*
X309637778Y-119445043D02*
X309675611Y-119381923D01*
X55648804Y-11958576D02*
X55645229Y-12007036D01*
X254994737Y-10010718D02*
X255042963Y-10004770D01*
X309506718Y-292934D02*
X309498193Y-284818D01*
X297391169Y-67999870D02*
X297391655Y-67999798D01*
X297966721Y-46554946D02*
X297923318Y-46533099D01*
X149909877Y-12899999D02*
X64640122Y-12899999D01*
X64494737Y-12889281D02*
X64446861Y-12880974D01*
X93750000Y-108909877D02*
X93748804Y-108958576D01*
X254439966Y-10289966D02*
X254475158Y-10256460D01*
X309260523Y-119787060D02*
X309271036Y-119781768D01*
X454956Y-162221D02*
X454747Y-162349D01*
X292212958Y-69586986D02*
X292210368Y-69566647D01*
X36182763Y-12523323D02*
X36152996Y-12483597D01*
X17025178Y-70530470D02*
X17008795Y-70542249D01*
X309078380Y-40077D02*
X309006994Y-22196D01*
X10001195Y-108958576D02*
X10000000Y-108909877D01*
X24339670Y-12894356D02*
X24290173Y-12898089D01*
X309580321Y-119524535D02*
X309624158Y-119465427D01*
X25105620Y-12400159D02*
X25105620Y-12400159D01*
X365610Y-227380D02*
X356697Y-235068D01*
X55249740Y-12705173D02*
X55210012Y-12733152D01*
X296176947Y-13057385D02*
X296106375Y-13029195D01*
X295889210Y-12961042D02*
X295888964Y-12960982D01*
X297566847Y-55089987D02*
X297594826Y-55050259D01*
X16847474Y-70640830D02*
X16829518Y-70650036D01*
X254406460Y-12574841D02*
X254374721Y-12538047D01*
X297394874Y-67998646D02*
X297395295Y-67998394D01*
X292942926Y-68164240D02*
X292961099Y-68154747D01*
X296768719Y-13442093D02*
X296768533Y-13441921D01*
X158900000Y-10990122D02*
X158901195Y-10941423D01*
X297429671Y-55399450D02*
X297442631Y-55352619D01*
X25102195Y-12400853D02*
X25101733Y-12401049D01*
X298196861Y-54669025D02*
X298244737Y-54660718D01*
X296177181Y-13057481D02*
X296176947Y-13057385D01*
X295790376Y-107461246D02*
X295814690Y-107456250D01*
X296447010Y-107203715D02*
X296447227Y-107203583D01*
X17518611Y-68930801D02*
X17534412Y-68977830D01*
X299798804Y-10941423D02*
X299800000Y-10990122D01*
X296711954Y-13390809D02*
X296693121Y-13374640D01*
X13789286Y-107404181D02*
X13789526Y-107404260D01*
X309793417Y-890086D02*
X309793383Y-889843D01*
X64131039Y-10140851D02*
X64173318Y-10116900D01*
X308787972Y-119899996D02*
X308812012Y-119899406D01*
X295513930Y-107496471D02*
X295589704Y-107490700D01*
X297332669Y-14386515D02*
X297311763Y-14313453D01*
X297566847Y-46210012D02*
X297540851Y-46168960D01*
X55483152Y-10439987D02*
X55509148Y-10481039D01*
X299683099Y-46126681D02*
X299659148Y-46168960D01*
X12304946Y-46083278D02*
X12283099Y-46126681D01*
X617659Y-119823692D02*
X628641Y-119827928D01*
X64542963Y-12895229D02*
X64494737Y-12889281D01*
X207483278Y-109804946D02*
X207438855Y-109824637D01*
X55650000Y-10990122D02*
X55650000Y-11909877D01*
X12400912Y-67993997D02*
X12401122Y-67994441D01*
X12467330Y-106013484D02*
X12488236Y-106086546D01*
X297495053Y-55216721D02*
X297516900Y-55173318D01*
X297332735Y-106013240D02*
X297338957Y-105989210D01*
X292323986Y-68824990D02*
X292332546Y-68806359D01*
X12233152Y-46210012D02*
X12205173Y-46249740D01*
X297048498Y-106631958D02*
X297090317Y-106568505D01*
X36095853Y-12400308D02*
X36095357Y-12400233D01*
X64261144Y-12824637D02*
X64216721Y-12804946D01*
X299003138Y-46630974D02*
X298955262Y-46639281D01*
X292723510Y-68308847D02*
X292763374Y-68277990D01*
X92953138Y-107519025D02*
X93000549Y-107529671D01*
X207393519Y-107557874D02*
X207438855Y-107575362D01*
X297304181Y-14289286D02*
X297279601Y-14217376D01*
X297399798Y-67991655D02*
X297399870Y-67991169D01*
X299399740Y-10194826D02*
X299438047Y-10224721D01*
X101944826Y-107900259D02*
X101974721Y-107861952D01*
X12402170Y-70803902D02*
X12401878Y-70804296D01*
X297394441Y-67998877D02*
X297394874Y-67998646D01*
X297378537Y-105790288D02*
X297388138Y-105714903D01*
X299510033Y-46360033D02*
X299474841Y-46393539D01*
X150880974Y-10796861D02*
X150889281Y-10844737D01*
X64446861Y-10019025D02*
X64494737Y-10010718D01*
X16950853Y-70581144D02*
X16908519Y-70607014D01*
X297374743Y-14584924D02*
X297374743Y-14584924D01*
X11743519Y-54707874D02*
X11788855Y-54725362D01*
X308886004Y-4228D02*
X308885759Y-4213D01*
X92808576Y-109898804D02*
X92759877Y-109900000D01*
X296106375Y-13029195D02*
X296106138Y-13029104D01*
X16212401Y-68000309D02*
X16244978Y-68001121D01*
X297839987Y-46483152D02*
X297800259Y-46455173D01*
X93310012Y-109733152D02*
X93268960Y-109759148D01*
X309782547Y-119083193D02*
X309782586Y-119082950D01*
X309799406Y-118912012D02*
X309799996Y-118887972D01*
X36283464Y-12632869D02*
X36248079Y-12598053D01*
X13717138Y-107379516D02*
X13717376Y-107379601D01*
X292521804Y-68507619D02*
X292554641Y-68469369D01*
X14109711Y-12921462D02*
X14109460Y-12921497D01*
X216166900Y-108023318D02*
X216190851Y-107981039D01*
X216092631Y-108202619D02*
X216107874Y-108156480D01*
X101825362Y-108111144D02*
X101845053Y-108066721D01*
X297242614Y-106276947D02*
X297270804Y-106206375D01*
X55554946Y-10566721D02*
X55574637Y-10611144D01*
X13013289Y-106940804D02*
X13031280Y-106957906D01*
X299543539Y-10325158D02*
X299575278Y-10361952D01*
X63650000Y-11909877D02*
X63650000Y-10990122D01*
X299605173Y-46249740D02*
X299575278Y-46288047D01*
X375464Y-219678D02*
X375268Y-219827D01*
X17118507Y-68343956D02*
X17133636Y-68357308D01*
X64591423Y-12898804D02*
X64542963Y-12895229D01*
X25097302Y-12404991D02*
X25075119Y-12441767D01*
X150574841Y-12643539D02*
X150538047Y-12675278D01*
X816806Y-17452D02*
X805209Y-19465D01*
X13418478Y-107242266D02*
X13418698Y-107242392D01*
X13106878Y-13374640D02*
X13088044Y-13390808D01*
X299510033Y-54939966D02*
X299543539Y-54975158D01*
X254316847Y-10439987D02*
X254344826Y-10400259D01*
X296468292Y-107190453D02*
X296468505Y-107190317D01*
X13717376Y-13020398D02*
X13717138Y-13020483D01*
X159189966Y-10289966D02*
X159225158Y-10256460D01*
X118231Y-528963D02*
X112939Y-539476D01*
X297495053Y-46083278D02*
X297475362Y-46038855D01*
X10010718Y-109055262D02*
X10004770Y-109007036D01*
X10000000Y-108909877D02*
X10000000Y-55640122D01*
X10702619Y-109857368D02*
X10656480Y-109842125D01*
X296633831Y-107073703D02*
X296634030Y-107073545D01*
X12205173Y-46249740D02*
X12175278Y-46288047D01*
X17080502Y-70487933D02*
X17064726Y-70500514D01*
X434572Y-119724158D02*
X434771Y-119724302D01*
X55645229Y-10892963D02*
X55648804Y-10941423D01*
X254852619Y-12857368D02*
X254806480Y-12842125D01*
X297397829Y-70803902D02*
X297397517Y-70803522D01*
X158901195Y-10941423D02*
X158904770Y-10892963D01*
X297396487Y-14786322D02*
X297396471Y-14786069D01*
X309260302Y-119787168D02*
X309260523Y-119787060D01*
X297391169Y-70800129D02*
X297390681Y-70800081D01*
X298858576Y-109898804D02*
X298809877Y-109900000D01*
X628871Y-71985D02*
X628641Y-72071D01*
X22196Y-793005D02*
X22139Y-793243D01*
X216054770Y-109007036D02*
X216051195Y-108958576D01*
X17591605Y-69549390D02*
X17585436Y-69598617D01*
X12765823Y-13747458D02*
X12751643Y-13767831D01*
X292508847Y-68523510D02*
X292521804Y-68507619D01*
X10166847Y-109460012D02*
X10140851Y-109418960D01*
X12408344Y-67999798D02*
X12408830Y-67999870D01*
X16967803Y-70570196D02*
X16950853Y-70581144D01*
X12557384Y-14123052D02*
X12529194Y-14193624D01*
X292654155Y-70431613D02*
X292617617Y-70396880D01*
X12406002Y-70800912D02*
X12405558Y-70801122D01*
X293483505Y-70794731D02*
X293433352Y-70789631D01*
X606222Y-81367D02*
X539697Y-112831D01*
X13813210Y-12988309D02*
X13789526Y-12995739D01*
X296614000Y-107089049D02*
X296614203Y-107088897D01*
X12599101Y-14030722D02*
X12567373Y-14099776D01*
X309799406Y-987987D02*
X309799397Y-987742D01*
X296973545Y-13665969D02*
X296925521Y-13607073D01*
X216079671Y-108249450D02*
X216092631Y-108202619D01*
X150705173Y-12499740D02*
X150675278Y-12538047D01*
X539476Y-112939D02*
X528963Y-118231D01*
X593Y-118912012D02*
X602Y-118912257D01*
X10566721Y-46554946D02*
X10523318Y-46533099D01*
X16655306Y-68076527D02*
X16701926Y-68093495D01*
X93707368Y-109197380D02*
X93692125Y-109243519D01*
X309681537Y-119371469D02*
X309681768Y-119371036D01*
X102642963Y-109895229D02*
X102594737Y-109889281D01*
X309182793Y-119823504D02*
X309193554Y-119818734D01*
X295393792Y-107499999D02*
X295406205Y-107499841D01*
X158901195Y-11958576D02*
X158900000Y-11909877D01*
X36666487Y-12855519D02*
X36619459Y-12839623D01*
X175697Y-119465228D02*
X175841Y-119465427D01*
X150499740Y-12705173D02*
X150460012Y-12733152D01*
X298907036Y-54654770D02*
X298955262Y-54660718D01*
X13107072Y-107025522D02*
X13165969Y-107073546D01*
X63766900Y-12376681D02*
X63745053Y-12333278D01*
X295814937Y-12943803D02*
X295814690Y-12943749D01*
X36098243Y-12401049D02*
X36097781Y-12400853D01*
X17133636Y-70442691D02*
X17118507Y-70456043D01*
X54757036Y-12895229D02*
X54708576Y-12898804D01*
X12404296Y-67998121D02*
X12404704Y-67998394D01*
X254673318Y-12783099D02*
X254631039Y-12759148D01*
X299742125Y-55306480D02*
X299757368Y-55352619D01*
X309271469Y-118462D02*
X309271036Y-118231D01*
X93654946Y-109333278D02*
X93633099Y-109376681D01*
X159225158Y-12643539D02*
X159189966Y-12610033D01*
X17278614Y-70291894D02*
X17265643Y-70307351D01*
X297398646Y-70805125D02*
X297398394Y-70804704D01*
X92857036Y-107504770D02*
X92905262Y-107510718D01*
X296199991Y-107332729D02*
X296200223Y-107332626D01*
X207108576Y-107501195D02*
X207157036Y-107504770D01*
X309101607Y-47114D02*
X309090431Y-43422D01*
X295790127Y-107461294D02*
X295790376Y-107461246D01*
X254316847Y-12460012D02*
X254290851Y-12418960D01*
X298390122Y-54650000D02*
X298809877Y-54650000D01*
X309799397Y-118912257D02*
X309799406Y-118912012D01*
X12400057Y-67990190D02*
X12400057Y-67990190D01*
X245626681Y-12783099D02*
X245583278Y-12804946D01*
X102150259Y-107694826D02*
X102189987Y-107666847D01*
X292425773Y-70161602D02*
X292399107Y-70118820D01*
X254946861Y-10019025D02*
X254994737Y-10010718D01*
X297142392Y-13918698D02*
X297142266Y-13918478D01*
X150499740Y-10194826D02*
X150538047Y-10224721D01*
X12402255Y-14811112D02*
X12402246Y-14811365D01*
X12709682Y-13831493D02*
X12709545Y-13831707D01*
X299800000Y-45659877D02*
X299798804Y-45708576D01*
X698392Y-119852885D02*
X709568Y-119856577D01*
X309171128Y-119828014D02*
X309171358Y-119827928D01*
X12826453Y-106734030D02*
X12874477Y-106792927D01*
X207793539Y-109574841D02*
X207760033Y-109610033D01*
X10481039Y-54790851D02*
X10523318Y-54766900D01*
X14084674Y-12925298D02*
X14009872Y-12938704D01*
X12443749Y-14485309D02*
X12438752Y-14509623D01*
X889843Y-119893383D02*
X890086Y-119893417D01*
X25105620Y-12400159D02*
X25105119Y-12400184D01*
X299543539Y-54975158D02*
X299575278Y-55011952D01*
X10439987Y-109733152D02*
X10400259Y-109705173D01*
X292898848Y-70611294D02*
X292881179Y-70600892D01*
X12398804Y-45708576D02*
X12395229Y-45757036D01*
X308885759Y-4213D02*
X308812257Y-602D01*
X309365228Y-175697D02*
X309355605Y-168919D01*
X309006756Y-119877860D02*
X309006994Y-119877803D01*
X10029671Y-55399450D02*
X10042631Y-55352619D01*
X14286069Y-107496471D02*
X14286322Y-107496487D01*
X12405558Y-67998877D02*
X12406002Y-67999087D01*
X14286322Y-107496487D02*
X14311112Y-107497744D01*
X54708576Y-10001195D02*
X54757036Y-10004770D01*
X292477990Y-70236625D02*
X292465854Y-70220098D01*
X12425298Y-14584674D02*
X12425256Y-14584924D01*
X102740122Y-109900000D02*
X102691423Y-109898804D01*
X296840627Y-106886891D02*
X296840804Y-106886710D01*
X55425278Y-12538047D02*
X55393539Y-12574841D01*
X299704946Y-55216721D02*
X299724637Y-55261144D01*
X101792631Y-108202619D02*
X101807874Y-108156480D01*
X298955262Y-109889281D02*
X298907036Y-109895229D01*
X16967803Y-68229803D02*
X17008795Y-68257750D01*
X216166900Y-109376681D02*
X216145053Y-109333278D01*
X13693624Y-107370805D02*
X13693861Y-107370896D01*
X254761144Y-10075362D02*
X254806480Y-10057874D01*
X208007368Y-109197380D02*
X207992125Y-109243519D01*
X16908519Y-68192985D02*
X16950853Y-68218855D01*
X299704946Y-109333278D02*
X299683099Y-109376681D01*
X25103632Y-12400408D02*
X25103146Y-12400533D01*
X10844737Y-109889281D02*
X10796861Y-109880974D01*
X208039281Y-108344737D02*
X208045229Y-108392963D01*
X16950853Y-68218855D02*
X16967803Y-68229803D01*
X309723504Y-119282793D02*
X309723692Y-119282340D01*
X309759859Y-119178617D02*
X309759922Y-119178380D01*
X207393519Y-109842125D02*
X207347380Y-109857368D01*
X296468292Y-13209546D02*
X296447227Y-13196416D01*
X216799450Y-109870328D02*
X216752619Y-109857368D01*
X255140122Y-10000000D02*
X298809877Y-10000000D01*
X11876681Y-54766900D02*
X11918960Y-54790851D01*
X298955262Y-54660718D02*
X299003138Y-54669025D01*
X528530Y-119781537D02*
X528963Y-119781768D01*
X112831Y-539697D02*
X81367Y-606222D01*
X13600008Y-107332729D02*
X13622818Y-107342518D01*
X93633099Y-109376681D02*
X93609148Y-109418960D01*
X36094356Y-12400158D02*
X36087998Y-12400002D01*
X13031465Y-13441921D02*
X13031280Y-13442093D01*
X36910265Y-12898752D02*
X36860764Y-12895021D01*
X309171358Y-119827928D02*
X309182340Y-119823692D01*
X297270895Y-106206138D02*
X297279516Y-106182861D01*
X292942926Y-70635759D02*
X292898848Y-70611294D01*
X10019025Y-10796861D02*
X10029671Y-10749450D01*
X299318960Y-10140851D02*
X299360012Y-10166847D01*
X309756577Y-709568D02*
X309752885Y-698392D01*
X356513Y-119664768D02*
X356697Y-119664931D01*
X298341423Y-46648804D02*
X298292963Y-46645229D01*
X10990122Y-10000000D02*
X54659877Y-10000000D01*
X12941921Y-13531465D02*
X12890976Y-13587854D01*
X10000000Y-45659877D02*
X10000000Y-10990122D01*
X295393666Y-107500000D02*
X295393792Y-107499999D01*
X309193554Y-81265D02*
X309182793Y-76495D01*
X309799996Y-118887972D02*
X309800000Y-118887727D01*
X299795229Y-45757036D02*
X299789281Y-45805262D01*
X454956Y-119737778D02*
X518076Y-119775611D01*
X55455173Y-12499740D02*
X55425278Y-12538047D01*
X159466721Y-12804946D02*
X159423318Y-12783099D01*
X10844737Y-46639281D02*
X10796861Y-46630974D01*
X216125362Y-108111144D02*
X216145053Y-108066721D01*
X10256460Y-10325158D02*
X10289966Y-10289966D01*
X297397517Y-67996477D02*
X297397829Y-67996097D01*
X10057874Y-45993519D02*
X10042631Y-45947380D01*
X12959372Y-106886892D02*
X13013107Y-106940627D01*
X54900549Y-12870328D02*
X54853138Y-12880974D01*
X12811102Y-106714203D02*
X12826296Y-106733832D01*
X10224721Y-10361952D02*
X10256460Y-10325158D01*
X64352619Y-10042631D02*
X64399450Y-10029671D01*
X55168960Y-12759148D02*
X55126681Y-12783099D01*
X293273647Y-68038992D02*
X293293620Y-68034357D01*
X602Y-987742D02*
X593Y-987987D01*
X296711954Y-107009190D02*
X296712145Y-107009023D01*
X25097863Y-12404159D02*
X25097572Y-12404568D01*
X13440401Y-107254438D02*
X13440624Y-107254558D01*
X297374701Y-14584674D02*
X297361294Y-14509872D01*
X297393544Y-70800724D02*
X297393082Y-70800559D01*
X207954946Y-108066721D02*
X207974637Y-108111144D01*
X17534412Y-69822169D02*
X17518611Y-69869198D01*
X216752619Y-109857368D02*
X216706480Y-109842125D01*
X93692125Y-108156480D02*
X93707368Y-108202619D01*
X309498193Y-284818D02*
X309498013Y-284651D01*
X297624721Y-46288047D02*
X297594826Y-46249740D01*
X297398394Y-70804704D02*
X297398121Y-70804296D01*
X14084924Y-12925256D02*
X14084674Y-12925298D01*
X10892963Y-46645229D02*
X10844737Y-46639281D01*
X24879842Y-12665194D02*
X24841152Y-12696291D01*
X55574637Y-10611144D02*
X55592125Y-10656480D01*
X19465Y-119094790D02*
X19561Y-119095271D01*
X292224209Y-69656999D02*
X292220592Y-69636817D01*
X10749450Y-46620328D02*
X10702619Y-46607368D01*
X159381039Y-10140851D02*
X159423318Y-10116900D01*
X297391655Y-67999798D02*
X297392136Y-67999702D01*
X16187595Y-70800000D02*
X12412272Y-70800000D01*
X365989Y-227069D02*
X365610Y-227380D01*
X309090431Y-43422D02*
X309089961Y-43279D01*
X254344826Y-10400259D02*
X254374721Y-10361952D01*
X297656460Y-46324841D02*
X297624721Y-46288047D01*
X299143519Y-109842125D02*
X299097380Y-109857368D01*
X162221Y-119445043D02*
X162349Y-119445252D01*
X309564931Y-356697D02*
X309564768Y-356513D01*
X55639281Y-10844737D02*
X55645229Y-10892963D01*
X292332546Y-68806359D02*
X292354747Y-68761099D01*
X12403528Y-105613930D02*
X12409299Y-105689704D01*
X296468505Y-13209682D02*
X296468292Y-13209546D01*
X102006460Y-107825158D02*
X102039966Y-107789966D01*
X292200638Y-69425206D02*
X292200638Y-69374793D01*
X245159877Y-12899999D02*
X159890122Y-12899999D01*
X296447227Y-107203583D02*
X296468292Y-107190453D01*
X11960012Y-54816847D02*
X11999740Y-54844826D01*
X296909023Y-106812145D02*
X296909190Y-106811954D01*
X1012272Y0D02*
X1012027Y-3D01*
X63874721Y-10361952D02*
X63906460Y-10325158D01*
X293554297Y-68001158D02*
X293587398Y-68000319D01*
X13985309Y-12943749D02*
X13985062Y-12943803D01*
X149909877Y-10000000D02*
X149958576Y-10001195D01*
X254154770Y-10892963D02*
X254160718Y-10844737D01*
X158910718Y-12055262D02*
X158904770Y-12007036D01*
X12826296Y-106733832D02*
X12826453Y-106734030D01*
X299789281Y-10844737D02*
X299795229Y-10892963D01*
X63654770Y-10892963D02*
X63660718Y-10844737D01*
X299188855Y-109824637D02*
X299143519Y-109842125D01*
X292234357Y-69706379D02*
X292224209Y-69656999D01*
X3Y-1012027D02*
X0Y-1012272D01*
X309759859Y-721382D02*
X309756720Y-710038D01*
X93745229Y-109007036D02*
X93739281Y-109055262D01*
X43422Y-709568D02*
X43279Y-710038D01*
X118462Y-119371469D02*
X124264Y-119381711D01*
X309260302Y-112831D02*
X309193777Y-81367D01*
X292200638Y-69374793D02*
X292201158Y-69354297D01*
X25101282Y-12401268D02*
X25100842Y-12401509D01*
X159156460Y-10325158D02*
X159189966Y-10289966D01*
X150288855Y-12824637D02*
X150243519Y-12842125D01*
X297388138Y-14685096D02*
X297378537Y-14609711D01*
X246150000Y-11909877D02*
X246150000Y-11909877D01*
X47194Y-119201839D02*
X71985Y-119271128D01*
X216450259Y-109705173D02*
X216411952Y-109675278D01*
X10001195Y-45708576D02*
X10000000Y-45659877D01*
X297154558Y-13940624D02*
X297154438Y-13940401D01*
X297396471Y-105613930D02*
X297396487Y-105613677D01*
X297304259Y-14289527D02*
X297304181Y-14289286D01*
X296531958Y-107148498D02*
X296532168Y-107148356D01*
X292881179Y-70600892D02*
X292838397Y-70574226D01*
X12645561Y-13940401D02*
X12645441Y-13940624D01*
X10075362Y-10611144D02*
X10095053Y-10566721D01*
X297399275Y-70806455D02*
X297399087Y-70806002D01*
X207438855Y-107575362D02*
X207483278Y-107595053D01*
X308812257Y-602D02*
X308812012Y-593D01*
X709568Y-43422D02*
X698392Y-47114D01*
X254550259Y-10194826D02*
X254589987Y-10166847D01*
X102452619Y-107542631D02*
X102499450Y-107529671D01*
X101750000Y-108909877D02*
X101750000Y-108490122D01*
X295513677Y-107496487D02*
X295513930Y-107496471D01*
X254589987Y-12733152D02*
X254550259Y-12705173D01*
X539697Y-119787168D02*
X606222Y-119818632D01*
X12409299Y-105689704D02*
X12409321Y-105689957D01*
X298011144Y-54725362D02*
X298056480Y-54707874D01*
X12599210Y-106369505D02*
X12610141Y-106391791D01*
X208030974Y-108296861D02*
X208039281Y-108344737D01*
X12941921Y-106868534D02*
X12942093Y-106868719D01*
X24627124Y-12820714D02*
X24580957Y-12838949D01*
X13440624Y-107254558D02*
X13507982Y-107289743D01*
X12657733Y-13918478D02*
X12657607Y-13918698D01*
X13352772Y-107203584D02*
X13352989Y-107203715D01*
X297800259Y-54844826D02*
X297839987Y-54816847D01*
X297200789Y-14030494D02*
X297189858Y-14008208D01*
X254806480Y-12842125D02*
X254761144Y-12824637D01*
X292465854Y-70220098D02*
X292437056Y-70178722D01*
X298809877Y-10000000D02*
X298858576Y-10001195D01*
X309355197Y-168647D02*
X309345252Y-162349D01*
X159261952Y-10224721D02*
X159300259Y-10194826D01*
X17582429Y-69618570D02*
X17573814Y-69667429D01*
X24952307Y-12597383D02*
X24916925Y-12632197D01*
X299800000Y-55640122D02*
X299800000Y-108909877D01*
X55630974Y-12103138D02*
X55620328Y-12150549D01*
X150870328Y-10749450D02*
X150880974Y-10796861D01*
X158975362Y-12288855D02*
X158957874Y-12243519D01*
X13530494Y-107300789D02*
X13530722Y-107300898D01*
X216450259Y-107694826D02*
X216489987Y-107666847D01*
X309756720Y-710038D02*
X309756577Y-709568D01*
X93674637Y-108111144D02*
X93692125Y-108156480D01*
X13813210Y-107411690D02*
X13813453Y-107411763D01*
X17064726Y-70500514D02*
X17025178Y-70530470D01*
X12959195Y-106886710D02*
X12959372Y-106886892D01*
X309718734Y-119293554D02*
X309723504Y-119282793D01*
X12529194Y-106206375D02*
X12557384Y-106276947D01*
X309777860Y-793243D02*
X309777860Y-793243D01*
X159511144Y-12824637D02*
X159466721Y-12804946D01*
X150889281Y-10844737D02*
X150895229Y-10892963D01*
X309443486Y-235231D02*
X309443302Y-235068D01*
X298907036Y-46645229D02*
X298858576Y-46648804D01*
X296634030Y-107073545D02*
X296692926Y-107025521D01*
X292272360Y-69842967D02*
X292257268Y-69794867D01*
X245447380Y-10042631D02*
X245493519Y-10057874D01*
X150610033Y-10289966D02*
X150643539Y-10325158D01*
X292603119Y-68417617D02*
X292617617Y-68403119D01*
X12409809Y-67999942D02*
X12412027Y-67999996D01*
X55393539Y-10325158D02*
X55425278Y-10361952D01*
X12402246Y-14811365D02*
X12400160Y-14893668D01*
X25100414Y-12401772D02*
X25100001Y-12402056D01*
X297034028Y-106652747D02*
X297034176Y-106652541D01*
X25105119Y-12400184D02*
X25104620Y-12400234D01*
X296925359Y-13606878D02*
X296909190Y-13588045D01*
X12890808Y-106811955D02*
X12890976Y-106812145D01*
X16294528Y-68003594D02*
X16314650Y-68005102D01*
X297398877Y-67994441D02*
X297399087Y-67993997D01*
X10010718Y-10844737D02*
X10019025Y-10796861D01*
X207205262Y-109889281D02*
X207157036Y-109895229D01*
X36096345Y-12400408D02*
X36095853Y-12400308D01*
X219678Y-375464D02*
X175841Y-434572D01*
X10749450Y-109870328D02*
X10702619Y-109857368D01*
X10289966Y-109610033D02*
X10256460Y-109574841D01*
X298011144Y-46574637D02*
X297966721Y-46554946D01*
X43279Y-710038D02*
X40140Y-721382D01*
X12520483Y-106182861D02*
X12529103Y-106206138D01*
X297390678Y-14710042D02*
X297388166Y-14685348D01*
X793243Y-119877860D02*
X804728Y-119880438D01*
X309424731Y-219827D02*
X309424535Y-219678D01*
X16364016Y-68010042D02*
X16384038Y-68012551D01*
X14393684Y-12900160D02*
X14311365Y-12902246D01*
X309687060Y-539476D02*
X309681768Y-528963D01*
X17511710Y-69888160D02*
X17493584Y-69934342D01*
X71985Y-119271128D02*
X72071Y-119271358D01*
X309090431Y-119856577D02*
X309101607Y-119852885D01*
X987742Y-119899397D02*
X987987Y-119899406D01*
X112939Y-119360523D02*
X118231Y-119371036D01*
X55038855Y-10075362D02*
X55083278Y-10095053D01*
X14009872Y-107461295D02*
X14084674Y-107474701D01*
X299683099Y-55173318D02*
X299704946Y-55216721D01*
X254160718Y-10844737D02*
X254169025Y-10796861D01*
X235068Y-119543302D02*
X235231Y-119543486D01*
X40140Y-119178617D02*
X43279Y-119189961D01*
X12074841Y-54906460D02*
X12110033Y-54939966D01*
X93739281Y-108344737D02*
X93745229Y-108392963D01*
X150857368Y-12197380D02*
X150842125Y-12243519D01*
X159466721Y-10095053D02*
X159511144Y-10075362D01*
X297400000Y-67987727D02*
X297400000Y-55640122D01*
X528530Y-118462D02*
X518288Y-124264D01*
X216942963Y-107504770D02*
X216991423Y-107501195D01*
X159066847Y-10439987D02*
X159094826Y-10400259D01*
X297399918Y-67990681D02*
X297399942Y-67990190D01*
X295913484Y-12967330D02*
X295913240Y-12967264D01*
X10523318Y-109783099D02*
X10481039Y-109759148D01*
X17569815Y-69687207D02*
X17558776Y-69735575D01*
X309799397Y-987742D02*
X309795786Y-914240D01*
X216274721Y-109538047D02*
X216244826Y-109499740D01*
X150643539Y-12574841D02*
X150610033Y-12610033D01*
X150150549Y-12870328D02*
X150103138Y-12880974D01*
X150783099Y-10523318D02*
X150804946Y-10566721D01*
X299188855Y-46574637D02*
X299143519Y-46592125D01*
X16766426Y-68120138D02*
X16784819Y-68128438D01*
X216661144Y-107575362D02*
X216706480Y-107557874D01*
X299233278Y-109804946D02*
X299188855Y-109824637D01*
X11876681Y-46533099D02*
X11833278Y-46554946D01*
X14009623Y-12938752D02*
X13985309Y-12943749D01*
X17540359Y-68997112D02*
X17553796Y-69044869D01*
X16701926Y-70706504D02*
X16655306Y-70723472D01*
X309101607Y-119852885D02*
X309101839Y-119852805D01*
X297399440Y-67993082D02*
X297399583Y-67992612D01*
X25104124Y-12400309D02*
X25103632Y-12400408D01*
X299276681Y-54766900D02*
X299318960Y-54790851D01*
X297387972Y-70800003D02*
X297387727Y-70800000D01*
X293205132Y-68057268D02*
X293224845Y-68051628D01*
X13331493Y-107190317D02*
X13331707Y-107190454D01*
X309345252Y-162349D02*
X309345043Y-162221D01*
X295888964Y-12960982D02*
X295814937Y-12943803D01*
X13599776Y-13067373D02*
X13530722Y-13099101D01*
X36099135Y-12401508D02*
X36098695Y-12401267D01*
X299233278Y-46554946D02*
X299188855Y-46574637D01*
X12696415Y-13852772D02*
X12696284Y-13852989D01*
X299742125Y-109243519D02*
X299724637Y-109288855D01*
X10010718Y-55494737D02*
X10019025Y-55446861D01*
X299798804Y-108958576D02*
X299795229Y-109007036D01*
X293587398Y-70799680D02*
X293554297Y-70798841D01*
X207438855Y-109824637D02*
X207393519Y-109842125D01*
X299050549Y-10029671D02*
X299097380Y-10042631D01*
X12409321Y-105689957D02*
X12411832Y-105714651D01*
X299724637Y-46038855D02*
X299704946Y-46083278D01*
X12400129Y-67991169D02*
X12400201Y-67991655D01*
X299360012Y-54816847D02*
X299399740Y-54844826D01*
X10194826Y-10400259D02*
X10224721Y-10361952D01*
X10095053Y-10566721D02*
X10116900Y-10523318D01*
X63692631Y-10702619D02*
X63707874Y-10656480D01*
X102499450Y-107529671D02*
X102546861Y-107519025D01*
X297594826Y-46249740D02*
X297566847Y-46210012D01*
X36094858Y-12400183D02*
X36094356Y-12400158D01*
X118462Y-528530D02*
X118231Y-528963D01*
X150804946Y-12333278D02*
X150783099Y-12376681D01*
X254631039Y-12759148D02*
X254589987Y-12733152D01*
X518076Y-119775611D02*
X518288Y-119775735D01*
X297390700Y-105689704D02*
X297396471Y-105613930D01*
X309795771Y-913995D02*
X309794905Y-902256D01*
X299633152Y-109460012D02*
X299605173Y-109499740D01*
X297200898Y-106369276D02*
X297232626Y-106300223D01*
X298858576Y-10001195D02*
X298907036Y-10004770D01*
X309182793Y-76495D02*
X309182340Y-76307D01*
X150824637Y-10611144D02*
X150842125Y-10656480D01*
X10400259Y-54844826D02*
X10439987Y-54816847D01*
X159890122Y-12899999D02*
X159841423Y-12898804D01*
X309793417Y-119009913D02*
X309794857Y-118998231D01*
X298858576Y-54651195D02*
X298907036Y-54654770D01*
X93748804Y-108441423D02*
X93750000Y-108490122D01*
X12411861Y-105714903D02*
X12421462Y-105790288D01*
X12567270Y-14100008D02*
X12557481Y-14122818D01*
X10116900Y-55173318D02*
X10140851Y-55131039D01*
X216306460Y-107825158D02*
X216339966Y-107789966D01*
X308910156Y-6616D02*
X308909913Y-6582D01*
X16847474Y-68159169D02*
X16891044Y-68182896D01*
X295715075Y-107474743D02*
X295715075Y-107474743D01*
X17456586Y-68783661D02*
X17465341Y-68801841D01*
X309006994Y-119877803D02*
X309078380Y-119859922D01*
X297390681Y-70800081D02*
X297390190Y-70800057D01*
X309637778Y-454956D02*
X309637650Y-454747D01*
X12406917Y-67999440D02*
X12407387Y-67999583D01*
X217040122Y-109900000D02*
X216991423Y-109898804D01*
X102039966Y-109610033D02*
X102006460Y-109574841D01*
X159094826Y-10400259D02*
X159124721Y-10361952D01*
X12324637Y-55261144D02*
X12342125Y-55306480D01*
X10656480Y-109842125D02*
X10611144Y-109824637D01*
X296082861Y-13020483D02*
X296082623Y-13020398D01*
X102546861Y-109880974D02*
X102499450Y-109870328D01*
X17593614Y-69270687D02*
X17597322Y-69320160D01*
X309793383Y-889843D02*
X309782586Y-817049D01*
X518288Y-119775735D02*
X528530Y-119781537D01*
X63679671Y-10749450D02*
X63692631Y-10702619D01*
X25102667Y-12400681D02*
X25102195Y-12400853D01*
X309434389Y-227380D02*
X309434010Y-227069D01*
X36248079Y-12598053D02*
X36214484Y-12561507D01*
X13088044Y-13390808D02*
X13087854Y-13390976D01*
X254169025Y-10796861D02*
X254179671Y-10749450D01*
X297966721Y-54745053D02*
X298011144Y-54725362D01*
X295614651Y-107488166D02*
X295614903Y-107488138D01*
X308995271Y-119880438D02*
X309006756Y-119877860D01*
X216616721Y-107595053D02*
X216661144Y-107575362D01*
X16891044Y-68182896D02*
X16908519Y-68192985D01*
X81265Y-606445D02*
X76495Y-617206D01*
X299474841Y-46393539D02*
X299438047Y-46425278D01*
X24759343Y-12752477D02*
X24716430Y-12777424D01*
X14311112Y-12902255D02*
X14286322Y-12903512D01*
X216411952Y-107724721D02*
X216450259Y-107694826D01*
X12443803Y-105914937D02*
X12460981Y-105988964D01*
X12401122Y-67994441D02*
X12401353Y-67994874D01*
X10523318Y-10116900D02*
X10566721Y-10095053D01*
X254290851Y-12418960D02*
X254266900Y-12376681D01*
X295913240Y-107432735D02*
X295913484Y-107432669D01*
X16521268Y-68037770D02*
X16569346Y-68050012D01*
X296381521Y-13157733D02*
X296381301Y-13157607D01*
X308995271Y-19561D02*
X308994790Y-19465D01*
X293224845Y-70748371D02*
X293205132Y-70742731D01*
X255042963Y-12895229D02*
X254994737Y-12889281D01*
X12259148Y-55131039D02*
X12283099Y-55173318D01*
X297396097Y-67997829D02*
X297396477Y-67997517D01*
X309498193Y-119615181D02*
X309506718Y-119607065D01*
X292654155Y-68368386D02*
X292669369Y-68354641D01*
X24800952Y-12725410D02*
X24759343Y-12752477D01*
X297103715Y-13852989D02*
X297103583Y-13852772D01*
X216661144Y-109824637D02*
X216616721Y-109804946D01*
X309624158Y-119465427D02*
X309624302Y-119465228D01*
X64050259Y-10194826D02*
X64089987Y-10166847D01*
X296269276Y-13099101D02*
X296200223Y-13067373D01*
X16829518Y-70650036D02*
X16784819Y-70671561D01*
X216799450Y-107529671D02*
X216846861Y-107519025D01*
X295393666Y-12900000D02*
X255140122Y-12899999D01*
X299770328Y-10749450D02*
X299780974Y-10796861D01*
X246074637Y-10611144D02*
X246092125Y-10656480D01*
X297396471Y-14786069D02*
X297390700Y-14710295D01*
X12406917Y-70800559D02*
X12406455Y-70800724D01*
X64261144Y-10075362D02*
X64306480Y-10057874D01*
X36095357Y-12400233D02*
X36094858Y-12400183D01*
X297393997Y-70800912D02*
X297393544Y-70800724D01*
X297387972Y-67999996D02*
X297390190Y-67999942D01*
X13247252Y-107134029D02*
X13247458Y-107134176D01*
X216060718Y-109055262D02*
X216054770Y-109007036D01*
X444394Y-168919D02*
X434771Y-175697D01*
X159040851Y-10481039D02*
X159066847Y-10439987D01*
X297399870Y-67991169D02*
X297399918Y-67990681D01*
X216054770Y-108392963D02*
X216060718Y-108344737D01*
X298907036Y-10004770D02*
X298955262Y-10010718D01*
X308909913Y-119893417D02*
X308910156Y-119893383D01*
X309624302Y-434771D02*
X309624158Y-434572D01*
X698160Y-119852805D02*
X698392Y-119852885D01*
X150150549Y-10029671D02*
X150197380Y-10042631D01*
X297311763Y-14313453D02*
X297311690Y-14313210D01*
X159602619Y-12857368D02*
X159556480Y-12842125D01*
X10000000Y-10990122D02*
X10001195Y-10941423D01*
X297399087Y-67993997D02*
X297399275Y-67993544D01*
X36960016Y-12899999D02*
X36910265Y-12898752D01*
X297398121Y-67995703D02*
X297398394Y-67995295D01*
X12874477Y-13607072D02*
X12826453Y-13665969D01*
X299318960Y-109759148D02*
X299276681Y-109783099D01*
X254150000Y-10990122D02*
X254151195Y-10941423D01*
X295986546Y-12988236D02*
X295913484Y-12967330D01*
X245257036Y-12895229D02*
X245208576Y-12898804D01*
X254151195Y-10941423D02*
X254154770Y-10892963D01*
X296712145Y-107009023D02*
X296768533Y-106958078D01*
X245400549Y-10029671D02*
X245447380Y-10042631D01*
X150055262Y-12889281D02*
X150007036Y-12895229D01*
X308812012Y-593D02*
X308787972Y-3D01*
X299097380Y-10042631D02*
X299143519Y-10057874D01*
X902256Y-119894905D02*
X913995Y-119895771D01*
X292278991Y-69862368D02*
X292272360Y-69842967D01*
X292437056Y-70178722D02*
X292425773Y-70161602D01*
X296447010Y-13196284D02*
X296381521Y-13157733D01*
X299318960Y-54790851D02*
X299360012Y-54816847D01*
X13013107Y-106940627D02*
X13013289Y-106940804D01*
X292934Y-119606718D02*
X293281Y-119607065D01*
X13031280Y-106957906D02*
X13031465Y-106958078D01*
X309756720Y-119189961D02*
X309759859Y-119178617D01*
X102111952Y-107724721D02*
X102150259Y-107694826D01*
X10224721Y-109538047D02*
X10194826Y-109499740D01*
X158995053Y-10566721D02*
X159016900Y-10523318D01*
X102361144Y-107575362D02*
X102406480Y-107557874D01*
X292465854Y-68579901D02*
X292477990Y-68563374D01*
X55592125Y-10656480D02*
X55607368Y-10702619D01*
X17452Y-816806D02*
X17413Y-817049D01*
X299724637Y-10611144D02*
X299742125Y-10656480D01*
X292323986Y-69975009D02*
X292304105Y-69928683D01*
X101916847Y-109460012D02*
X101890851Y-109418960D01*
X17599564Y-69389910D02*
X17599564Y-69410089D01*
X606445Y-119818734D02*
X617206Y-119823504D01*
X55639281Y-12055262D02*
X55630974Y-12103138D01*
X12233152Y-55089987D02*
X12259148Y-55131039D01*
X309752805Y-698160D02*
X309728014Y-628871D01*
X295614903Y-107488138D02*
X295690288Y-107478537D01*
X93748804Y-108958576D02*
X93745229Y-109007036D01*
X299438047Y-54874721D02*
X299474841Y-54906460D01*
X17598327Y-69340314D02*
X17599564Y-69389910D01*
X13013107Y-13459372D02*
X12959372Y-13513107D01*
X12400416Y-70807387D02*
X12400297Y-70807863D01*
X293503949Y-68003711D02*
X293554297Y-68001158D01*
X124264Y-119381711D02*
X124388Y-119381923D01*
X292707619Y-68321804D02*
X292723510Y-68308847D01*
X299633152Y-10439987D02*
X299659148Y-10481039D01*
X11603138Y-46630974D02*
X11555262Y-46639281D01*
X93555173Y-107900259D02*
X93583152Y-107939987D01*
X365610Y-119672619D02*
X365989Y-119672930D01*
X92857036Y-109895229D02*
X92808576Y-109898804D01*
X55533099Y-10523318D02*
X55554946Y-10566721D01*
X0Y-118887727D02*
X3Y-118887972D01*
X101916847Y-107939987D02*
X101944826Y-107900259D01*
X14311112Y-107497744D02*
X14311365Y-107497753D01*
X254245053Y-12333278D02*
X254225362Y-12288855D01*
X309723692Y-617659D02*
X309723504Y-617206D01*
X16521268Y-70762229D02*
X16501596Y-70766719D01*
X63707874Y-12243519D02*
X63692631Y-12197380D01*
X309281711Y-124264D02*
X309271469Y-118462D01*
X207992125Y-108156480D02*
X208007368Y-108202619D01*
X296269505Y-107300789D02*
X296291791Y-107289858D01*
X14210295Y-12909299D02*
X14210042Y-12909321D01*
X902256Y-5094D02*
X901768Y-5142D01*
X296693121Y-107025359D02*
X296711954Y-107009190D01*
X292603119Y-70382382D02*
X292568386Y-70345844D01*
X299438047Y-46425278D02*
X299399740Y-46455173D01*
X298056480Y-54707874D02*
X298102619Y-54692631D01*
X292354747Y-68761099D02*
X292364240Y-68742926D01*
X297419025Y-45853138D02*
X297410718Y-45805262D01*
X12874640Y-13606878D02*
X12874477Y-13607072D01*
X24533933Y-12854846D02*
X24486172Y-12868366D01*
X12074841Y-46393539D02*
X12038047Y-46425278D01*
X17008795Y-70542249D02*
X16967803Y-70570196D01*
X12657607Y-13918698D02*
X12645561Y-13940401D01*
X245208576Y-12898804D02*
X245159877Y-12899999D01*
X24672320Y-12800189D02*
X24627124Y-12820714D01*
X309507065Y-119606718D02*
X309515181Y-119598193D01*
X296177181Y-107342518D02*
X296199991Y-107332729D01*
X10042631Y-10702619D02*
X10057874Y-10656480D01*
X309281711Y-119775735D02*
X309281923Y-119775611D01*
X150733152Y-10439987D02*
X150759148Y-10481039D01*
X36573288Y-12821390D02*
X36528089Y-12800865D01*
X12402255Y-105588887D02*
X12403512Y-105613677D01*
X889843Y-6616D02*
X817049Y-17413D01*
X309193777Y-119818632D02*
X309260302Y-119787168D01*
X12461042Y-105989210D02*
X12467263Y-106013240D01*
X309777803Y-793005D02*
X309759922Y-721619D01*
X297396097Y-70802170D02*
X297395703Y-70801878D01*
X12400158Y-14893794D02*
X12400000Y-14906207D01*
X63816847Y-10439987D02*
X63844826Y-10400259D01*
X297399839Y-14893668D02*
X297397753Y-14811365D01*
X16701926Y-68093495D02*
X16720710Y-68100867D01*
X12283099Y-55173318D02*
X12304946Y-55216721D01*
X102499450Y-109870328D02*
X102452619Y-109857368D01*
X12357368Y-55352619D02*
X12370328Y-55399450D01*
X10042631Y-45947380D02*
X10029671Y-45900549D01*
X17118507Y-70456043D02*
X17080502Y-70487933D01*
X299633152Y-55089987D02*
X299659148Y-55131039D01*
X292257268Y-69005132D02*
X292272360Y-68957032D01*
X10611144Y-46574637D02*
X10566721Y-46554946D01*
X297397753Y-105588634D02*
X297399839Y-105506331D01*
X17534412Y-68977830D02*
X17540359Y-68997112D01*
X216846861Y-109880974D02*
X216799450Y-109870328D01*
X299474841Y-54906460D02*
X299510033Y-54939966D01*
X10892963Y-10004770D02*
X10941423Y-10001195D01*
X245583278Y-12804946D02*
X245538855Y-12824637D01*
X293293620Y-70765642D02*
X293273647Y-70761007D01*
X12402246Y-105588634D02*
X12402255Y-105588887D01*
X309171358Y-72071D02*
X309171128Y-71985D01*
X298102619Y-54692631D02*
X298149450Y-54679671D01*
X309752885Y-119201607D02*
X309756577Y-119190431D01*
X216069025Y-109103138D02*
X216060718Y-109055262D01*
X292508847Y-70276489D02*
X292477990Y-70236625D01*
X101974721Y-107861952D02*
X102006460Y-107825158D01*
X299276681Y-109783099D02*
X299233278Y-109804946D01*
X246139281Y-10844737D02*
X246145229Y-10892963D01*
X434572Y-175841D02*
X375464Y-219678D01*
X296381301Y-13157607D02*
X296359598Y-13145561D01*
X13418698Y-107242392D02*
X13440401Y-107254438D01*
X296359375Y-13145441D02*
X296292017Y-13110256D01*
X25099602Y-12402360D02*
X25099219Y-12402684D01*
X12567270Y-106299991D02*
X12567373Y-106300223D01*
X4213Y-118985759D02*
X4228Y-118986004D01*
X297399999Y-105493792D02*
X297400000Y-105493666D01*
X10166847Y-55089987D02*
X10194826Y-55050259D01*
X309564768Y-356513D02*
X309515348Y-301986D01*
X12425256Y-105815075D02*
X12425298Y-105815325D01*
X309631080Y-444394D02*
X309624302Y-434771D01*
X299798804Y-55591423D02*
X299800000Y-55640122D01*
X297401195Y-55591423D02*
X297404770Y-55542963D01*
X606222Y-119818632D02*
X606445Y-119818734D01*
X10481039Y-109759148D02*
X10439987Y-109733152D01*
X93609148Y-107981039D02*
X93633099Y-108023318D01*
X295814690Y-107456250D02*
X295814937Y-107456196D01*
X16588770Y-70744522D02*
X16569346Y-70749987D01*
X40077Y-119178380D02*
X40140Y-119178617D01*
X207205262Y-107510718D02*
X207253138Y-107519025D01*
X17585436Y-69598617D02*
X17582429Y-69618570D01*
X12175278Y-46288047D02*
X12143539Y-46324841D01*
X10702619Y-10042631D02*
X10749450Y-10029671D01*
X297390190Y-70800057D02*
X297387972Y-70800003D01*
X296010472Y-107404259D02*
X296010713Y-107404181D01*
X292364240Y-68742926D02*
X292388705Y-68698848D01*
X295790376Y-12938753D02*
X295790127Y-12938705D01*
X299770328Y-109150549D02*
X299757368Y-109197380D01*
X245400549Y-12870328D02*
X245353138Y-12880974D01*
X297242518Y-106277181D02*
X297242614Y-106276947D01*
X207059877Y-109900000D02*
X102740122Y-109900000D01*
X297398394Y-67995295D02*
X297398646Y-67994874D01*
X299097380Y-46607368D02*
X299050549Y-46620328D01*
X36100375Y-12402359D02*
X36099976Y-12402055D01*
X296200223Y-107332626D02*
X296269276Y-107300898D01*
X13267831Y-107148356D02*
X13268041Y-107148498D01*
X309780534Y-119094790D02*
X309782547Y-119083193D01*
X297048498Y-13768041D02*
X297048356Y-13767831D01*
X17582429Y-69181429D02*
X17585436Y-69201382D01*
X11507036Y-46645229D02*
X11458576Y-46648804D01*
X158929671Y-12150549D02*
X158919025Y-12103138D01*
X216489987Y-107666847D02*
X216531039Y-107640851D01*
X14084674Y-107474701D02*
X14084924Y-107474743D01*
X297624721Y-55011952D02*
X297656460Y-54975158D01*
X254716721Y-10095053D02*
X254761144Y-10075362D01*
X296786710Y-106940804D02*
X296786891Y-106940627D01*
X297154558Y-106459375D02*
X297189743Y-106392017D01*
X22139Y-793243D02*
X19561Y-804728D01*
X17573814Y-69667429D02*
X17569815Y-69687207D01*
X17465341Y-68801841D02*
X17485746Y-68847063D01*
X207974637Y-108111144D02*
X207992125Y-108156480D01*
X150804946Y-10566721D02*
X150824637Y-10611144D01*
X245824841Y-10256460D02*
X245860033Y-10289966D01*
X207526681Y-109783099D02*
X207483278Y-109804946D01*
X17362058Y-70180066D02*
X17350691Y-70196739D01*
X17540359Y-69802887D02*
X17534412Y-69822169D01*
X216079671Y-109150549D02*
X216069025Y-109103138D01*
X150460012Y-12733152D02*
X150418960Y-12759148D01*
X309752885Y-698392D02*
X309752805Y-698160D01*
X47114Y-698392D02*
X43422Y-709568D01*
X63651195Y-11958576D02*
X63650000Y-11909877D01*
X12405125Y-67998646D02*
X12405558Y-67998877D01*
X216616721Y-109804946D02*
X216573318Y-109783099D01*
X298244737Y-46639281D02*
X298196861Y-46630974D01*
X309782547Y-816806D02*
X309780534Y-805209D01*
X293006359Y-68132546D02*
X293024990Y-68123986D01*
X254761144Y-12824637D02*
X254716721Y-12804946D01*
X12400201Y-70808344D02*
X12400129Y-70808830D01*
X817049Y-17413D02*
X816806Y-17452D01*
X216531039Y-109759148D02*
X216489987Y-109733152D01*
X16720710Y-68100867D02*
X16766426Y-68120138D01*
X159423318Y-10116900D02*
X159466721Y-10095053D01*
X297397753Y-14811365D02*
X297397744Y-14811112D01*
X93000549Y-107529671D02*
X93047380Y-107542631D01*
X55607368Y-12197380D02*
X55592125Y-12243519D01*
X297393082Y-67999440D02*
X297393544Y-67999275D01*
X207793539Y-107825158D02*
X207825278Y-107861952D01*
X13599776Y-107332626D02*
X13600008Y-107332729D01*
X54947380Y-10042631D02*
X54993519Y-10057874D01*
X309006756Y-22139D02*
X308995271Y-19561D01*
X296106375Y-107370804D02*
X296176947Y-107342614D01*
X159792963Y-12895229D02*
X159744737Y-12889281D01*
X295913484Y-107432669D02*
X295986546Y-107411763D01*
X72071Y-628641D02*
X71985Y-628871D01*
X309506718Y-119607065D02*
X309507065Y-119606718D01*
X10702619Y-54692631D02*
X10749450Y-54679671D01*
X10400259Y-10194826D02*
X10439987Y-10166847D01*
X63766900Y-10523318D02*
X63790851Y-10481039D01*
X299233278Y-10095053D02*
X299276681Y-10116900D01*
X284651Y-119598013D02*
X284818Y-119598193D01*
X254225362Y-10611144D02*
X254245053Y-10566721D01*
X17597322Y-69479839D02*
X17593614Y-69529312D01*
X246150000Y-11909877D02*
X246148804Y-11958576D01*
X13911035Y-12960981D02*
X13910789Y-12961042D01*
X299360012Y-10166847D02*
X299399740Y-10194826D01*
X12400000Y-105493666D02*
X12400000Y-105493792D01*
X150243519Y-10057874D02*
X150288855Y-10075362D01*
X13185998Y-13310950D02*
X13185796Y-13311102D01*
X309681537Y-528530D02*
X309675735Y-518288D01*
X159890122Y-10000000D02*
X245159877Y-10000000D01*
X10256460Y-109574841D02*
X10224721Y-109538047D01*
X12709682Y-106568506D02*
X12751501Y-106631958D01*
X11918960Y-54790851D02*
X11960012Y-54816847D01*
X16569346Y-70749987D02*
X16521268Y-70762229D01*
X12408830Y-70800129D02*
X12408344Y-70800201D01*
X10004770Y-55542963D02*
X10010718Y-55494737D01*
X13693861Y-107370896D02*
X13717138Y-107379516D01*
X64173318Y-12783099D02*
X64131039Y-12759148D01*
X297034028Y-13747252D02*
X296989049Y-13685999D01*
X10523318Y-54766900D02*
X10566721Y-54745053D01*
X292201158Y-69445702D02*
X292200638Y-69425206D01*
X16384038Y-68012551D02*
X16433095Y-68019945D01*
X12403512Y-105613677D02*
X12403528Y-105613930D01*
X245749740Y-12705173D02*
X245710012Y-12733152D01*
X296786710Y-13459195D02*
X296768719Y-13442093D01*
X16636178Y-68070100D02*
X16655306Y-68076527D01*
X216991423Y-107501195D02*
X217040122Y-107500000D01*
X10140851Y-10481039D02*
X10166847Y-10439987D01*
X93654946Y-108066721D02*
X93674637Y-108111144D01*
X309800000Y-1012272D02*
X309799996Y-1012027D01*
X710038Y-119856720D02*
X721382Y-119859859D01*
X150288855Y-10075362D02*
X150333278Y-10095053D01*
X293157032Y-70727639D02*
X293137631Y-70721008D01*
X246130974Y-12103138D02*
X246120328Y-12150549D01*
X297393997Y-67999087D02*
X297394441Y-67998877D01*
X81367Y-119293777D02*
X112831Y-119360302D01*
X93093519Y-107557874D02*
X93138855Y-107575362D01*
X11743519Y-46592125D02*
X11697380Y-46607368D01*
X13166167Y-13326296D02*
X13165969Y-13326453D01*
X254207874Y-10656480D02*
X254225362Y-10611144D01*
X63745053Y-12333278D02*
X63725362Y-12288855D01*
X295913240Y-12967264D02*
X295889210Y-12961042D01*
X14185348Y-107488167D02*
X14210042Y-107490678D01*
X293273647Y-70761007D02*
X293224845Y-70748371D01*
X12405125Y-70801353D02*
X12404704Y-70801605D01*
X207300549Y-109870328D02*
X207253138Y-109880974D01*
X309572619Y-119534389D02*
X309572930Y-119534010D01*
X16244978Y-70798878D02*
X16212401Y-70799690D01*
X12401353Y-67994874D02*
X12401605Y-67995295D01*
X297401195Y-45708576D02*
X297400000Y-45659877D01*
X16314650Y-70794897D02*
X16294528Y-70796405D01*
X292354747Y-70038900D02*
X292332546Y-69993640D01*
X93349740Y-107694826D02*
X93388047Y-107724721D01*
X308909913Y-6582D02*
X308898231Y-5142D01*
X17399496Y-70121173D02*
X17388975Y-70138391D01*
X14210042Y-12909321D02*
X14185348Y-12911832D01*
X17388975Y-70138391D02*
X17362058Y-70180066D01*
X296858078Y-13531466D02*
X296857906Y-13531280D01*
X63650000Y-10990122D02*
X63651195Y-10941423D01*
X299789281Y-109055262D02*
X299780974Y-109103138D01*
X296010713Y-107404181D02*
X296082623Y-107379601D01*
X297279516Y-14217138D02*
X297270895Y-14193861D01*
X296692926Y-107025521D02*
X296693121Y-107025359D01*
X13185796Y-107088897D02*
X13185998Y-107089049D01*
X55630974Y-10796861D02*
X55639281Y-10844737D01*
X297725158Y-54906460D02*
X297761952Y-54874721D01*
X10194826Y-109499740D02*
X10166847Y-109460012D01*
X295986789Y-12988309D02*
X295986546Y-12988236D01*
X12959372Y-13513107D02*
X12959195Y-13513289D01*
X297399870Y-70808830D02*
X297399798Y-70808344D01*
X208048804Y-108441423D02*
X208050000Y-108490122D01*
X297923318Y-54766900D02*
X297966721Y-54745053D01*
X296768533Y-106958078D02*
X296768719Y-106957906D01*
X10029671Y-109150549D02*
X10019025Y-109103138D01*
X159841423Y-10001195D02*
X159890122Y-10000000D01*
X207568960Y-109759148D02*
X207526681Y-109783099D01*
X13622818Y-107342518D02*
X13623052Y-107342615D01*
X297361294Y-105890127D02*
X297374701Y-105815325D01*
X235068Y-356697D02*
X227380Y-365610D01*
X159225158Y-10256460D02*
X159261952Y-10224721D01*
X150900000Y-11909877D02*
X150900000Y-11909877D01*
X216573318Y-109783099D02*
X216531039Y-109759148D01*
X297103715Y-106547010D02*
X297142266Y-106481521D01*
X245538855Y-10075362D02*
X245583278Y-10095053D01*
X159511144Y-10075362D02*
X159556480Y-10057874D01*
X17278614Y-68508105D02*
X17309546Y-68546894D01*
X297154438Y-106459598D02*
X297154558Y-106459375D01*
X296858078Y-106868533D02*
X296909023Y-106812145D01*
X101845053Y-109333278D02*
X101825362Y-109288855D01*
X299575278Y-10361952D02*
X299605173Y-10400259D01*
X295488634Y-12902246D02*
X295406331Y-12900160D01*
X293363182Y-68020592D02*
X293413013Y-68012958D01*
X10990122Y-46650000D02*
X10941423Y-46648804D01*
X12403159Y-67997188D02*
X12403522Y-67997517D01*
X254994737Y-12889281D02*
X254946861Y-12880974D01*
X93493539Y-107825158D02*
X93525278Y-107861952D01*
X150197380Y-10042631D02*
X150243519Y-10057874D01*
X10029671Y-45900549D02*
X10019025Y-45853138D01*
X10057874Y-109243519D02*
X10042631Y-109197380D01*
X93268960Y-107640851D02*
X93310012Y-107666847D01*
X101825362Y-109288855D02*
X101807874Y-109243519D01*
X12599210Y-14030494D02*
X12599101Y-14030722D01*
X297399583Y-70807387D02*
X297399440Y-70806917D01*
X292961099Y-70645252D02*
X292942926Y-70635759D01*
X246092125Y-12243519D02*
X246074637Y-12288855D01*
X293483505Y-68005268D02*
X293503949Y-68003711D01*
X297399087Y-70806002D02*
X297398877Y-70805558D01*
X55083278Y-12804946D02*
X55038855Y-12824637D01*
X297387727Y-70800000D02*
X293612605Y-70800000D01*
X309355605Y-168919D02*
X309355197Y-168647D01*
X17424302Y-68721791D02*
X17433953Y-68739513D01*
X309780438Y-804728D02*
X309777860Y-793243D01*
X298102619Y-46607368D02*
X298056480Y-46592125D01*
X36098695Y-12401267D02*
X36098243Y-12401049D01*
X12411861Y-14685096D02*
X12411832Y-14685348D01*
X10796861Y-54669025D02*
X10844737Y-54660718D01*
X13507982Y-13110256D02*
X13440624Y-13145441D01*
X12438752Y-14509623D02*
X12438704Y-14509872D01*
X297189743Y-106392017D02*
X297189858Y-106391791D01*
X297103583Y-13852772D02*
X297090453Y-13831707D01*
X10075362Y-109288855D02*
X10057874Y-109243519D01*
X309171128Y-71985D02*
X309101839Y-47194D01*
X13813453Y-107411763D02*
X13886515Y-107432669D01*
X299543539Y-109574841D02*
X299510033Y-109610033D01*
X297339017Y-105988964D02*
X297356196Y-105914937D01*
X297390678Y-105689957D02*
X297390700Y-105689704D01*
X245925278Y-10361952D02*
X245955173Y-10400259D01*
X296359598Y-107254438D02*
X296381301Y-107242392D01*
X13507982Y-107289743D02*
X13508208Y-107289858D01*
X17133636Y-68357308D02*
X17170005Y-68391053D01*
X19561Y-119095271D02*
X22139Y-119106756D01*
X13693624Y-13029194D02*
X13623052Y-13057384D01*
X64011952Y-10224721D02*
X64050259Y-10194826D01*
X309193777Y-81367D02*
X309193554Y-81265D01*
X254374721Y-10361952D02*
X254406460Y-10325158D01*
X101807874Y-108156480D02*
X101825362Y-108111144D01*
X93460033Y-109610033D02*
X93424841Y-109643539D01*
X297594826Y-55050259D02*
X297624721Y-55011952D01*
X235231Y-119543486D02*
X284651Y-119598013D01*
X159556480Y-12842125D02*
X159511144Y-12824637D01*
X207825278Y-107861952D02*
X207855173Y-107900259D01*
X297399841Y-105506205D02*
X297399999Y-105493792D01*
X299742125Y-10656480D02*
X299757368Y-10702619D01*
X13185998Y-107089049D02*
X13247252Y-107134029D01*
X293433352Y-70789631D02*
X293413013Y-70787041D01*
X444394Y-119731080D02*
X444802Y-119731352D01*
X292278991Y-68937631D02*
X292296500Y-68890357D01*
X299659148Y-55131039D02*
X299683099Y-55173318D01*
X55249740Y-10194826D02*
X55288047Y-10224721D01*
X25098852Y-12403027D02*
X25098504Y-12403387D01*
X93750000Y-108490122D02*
X93750000Y-108909877D01*
X296693121Y-13374640D02*
X296692926Y-13374478D01*
X298292963Y-46645229D02*
X298244737Y-46639281D01*
X12402811Y-67996840D02*
X12403159Y-67997188D01*
X297761952Y-46425278D02*
X297725158Y-46393539D01*
X299003138Y-10019025D02*
X299050549Y-10029671D01*
X297404770Y-45757036D02*
X297401195Y-45708576D01*
X293090357Y-70703499D02*
X293071316Y-70695894D01*
X245983152Y-12460012D02*
X245955173Y-12499740D01*
X64216721Y-12804946D02*
X64173318Y-12783099D01*
X308886004Y-119895771D02*
X308897743Y-119894905D01*
X309681768Y-528963D02*
X309681537Y-528530D01*
X297232626Y-14099776D02*
X297200898Y-14030723D01*
X13166167Y-107073703D02*
X13185796Y-107088897D01*
X297725158Y-46393539D02*
X297689966Y-46360033D01*
X297311763Y-106086546D02*
X297332669Y-106013484D01*
X13185796Y-13311102D02*
X13166167Y-13326296D01*
X55645229Y-12007036D02*
X55639281Y-12055262D01*
X297398877Y-70805558D02*
X297398646Y-70805125D01*
X308897743Y-119894905D02*
X308898231Y-119894857D01*
X297394441Y-70801122D02*
X297393997Y-70800912D01*
X295589957Y-12909321D02*
X295589704Y-12909299D01*
X12400003Y-70812027D02*
X12400000Y-70812272D01*
X36087753Y-12400000D02*
X25112246Y-12400000D01*
X36714252Y-12869038D02*
X36666487Y-12855519D01*
X13352772Y-13196415D02*
X13331707Y-13209545D01*
X12826296Y-13666167D02*
X12811102Y-13685796D01*
X36099562Y-12401771D02*
X36099135Y-12401508D01*
X297232626Y-106300223D02*
X297232729Y-106299991D01*
X297090317Y-13831494D02*
X297048498Y-13768041D01*
X101750000Y-108490122D02*
X101750000Y-108490122D01*
X12408344Y-70800201D02*
X12407863Y-70800297D01*
X297540851Y-46168960D02*
X297516900Y-46126681D01*
X12395229Y-45757036D02*
X12389281Y-45805262D01*
X10194826Y-55050259D02*
X10224721Y-55011952D01*
X55620328Y-10749450D02*
X55630974Y-10796861D01*
X102594737Y-109889281D02*
X102546861Y-109880974D01*
X309794905Y-118997743D02*
X309795771Y-118986004D01*
X93047380Y-109857368D02*
X93000549Y-109870328D01*
X150007036Y-10004770D02*
X150055262Y-10010718D01*
X216244826Y-109499740D02*
X216216847Y-109460012D01*
X309365228Y-119724302D02*
X309365427Y-119724158D01*
X309681768Y-119371036D02*
X309687060Y-119360523D01*
X168919Y-444394D02*
X168647Y-444802D01*
X309498013Y-284651D02*
X309443486Y-235231D01*
X13813453Y-12988236D02*
X13813210Y-12988309D01*
X295814690Y-12943749D02*
X295790376Y-12938753D01*
X309794905Y-902256D02*
X309794857Y-901768D01*
X299724637Y-55261144D02*
X299742125Y-55306480D01*
X254245053Y-10566721D02*
X254266900Y-10523318D01*
X246145229Y-12007036D02*
X246139281Y-12055262D01*
X17424302Y-70078208D02*
X17399496Y-70121173D01*
X12401878Y-70804296D02*
X12401605Y-70804704D01*
X102452619Y-109857368D02*
X102406480Y-109842125D01*
X55360033Y-10289966D02*
X55393539Y-10325158D01*
X293293620Y-68034357D02*
X293343000Y-68024209D01*
X17569815Y-69112792D02*
X17573814Y-69132570D01*
X309424535Y-219678D02*
X309365427Y-175841D01*
X16501596Y-70766719D02*
X16452967Y-70776550D01*
X245893539Y-10325158D02*
X245925278Y-10361952D01*
X293071316Y-70695894D02*
X293024990Y-70676013D01*
X93692125Y-109243519D02*
X93674637Y-109288855D01*
X12567373Y-106300223D02*
X12599101Y-106369277D01*
X10057874Y-10656480D02*
X10075362Y-10611144D01*
X12529103Y-106206138D02*
X12529194Y-106206375D01*
X55083278Y-10095053D02*
X55126681Y-10116900D01*
X309193554Y-119818734D02*
X309193777Y-119818632D01*
X298149450Y-46620328D02*
X298102619Y-46607368D01*
X292224209Y-69143000D02*
X292234357Y-69093620D01*
X309572930Y-119534010D02*
X309580172Y-119524731D01*
X36087998Y-12400002D02*
X36087753Y-12400000D01*
X245538855Y-12824637D02*
X245493519Y-12842125D01*
X12709545Y-13831707D02*
X12696415Y-13852772D01*
X93388047Y-107724721D02*
X93424841Y-107756460D01*
X628641Y-72071D02*
X617659Y-76307D01*
X296925359Y-106793121D02*
X296925521Y-106792926D01*
X36102114Y-12404158D02*
X36101803Y-12403765D01*
X299798804Y-45708576D02*
X299795229Y-45757036D01*
X297374743Y-14584924D02*
X297374701Y-14584674D01*
X81367Y-606222D02*
X81265Y-606445D01*
X10566721Y-109804946D02*
X10523318Y-109783099D01*
X16636178Y-70729899D02*
X16588770Y-70744522D01*
X297339017Y-14411035D02*
X297338957Y-14410789D01*
X297397744Y-105588887D02*
X297397753Y-105588634D01*
X297311690Y-14313210D02*
X297304259Y-14289527D01*
X12406455Y-70800724D02*
X12406002Y-70800912D01*
X297332669Y-106013484D02*
X297332735Y-106013240D01*
X150643539Y-10325158D02*
X150675278Y-10361952D01*
X13352989Y-13196284D02*
X13352772Y-13196415D01*
X295690539Y-107478501D02*
X295715075Y-107474743D01*
X12402482Y-70803522D02*
X12402170Y-70803902D01*
X12645441Y-13940624D02*
X12610256Y-14007982D01*
X24240425Y-12899340D02*
X14406317Y-12899999D01*
X292332546Y-69993640D02*
X292323986Y-69975009D01*
X309782586Y-119082950D02*
X309793383Y-119010156D01*
X309564931Y-119543302D02*
X309572619Y-119534389D01*
X292210368Y-69233352D02*
X292212958Y-69213013D01*
X207855173Y-107900259D02*
X207883152Y-107939987D01*
X299780974Y-109103138D02*
X299770328Y-109150549D01*
X12400003Y-67987972D02*
X12400057Y-67990190D01*
X12811102Y-13685796D02*
X12810950Y-13685998D01*
X12751501Y-13768041D02*
X12709682Y-13831493D01*
X299510033Y-10289966D02*
X299543539Y-10325158D01*
X13985062Y-12943803D02*
X13911035Y-12960981D01*
X309799996Y-1012027D02*
X309799406Y-987987D01*
X12495818Y-14289286D02*
X12495739Y-14289526D01*
X54947380Y-12857368D02*
X54900549Y-12870328D01*
X309345252Y-119737650D02*
X309355197Y-119731352D01*
X12488309Y-14313210D02*
X12488236Y-14313453D01*
X254179671Y-12150549D02*
X254169025Y-12103138D01*
X102546861Y-107519025D02*
X102594737Y-107510718D01*
X159300259Y-10194826D02*
X159339987Y-10166847D01*
X309078617Y-40140D02*
X309078380Y-40077D01*
X17232816Y-68455450D02*
X17265643Y-68492648D01*
X12696284Y-106547010D02*
X12696415Y-106547227D01*
X16244978Y-68001121D02*
X16294528Y-68003594D01*
X297338957Y-14410789D02*
X297332735Y-14386759D01*
X13418698Y-13157607D02*
X13418478Y-13157733D01*
X299188855Y-54725362D02*
X299233278Y-54745053D01*
X246130974Y-10796861D02*
X246139281Y-10844737D01*
X309624158Y-434572D02*
X309580321Y-375464D01*
X208030974Y-109103138D02*
X208020328Y-109150549D01*
X299742125Y-45993519D02*
X299724637Y-46038855D01*
X295406331Y-12900160D02*
X295406205Y-12900158D01*
X299399740Y-54844826D02*
X299438047Y-54874721D01*
X254716721Y-12804946D02*
X254673318Y-12783099D01*
X299543539Y-46324841D02*
X299510033Y-46360033D01*
X207347380Y-107542631D02*
X207393519Y-107557874D01*
X309271469Y-119781537D02*
X309281711Y-119775735D01*
X13268041Y-13251501D02*
X13267831Y-13251643D01*
X309580172Y-119524731D02*
X309580321Y-119524535D01*
X12942093Y-106868719D02*
X12959195Y-106886710D01*
X308812257Y-119899397D02*
X308885759Y-119895786D01*
X454747Y-162349D02*
X444802Y-168647D01*
X987987Y-119899406D02*
X1012027Y-119899996D01*
X299605173Y-55050259D02*
X299633152Y-55089987D01*
X13985309Y-107456250D02*
X14009623Y-107461247D01*
X297270804Y-14193624D02*
X297242614Y-14123052D01*
X309637650Y-119445252D02*
X309637778Y-119445043D01*
X297399275Y-67993544D02*
X297399440Y-67993082D01*
X12259148Y-46168960D02*
X12233152Y-46210012D01*
X22196Y-119106994D02*
X40077Y-119178380D01*
X299770328Y-55399450D02*
X299780974Y-55446861D01*
X216306460Y-109574841D02*
X216274721Y-109538047D01*
X309281923Y-119775611D02*
X309345043Y-119737778D01*
X13107072Y-13374477D02*
X13106878Y-13374640D01*
X3Y-118887972D02*
X593Y-118912012D01*
X150460012Y-10166847D02*
X150499740Y-10194826D01*
X298149450Y-54679671D02*
X298196861Y-54669025D01*
X309794857Y-118998231D02*
X309794905Y-118997743D01*
X64131039Y-12759148D02*
X64089987Y-12733152D01*
X12810950Y-13685998D02*
X12765970Y-13747252D01*
X10611144Y-109824637D02*
X10566721Y-109804946D01*
X299188855Y-10075362D02*
X299233278Y-10095053D01*
X293157032Y-68072360D02*
X293205132Y-68057268D01*
X12401878Y-67995703D02*
X12402170Y-67996097D01*
X12342125Y-45993519D02*
X12324637Y-46038855D01*
X299800000Y-10990122D02*
X299800000Y-45659877D01*
X292296500Y-68890357D02*
X292304105Y-68871316D01*
X64050259Y-12705173D02*
X64011952Y-12675278D01*
X297090317Y-106568505D02*
X297090453Y-106568292D01*
X10990122Y-109900000D02*
X10941423Y-109898804D01*
X101944826Y-109499740D02*
X101916847Y-109460012D01*
X101754770Y-108392963D02*
X101760718Y-108344737D01*
X375464Y-119680321D02*
X434572Y-119724158D01*
X309723504Y-617206D02*
X309718734Y-606445D01*
X914240Y-4213D02*
X913995Y-4228D01*
X297397744Y-14811112D02*
X297396487Y-14786322D01*
X299097380Y-54692631D02*
X299143519Y-54707874D01*
X297396840Y-67997188D02*
X297397188Y-67996840D01*
X913995Y-4228D02*
X902256Y-5094D01*
X308787727Y0D02*
X1012272Y0D01*
X4213Y-914240D02*
X602Y-987742D01*
X13268041Y-107148498D02*
X13331493Y-107190317D01*
X12696415Y-106547227D02*
X12709545Y-106568292D01*
X12400158Y-105506205D02*
X12400160Y-105506331D01*
X207909148Y-109418960D02*
X207883152Y-109460012D01*
X55210012Y-10166847D02*
X55249740Y-10194826D01*
X297388138Y-105714903D02*
X297388166Y-105714651D01*
X299575278Y-55011952D02*
X299605173Y-55050259D01*
X297881039Y-54790851D02*
X297923318Y-54766900D01*
X216274721Y-107861952D02*
X216306460Y-107825158D01*
X12175278Y-55011952D02*
X12205173Y-55050259D01*
X297457874Y-55306480D02*
X297475362Y-55261144D01*
X14109711Y-107478537D02*
X14185096Y-107488138D01*
X296552541Y-107134176D02*
X296552747Y-107134028D01*
X528963Y-118231D02*
X528530Y-118462D01*
X101866900Y-109376681D02*
X101845053Y-109333278D01*
X150733152Y-12460012D02*
X150705173Y-12499740D01*
X245860033Y-12610033D02*
X245824841Y-12643539D01*
X63725362Y-12288855D02*
X63707874Y-12243519D01*
X55607368Y-10702619D02*
X55620328Y-10749450D01*
X298056480Y-46592125D02*
X298011144Y-46574637D01*
X10075362Y-55261144D02*
X10095053Y-55216721D01*
X55324841Y-10256460D02*
X55360033Y-10289966D01*
X216894737Y-107510718D02*
X216942963Y-107504770D01*
X36101124Y-12403026D02*
X36100758Y-12402683D01*
X299575278Y-109538047D02*
X299543539Y-109574841D01*
X207992125Y-109243519D02*
X207974637Y-109288855D01*
X159300259Y-12705173D02*
X159261952Y-12675278D01*
X12409299Y-14710295D02*
X12403528Y-14786069D01*
X10095053Y-55216721D02*
X10116900Y-55173318D01*
X299360012Y-46483152D02*
X299318960Y-46509148D01*
X297404770Y-55542963D02*
X297410718Y-55494737D01*
X216050000Y-108909877D02*
X216050000Y-108490122D01*
X295488887Y-107497744D02*
X295513677Y-107496487D01*
X12529103Y-14193861D02*
X12520483Y-14217138D01*
X14185348Y-12911832D02*
X14185096Y-12911861D01*
X309515181Y-301806D02*
X309507065Y-293281D01*
X254806480Y-10057874D02*
X254852619Y-10042631D01*
X158919025Y-12103138D02*
X158910718Y-12055262D01*
X308787727Y-119900000D02*
X308787972Y-119899996D01*
X63906460Y-10325158D02*
X63939966Y-10289966D01*
X64216721Y-10095053D02*
X64261144Y-10075362D01*
X10611144Y-10075362D02*
X10656480Y-10057874D01*
X150705173Y-10400259D02*
X150733152Y-10439987D01*
X16501596Y-68033280D02*
X16521268Y-68037770D01*
X158942631Y-10702619D02*
X158957874Y-10656480D01*
X297142392Y-106481301D02*
X297154438Y-106459598D01*
X235231Y-356513D02*
X235068Y-356697D01*
X12342125Y-55306480D02*
X12357368Y-55352619D01*
X299757368Y-109197380D02*
X299742125Y-109243519D01*
X207954946Y-109333278D02*
X207933099Y-109376681D01*
X13789286Y-12995818D02*
X13717376Y-13020398D01*
X159066847Y-12460012D02*
X159040851Y-12418960D01*
X159124721Y-12538047D02*
X159094826Y-12499740D01*
X14109460Y-107478502D02*
X14109711Y-107478537D01*
X297397188Y-70803159D02*
X297396840Y-70802811D01*
X11458576Y-54651195D02*
X11507036Y-54654770D01*
X10140851Y-55131039D02*
X10166847Y-55089987D01*
X162349Y-454747D02*
X162221Y-454956D01*
X434771Y-119724302D02*
X444394Y-119731080D01*
X295790127Y-12938705D02*
X295715325Y-12925298D01*
X101751195Y-108441423D02*
X101754770Y-108392963D01*
X207253138Y-107519025D02*
X207300549Y-107529671D01*
X93583152Y-109460012D02*
X93555173Y-109499740D01*
X292707619Y-70478195D02*
X292669369Y-70445358D01*
X10325158Y-46393539D02*
X10289966Y-46360033D01*
X12404704Y-67998394D02*
X12405125Y-67998646D01*
X63939966Y-12610033D02*
X63906460Y-12574841D01*
X296692926Y-13374478D02*
X296634030Y-13326454D01*
X299683099Y-10523318D02*
X299704946Y-10566721D01*
X296269505Y-13099210D02*
X296269276Y-13099101D01*
X245749740Y-10194826D02*
X245788047Y-10224721D01*
X12488236Y-106086546D02*
X12488309Y-106086789D01*
X301806Y-119615181D02*
X301986Y-119615348D01*
X299050549Y-109870328D02*
X299003138Y-109880974D01*
X11555262Y-46639281D02*
X11507036Y-46645229D01*
X309089961Y-119856720D02*
X309090431Y-119856577D01*
X292388705Y-70101151D02*
X292364240Y-70057073D01*
X19561Y-804728D02*
X19465Y-805209D01*
X296840627Y-13513108D02*
X296786891Y-13459372D01*
X12143539Y-46324841D02*
X12110033Y-46360033D01*
X93424841Y-107756460D02*
X93460033Y-107789966D01*
X292220592Y-69163182D02*
X292224209Y-69143000D01*
X296614203Y-13311102D02*
X296614000Y-13310950D01*
X150538047Y-10224721D02*
X150574841Y-10256460D01*
X12610256Y-14007982D02*
X12610141Y-14008208D01*
X297410718Y-45805262D02*
X297404770Y-45757036D01*
X216050000Y-108490122D02*
X216051195Y-108441423D01*
X13331707Y-13209545D02*
X13331493Y-13209682D01*
X297356196Y-105914937D02*
X297356250Y-105914690D01*
X309498013Y-119615348D02*
X309498193Y-119615181D01*
X296988897Y-106714203D02*
X296989049Y-106714000D01*
X207157036Y-109895229D02*
X207108576Y-109898804D01*
X308787972Y-3D02*
X308787727Y0D01*
X36097310Y-12400681D02*
X36096831Y-12400532D01*
X216706480Y-109842125D02*
X216661144Y-109824637D01*
X216051195Y-108958576D02*
X216050000Y-108909877D01*
X10702619Y-46607368D02*
X10656480Y-46592125D01*
X309443302Y-119664931D02*
X309443486Y-119664768D01*
X298907036Y-109895229D02*
X298858576Y-109898804D01*
X101792631Y-109197380D02*
X101779671Y-109150549D01*
X292554641Y-68469369D02*
X292568386Y-68454155D01*
X17064726Y-68299485D02*
X17080502Y-68312066D01*
X10892963Y-54654770D02*
X10941423Y-54651195D01*
X175841Y-119465427D02*
X219678Y-119524535D01*
X254225362Y-12288855D02*
X254207874Y-12243519D01*
X254589987Y-10166847D02*
X254631039Y-10140851D01*
X208039281Y-109055262D02*
X208030974Y-109103138D01*
X246107368Y-10702619D02*
X246120328Y-10749450D01*
X309355605Y-119731080D02*
X309365228Y-119724302D01*
X297388166Y-105714651D02*
X297390678Y-105689957D01*
X17597322Y-69320160D02*
X17598327Y-69340314D01*
X36096831Y-12400532D02*
X36096345Y-12400408D01*
X12401605Y-67995295D02*
X12401878Y-67995703D01*
X309752805Y-119201839D02*
X309752885Y-119201607D01*
X245447380Y-12857368D02*
X245400549Y-12870328D01*
X12357368Y-45947380D02*
X12342125Y-45993519D01*
X207568960Y-107640851D02*
X207610012Y-107666847D01*
X10892963Y-109895229D02*
X10844737Y-109889281D01*
X308982950Y-17413D02*
X308910156Y-6616D01*
X4228Y-913995D02*
X4213Y-914240D01*
X64089987Y-10166847D02*
X64131039Y-10140851D01*
X10361952Y-54874721D02*
X10400259Y-54844826D01*
X36441058Y-12753153D02*
X36399446Y-12726085D01*
X297361294Y-14509872D02*
X297361246Y-14509623D01*
X309078617Y-119859859D02*
X309089961Y-119856720D01*
X102039966Y-107789966D02*
X102075158Y-107756460D01*
X207933099Y-108023318D02*
X207954946Y-108066721D01*
X54993519Y-12842125D02*
X54947380Y-12857368D01*
X207724841Y-107756460D02*
X207760033Y-107789966D01*
X254151195Y-11958576D02*
X254150000Y-11909877D01*
X296768533Y-13441921D02*
X296712145Y-13390976D01*
X297475362Y-46038855D02*
X297457874Y-45993519D01*
X150103138Y-10019025D02*
X150150549Y-10029671D01*
X13440401Y-13145561D02*
X13418698Y-13157607D01*
X12409318Y-67999918D02*
X12409809Y-67999942D01*
X299438047Y-10224721D02*
X299474841Y-10256460D01*
X309365427Y-175841D02*
X309365228Y-175697D01*
X246054946Y-12333278D02*
X246033099Y-12376681D01*
X16655306Y-70723472D02*
X16636178Y-70729899D01*
X12443749Y-105914690D02*
X12443803Y-105914937D01*
X299143519Y-46592125D02*
X299097380Y-46607368D01*
X297200789Y-106369505D02*
X297200898Y-106369276D01*
X297189743Y-14007982D02*
X297154558Y-13940624D01*
X150900000Y-11909877D02*
X150898804Y-11958576D01*
X55592125Y-12243519D02*
X55574637Y-12288855D01*
X102406480Y-109842125D02*
X102361144Y-109824637D01*
X13910789Y-107438957D02*
X13911035Y-107439018D01*
X296292017Y-107289743D02*
X296359375Y-107254558D01*
X93047380Y-107542631D02*
X93093519Y-107557874D01*
X55360033Y-12610033D02*
X55324841Y-12643539D01*
X12400057Y-67990190D02*
X12400081Y-67990681D01*
X150055262Y-10010718D02*
X150103138Y-10019025D01*
X297279601Y-106182623D02*
X297304181Y-106110713D01*
X11603138Y-54669025D02*
X11650549Y-54679671D01*
X12751643Y-106632168D02*
X12765823Y-106652541D01*
X12401122Y-70805558D02*
X12400912Y-70806002D01*
X12645441Y-106459375D02*
X12645561Y-106459598D01*
X10001195Y-55591423D02*
X10004770Y-55542963D01*
X10941423Y-54651195D02*
X10990122Y-54650000D01*
X64494737Y-10010718D02*
X64542963Y-10004770D01*
X102316721Y-109804946D02*
X102273318Y-109783099D01*
X292521804Y-70292380D02*
X292508847Y-70276489D01*
X297392612Y-70800416D02*
X297392136Y-70800297D01*
X10749450Y-10029671D02*
X10796861Y-10019025D01*
X987987Y-593D02*
X987742Y-602D01*
X216339966Y-107789966D02*
X216375158Y-107756460D01*
X293413013Y-70787041D02*
X293363182Y-70779407D01*
X12709545Y-106568292D02*
X12709682Y-106568506D01*
X284818Y-301806D02*
X284651Y-301986D01*
X11788855Y-54725362D02*
X11833278Y-54745053D01*
X297388166Y-14685348D02*
X297388138Y-14685096D01*
X12400724Y-67993544D02*
X12400912Y-67993997D01*
X292881179Y-68199107D02*
X292898848Y-68188705D01*
X292763374Y-68277990D02*
X292779901Y-68265854D01*
X295888964Y-107439017D02*
X295889210Y-107438957D01*
X17399496Y-68678826D02*
X17424302Y-68721791D01*
X12205173Y-55050259D02*
X12233152Y-55089987D01*
X10010718Y-45805262D02*
X10004770Y-45757036D01*
X293006359Y-70667453D02*
X292961099Y-70645252D01*
X13247458Y-13265823D02*
X13247252Y-13265970D01*
X17558776Y-69735575D02*
X17553796Y-69755130D01*
X17456586Y-70016338D02*
X17433953Y-70060486D01*
X64640122Y-10000000D02*
X149909877Y-10000000D01*
X63790851Y-10481039D02*
X63816847Y-10439987D01*
X296532168Y-107148356D02*
X296552541Y-107134176D01*
X12890808Y-13588044D02*
X12874640Y-13606878D01*
X102406480Y-107557874D02*
X102452619Y-107542631D01*
X299510033Y-109610033D02*
X299474841Y-109643539D01*
X92905262Y-107510718D02*
X92953138Y-107519025D01*
X245860033Y-10289966D02*
X245893539Y-10325158D01*
X10057874Y-55306480D02*
X10075362Y-55261144D01*
X12443803Y-14485062D02*
X12443749Y-14485309D01*
X216489987Y-109733152D02*
X216450259Y-109705173D01*
X12751643Y-13767831D02*
X12751501Y-13768041D01*
X617206Y-76495D02*
X606445Y-81265D01*
X297881039Y-46509148D02*
X297839987Y-46483152D01*
X12610256Y-106392017D02*
X12645441Y-106459375D01*
X216145053Y-109333278D02*
X216125362Y-109288855D01*
X150842125Y-12243519D02*
X150824637Y-12288855D01*
X101807874Y-109243519D02*
X101792631Y-109197380D01*
X102075158Y-107756460D02*
X102111952Y-107724721D01*
X296532168Y-13251643D02*
X296531958Y-13251501D01*
X36811513Y-12888814D02*
X36762634Y-12880146D01*
X54659877Y-12899999D02*
X36960016Y-12899999D01*
X93583152Y-107939987D02*
X93609148Y-107981039D01*
X12403528Y-14786069D02*
X12403512Y-14786322D01*
X17518611Y-69869198D02*
X17511710Y-69888160D01*
X890086Y-6582D02*
X889843Y-6616D01*
X309687060Y-119360523D02*
X309687168Y-119360302D01*
X309271036Y-119781768D02*
X309271469Y-119781537D01*
X227380Y-119534389D02*
X235068Y-119543302D01*
X292669369Y-68354641D02*
X292707619Y-68321804D01*
X299360012Y-109733152D02*
X299318960Y-109759148D01*
X11999740Y-46455173D02*
X11960012Y-46483152D01*
X227069Y-119534010D02*
X227380Y-119534389D01*
X301806Y-284818D02*
X293281Y-292934D01*
X254852619Y-10042631D02*
X254899450Y-10029671D01*
X254207874Y-12243519D02*
X254192631Y-12197380D01*
X297270895Y-14193861D02*
X297270804Y-14193624D01*
X158910718Y-10844737D02*
X158919025Y-10796861D01*
X297304259Y-106110472D02*
X297311690Y-106086789D01*
X296292017Y-13110256D02*
X296291791Y-13110141D01*
X12810950Y-106714001D02*
X12811102Y-106714203D01*
X93555173Y-109499740D02*
X93525278Y-109538047D01*
X12467330Y-14386515D02*
X12467263Y-14386759D01*
X12400000Y-55640122D02*
X12400000Y-67987727D01*
X102189987Y-109733152D02*
X102150259Y-109705173D01*
X93674637Y-109288855D02*
X93654946Y-109333278D01*
X308885759Y-119895786D02*
X308886004Y-119895771D01*
X16384038Y-70787448D02*
X16364016Y-70789957D01*
X292898848Y-68188705D02*
X292942926Y-68164240D01*
X17485746Y-68847063D02*
X17493584Y-68865657D01*
X17593614Y-69529312D02*
X17591605Y-69549390D01*
X297475362Y-55261144D02*
X297495053Y-55216721D01*
X309675735Y-518288D02*
X309675611Y-518076D01*
X12409321Y-14710042D02*
X12409299Y-14710295D01*
X93268960Y-109759148D02*
X93226681Y-109783099D01*
X254475158Y-10256460D02*
X254511952Y-10224721D01*
X721382Y-40140D02*
X710038Y-43279D01*
X13508208Y-13110141D02*
X13507982Y-13110256D01*
X246150000Y-10990122D02*
X246150000Y-11909877D01*
X295488887Y-12902255D02*
X295488634Y-12902246D01*
X297361246Y-105890376D02*
X297361294Y-105890127D01*
X216531039Y-107640851D02*
X216573318Y-107616900D01*
X207253138Y-109880974D02*
X207205262Y-109889281D01*
X92905262Y-109889281D02*
X92857036Y-109895229D01*
X309718734Y-606445D02*
X309718632Y-606222D01*
X64446861Y-12880974D02*
X64399450Y-12870328D01*
X16829518Y-68149963D02*
X16847474Y-68159169D01*
X101890851Y-109418960D02*
X101866900Y-109376681D01*
X297398646Y-67994874D02*
X297398877Y-67994441D01*
X17170005Y-68391053D02*
X17184450Y-68405142D01*
X309637650Y-454747D02*
X309631352Y-444802D01*
X17309546Y-70253105D02*
X17278614Y-70291894D01*
X804728Y-19561D02*
X793243Y-22139D01*
X292821277Y-68237056D02*
X292838397Y-68225773D01*
X93310012Y-107666847D02*
X93349740Y-107694826D01*
X17485746Y-69952936D02*
X17465341Y-69998158D01*
X299795229Y-10892963D02*
X299798804Y-10941423D01*
X149958576Y-10001195D02*
X150007036Y-10004770D01*
X102740122Y-107500000D02*
X207059877Y-107500000D01*
X150759148Y-10481039D02*
X150783099Y-10523318D01*
X10042631Y-55352619D02*
X10057874Y-55306480D01*
X5142Y-901768D02*
X5094Y-902256D01*
X245493519Y-10057874D02*
X245538855Y-10075362D01*
X245668960Y-12759148D02*
X245626681Y-12783099D01*
X309443302Y-235068D02*
X309434389Y-227380D01*
X299474841Y-10256460D02*
X299510033Y-10289966D01*
X102273318Y-107616900D02*
X102316721Y-107595053D01*
X13440624Y-13145441D02*
X13440401Y-13145561D01*
X12599101Y-106369277D02*
X12599210Y-106369505D01*
X295614903Y-12911861D02*
X295614651Y-12911833D01*
X10439987Y-10166847D02*
X10481039Y-10140851D01*
X292763374Y-70522009D02*
X292723510Y-70491152D01*
X254266900Y-10523318D02*
X254290851Y-10481039D01*
X309006994Y-22196D02*
X309006756Y-22139D01*
X297399942Y-70809809D02*
X297399918Y-70809318D01*
X13088044Y-107009191D02*
X13106878Y-107025359D01*
X5094Y-902256D02*
X4228Y-913995D01*
X298955262Y-46639281D02*
X298907036Y-46645229D01*
X254179671Y-10749450D02*
X254192631Y-10702619D01*
X12460981Y-105988964D02*
X12461042Y-105989210D01*
X55393539Y-12574841D02*
X55360033Y-12610033D01*
X10844737Y-54660718D02*
X10892963Y-54654770D01*
X24388918Y-12888146D02*
X24339670Y-12894356D01*
X22139Y-119106756D02*
X22196Y-119106994D01*
X93609148Y-109418960D02*
X93583152Y-109460012D01*
X13331707Y-107190454D02*
X13352772Y-107203584D01*
X55288047Y-12675278D02*
X55249740Y-12705173D01*
X292212958Y-69213013D02*
X292220592Y-69163182D01*
X309424731Y-119680172D02*
X309434010Y-119672930D01*
X150103138Y-12880974D02*
X150055262Y-12889281D01*
X297399440Y-70806917D02*
X297399275Y-70806455D01*
X162221Y-454956D02*
X124388Y-518076D01*
X13031465Y-106958078D02*
X13087854Y-107009023D01*
X297338957Y-105989210D02*
X297339017Y-105988964D01*
X11788855Y-46574637D02*
X11743519Y-46592125D01*
X12460981Y-14411035D02*
X12443803Y-14485062D01*
X444802Y-168647D02*
X444394Y-168919D01*
X254631039Y-10140851D02*
X254673318Y-10116900D01*
X55126681Y-12783099D02*
X55083278Y-12804946D01*
X292364240Y-70057073D02*
X292354747Y-70038900D01*
X12495739Y-14289526D02*
X12488309Y-14313210D01*
X17219091Y-68440658D02*
X17232816Y-68455450D01*
X296973545Y-106734030D02*
X296973703Y-106733831D01*
X804728Y-119880438D02*
X805209Y-119880534D01*
X309078380Y-119859922D02*
X309078617Y-119859859D01*
X297396477Y-67997517D02*
X297396840Y-67997188D01*
X308983193Y-17452D02*
X308982950Y-17413D01*
X698160Y-47194D02*
X628871Y-71985D01*
X63679671Y-12150549D02*
X63669025Y-12103138D01*
X308898231Y-119894857D02*
X308909913Y-119893417D01*
X293503949Y-70796288D02*
X293483505Y-70794731D01*
X255091423Y-10001195D02*
X255140122Y-10000000D01*
X292617617Y-68403119D02*
X292654155Y-68368386D01*
X10019025Y-109103138D02*
X10010718Y-109055262D01*
X296909023Y-13587854D02*
X296858078Y-13531466D01*
X11960012Y-46483152D02*
X11918960Y-46509148D01*
X14393811Y-12900157D02*
X14393684Y-12900160D01*
X208020328Y-108249450D02*
X208030974Y-108296861D01*
X36214484Y-12561507D02*
X36182763Y-12523323D01*
X296468505Y-107190317D02*
X296531958Y-107148498D01*
X12408830Y-67999870D02*
X12409318Y-67999918D01*
X13352989Y-107203715D02*
X13418478Y-107242266D01*
X93745229Y-108392963D02*
X93748804Y-108441423D01*
X11409877Y-46650000D02*
X10990122Y-46650000D01*
X12438704Y-14509872D02*
X12425298Y-14584674D01*
X602Y-118912257D02*
X4213Y-118985759D01*
X101779671Y-108249450D02*
X101792631Y-108202619D01*
X245208576Y-10001195D02*
X245257036Y-10004770D01*
X207649740Y-109705173D02*
X207610012Y-109733152D01*
X54853138Y-10019025D02*
X54900549Y-10029671D01*
X296768719Y-106957906D02*
X296786710Y-106940804D01*
X12400297Y-70807863D02*
X12400201Y-70808344D01*
X297356250Y-14485309D02*
X297356196Y-14485062D01*
X292203711Y-69303949D02*
X292205268Y-69283505D01*
X63669025Y-12103138D02*
X63660718Y-12055262D01*
X293363182Y-70779407D02*
X293343000Y-70775790D01*
X254550259Y-12705173D02*
X254511952Y-12675278D01*
X254154770Y-12007036D02*
X254151195Y-11958576D01*
X12488309Y-106086789D02*
X12495739Y-106110473D01*
X356697Y-235068D02*
X356513Y-235231D01*
X216051195Y-108441423D02*
X216054770Y-108392963D01*
X25104620Y-12400234D02*
X25104124Y-12400309D01*
X12395229Y-55542963D02*
X12398804Y-55591423D01*
X158975362Y-10611144D02*
X158995053Y-10566721D01*
X296082623Y-13020398D02*
X296010713Y-12995818D01*
X12370328Y-45900549D02*
X12357368Y-45947380D01*
X12403902Y-70802170D02*
X12403522Y-70802482D01*
X297839987Y-54816847D02*
X297881039Y-54790851D01*
X297689966Y-54939966D02*
X297725158Y-54906460D01*
X10166847Y-46210012D02*
X10140851Y-46168960D01*
X309515348Y-119598013D02*
X309564768Y-119543486D01*
X245955173Y-10400259D02*
X245983152Y-10439987D01*
X19465Y-805209D02*
X17452Y-816806D01*
X301986Y-284651D02*
X301806Y-284818D01*
X245353138Y-10019025D02*
X245400549Y-10029671D01*
X245353138Y-12880974D02*
X245305262Y-12889281D01*
X284651Y-301986D02*
X235231Y-356513D01*
X309424535Y-119680321D02*
X309424731Y-119680172D01*
X298244737Y-54660718D02*
X298292963Y-54654770D01*
X102075158Y-109643539D02*
X102039966Y-109610033D01*
X12942093Y-13531280D02*
X12941921Y-13531465D01*
X63906460Y-12574841D02*
X63874721Y-12538047D01*
X297142266Y-106481521D02*
X297142392Y-106481301D01*
X216752619Y-107542631D02*
X216799450Y-107529671D01*
X296786891Y-106940627D02*
X296840627Y-106886891D01*
X36762634Y-12880146D02*
X36714252Y-12869038D01*
X10000000Y-55640122D02*
X10001195Y-55591423D01*
X25098173Y-12403765D02*
X25097863Y-12404159D01*
X295513930Y-12903528D02*
X295513677Y-12903512D01*
X17321730Y-70237020D02*
X17309546Y-70253105D01*
X297516900Y-55173318D02*
X297540851Y-55131039D01*
X13247252Y-13265970D02*
X13185998Y-13310950D01*
X12403902Y-67997829D02*
X12404296Y-67998121D01*
X295393792Y-12900000D02*
X295393666Y-12900000D01*
X297399996Y-67987972D02*
X297400000Y-67987727D01*
X617206Y-119823504D02*
X617659Y-119823692D01*
X63660718Y-10844737D02*
X63669025Y-10796861D01*
X245788047Y-12675278D02*
X245749740Y-12705173D01*
X293343000Y-70775790D02*
X293293620Y-70765642D01*
X0Y-1012272D02*
X0Y-118887727D01*
X292388705Y-68698848D02*
X292399107Y-68681179D01*
X102111952Y-109675278D02*
X102075158Y-109643539D01*
X254192631Y-12197380D02*
X254179671Y-12150549D01*
X64352619Y-12857368D02*
X64306480Y-12842125D01*
X628641Y-119827928D02*
X628871Y-119828014D01*
X36320549Y-12665868D02*
X36283464Y-12632869D01*
X297189858Y-106391791D02*
X297200789Y-106369505D01*
X13886759Y-12967263D02*
X13886515Y-12967330D01*
X55483152Y-12460012D02*
X55455173Y-12499740D01*
X16212401Y-70799690D02*
X16187595Y-70800000D01*
X227069Y-365989D02*
X219827Y-375268D01*
X296381301Y-107242392D02*
X296381521Y-107242266D01*
X71985Y-628871D02*
X47194Y-698160D01*
M02*
