M48
; DRILL file {KiCad 7.0.7} date Mon Jan 22 13:40:03 2024
; FORMAT={-:-/ absolute / inch / decimal}
; #@! TF.CreationDate,2024-01-22T13:40:03+01:00
; #@! TF.GenerationSoftware,Kicad,Pcbnew,7.0.7
; #@! TF.FileFunction,NonPlated,1,2,NPTH
FMAT,2
INCH
; #@! TA.AperFunction,NonPlated,NPTH,ComponentDrill
T1C0.0197
; #@! TA.AperFunction,NonPlated,NPTH,ComponentDrill
T2C0.0256
; #@! TA.AperFunction,NonPlated,NPTH,ComponentDrill
T3C0.0454
; #@! TA.AperFunction,NonPlated,NPTH,ComponentDrill
T4C0.0689
; #@! TA.AperFunction,NonPlated,NPTH,ComponentDrill
T5C0.1200
; #@! TA.AperFunction,NonPlated,NPTH,ComponentDrill
T6C0.1570
%
G90
G05
T1
X0.0Y-0.4882
X0.0Y-4.2323
X0.0394Y-0.4882
X0.0394Y-4.2323
X0.0787Y-0.4882
X0.0787Y-4.2323
X0.1181Y-0.4882
X0.1181Y-4.2323
X0.1575Y-0.4882
X0.1575Y-4.2323
X0.1969Y-0.4882
X0.1969Y-4.2323
X0.2362Y-0.4882
X0.2362Y-4.2323
X0.2756Y-0.4882
X0.2756Y-4.2323
X0.315Y-0.4882
X0.315Y-4.2323
X0.3543Y-0.4882
X0.3543Y-4.2323
X0.3937Y-0.4882
X0.3937Y-4.2323
X0.4783Y-1.8366
X0.4783Y-1.876
X0.4783Y-1.9154
X0.4783Y-1.9547
X0.4783Y-1.9941
X0.4783Y-2.0335
X0.4783Y-2.0728
X0.4783Y-2.1122
X0.4783Y-2.1516
X0.4882Y0.0
X0.4882Y-0.0394
X0.4882Y-0.0787
X0.4882Y-0.1181
X0.4882Y-0.1575
X0.4882Y-0.1969
X0.4882Y-0.2362
X0.4882Y-0.2756
X0.4882Y-0.315
X0.4882Y-0.3543
X0.4882Y-0.3937
X0.4882Y-4.3268
X0.4882Y-4.3661
X0.4882Y-4.4055
X0.4882Y-4.4449
X0.4882Y-4.4843
X0.4882Y-4.5236
X0.4882Y-4.563
X0.4882Y-4.6024
X0.4882Y-4.6417
X0.4882Y-4.6811
X0.4882Y-4.7205
X2.1909Y-0.498
X2.2303Y-0.498
X2.2697Y-0.498
X2.3091Y-0.498
X2.3484Y-0.498
X2.3878Y-0.498
X2.4272Y-0.498
X2.4665Y-0.498
X2.5059Y-0.498
X3.6909Y-4.2421
X3.7303Y-4.2421
X3.7697Y-4.2421
X3.8091Y-4.2421
X3.8484Y-4.2421
X3.8878Y-4.2421
X3.9272Y-4.2421
X3.9665Y-4.2421
X4.0059Y-4.2421
X5.9409Y-0.498
X5.9803Y-0.498
X6.0197Y-0.498
X6.0591Y-0.498
X6.0984Y-0.498
X6.1378Y-0.498
X6.1772Y-0.498
X6.2165Y-0.498
X6.2559Y-0.498
X8.1909Y-4.2421
X8.2303Y-4.2421
X8.2697Y-4.2421
X8.3091Y-4.2421
X8.3484Y-4.2421
X8.3878Y-4.2421
X8.4272Y-4.2421
X8.4665Y-4.2421
X8.5059Y-4.2421
X9.6909Y-0.498
X9.7303Y-0.498
X9.7697Y-0.498
X9.8091Y-0.498
X9.8484Y-0.498
X9.8878Y-0.498
X9.9272Y-0.498
X9.9665Y-0.498
X10.0059Y-0.498
X11.7087Y0.0
X11.7087Y-0.0394
X11.7087Y-0.0787
X11.7087Y-0.1181
X11.7087Y-0.1575
X11.7087Y-0.1969
X11.7087Y-0.2362
X11.7087Y-0.2756
X11.7087Y-0.315
X11.7087Y-0.3543
X11.7087Y-0.3937
X11.7087Y-4.3268
X11.7087Y-4.3661
X11.7087Y-4.4055
X11.7087Y-4.4449
X11.7087Y-4.4843
X11.7087Y-4.5236
X11.7087Y-4.563
X11.7087Y-4.6024
X11.7087Y-4.6417
X11.7087Y-4.6811
X11.7087Y-4.7205
X11.7185Y-1.8366
X11.7185Y-1.876
X11.7185Y-1.9154
X11.7185Y-1.9547
X11.7185Y-1.9941
X11.7185Y-2.0335
X11.7185Y-2.0728
X11.7185Y-2.1122
X11.7185Y-2.1516
X11.8031Y-0.4882
X11.8031Y-4.2323
X11.8425Y-0.4882
X11.8425Y-4.2323
X11.8819Y-0.4882
X11.8819Y-4.2323
X11.9213Y-0.4882
X11.9213Y-4.2323
X11.9606Y-0.4882
X11.9606Y-4.2323
X12.0Y-0.4882
X12.0Y-4.2323
X12.0394Y-0.4882
X12.0394Y-4.2323
X12.0787Y-0.4882
X12.0787Y-4.2323
X12.1181Y-0.4882
X12.1181Y-4.2323
X12.1575Y-0.4882
X12.1575Y-4.2323
X12.1969Y-0.4882
X12.1969Y-4.2323
T2
X1.0896Y-0.6674
X1.3172Y-0.6674
T3
X0.1378Y-0.1378
X0.1378Y-4.5827
X12.0591Y-0.1378
T4
X0.8359Y-1.6201
X0.8359Y-2.3701
X0.8359Y-3.1201
X0.8359Y-3.8701
X1.0359Y-1.0701
X1.2359Y-1.6201
X1.2359Y-2.3701
X1.2359Y-3.1201
X1.2359Y-3.8701
X1.7734Y-0.8701
X1.7734Y-1.6201
X1.7734Y-2.3701
X1.7734Y-3.1201
X1.7734Y-3.8701
X2.1734Y-0.8701
X2.1734Y-1.6201
X2.1734Y-2.3701
X2.1734Y-3.1201
X2.1734Y-3.8701
X2.5234Y-0.8701
X2.5234Y-1.6201
X2.5234Y-2.3701
X2.5234Y-3.1201
X2.5234Y-3.8701
X2.7109Y-3.8701
X2.9234Y-0.8701
X2.9234Y-1.6201
X2.9234Y-2.3701
X2.9234Y-3.1201
X2.9234Y-3.8701
X3.1109Y-3.8701
X3.2734Y-0.8701
X3.2734Y-1.6201
X3.2734Y-2.3701
X3.2734Y-3.1201
X3.2734Y-3.8701
X3.6734Y-0.8701
X3.6734Y-1.6201
X3.6734Y-2.3701
X3.6734Y-3.1201
X3.6734Y-3.8701
X4.0234Y-0.8701
X4.0234Y-1.6201
X4.0234Y-2.3701
X4.0234Y-3.1201
X4.0234Y-3.8701
X4.3984Y-3.8701
X4.4234Y-0.8701
X4.4234Y-1.6201
X4.4234Y-2.3701
X4.4234Y-3.1201
X4.4234Y-3.8701
X4.7734Y-0.8701
X4.7734Y-1.6201
X4.7734Y-2.3701
X4.7734Y-3.1201
X4.7734Y-3.8701
X4.7984Y-3.8701
X5.1484Y-3.8701
X5.1734Y-0.8701
X5.1734Y-1.6201
X5.1734Y-2.3701
X5.1734Y-3.1201
X5.1734Y-3.8701
X5.5234Y-0.8701
X5.5234Y-1.6201
X5.5234Y-1.8076
X5.5234Y-2.3701
X5.5234Y-2.9326
X5.5234Y-3.1201
X5.5234Y-3.8701
X5.5484Y-3.8701
X5.8984Y-3.8701
X5.9234Y-0.8701
X5.9234Y-1.6201
X5.9234Y-1.8076
X5.9234Y-2.3701
X5.9234Y-2.9326
X5.9234Y-3.1201
X5.9234Y-3.8701
X6.2734Y-0.8701
X6.2734Y-1.6201
X6.2734Y-1.8076
X6.2734Y-2.3701
X6.2734Y-2.9326
X6.2734Y-3.1201
X6.2734Y-3.8701
X6.2984Y-3.8701
X6.6484Y-3.8701
X6.6734Y-0.8701
X6.6734Y-1.6201
X6.6734Y-1.8076
X6.6734Y-2.3701
X6.6734Y-2.9326
X6.6734Y-3.1201
X6.6734Y-3.8701
X7.0234Y-0.8701
X7.0234Y-1.6201
X7.0234Y-2.3701
X7.0234Y-3.1201
X7.0234Y-3.8701
X7.0484Y-3.8701
X7.3984Y-3.8701
X7.4234Y-0.8701
X7.4234Y-1.6201
X7.4234Y-2.3701
X7.4234Y-3.1201
X7.4234Y-3.8701
X7.7734Y-0.8701
X7.7734Y-1.6201
X7.7734Y-2.3701
X7.7734Y-3.1201
X7.7734Y-3.8701
X7.7984Y-3.8701
X8.1734Y-0.8701
X8.1734Y-1.6201
X8.1734Y-2.3701
X8.1734Y-3.1201
X8.1734Y-3.8701
X8.5234Y-0.8701
X8.5234Y-1.6201
X8.5234Y-2.3701
X8.5234Y-3.1201
X8.5234Y-3.8701
X8.9234Y-0.8701
X8.9234Y-1.6201
X8.9234Y-2.3701
X8.9234Y-3.1201
X8.9234Y-3.8701
X9.0859Y-3.8701
X9.2734Y-0.8701
X9.2734Y-1.6201
X9.2734Y-2.3701
X9.2734Y-3.1201
X9.2734Y-3.8701
X9.4859Y-3.8701
X9.6734Y-0.8701
X9.6734Y-1.6201
X9.6734Y-2.3701
X9.6734Y-3.1201
X9.6734Y-3.8701
X10.0234Y-0.8701
X10.0234Y-1.6201
X10.0234Y-2.3701
X10.0234Y-3.1201
X10.0234Y-3.8701
X10.4234Y-0.8701
X10.4234Y-1.6201
X10.4234Y-2.3701
X10.4234Y-3.1201
X10.4234Y-3.8701
X10.9609Y-0.8701
X10.9609Y-1.6201
X10.9609Y-2.3701
X10.9609Y-3.1201
X10.9609Y-3.8701
X11.3609Y-0.8701
X11.3609Y-1.6201
X11.3609Y-2.3701
X11.3609Y-3.1201
X11.3609Y-3.8701
T5
X3.8484Y-4.1451
X4.1284Y-4.1451
X4.2234Y-4.1451
X4.8784Y-4.1451
X5.0684Y-4.1451
X5.6284Y-4.1451
X5.8184Y-4.1451
X6.3784Y-4.1451
X6.5684Y-4.1451
X7.1284Y-4.1451
X7.3184Y-4.1451
X7.9734Y-4.1451
X8.0684Y-4.1451
X8.3484Y-4.1451
T6
X1.0359Y-0.8701
X1.0359Y-1.6201
X1.0359Y-2.3701
X1.0359Y-3.1201
X1.0359Y-3.8701
X1.9734Y-0.8701
X1.9734Y-1.6201
X1.9734Y-2.3701
X1.9734Y-3.1201
X1.9734Y-3.8701
X2.7234Y-0.8701
X2.7234Y-1.6201
X2.7234Y-2.3701
X2.7234Y-3.1201
X2.7234Y-3.8701
X2.9109Y-3.8701
X3.4734Y-0.8701
X3.4734Y-1.6201
X3.4734Y-2.3701
X3.4734Y-3.1201
X3.4734Y-3.8701
X3.8484Y-3.5451
X4.1284Y-3.5451
X4.2234Y-0.8701
X4.2234Y-1.6201
X4.2234Y-2.3701
X4.2234Y-3.1201
X4.2234Y-3.5451
X4.2234Y-3.8701
X4.5984Y-3.8701
X4.8784Y-3.5451
X4.9734Y-0.8701
X4.9734Y-1.6201
X4.9734Y-2.3701
X4.9734Y-3.1201
X4.9734Y-3.8701
X5.0684Y-3.5451
X5.3484Y-3.8701
X5.6284Y-3.5451
X5.7234Y-0.8701
X5.7234Y-1.6201
X5.7234Y-1.8076
X5.7234Y-2.3701
X5.7234Y-2.9326
X5.7234Y-3.1201
X5.7234Y-3.8701
X5.8184Y-3.5451
X6.0984Y-3.8701
X6.3784Y-3.5451
X6.4734Y-0.8701
X6.4734Y-1.6201
X6.4734Y-1.8076
X6.4734Y-2.3701
X6.4734Y-2.9326
X6.4734Y-3.1201
X6.4734Y-3.8701
X6.5684Y-3.5451
X6.8484Y-3.8701
X7.1284Y-3.5451
X7.2234Y-0.8701
X7.2234Y-1.6201
X7.2234Y-2.3701
X7.2234Y-3.1201
X7.2234Y-3.8701
X7.3184Y-3.5451
X7.5984Y-3.8701
X7.9734Y-0.8701
X7.9734Y-1.6201
X7.9734Y-2.3701
X7.9734Y-3.1201
X7.9734Y-3.5451
X7.9734Y-3.8701
X8.0684Y-3.5451
X8.3484Y-3.5451
X8.7234Y-0.8701
X8.7234Y-1.6201
X8.7234Y-2.3701
X8.7234Y-3.1201
X8.7234Y-3.8701
X9.2859Y-3.8701
X9.4734Y-0.8701
X9.4734Y-1.6201
X9.4734Y-2.3701
X9.4734Y-3.1201
X9.4734Y-3.8701
X10.2234Y-0.8701
X10.2234Y-1.6201
X10.2234Y-2.3701
X10.2234Y-3.1201
X10.2234Y-3.8701
X11.1609Y-0.8701
X11.1609Y-1.6201
X11.1609Y-2.3701
X11.1609Y-3.1201
X11.1609Y-3.8701
T0
M30
