%TF.GenerationSoftware,KiCad,Pcbnew,(6.0.7)*%
%TF.CreationDate,2022-10-14T17:00:14+02:00*%
%TF.ProjectId,0x42_panel,30783432-5f70-4616-9e65-6c2e6b696361,1*%
%TF.SameCoordinates,Original*%
%TF.FileFunction,Profile,NP*%
%FSLAX46Y46*%
G04 Gerber Fmt 4.6, Leading zero omitted, Abs format (unit mm)*
G04 Created by KiCad (PCBNEW (6.0.7)) date 2022-10-14 17:00:14*
%MOMM*%
%LPD*%
G01*
G04 APERTURE LIST*
%TA.AperFunction,Profile*%
%ADD10C,0.100000*%
%TD*%
G04 APERTURE END LIST*
D10*
X299659148Y-109418960D02*
X299633152Y-109460012D01*
X292617617Y-68403119D02*
X292654155Y-68368386D01*
X207059877Y-107499999D02*
X207108576Y-107501195D01*
X297401195Y-45708576D02*
X297400000Y-45659877D01*
X255091423Y-12898804D02*
X255042963Y-12895229D01*
X297566847Y-46210012D02*
X297540851Y-46168960D01*
X93047380Y-107542631D02*
X93093519Y-107557874D01*
X299097380Y-54692631D02*
X299143519Y-54707874D01*
X246120328Y-10749450D02*
X246130974Y-10796861D01*
X10019025Y-109103138D02*
X10010718Y-109055262D01*
X246074637Y-10611144D02*
X246092125Y-10656480D01*
X10656480Y-46592125D02*
X10611144Y-46574637D01*
X308994790Y-119880534D02*
X309089961Y-119856720D01*
X55483152Y-12460012D02*
X55455173Y-12499740D01*
X17064726Y-70500514D02*
X17025178Y-70530470D01*
X207438855Y-109824637D02*
X207393519Y-109842125D01*
X299780974Y-109103138D02*
X299770328Y-109150549D01*
X207568960Y-107640851D02*
X207610012Y-107666847D01*
X299360012Y-10166847D02*
X299399740Y-10194826D01*
X11458576Y-46648804D02*
X11409877Y-46650000D01*
X17540359Y-69802887D02*
X17511710Y-69888160D01*
X296176947Y-13057385D02*
X296082861Y-13020483D01*
X297457874Y-55306480D02*
X297475362Y-55261144D01*
X55554946Y-12333278D02*
X55533099Y-12376681D01*
X101944826Y-107900259D02*
X101974721Y-107861952D01*
X299438047Y-109675278D02*
X299399740Y-109705173D01*
X299659148Y-55131039D02*
X299683099Y-55173318D01*
X10095053Y-10566721D02*
X10116900Y-10523318D01*
X245788047Y-12675278D02*
X245749740Y-12705173D01*
X216190851Y-107981039D02*
X216216847Y-107939987D01*
X295488887Y-107497744D02*
X295589704Y-107490700D01*
X444394Y-168919D02*
X365989Y-227069D01*
X254852619Y-12857368D02*
X254806480Y-12842125D01*
X10116900Y-109376681D02*
X10095053Y-109333278D01*
X254406460Y-10325158D02*
X254439966Y-10289966D01*
X254154770Y-12007036D02*
X254151195Y-11958576D01*
X245710012Y-12733152D02*
X245668960Y-12759148D01*
X216489987Y-109733152D02*
X216450259Y-109705173D01*
X308787727Y-119900000D02*
X308897743Y-119894905D01*
X10892963Y-46645229D02*
X10844737Y-46639281D01*
X299399740Y-109705173D02*
X299360012Y-109733152D01*
X297429671Y-55399450D02*
X297442631Y-55352619D01*
X12421497Y-14609460D02*
X12409321Y-14710042D01*
X10057874Y-45993519D02*
X10042631Y-45947380D01*
X207760033Y-109610033D02*
X207724841Y-109643539D01*
X216051195Y-108441423D02*
X216054770Y-108392963D01*
X295393666Y-12900000D02*
X255140122Y-12900000D01*
X16967803Y-68229803D02*
X17025178Y-68269529D01*
X17118507Y-70456043D02*
X17064726Y-70500514D01*
X299795229Y-55542963D02*
X299798804Y-55591423D01*
X10289966Y-10289966D02*
X10325158Y-10256460D01*
X293205132Y-68057268D02*
X293273647Y-68038992D01*
X245925278Y-10361952D02*
X245955173Y-10400259D01*
X24525073Y-12858044D02*
X24478589Y-12870799D01*
X1012272Y0D02*
X902256Y-5094D01*
X299798804Y-108958576D02*
X299795229Y-109007036D01*
X64050259Y-10194826D02*
X64089987Y-10166847D01*
X13418478Y-13157733D02*
X13331707Y-13209545D01*
X299757368Y-45947380D02*
X299742125Y-45993519D01*
X297361246Y-14509623D02*
X297339017Y-14411035D01*
X292200638Y-69425206D02*
X292200638Y-69374793D01*
X297397744Y-14811112D02*
X297390700Y-14710295D01*
X207347380Y-107542631D02*
X207393519Y-107557874D01*
X11603138Y-54669025D02*
X11650549Y-54679671D01*
X54708576Y-12898804D02*
X54659877Y-12900000D01*
X54900549Y-12870328D02*
X54853138Y-12880974D01*
X254946861Y-10019025D02*
X254994737Y-10010718D01*
X254150000Y-11909877D02*
X254150000Y-10990122D01*
X216050000Y-108909877D02*
X216050000Y-108490122D01*
X11650549Y-46620328D02*
X11603138Y-46630974D01*
X64306480Y-10057874D02*
X64352619Y-10042631D01*
X11833278Y-54745053D02*
X11876681Y-54766900D01*
X55126681Y-10116900D02*
X55168960Y-10140851D01*
X11743519Y-54707874D02*
X11788855Y-54725362D01*
X309795786Y-118985759D02*
X309800000Y-118887727D01*
X297387727Y-68000000D02*
X297394441Y-67998877D01*
X10010718Y-10844737D02*
X10019025Y-10796861D01*
X13268041Y-13251501D02*
X13185796Y-13311102D01*
X102039966Y-107789966D02*
X102075158Y-107756460D01*
X246009148Y-12418960D02*
X245983152Y-12460012D01*
X10140851Y-109418960D02*
X10116900Y-109376681D01*
X93388047Y-109675278D02*
X93349740Y-109705173D01*
X10990122Y-109900000D02*
X10941423Y-109898804D01*
X292220592Y-69163182D02*
X292234357Y-69093620D01*
X63874721Y-12538047D02*
X63844826Y-12499740D01*
X14109711Y-12921462D02*
X13985309Y-12943749D01*
X309777860Y-793243D02*
X309756577Y-709568D01*
X13886515Y-12967330D02*
X13813210Y-12988309D01*
X17493584Y-68865657D02*
X17511710Y-68911839D01*
X245983152Y-10439987D02*
X246009148Y-10481039D01*
X10000000Y-55640122D02*
X10001195Y-55591423D01*
X292603119Y-70382382D02*
X292568386Y-70345844D01*
X292200638Y-69374793D02*
X292203711Y-69303949D01*
X309271469Y-118462D02*
X309182793Y-76495D01*
X208048804Y-108958576D02*
X208045229Y-109007036D01*
X12874477Y-106792927D02*
X12941921Y-106868534D01*
X299474841Y-46393539D02*
X299438047Y-46425278D01*
X299683099Y-10523318D02*
X299704946Y-10566721D01*
X207347380Y-109857368D02*
X207300549Y-109870328D01*
X207483278Y-109804946D02*
X207438855Y-109824637D01*
X11603138Y-46630974D02*
X11555262Y-46639281D01*
X299633152Y-55089987D02*
X299659148Y-55131039D01*
X12400160Y-105506331D02*
X12403512Y-105613677D01*
X246033099Y-10523318D02*
X246054946Y-10566721D01*
X55126681Y-12783099D02*
X55083278Y-12804946D01*
X299097380Y-46607368D02*
X299050549Y-46620328D01*
X245208576Y-10001195D02*
X245257036Y-10004770D01*
X10523318Y-46533099D02*
X10481039Y-46509148D01*
X298390122Y-46650000D02*
X298341423Y-46648804D01*
X297594826Y-46249740D02*
X297566847Y-46210012D01*
X297689966Y-46360033D02*
X297656460Y-46324841D01*
X10702619Y-46607368D02*
X10656480Y-46592125D01*
X10042631Y-55352619D02*
X10057874Y-55306480D01*
X207393519Y-107557874D02*
X207438855Y-107575362D01*
X299188855Y-10075362D02*
X299233278Y-10095053D01*
X93493539Y-109574841D02*
X93460033Y-109610033D01*
X64399450Y-12870328D02*
X64352619Y-12857368D01*
X102691423Y-107501195D02*
X102740122Y-107499999D01*
X299704946Y-109333278D02*
X299683099Y-109376681D01*
X13813210Y-12988309D02*
X13717376Y-13020398D01*
X13508208Y-13110141D02*
X13418478Y-13157733D01*
X36196722Y-12540392D02*
X36166811Y-12502312D01*
X64131039Y-10140851D02*
X64173318Y-10116900D01*
X207724841Y-109643539D02*
X207688047Y-109675278D01*
X216092631Y-109197380D02*
X216079671Y-109150549D01*
X254475158Y-10256460D02*
X254511952Y-10224721D01*
X255042963Y-10004770D02*
X255091423Y-10001195D01*
X102039966Y-109610033D02*
X102006460Y-109574841D01*
X207059877Y-109900000D02*
X102740122Y-109900000D01*
X13268041Y-107148498D02*
X13331707Y-107190454D01*
X55324841Y-12643539D02*
X55288047Y-12675278D01*
X246145229Y-10892963D02*
X246148804Y-10941423D01*
X254207874Y-10656480D02*
X254225362Y-10611144D01*
X292354747Y-70038900D02*
X292332546Y-69993640D01*
X10941423Y-46648804D02*
X10892963Y-46645229D01*
X296614000Y-13310950D02*
X296532168Y-13251643D01*
X10001195Y-108958576D02*
X10000000Y-108909877D01*
X245788047Y-10224721D02*
X245824841Y-10256460D01*
X293413013Y-70787041D02*
X293343000Y-70775790D01*
X55288047Y-10224721D02*
X55324841Y-10256460D01*
X207205262Y-109889281D02*
X207157036Y-109895229D01*
X93750000Y-108909877D02*
X93748804Y-108958576D01*
X12233152Y-55089987D02*
X12259148Y-55131039D01*
X102189987Y-107666847D02*
X102231039Y-107640851D01*
X55648804Y-11958576D02*
X55645229Y-12007036D01*
X63679671Y-12150549D02*
X63669025Y-12103138D01*
X10057874Y-109243519D02*
X10042631Y-109197380D01*
X208039281Y-109055262D02*
X208030974Y-109103138D01*
X254266900Y-10523318D02*
X254290851Y-10481039D01*
X297419025Y-45853138D02*
X297410718Y-45805262D01*
X299188855Y-54725362D02*
X299233278Y-54745053D01*
X64173318Y-12783099D02*
X64131039Y-12759148D01*
X309780438Y-119095271D02*
X309793383Y-119010156D01*
X12520483Y-14217138D02*
X12488309Y-14313210D01*
X102316721Y-107595053D02*
X102361144Y-107575362D01*
X309631080Y-119455605D02*
X309681537Y-119371469D01*
X16784819Y-68128438D02*
X16829518Y-68149963D01*
X63975158Y-12643539D02*
X63939966Y-12610033D01*
X207438855Y-107575362D02*
X207483278Y-107595053D01*
X24900429Y-12647451D02*
X24863751Y-12678726D01*
X297689966Y-54939966D02*
X297725158Y-54906460D01*
X55620328Y-12150549D02*
X55607368Y-12197380D01*
X10523318Y-10116900D02*
X10566721Y-10095053D01*
X297390700Y-14710295D02*
X297374743Y-14584924D01*
X11918960Y-54790851D02*
X11960012Y-54816847D01*
X12304946Y-46083278D02*
X12283099Y-46126681D01*
X102189987Y-109733152D02*
X102150259Y-109705173D01*
X254344826Y-10400259D02*
X254374721Y-10361952D01*
X12411861Y-105714903D02*
X12421497Y-105790539D01*
X63816847Y-10439987D02*
X63844826Y-10400259D01*
X92905262Y-109889281D02*
X92857036Y-109895229D01*
X124388Y-518076D02*
X112831Y-539697D01*
X292821277Y-68237056D02*
X292881179Y-68199107D01*
X17569815Y-69112792D02*
X17585436Y-69201382D01*
X10004770Y-10892963D02*
X10010718Y-10844737D01*
X245538855Y-10075362D02*
X245583278Y-10095053D01*
X298292963Y-54654770D02*
X298341423Y-54651195D01*
X17553796Y-69755130D02*
X17540359Y-69802887D01*
X207992125Y-109243519D02*
X207974637Y-109288855D01*
X12342125Y-55306480D02*
X12357368Y-55352619D01*
X216107874Y-108156480D02*
X216125362Y-108111144D01*
X10439987Y-46483152D02*
X10400259Y-46455173D01*
X245583278Y-10095053D02*
X245626681Y-10116900D01*
X245955173Y-12499740D02*
X245925278Y-12538047D01*
X297495053Y-55216721D02*
X297516900Y-55173318D01*
X55574637Y-12288855D02*
X55554946Y-12333278D01*
X299757368Y-10702619D02*
X299770328Y-10749450D01*
X299605173Y-55050259D02*
X299633152Y-55089987D01*
X93583152Y-109460012D02*
X93555173Y-109499740D01*
X102546861Y-107519025D02*
X102594737Y-107510718D01*
X299742125Y-10656480D02*
X299757368Y-10702619D01*
X54993519Y-12842125D02*
X54947380Y-12857368D01*
X297495053Y-46083278D02*
X297475362Y-46038855D01*
X10019025Y-45853138D02*
X10010718Y-45805262D01*
X16452967Y-70776550D02*
X16384038Y-70787448D01*
X216244826Y-107900259D02*
X216274721Y-107861952D01*
X309794857Y-901768D02*
X309777860Y-793243D01*
X54853138Y-10019025D02*
X54900549Y-10029671D01*
X16701926Y-68093495D02*
X16784819Y-68128438D01*
X216274721Y-107861952D02*
X216306460Y-107825158D01*
X299724637Y-55261144D02*
X299742125Y-55306480D01*
X10075362Y-109288855D02*
X10057874Y-109243519D01*
X227069Y-365989D02*
X168919Y-444394D01*
X93226681Y-109783099D02*
X93183278Y-109804946D01*
X101890851Y-107981039D02*
X101916847Y-107939987D01*
X216051195Y-108958576D02*
X216050000Y-108909877D01*
X10019025Y-55446861D02*
X10029671Y-55399450D01*
X63650000Y-11909877D02*
X63650000Y-10990122D01*
X299742125Y-55306480D02*
X299757368Y-55352619D01*
X63654770Y-10892963D02*
X63660718Y-10844737D01*
X36720339Y-12870532D02*
X36673658Y-12857661D01*
X11409877Y-46650000D02*
X10990122Y-46650000D01*
X12259148Y-55131039D02*
X12283099Y-55173318D01*
X245538855Y-12824637D02*
X245493519Y-12842125D01*
X25030671Y-12505669D02*
X25000739Y-12543452D01*
X36494877Y-12783893D02*
X36452702Y-12760101D01*
X36815308Y-12889355D02*
X36767593Y-12881105D01*
X54853138Y-12880974D02*
X54805262Y-12889281D01*
X93268960Y-109759148D02*
X93226681Y-109783099D01*
X12038047Y-46425278D02*
X11999740Y-46455173D01*
X10796861Y-10019025D02*
X10844737Y-10010718D01*
X254207874Y-12243519D02*
X254192631Y-12197380D01*
X12400000Y-14906333D02*
X12400000Y-45659877D01*
X12765970Y-106652747D02*
X12811102Y-106714203D01*
X296909023Y-106812145D02*
X296989049Y-106714000D01*
X10010718Y-45805262D02*
X10004770Y-45757036D01*
X299510033Y-109610033D02*
X299474841Y-109643539D01*
X297475362Y-46038855D02*
X297457874Y-45993519D01*
X55645229Y-12007036D02*
X55639281Y-12055262D01*
X207724841Y-107756460D02*
X207760033Y-107789966D01*
X12461042Y-14410789D02*
X12438752Y-14509623D01*
X246009148Y-10481039D02*
X246033099Y-10523318D01*
X296082861Y-13020483D02*
X295986789Y-12988309D01*
X10166847Y-55089987D02*
X10194826Y-55050259D01*
X299789281Y-109055262D02*
X299780974Y-109103138D01*
X13693624Y-107370805D02*
X13813210Y-107411690D01*
X55425278Y-12538047D02*
X55393539Y-12574841D01*
X12400129Y-70808830D02*
X12400160Y-105506331D01*
X12233152Y-46210012D02*
X12205173Y-46249740D01*
X299050549Y-109870328D02*
X299003138Y-109880974D01*
X25112457Y-12400000D02*
X25104127Y-12400316D01*
X36627662Y-12842523D02*
X36582462Y-12825153D01*
X25100029Y-12402042D02*
X25091217Y-12414933D01*
X12488309Y-14313210D02*
X12461042Y-14410789D01*
X299543539Y-10325158D02*
X299575278Y-10361952D01*
X297800259Y-46455173D02*
X297761952Y-46425278D01*
X296082623Y-107379601D02*
X296200223Y-107332626D01*
X11999740Y-54844826D02*
X12038047Y-54874721D01*
X292272360Y-69842967D02*
X292251628Y-69775154D01*
X295488887Y-12902255D02*
X295393666Y-12900000D01*
X216125362Y-108111144D02*
X216145053Y-108066721D01*
X10010718Y-55494737D02*
X10019025Y-55446861D01*
X297332735Y-106013240D02*
X297356196Y-105914937D01*
X55509148Y-12418960D02*
X55483152Y-12460012D01*
X10523318Y-109783099D02*
X10481039Y-109759148D01*
X292251628Y-69775154D02*
X292234357Y-69706379D01*
X299789281Y-55494737D02*
X299795229Y-55542963D01*
X63692631Y-10702619D02*
X63707874Y-10656480D01*
X299438047Y-54874721D02*
X299474841Y-54906460D01*
X309182793Y-76495D02*
X309101839Y-47194D01*
X55083278Y-10095053D02*
X55126681Y-10116900D01*
X298196861Y-46630974D02*
X298149450Y-46620328D01*
X295889210Y-107438957D02*
X295986789Y-107411690D01*
X10523318Y-54766900D02*
X10566721Y-54745053D01*
X11876681Y-54766900D02*
X11918960Y-54790851D01*
X297048356Y-106632168D02*
X297103583Y-106547227D01*
X208007368Y-108202619D02*
X208020328Y-108249450D01*
X13886759Y-107432736D02*
X13985062Y-107456196D01*
X254169025Y-10796861D02*
X254179671Y-10749450D01*
X102642963Y-109895229D02*
X102594737Y-109889281D01*
X63844826Y-10400259D02*
X63874721Y-10361952D01*
X12409321Y-14710042D02*
X12402255Y-14811112D01*
X216799450Y-107529671D02*
X216846861Y-107519025D01*
X13331707Y-13209545D02*
X13268041Y-13251501D01*
X299188855Y-109824637D02*
X299143519Y-109842125D01*
X13600008Y-107332729D02*
X13693624Y-107370805D01*
X208039281Y-108344737D02*
X208045229Y-108392963D01*
X216799450Y-109870328D02*
X216752619Y-109857368D01*
X245447380Y-12857368D02*
X245400549Y-12870328D01*
X245860033Y-10289966D02*
X245893539Y-10325158D01*
X12357368Y-45947380D02*
X12342125Y-45993519D01*
X246145229Y-12007036D02*
X246139281Y-12055262D01*
X64542963Y-12895229D02*
X64494737Y-12889281D01*
X55650000Y-10990122D02*
X55650000Y-11909877D01*
X12826296Y-13666167D02*
X12751501Y-13768041D01*
X207825278Y-107861952D02*
X207855173Y-107900259D01*
X102273318Y-109783099D02*
X102231039Y-109759148D01*
X444394Y-119731080D02*
X528530Y-119781537D01*
X93226681Y-107616900D02*
X93268960Y-107640851D01*
X36333850Y-12676774D02*
X36297106Y-12645236D01*
X102546861Y-109880974D02*
X102499450Y-109870328D01*
X17232816Y-70344549D02*
X17184450Y-70394857D01*
X207883152Y-109460012D02*
X207855173Y-109499740D01*
X54805262Y-12889281D02*
X54757036Y-12895229D01*
X245305262Y-10010718D02*
X245353138Y-10019025D01*
X19465Y-119094790D02*
X43279Y-119189961D01*
X254631039Y-10140851D02*
X254673318Y-10116900D01*
X36228460Y-12576963D02*
X36196722Y-12540392D01*
X93460033Y-109610033D02*
X93424841Y-109643539D01*
X309800000Y-118887727D02*
X309800000Y-1012272D01*
X299474841Y-54906460D02*
X299510033Y-54939966D01*
X299318960Y-10140851D02*
X299360012Y-10166847D01*
X10844737Y-54660718D02*
X10892963Y-54654770D01*
X309355605Y-119731080D02*
X309434010Y-119672930D01*
X246148804Y-11958576D02*
X246145229Y-12007036D01*
X17485746Y-69952936D02*
X17456586Y-70016338D01*
X299318960Y-109759148D02*
X299276681Y-109783099D01*
X10796861Y-54669025D02*
X10844737Y-54660718D01*
X207933099Y-109376681D02*
X207909148Y-109418960D01*
X207393519Y-109842125D02*
X207347380Y-109857368D01*
X93654946Y-108066721D02*
X93674637Y-108111144D01*
X63650000Y-10990122D02*
X63651195Y-10941423D01*
X216706480Y-107557874D02*
X216752619Y-107542631D01*
X297656460Y-46324841D02*
X297624721Y-46288047D01*
X55288047Y-12675278D02*
X55249740Y-12705173D01*
X17585436Y-69598617D02*
X17569815Y-69687207D01*
X216531039Y-109759148D02*
X216489987Y-109733152D01*
X10116900Y-10523318D02*
X10140851Y-10481039D01*
X101750000Y-108909877D02*
X101750000Y-108490122D01*
X207108576Y-109898804D02*
X207059877Y-109900000D01*
X10400259Y-109705173D02*
X10361952Y-109675278D01*
X101807874Y-109243519D02*
X101792631Y-109197380D01*
X292568386Y-68454155D02*
X292617617Y-68403119D01*
X112831Y-119360302D02*
X124388Y-119381923D01*
X12074841Y-54906460D02*
X12110033Y-54939966D01*
X208020328Y-109150549D02*
X208007368Y-109197380D01*
X12557481Y-14122818D02*
X12520483Y-14217138D01*
X101760718Y-109055262D02*
X101754770Y-109007036D01*
X299097380Y-10042631D02*
X299143519Y-10057874D01*
X254946861Y-12880974D02*
X254899450Y-12870328D01*
X297540851Y-55131039D02*
X297566847Y-55089987D01*
X17593614Y-69529312D02*
X17585436Y-69598617D01*
X295986789Y-12988309D02*
X295913240Y-12967264D01*
X63669025Y-12103138D02*
X63660718Y-12055262D01*
X64216721Y-10095053D02*
X64261144Y-10075362D01*
X298907036Y-109895229D02*
X298858576Y-109898804D01*
X93692125Y-108156480D02*
X93707368Y-108202619D01*
X36166811Y-12502312D02*
X36138797Y-12462815D01*
X36673658Y-12857661D02*
X36627662Y-12842523D01*
X292399107Y-68681179D02*
X292437056Y-68621277D01*
X102642963Y-107504770D02*
X102691423Y-107501195D01*
X902256Y-5094D02*
X805209Y-19465D01*
X246139281Y-12055262D02*
X246130974Y-12103138D01*
X298858576Y-109898804D02*
X298809877Y-109900000D01*
X293024990Y-70676013D02*
X292961099Y-70645252D01*
X216616721Y-109804946D02*
X216573318Y-109783099D01*
X16212401Y-70799690D02*
X12412272Y-70800000D01*
X308897743Y-5094D02*
X308787727Y0D01*
X365989Y-119672930D02*
X444394Y-119731080D01*
X17465341Y-68801841D02*
X17493584Y-68865657D01*
X17553796Y-69044869D02*
X17569815Y-69112792D01*
X16384038Y-70787448D02*
X16294528Y-70796405D01*
X10611144Y-10075362D02*
X10656480Y-10057874D01*
X93388047Y-107724721D02*
X93424841Y-107756460D01*
X207253138Y-107519025D02*
X207300549Y-107529671D01*
X245305262Y-12889281D02*
X245257036Y-12895229D01*
X299575278Y-55011952D02*
X299605173Y-55050259D01*
X216216847Y-107939987D02*
X216244826Y-107900259D01*
X293433352Y-68010368D02*
X293503949Y-68003711D01*
X292779901Y-68265854D02*
X292821277Y-68237056D01*
X299233278Y-10095053D02*
X299276681Y-10116900D01*
X299780974Y-10796861D02*
X299789281Y-10844737D01*
X207253138Y-109880974D02*
X207205262Y-109889281D01*
X10325158Y-46393539D02*
X10289966Y-46360033D01*
X293587398Y-70799680D02*
X293503949Y-70796288D01*
X12709545Y-106568292D02*
X12765970Y-106652747D01*
X12143539Y-46324841D02*
X12110033Y-46360033D01*
X299789281Y-10844737D02*
X299795229Y-10892963D01*
X309681537Y-119371469D02*
X309718632Y-119293777D01*
X11918960Y-46509148D02*
X11876681Y-46533099D01*
X12400000Y-45659877D02*
X12398804Y-45708576D01*
X245400549Y-12870328D02*
X245353138Y-12880974D01*
X10075362Y-55261144D02*
X10095053Y-55216721D01*
X207793539Y-109574841D02*
X207760033Y-109610033D01*
X93047380Y-109857368D02*
X93000549Y-109870328D01*
X299510033Y-54939966D02*
X299543539Y-54975158D01*
X216339966Y-107789966D02*
X216375158Y-107756460D01*
X102406480Y-107557874D02*
X102452619Y-107542631D01*
X14406333Y-12900000D02*
X14286069Y-12903528D01*
X12283099Y-46126681D02*
X12259148Y-46168960D01*
X25104127Y-12400316D02*
X25100029Y-12402042D01*
X297339017Y-14411035D02*
X297304181Y-14289286D01*
X297189858Y-14008208D02*
X297154438Y-13940401D01*
X298858576Y-10001195D02*
X298907036Y-10004770D01*
X296531958Y-107148498D02*
X296634030Y-107073545D01*
X254160718Y-12055262D02*
X254154770Y-12007036D01*
X255091423Y-10001195D02*
X255140122Y-10000000D01*
X255140122Y-12900000D02*
X255091423Y-12898804D01*
X10361952Y-109675278D02*
X10325158Y-109643539D01*
X93633099Y-108023318D02*
X93654946Y-108066721D01*
X102075158Y-109643539D02*
X102039966Y-109610033D01*
X254994737Y-12889281D02*
X254946861Y-12880974D01*
X299143519Y-10057874D02*
X299188855Y-10075362D01*
X16294528Y-70796405D02*
X16212401Y-70799690D01*
X36960192Y-12900000D02*
X36911661Y-12898812D01*
X292234357Y-69706379D02*
X292220592Y-69636817D01*
X54947380Y-10042631D02*
X54993519Y-10057874D01*
X112831Y-539697D02*
X76307Y-617659D01*
X299318960Y-46509148D02*
X299276681Y-46533099D01*
X19561Y-804728D02*
X6616Y-889843D01*
X254852619Y-10042631D02*
X254899450Y-10029671D01*
X11697380Y-54692631D02*
X11743519Y-54707874D01*
X216706480Y-109842125D02*
X216661144Y-109824637D01*
X297923318Y-46533099D02*
X297881039Y-46509148D01*
X207483278Y-107595053D02*
X207526681Y-107616900D01*
X207108576Y-107501195D02*
X207157036Y-107504770D01*
X55630974Y-12103138D02*
X55620328Y-12150549D01*
X297966721Y-46554946D02*
X297923318Y-46533099D01*
X309580321Y-375464D02*
X309564768Y-356513D01*
X299683099Y-55173318D02*
X299704946Y-55216721D01*
X16766426Y-70679861D02*
X16701926Y-70706504D01*
X13418478Y-107242266D02*
X13530494Y-107300789D01*
X297881039Y-46509148D02*
X297839987Y-46483152D01*
X309564768Y-356513D02*
X309506718Y-292934D01*
X93633099Y-109376681D02*
X93609148Y-109418960D01*
X297761952Y-54874721D02*
X297800259Y-54844826D01*
X10075362Y-10611144D02*
X10095053Y-10566721D01*
X245447380Y-10042631D02*
X245493519Y-10057874D01*
X10566721Y-54745053D02*
X10611144Y-54725362D01*
X293071316Y-68104105D02*
X293157032Y-68072360D01*
X17598327Y-69459685D02*
X17593614Y-69529312D01*
X55360033Y-10289966D02*
X55393539Y-10325158D01*
X36911661Y-12898812D02*
X36863369Y-12895262D01*
X254150000Y-10990122D02*
X254151195Y-10941423D01*
X12389281Y-45805262D02*
X12380974Y-45853138D01*
X17599564Y-69389910D02*
X17598327Y-69459685D01*
X55648804Y-10941423D02*
X55650000Y-10990122D01*
X299724637Y-10611144D02*
X299742125Y-10656480D01*
X93460033Y-107789966D02*
X93493539Y-107825158D01*
X92953138Y-107519025D02*
X93000549Y-107529671D01*
X12461042Y-105989210D02*
X12495739Y-106110473D01*
X93654946Y-109333278D02*
X93633099Y-109376681D01*
X17321730Y-70237020D02*
X17278614Y-70291894D01*
X64446861Y-12880974D02*
X64399450Y-12870328D01*
X54805262Y-10010718D02*
X54853138Y-10019025D01*
X54757036Y-10004770D02*
X54805262Y-10010718D01*
X102111952Y-107724721D02*
X102150259Y-107694826D01*
X298809877Y-54650000D02*
X298858576Y-54651195D01*
X14185348Y-107488167D02*
X14286069Y-107496471D01*
X295690288Y-12921462D02*
X295589957Y-12909321D01*
X24825594Y-12708179D02*
X24786049Y-12735740D01*
X102006460Y-109574841D02*
X101974721Y-109538047D01*
X24239807Y-12899999D02*
X14406333Y-12900000D01*
X55592125Y-12243519D02*
X55574637Y-12288855D01*
X10224721Y-109538047D02*
X10194826Y-109499740D01*
X93093519Y-107557874D02*
X93138855Y-107575362D01*
X292203711Y-69303949D02*
X292212958Y-69213013D01*
X13622818Y-13057481D02*
X13508208Y-13110141D01*
X293293620Y-70765642D02*
X293205132Y-70742731D01*
X309355605Y-168919D02*
X309271469Y-118462D01*
X208048804Y-108441423D02*
X208050000Y-108490122D01*
X10224721Y-10361952D02*
X10256460Y-10325158D01*
X36411742Y-12734275D02*
X36372092Y-12706477D01*
X101779671Y-108249450D02*
X101792631Y-108202619D01*
X245824841Y-10256460D02*
X245860033Y-10289966D01*
X299757368Y-109197380D02*
X299742125Y-109243519D01*
X36372092Y-12706477D02*
X36333850Y-12676774D01*
X245493519Y-12842125D02*
X245447380Y-12857368D01*
X102361144Y-109824637D02*
X102316721Y-109804946D01*
X93493539Y-107825158D02*
X93525278Y-107861952D01*
X293612605Y-68000000D02*
X297387727Y-68000000D01*
X10095053Y-46083278D02*
X10075362Y-46038855D01*
X63906460Y-12574841D02*
X63874721Y-12538047D01*
X10325158Y-10256460D02*
X10361952Y-10224721D01*
X254761144Y-10075362D02*
X254806480Y-10057874D01*
X216069025Y-108296861D02*
X216079671Y-108249450D01*
X216489987Y-107666847D02*
X216531039Y-107640851D01*
X102406480Y-109842125D02*
X102361144Y-109824637D01*
X55639281Y-12055262D02*
X55630974Y-12103138D01*
X93609148Y-109418960D02*
X93583152Y-109460012D01*
X13985062Y-107456196D02*
X14109460Y-107478502D01*
X295715075Y-107474743D02*
X295814690Y-107456250D01*
X11876681Y-46533099D02*
X11833278Y-46554946D01*
X254344826Y-12499740D02*
X254316847Y-12460012D01*
X10796861Y-46630974D02*
X10749450Y-46620328D01*
X36538165Y-12805594D02*
X36494877Y-12783893D01*
X297540851Y-46168960D02*
X297516900Y-46126681D01*
X245860033Y-12610033D02*
X245824841Y-12643539D01*
X298056480Y-46592125D02*
X298011144Y-46574637D01*
X299800000Y-55640122D02*
X299800000Y-108909877D01*
X297594826Y-55050259D02*
X297624721Y-55011952D01*
X101779671Y-109150549D02*
X101769025Y-109103138D01*
X299770328Y-45900549D02*
X299757368Y-45947380D01*
X10289966Y-109610033D02*
X10256460Y-109574841D01*
X254806480Y-10057874D02*
X254852619Y-10042631D01*
X299050549Y-10029671D02*
X299097380Y-10042631D01*
X254179671Y-12150549D02*
X254169025Y-12103138D01*
X216894737Y-107510718D02*
X216942963Y-107504770D01*
X14286069Y-12903528D02*
X14210042Y-12909321D01*
X216573318Y-109783099D02*
X216531039Y-109759148D01*
X254631039Y-12759148D02*
X254589987Y-12733152D01*
X12395229Y-45757036D02*
X12389281Y-45805262D01*
X254439966Y-10289966D02*
X254475158Y-10256460D01*
X16967803Y-70570196D02*
X16908519Y-70607014D01*
X55168960Y-10140851D02*
X55210012Y-10166847D01*
X16501596Y-68033280D02*
X16569346Y-68050012D01*
X10749450Y-46620328D02*
X10702619Y-46607368D01*
X299633152Y-46210012D02*
X299605173Y-46249740D01*
X292234357Y-69093620D02*
X292257268Y-69005132D01*
X299543539Y-109574841D02*
X299510033Y-109610033D01*
X11507036Y-54654770D02*
X11555262Y-54660718D01*
X254179671Y-10749450D02*
X254192631Y-10702619D01*
X54947380Y-12857368D02*
X54900549Y-12870328D01*
X102150259Y-107694826D02*
X102189987Y-107666847D01*
X299097380Y-109857368D02*
X299050549Y-109870328D01*
X297279516Y-106182861D02*
X297304259Y-106110472D01*
X299474841Y-10256460D02*
X299510033Y-10289966D01*
X309723692Y-617659D02*
X309681768Y-528963D01*
X12304946Y-55216721D02*
X12324637Y-55261144D01*
X92759877Y-107499999D02*
X92808576Y-107501195D01*
X254290851Y-12418960D02*
X254266900Y-12376681D01*
X216942963Y-109895229D02*
X216894737Y-109889281D01*
X254192631Y-12197380D02*
X254179671Y-12150549D01*
X254899450Y-10029671D02*
X254946861Y-10019025D01*
X207688047Y-109675278D02*
X207649740Y-109705173D01*
X254151195Y-10941423D02*
X254154770Y-10892963D01*
X64640122Y-10000000D02*
X245159877Y-10000000D01*
X292272360Y-68957032D02*
X292296500Y-68890357D01*
X245626681Y-12783099D02*
X245583278Y-12804946D01*
X93349740Y-109705173D02*
X93310012Y-109733152D01*
X216069025Y-109103138D02*
X216060718Y-109055262D01*
X254374721Y-10361952D02*
X254406460Y-10325158D01*
X292881179Y-68199107D02*
X292961099Y-68154747D01*
X207974637Y-109288855D02*
X207954946Y-109333278D01*
X102594737Y-109889281D02*
X102546861Y-109880974D01*
X308897743Y-119894905D02*
X308994790Y-119880534D01*
X10990122Y-10000000D02*
X54659877Y-10000000D01*
X216306460Y-109574841D02*
X216274721Y-109538047D01*
X296447227Y-13196416D02*
X296381301Y-13157607D01*
X10194826Y-109499740D02*
X10166847Y-109460012D01*
X10010718Y-109055262D02*
X10004770Y-109007036D01*
X5094Y-118997743D02*
X19465Y-119094790D01*
X10004770Y-109007036D02*
X10001195Y-108958576D01*
X296359598Y-107254438D02*
X296447227Y-107203583D01*
X292257268Y-69005132D02*
X292272360Y-68957032D01*
X292332546Y-68806359D02*
X292364240Y-68742926D01*
X299757368Y-55352619D02*
X299770328Y-55399450D01*
X254589987Y-12733152D02*
X254550259Y-12705173D01*
X12610141Y-106391791D02*
X12645441Y-106459375D01*
X254550259Y-10194826D02*
X254589987Y-10166847D01*
X299795229Y-109007036D02*
X299789281Y-109055262D01*
X710038Y-119856720D02*
X804728Y-119880438D01*
X12400912Y-67993997D02*
X12405558Y-67998877D01*
X55607368Y-12197380D02*
X55592125Y-12243519D01*
X102006460Y-107825158D02*
X102039966Y-107789966D01*
X296532168Y-13251643D02*
X296447227Y-13196416D01*
X36261948Y-12611939D02*
X36228460Y-12576963D01*
X298858576Y-54651195D02*
X298907036Y-54654770D01*
X93424841Y-109643539D02*
X93388047Y-109675278D01*
X10702619Y-54692631D02*
X10749450Y-54679671D01*
X216060718Y-109055262D02*
X216054770Y-109007036D01*
X297396097Y-70802170D02*
X297387727Y-70800000D01*
X297390678Y-105689957D02*
X297397744Y-105588887D01*
X10361952Y-10224721D02*
X10400259Y-10194826D01*
X293024990Y-68123986D02*
X293071316Y-68104105D01*
X805209Y-19465D02*
X710038Y-43279D01*
X93707368Y-108202619D02*
X93720328Y-108249450D01*
X63766900Y-10523318D02*
X63790851Y-10481039D01*
X10481039Y-109759148D02*
X10439987Y-109733152D01*
X298809877Y-109900000D02*
X217040122Y-109900000D01*
X297404770Y-45757036D02*
X297401195Y-45708576D01*
X216166900Y-109376681D02*
X216145053Y-109333278D01*
X13185796Y-107088897D02*
X13268041Y-107148498D01*
X298102619Y-54692631D02*
X298149450Y-54679671D01*
X254716721Y-12804946D02*
X254673318Y-12783099D01*
X889843Y-119893383D02*
X914240Y-119895786D01*
X92953138Y-109880974D02*
X92905262Y-109889281D01*
X207688047Y-107724721D02*
X207724841Y-107756460D01*
X292220592Y-69636817D02*
X292212958Y-69586986D01*
X245925278Y-12538047D02*
X245893539Y-12574841D01*
X55620328Y-10749450D02*
X55630974Y-10796861D01*
X254550259Y-12705173D02*
X254511952Y-12675278D01*
X216411952Y-109675278D02*
X216375158Y-109643539D01*
X63766900Y-12376681D02*
X63745053Y-12333278D01*
X64089987Y-10166847D02*
X64131039Y-10140851D01*
X299742125Y-109243519D02*
X299724637Y-109288855D01*
X309718632Y-119293777D02*
X309728014Y-119271128D01*
X12959195Y-13513289D02*
X12890976Y-13587854D01*
X299276681Y-10116900D02*
X299318960Y-10140851D01*
X63660718Y-12055262D02*
X63654770Y-12007036D01*
X63654770Y-12007036D02*
X63651195Y-11958576D01*
X299399740Y-54844826D02*
X299438047Y-54874721D01*
X10256460Y-10325158D02*
X10289966Y-10289966D01*
X124388Y-119381923D02*
X168919Y-119455605D01*
X299800000Y-10990122D02*
X299800000Y-45659877D01*
X292881179Y-70600892D02*
X292821277Y-70562943D01*
X64261144Y-12824637D02*
X64216721Y-12804946D01*
X298955262Y-54660718D02*
X299003138Y-54669025D01*
X297189743Y-106392017D02*
X297242614Y-106276947D01*
X208050000Y-108490122D02*
X208050000Y-108909877D01*
X17321730Y-68562979D02*
X17350691Y-68603260D01*
X64542963Y-10004770D02*
X64591423Y-10001195D01*
X93138855Y-107575362D02*
X93183278Y-107595053D01*
X299659148Y-10481039D02*
X299683099Y-10523318D01*
X93555173Y-109499740D02*
X93525278Y-109538047D01*
X43279Y-710038D02*
X19561Y-804728D01*
X298955262Y-10010718D02*
X299003138Y-10019025D01*
X10029671Y-55399450D02*
X10042631Y-55352619D01*
X16636178Y-70729899D02*
X16588770Y-70744522D01*
X101944826Y-109499740D02*
X101916847Y-109460012D01*
X216846861Y-107519025D02*
X216894737Y-107510718D01*
X102499450Y-107529671D02*
X102546861Y-107519025D01*
X101760718Y-108344737D02*
X101769025Y-108296861D01*
X297410718Y-55494737D02*
X297419025Y-55446861D01*
X102111952Y-109675278D02*
X102075158Y-109643539D01*
X299050549Y-46620328D02*
X299003138Y-46630974D01*
X10140851Y-46168960D02*
X10116900Y-46126681D01*
X216145053Y-109333278D02*
X216125362Y-109288855D01*
X12395229Y-55542963D02*
X12398804Y-55591423D01*
X299276681Y-109783099D02*
X299233278Y-109804946D01*
X297394441Y-67998877D02*
X297399087Y-67993997D01*
X13106878Y-107025359D02*
X13185796Y-107088897D01*
X292707619Y-68321804D02*
X292779901Y-68265854D01*
X16636178Y-68070100D02*
X16701926Y-68093495D01*
X254225362Y-12288855D02*
X254207874Y-12243519D01*
X292654155Y-68368386D02*
X292707619Y-68321804D01*
X54708576Y-10001195D02*
X54757036Y-10004770D01*
X292961099Y-68154747D02*
X293024990Y-68123986D01*
X245257036Y-10004770D02*
X245305262Y-10010718D01*
X245749740Y-12705173D02*
X245710012Y-12733152D01*
X12751501Y-13768041D02*
X12696415Y-13852772D01*
X76307Y-617659D02*
X43279Y-710038D01*
X208020328Y-108249450D02*
X208030974Y-108296861D01*
X296447227Y-107203583D02*
X296531958Y-107148498D01*
X10941423Y-109898804D02*
X10892963Y-109895229D01*
X804728Y-119880438D02*
X889843Y-119893383D01*
X16384038Y-68012551D02*
X16452967Y-68023449D01*
X216846861Y-109880974D02*
X216799450Y-109870328D01*
X216450259Y-109705173D02*
X216411952Y-109675278D01*
X10749450Y-10029671D02*
X10796861Y-10019025D01*
X254225362Y-10611144D02*
X254245053Y-10566721D01*
X299510033Y-46360033D02*
X299474841Y-46393539D01*
X309681768Y-528963D02*
X309637778Y-454956D01*
X16908519Y-70607014D02*
X16829518Y-70650036D01*
X245955173Y-10400259D02*
X245983152Y-10439987D01*
X12404296Y-70801878D02*
X12400129Y-70808830D01*
X296973545Y-13665969D02*
X296909190Y-13588045D01*
X55393539Y-12574841D02*
X55360033Y-12610033D01*
X299780974Y-45853138D02*
X299770328Y-45900549D01*
X10116900Y-46126681D02*
X10095053Y-46083278D01*
X216661144Y-107575362D02*
X216706480Y-107557874D01*
X710038Y-43279D02*
X628641Y-72071D01*
X93730974Y-109103138D02*
X93720328Y-109150549D01*
X309572930Y-119534010D02*
X309631080Y-119455605D01*
X14109460Y-107478502D02*
X14185348Y-107488167D01*
X10702619Y-109857368D02*
X10656480Y-109842125D01*
X17388975Y-68661608D02*
X17424302Y-68721791D01*
X93730974Y-108296861D02*
X93739281Y-108344737D01*
X101754770Y-109007036D02*
X101751195Y-108958576D01*
X254151195Y-11958576D02*
X254150000Y-11909877D01*
X11999740Y-46455173D02*
X11960012Y-46483152D01*
X93138855Y-109824637D02*
X93093519Y-109842125D01*
X299770328Y-55399450D02*
X299780974Y-55446861D01*
X292212958Y-69586986D02*
X292205268Y-69516494D01*
X93720328Y-109150549D02*
X93707368Y-109197380D01*
X12890976Y-13587854D02*
X12826296Y-13666167D01*
X207855173Y-107900259D02*
X207883152Y-107939987D01*
X12438704Y-105890127D02*
X12461042Y-105989210D01*
X12205173Y-46249740D02*
X12175278Y-46288047D01*
X55038855Y-10075362D02*
X55083278Y-10095053D01*
X10941423Y-54651195D02*
X10990122Y-54650000D01*
X13013289Y-106940804D02*
X13106878Y-107025359D01*
X298955262Y-109889281D02*
X298907036Y-109895229D01*
X10116900Y-55173318D02*
X10140851Y-55131039D01*
X299780974Y-55446861D02*
X299789281Y-55494737D01*
X245353138Y-10019025D02*
X245400549Y-10029671D01*
X298196861Y-54669025D02*
X298244737Y-54660718D01*
X299143519Y-46592125D02*
X299097380Y-46607368D01*
X101845053Y-108066721D02*
X101866900Y-108023318D01*
X93183278Y-107595053D02*
X93226681Y-107616900D01*
X299438047Y-46425278D02*
X299399740Y-46455173D01*
X12074841Y-46393539D02*
X12038047Y-46425278D01*
X299360012Y-46483152D02*
X299318960Y-46509148D01*
X299659148Y-46168960D02*
X299633152Y-46210012D01*
X245668960Y-12759148D02*
X245626681Y-12783099D01*
X298102619Y-46607368D02*
X298056480Y-46592125D01*
X297419025Y-55446861D02*
X297429671Y-55399450D01*
X55483152Y-10439987D02*
X55509148Y-10481039D01*
X93745229Y-109007036D02*
X93739281Y-109055262D01*
X92857036Y-107504770D02*
X92905262Y-107510718D01*
X1012272Y-119900000D02*
X308787727Y-119900000D01*
X292763374Y-70522009D02*
X292707619Y-70478195D01*
X64131039Y-12759148D02*
X64089987Y-12733152D01*
X216991423Y-109898804D02*
X216942963Y-109895229D01*
X12259148Y-46168960D02*
X12233152Y-46210012D01*
X308787727Y0D02*
X1012272Y0D01*
X102231039Y-107640851D02*
X102273318Y-107616900D01*
X10000000Y-10990122D02*
X10001195Y-10941423D01*
X55249740Y-10194826D02*
X55288047Y-10224721D01*
X254160718Y-10844737D02*
X254169025Y-10796861D01*
X12402255Y-14811112D02*
X12400000Y-14906333D01*
X254245053Y-12333278D02*
X254225362Y-12288855D01*
X64591423Y-12898804D02*
X64542963Y-12895229D01*
X4213Y-914240D02*
X0Y-1012272D01*
X64494737Y-12889281D02*
X64446861Y-12880974D01*
X64216721Y-12804946D02*
X64173318Y-12783099D01*
X292388705Y-70101151D02*
X292354747Y-70038900D01*
X293157032Y-68072360D02*
X293205132Y-68057268D01*
X299399740Y-46455173D02*
X299360012Y-46483152D01*
X11788855Y-46574637D02*
X11743519Y-46592125D01*
X296712145Y-13390976D02*
X296614000Y-13310950D01*
X93720328Y-108249450D02*
X93730974Y-108296861D01*
X12283099Y-55173318D02*
X12304946Y-55216721D01*
X24703171Y-12784929D02*
X24660035Y-12806440D01*
X216216847Y-109460012D02*
X216190851Y-109418960D01*
X63651195Y-10941423D02*
X63654770Y-10892963D01*
X55249740Y-12705173D02*
X55210012Y-12733152D01*
X10019025Y-10796861D02*
X10029671Y-10749450D01*
X14406333Y-107499999D02*
X92759877Y-107499999D01*
X309506718Y-292934D02*
X309434010Y-227069D01*
X299474841Y-109643539D02*
X299438047Y-109675278D01*
X11788855Y-54725362D02*
X11833278Y-54745053D01*
X254673318Y-12783099D02*
X254631039Y-12759148D01*
X299633152Y-10439987D02*
X299659148Y-10481039D01*
X299724637Y-109288855D02*
X299704946Y-109333278D01*
X14210042Y-12909321D02*
X14109711Y-12921462D01*
X207855173Y-109499740D02*
X207825278Y-109538047D01*
X207649740Y-109705173D02*
X207610012Y-109733152D01*
X10325158Y-109643539D02*
X10289966Y-109610033D01*
X17456586Y-70016338D02*
X17433953Y-70060486D01*
X299605173Y-10400259D02*
X299633152Y-10439987D01*
X246033099Y-12376681D02*
X246009148Y-12418960D01*
X10001195Y-10941423D02*
X10004770Y-10892963D01*
X216190851Y-109418960D02*
X216166900Y-109376681D01*
X10256460Y-54975158D02*
X10289966Y-54939966D01*
X11960012Y-46483152D02*
X11918960Y-46509148D01*
X93310012Y-109733152D02*
X93268960Y-109759148D01*
X10611144Y-109824637D02*
X10566721Y-109804946D01*
X292568386Y-70345844D02*
X292508847Y-70276489D01*
X297800259Y-54844826D02*
X297839987Y-54816847D01*
X246054946Y-10566721D02*
X246074637Y-10611144D01*
X16829518Y-68149963D02*
X16891044Y-68182896D01*
X36101906Y-12404156D02*
X36098490Y-12401270D01*
X12357368Y-55352619D02*
X12370328Y-55399450D01*
X17064726Y-68299485D02*
X17133636Y-68357308D01*
X17025178Y-70530470D02*
X16967803Y-70570196D01*
X299003138Y-109880974D02*
X298955262Y-109889281D01*
X64591423Y-10001195D02*
X64640122Y-10000000D01*
X216661144Y-109824637D02*
X216616721Y-109804946D01*
X245208576Y-12898804D02*
X245159877Y-12900000D01*
X92808576Y-107501195D02*
X92857036Y-107504770D01*
X216531039Y-107640851D02*
X216573318Y-107616900D01*
X309434010Y-227069D02*
X309355605Y-168919D01*
X299233278Y-109804946D02*
X299188855Y-109824637D01*
X64399450Y-10029671D02*
X64446861Y-10019025D01*
X299233278Y-54745053D02*
X299276681Y-54766900D01*
X12811102Y-106714203D02*
X12874477Y-106792927D01*
X24478589Y-12870799D02*
X24431539Y-12881277D01*
X216145053Y-108066721D02*
X216166900Y-108023318D01*
X299543539Y-46324841D02*
X299510033Y-46360033D01*
X297624721Y-46288047D02*
X297594826Y-46249740D01*
X55425278Y-10361952D02*
X55455173Y-10400259D01*
X299003138Y-54669025D02*
X299050549Y-54679671D01*
X297399918Y-70809318D02*
X297396097Y-70802170D01*
X102594737Y-107510718D02*
X102642963Y-107504770D01*
X54993519Y-10057874D02*
X55038855Y-10075362D01*
X297400000Y-105493666D02*
X297399918Y-70809318D01*
X93748804Y-108958576D02*
X93745229Y-109007036D01*
X298011144Y-54725362D02*
X298056480Y-54707874D01*
X55393539Y-10325158D02*
X55425278Y-10361952D01*
X55360033Y-12610033D02*
X55324841Y-12643539D01*
X55533099Y-10523318D02*
X55554946Y-10566721D01*
X298244737Y-54660718D02*
X298292963Y-54654770D01*
X245893539Y-10325158D02*
X245925278Y-10361952D01*
X55168960Y-12759148D02*
X55126681Y-12783099D01*
X628871Y-119828014D02*
X710038Y-119856720D01*
X101825362Y-108111144D02*
X101845053Y-108066721D01*
X292654155Y-70431613D02*
X292603119Y-70382382D01*
X292364240Y-68742926D02*
X292399107Y-68681179D01*
X10194826Y-55050259D02*
X10224721Y-55011952D01*
X301986Y-119615348D02*
X365989Y-119672930D01*
X93609148Y-107981039D02*
X93633099Y-108023318D01*
X296840804Y-13513289D02*
X296786710Y-13459195D01*
X539697Y-112831D02*
X518076Y-124388D01*
X10749450Y-109870328D02*
X10702619Y-109857368D01*
X12324637Y-46038855D02*
X12304946Y-46083278D01*
X246107368Y-12197380D02*
X246092125Y-12243519D01*
X16891044Y-68182896D02*
X16967803Y-68229803D01*
X17184450Y-70394857D02*
X17118507Y-70456043D01*
X12495739Y-106110473D02*
X12529194Y-106206375D01*
X245493519Y-10057874D02*
X245538855Y-10075362D01*
X10566721Y-46554946D02*
X10523318Y-46533099D01*
X298809877Y-46650000D02*
X298390122Y-46650000D01*
X301986Y-284651D02*
X284651Y-301986D01*
X64306480Y-12842125D02*
X64261144Y-12824637D01*
X36297106Y-12645236D02*
X36261948Y-12611939D01*
X63844826Y-12499740D02*
X63816847Y-12460012D01*
X299770328Y-109150549D02*
X299757368Y-109197380D01*
X12405558Y-67998877D02*
X12412272Y-68000000D01*
X254994737Y-10010718D02*
X255042963Y-10004770D01*
X255042963Y-12895229D02*
X254994737Y-12889281D01*
X17433953Y-70060486D02*
X17399496Y-70121173D01*
X55645229Y-10892963D02*
X55648804Y-10941423D01*
X64011952Y-12675278D02*
X63975158Y-12643539D01*
X102231039Y-109759148D02*
X102189987Y-109733152D01*
X13530494Y-107300789D02*
X13600008Y-107332729D01*
X207610012Y-107666847D02*
X207649740Y-107694826D01*
X12412272Y-70800000D02*
X12404296Y-70801878D01*
X299789281Y-45805262D02*
X299780974Y-45853138D01*
X64050259Y-12705173D02*
X64011952Y-12675278D01*
X297400000Y-14906333D02*
X297397744Y-14811112D01*
X10095053Y-109333278D02*
X10075362Y-109288855D01*
X297400000Y-55640122D02*
X297401195Y-55591423D01*
X12380974Y-45853138D02*
X12370328Y-45900549D01*
X93674637Y-109288855D02*
X93654946Y-109333278D01*
X101845053Y-109333278D02*
X101825362Y-109288855D01*
X216573318Y-107616900D02*
X216616721Y-107595053D01*
X55038855Y-12824637D02*
X54993519Y-12842125D01*
X24615903Y-12825826D02*
X24570880Y-12843041D01*
X246130974Y-10796861D02*
X246139281Y-10844737D01*
X12370328Y-55399450D02*
X12380974Y-55446861D01*
X63745053Y-12333278D02*
X63725362Y-12288855D01*
X246148804Y-10941423D02*
X246150000Y-10990122D01*
X309260302Y-119787168D02*
X309281923Y-119775611D01*
X295814690Y-107456250D02*
X295889210Y-107438957D01*
X10749450Y-54679671D02*
X10796861Y-54669025D01*
X10042631Y-10702619D02*
X10057874Y-10656480D01*
X10325158Y-54906460D02*
X10361952Y-54874721D01*
X297103583Y-106547227D02*
X297142392Y-106481301D01*
X297566847Y-55089987D02*
X297594826Y-55050259D01*
X10566721Y-10095053D02*
X10611144Y-10075362D01*
X36863369Y-12895262D02*
X36815308Y-12889355D01*
X55607368Y-10702619D02*
X55620328Y-10749450D01*
X17133636Y-68357308D02*
X17184450Y-68405142D01*
X10224721Y-46288047D02*
X10194826Y-46249740D01*
X102075158Y-107756460D02*
X102111952Y-107724721D01*
X12389281Y-55494737D02*
X12395229Y-55542963D01*
X216060718Y-108344737D02*
X216069025Y-108296861D01*
X10656480Y-54707874D02*
X10702619Y-54692631D01*
X12175278Y-55011952D02*
X12205173Y-55050259D01*
X43279Y-119189961D02*
X72071Y-119271358D01*
X299276681Y-46533099D02*
X299233278Y-46554946D01*
X292212958Y-69213013D02*
X292220592Y-69163182D01*
X254316847Y-12460012D02*
X254290851Y-12418960D01*
X36452702Y-12760101D02*
X36411742Y-12734275D01*
X207760033Y-107789966D02*
X207793539Y-107825158D01*
X298809877Y-10000000D02*
X298858576Y-10001195D01*
X16569346Y-68050012D02*
X16636178Y-68070100D01*
X17350691Y-68603260D02*
X17388975Y-68661608D01*
X299143519Y-109842125D02*
X299097380Y-109857368D01*
X10001195Y-45708576D02*
X10000000Y-45659877D01*
X10481039Y-10140851D02*
X10523318Y-10116900D01*
X299798804Y-55591423D02*
X299800000Y-55640122D01*
X295589704Y-107490700D02*
X295715075Y-107474743D01*
X296291791Y-107289858D02*
X296359598Y-107254438D01*
X299510033Y-10289966D02*
X299543539Y-10325158D01*
X216411952Y-107724721D02*
X216450259Y-107694826D01*
X245626681Y-10116900D02*
X245668960Y-10140851D01*
X208030974Y-109103138D02*
X208020328Y-109150549D01*
X10892963Y-10004770D02*
X10941423Y-10001195D01*
X207933099Y-108023318D02*
X207954946Y-108066721D01*
X297516900Y-46126681D02*
X297495053Y-46083278D01*
X24935541Y-12614427D02*
X24900429Y-12647451D01*
X296292017Y-13110256D02*
X296176947Y-13057385D01*
X55509148Y-10481039D02*
X55533099Y-10523318D01*
X296768719Y-106957906D02*
X296840804Y-106886710D01*
X254245053Y-10566721D02*
X254266900Y-10523318D01*
X101866900Y-109376681D02*
X101845053Y-109333278D01*
X17569815Y-69687207D02*
X17553796Y-69755130D01*
X63660718Y-10844737D02*
X63669025Y-10796861D01*
X13717376Y-13020398D02*
X13622818Y-13057481D01*
X292465854Y-68579901D02*
X292521804Y-68507619D01*
X216107874Y-109243519D02*
X216092631Y-109197380D01*
X216752619Y-109857368D02*
X216706480Y-109842125D01*
X24384036Y-12889452D02*
X24336190Y-12895305D01*
X168919Y-444394D02*
X124388Y-518076D01*
X101792631Y-108202619D02*
X101807874Y-108156480D01*
X216616721Y-107595053D02*
X216661144Y-107575362D01*
X299795229Y-10892963D02*
X299798804Y-10941423D01*
X309281923Y-119775611D02*
X309355605Y-119731080D01*
X293503949Y-70796288D02*
X293413013Y-70787041D01*
X24745209Y-12761344D02*
X24703171Y-12784929D01*
X92857036Y-109895229D02*
X92808576Y-109898804D01*
X12175278Y-46288047D02*
X12143539Y-46324841D01*
X93739281Y-109055262D02*
X93730974Y-109103138D01*
X299800000Y-108909877D02*
X299798804Y-108958576D01*
X254154770Y-10892963D02*
X254160718Y-10844737D01*
X207157036Y-109895229D02*
X207108576Y-109898804D01*
X10656480Y-10057874D02*
X10702619Y-10042631D01*
X297839987Y-54816847D02*
X297881039Y-54790851D01*
X216092631Y-108202619D02*
X216107874Y-108156480D01*
X293205132Y-70742731D02*
X293137631Y-70721008D01*
X17278614Y-70291894D02*
X17232816Y-70344549D01*
X297304259Y-106110472D02*
X297332735Y-106013240D01*
X216244826Y-109499740D02*
X216216847Y-109460012D01*
X297725158Y-46393539D02*
X297689966Y-46360033D01*
X298149450Y-54679671D02*
X298196861Y-54669025D01*
X10400259Y-54844826D02*
X10439987Y-54816847D01*
X297401195Y-55591423D02*
X297404770Y-55542963D01*
X72071Y-119271358D02*
X112831Y-119360302D01*
X284651Y-119598013D02*
X301986Y-119615348D01*
X292205268Y-69516494D02*
X292200638Y-69425206D01*
X55533099Y-12376681D02*
X55509148Y-12418960D01*
X17350691Y-70196739D02*
X17321730Y-70237020D01*
X63651195Y-11958576D02*
X63650000Y-11909877D01*
X64640122Y-12900000D02*
X64591423Y-12898804D01*
X254192631Y-10702619D02*
X254207874Y-10656480D01*
X24969005Y-12579733D02*
X24935541Y-12614427D01*
X12398804Y-55591423D02*
X12400000Y-55640122D01*
X93000549Y-107529671D02*
X93047380Y-107542631D01*
X14286069Y-107496471D02*
X14406333Y-107499999D01*
X92759877Y-109900000D02*
X10990122Y-109900000D01*
X64173318Y-10116900D02*
X64216721Y-10095053D01*
X64261144Y-10075362D02*
X64306480Y-10057874D01*
X102150259Y-109705173D02*
X102111952Y-109675278D01*
X216450259Y-107694826D02*
X216489987Y-107666847D01*
X297142392Y-106481301D02*
X297189743Y-106392017D01*
X12610141Y-14008208D02*
X12557481Y-14122818D01*
X101751195Y-108441423D02*
X101754770Y-108392963D01*
X295589957Y-12909321D02*
X295488887Y-12902255D01*
X12567373Y-106300223D02*
X12610141Y-106391791D01*
X216054770Y-108392963D02*
X216060718Y-108344737D01*
X12143539Y-54975158D02*
X12175278Y-55011952D01*
X63874721Y-10361952D02*
X63906460Y-10325158D01*
X297516900Y-55173318D02*
X297540851Y-55131039D01*
X207526681Y-109783099D02*
X207483278Y-109804946D01*
X93739281Y-108344737D02*
X93745229Y-108392963D01*
X292296500Y-68890357D02*
X292332546Y-68806359D01*
X12110033Y-46360033D02*
X12074841Y-46393539D01*
X207909148Y-109418960D02*
X207883152Y-109460012D01*
X297154438Y-13940401D02*
X297103583Y-13852772D01*
X10361952Y-46425278D02*
X10325158Y-46393539D01*
X216375158Y-107756460D02*
X216411952Y-107724721D01*
X64352619Y-12857368D02*
X64306480Y-12842125D01*
X101769025Y-109103138D02*
X101760718Y-109055262D01*
X11650549Y-54679671D02*
X11697380Y-54692631D01*
X93583152Y-107939987D02*
X93609148Y-107981039D01*
X10001195Y-55591423D02*
X10004770Y-55542963D01*
X297410718Y-45805262D02*
X297404770Y-45757036D01*
X309728014Y-119271128D02*
X309756720Y-119189961D01*
X254266900Y-12376681D02*
X254245053Y-12333278D01*
X216894737Y-109889281D02*
X216846861Y-109880974D01*
X297242614Y-106276947D02*
X297279516Y-106182861D01*
X292477990Y-70236625D02*
X292437056Y-70178722D01*
X10057874Y-55306480D02*
X10075362Y-55261144D01*
X63906460Y-10325158D02*
X63939966Y-10289966D01*
X10029671Y-45900549D02*
X10019025Y-45853138D01*
X207793539Y-107825158D02*
X207825278Y-107861952D01*
X10166847Y-46210012D02*
X10140851Y-46168960D01*
X207157036Y-107504770D02*
X207205262Y-107510718D01*
X93268960Y-107640851D02*
X93310012Y-107666847D01*
X93424841Y-107756460D02*
X93460033Y-107789966D01*
X55650000Y-11909877D02*
X55648804Y-11958576D01*
X297232729Y-14100008D02*
X297189858Y-14008208D01*
X0Y-1012272D02*
X0Y-118887727D01*
X25000739Y-12543452D02*
X24969005Y-12579733D01*
X102740122Y-109900000D02*
X102691423Y-109898804D01*
X216166900Y-108023318D02*
X216190851Y-107981039D01*
X207909148Y-107981039D02*
X207933099Y-108023318D01*
X10481039Y-54790851D02*
X10523318Y-54766900D01*
X10095053Y-55216721D02*
X10116900Y-55173318D01*
X245159877Y-12900000D02*
X64640122Y-12900000D01*
X207205262Y-107510718D02*
X207253138Y-107519025D01*
X297378537Y-105790288D02*
X297390678Y-105689957D01*
X245353138Y-12880974D02*
X245305262Y-12889281D01*
X63975158Y-10256460D02*
X64011952Y-10224721D01*
X298390122Y-54650000D02*
X298809877Y-54650000D01*
X254761144Y-12824637D02*
X254716721Y-12804946D01*
X297881039Y-54790851D02*
X297923318Y-54766900D01*
X93707368Y-109197380D02*
X93692125Y-109243519D01*
X255140122Y-10000000D02*
X298809877Y-10000000D01*
X55455173Y-10400259D02*
X55483152Y-10439987D01*
X309171358Y-119827928D02*
X309260302Y-119787168D01*
X254406460Y-12574841D02*
X254374721Y-12538047D01*
X17598327Y-69340314D02*
X17599564Y-69389910D01*
X296840804Y-106886710D02*
X296909023Y-106812145D01*
X365989Y-227069D02*
X301986Y-284651D01*
X10029671Y-109150549D02*
X10019025Y-109103138D01*
X246074637Y-12288855D02*
X246054946Y-12333278D01*
X55639281Y-10844737D02*
X55645229Y-10892963D01*
X295986789Y-107411690D02*
X296082623Y-107379601D01*
X208007368Y-109197380D02*
X207992125Y-109243519D01*
X10400259Y-10194826D02*
X10439987Y-10166847D01*
X299800000Y-45659877D02*
X299798804Y-45708576D01*
X12645441Y-106459375D02*
X12709545Y-106568292D01*
X207526681Y-107616900D02*
X207568960Y-107640851D01*
X24660035Y-12806440D02*
X24615903Y-12825826D01*
X299575278Y-46288047D02*
X299543539Y-46324841D01*
X216375158Y-109643539D02*
X216339966Y-109610033D01*
X55324841Y-10256460D02*
X55360033Y-10289966D01*
X93745229Y-108392963D02*
X93748804Y-108441423D01*
X10000000Y-108909877D02*
X10000000Y-55640122D01*
X297624721Y-55011952D02*
X297656460Y-54975158D01*
X299143519Y-54707874D02*
X299188855Y-54725362D01*
X93183278Y-109804946D02*
X93138855Y-109824637D01*
X101769025Y-108296861D02*
X101779671Y-108249450D01*
X10256460Y-109574841D02*
X10224721Y-109538047D01*
X16588770Y-70744522D02*
X16501596Y-70766719D01*
X17585436Y-69201382D02*
X17593614Y-69270687D01*
X11458576Y-54651195D02*
X11507036Y-54654770D01*
X292521804Y-68507619D02*
X292568386Y-68454155D01*
X13013107Y-13459372D02*
X12959195Y-13513289D01*
X299704946Y-55216721D02*
X299724637Y-55261144D01*
X208045229Y-108392963D02*
X208048804Y-108441423D01*
X628641Y-72071D02*
X539697Y-112831D01*
X36767593Y-12881105D02*
X36720339Y-12870532D01*
X10892963Y-109895229D02*
X10844737Y-109889281D01*
X55455173Y-12499740D02*
X55425278Y-12538047D01*
X17399496Y-70121173D02*
X17350691Y-70196739D01*
X914240Y-119895786D02*
X1012272Y-119900000D01*
X299399740Y-10194826D02*
X299438047Y-10224721D01*
X12370328Y-45900549D02*
X12357368Y-45947380D01*
X101916847Y-107939987D02*
X101944826Y-107900259D01*
X246092125Y-10656480D02*
X246107368Y-10702619D01*
X518076Y-124388D02*
X444394Y-168919D01*
X13088044Y-13390808D02*
X13013107Y-13459372D01*
X17511710Y-68911839D02*
X17540359Y-68997112D01*
X25091217Y-12414933D02*
X25058727Y-12466474D01*
X216274721Y-109538047D02*
X216244826Y-109499740D01*
X309101839Y-47194D02*
X309006994Y-22196D01*
X12038047Y-54874721D02*
X12074841Y-54906460D01*
X12205173Y-55050259D02*
X12233152Y-55089987D01*
X12403512Y-105613677D02*
X12411861Y-105714903D01*
X246150000Y-11909877D02*
X246148804Y-11958576D01*
X17540359Y-68997112D02*
X17553796Y-69044869D01*
X298341423Y-54651195D02*
X298390122Y-54650000D01*
X299704946Y-46083278D02*
X299683099Y-46126681D01*
X101890851Y-109418960D02*
X101866900Y-109376681D01*
X216050000Y-108490122D02*
X216051195Y-108441423D01*
X10400259Y-46455173D02*
X10361952Y-46425278D01*
X17593614Y-69270687D02*
X17598327Y-69340314D01*
X245400549Y-10029671D02*
X245447380Y-10042631D01*
X10439987Y-10166847D02*
X10481039Y-10140851D01*
X101825362Y-109288855D02*
X101807874Y-109243519D01*
X299438047Y-10224721D02*
X299474841Y-10256460D01*
X10611144Y-54725362D02*
X10656480Y-54707874D01*
X297397744Y-105588887D02*
X297400000Y-105493666D01*
X102361144Y-107575362D02*
X102406480Y-107557874D01*
X10990122Y-54650000D02*
X11409877Y-54650000D01*
X12657733Y-13918478D02*
X12610141Y-14008208D01*
X298858576Y-46648804D02*
X298809877Y-46650000D01*
X63725362Y-12288855D02*
X63707874Y-12243519D01*
X297839987Y-46483152D02*
X297800259Y-46455173D01*
X208030974Y-108296861D02*
X208039281Y-108344737D01*
X528530Y-119781537D02*
X606222Y-119818632D01*
X295913240Y-12967264D02*
X295814937Y-12943803D01*
X254716721Y-10095053D02*
X254761144Y-10075362D01*
X10566721Y-109804946D02*
X10523318Y-109783099D01*
X309756577Y-709568D02*
X309723692Y-617659D01*
X299003138Y-10019025D02*
X299050549Y-10029671D01*
X64446861Y-10019025D02*
X64494737Y-10010718D01*
X296786710Y-13459195D02*
X296712145Y-13390976D01*
X299795229Y-45757036D02*
X299789281Y-45805262D01*
X54659877Y-12900000D02*
X36960192Y-12900000D01*
X299318960Y-54790851D02*
X299360012Y-54816847D01*
X292821277Y-70562943D02*
X292763374Y-70522009D01*
X254589987Y-10166847D02*
X254631039Y-10140851D01*
X207568960Y-109759148D02*
X207526681Y-109783099D01*
X93525278Y-107861952D02*
X93555173Y-107900259D01*
X246139281Y-10844737D02*
X246145229Y-10892963D01*
X93555173Y-107900259D02*
X93583152Y-107939987D01*
X64089987Y-12733152D02*
X64050259Y-12705173D01*
X10224721Y-55011952D02*
X10256460Y-54975158D01*
X10140851Y-10481039D02*
X10166847Y-10439987D01*
X11697380Y-46607368D02*
X11650549Y-46620328D01*
X245159877Y-10000000D02*
X245208576Y-10001195D01*
X254511952Y-10224721D02*
X254550259Y-10194826D01*
X309756720Y-119189961D02*
X309780438Y-119095271D01*
X207954946Y-108066721D02*
X207974637Y-108111144D01*
X297404770Y-55542963D02*
X297410718Y-55494737D01*
X207610012Y-109733152D02*
X207568960Y-109759148D01*
X92905262Y-107510718D02*
X92953138Y-107519025D01*
X254673318Y-10116900D02*
X254716721Y-10095053D01*
X292296500Y-69909642D02*
X292272360Y-69842967D01*
X55210012Y-10166847D02*
X55249740Y-10194826D01*
X299798804Y-45708576D02*
X299795229Y-45757036D01*
X12400000Y-55640122D02*
X12400912Y-67993997D01*
X216339966Y-109610033D02*
X216306460Y-109574841D01*
X10000000Y-45659877D02*
X10000000Y-10990122D01*
X10166847Y-10439987D02*
X10194826Y-10400259D01*
X16829518Y-70650036D02*
X16766426Y-70679861D01*
X299233278Y-46554946D02*
X299188855Y-46574637D01*
X10194826Y-10400259D02*
X10224721Y-10361952D01*
X55210012Y-12733152D02*
X55168960Y-12759148D01*
X216942963Y-107504770D02*
X216991423Y-107501195D01*
X292707619Y-70478195D02*
X292654155Y-70431613D01*
X102316721Y-109804946D02*
X102273318Y-109783099D01*
X10844737Y-10010718D02*
X10892963Y-10004770D01*
X297103583Y-13852772D02*
X297048498Y-13768041D01*
X12438752Y-14509623D02*
X12421497Y-14609460D01*
X101916847Y-109460012D02*
X101890851Y-109418960D01*
X55554946Y-10566721D02*
X55574637Y-10611144D01*
X216125362Y-109288855D02*
X216107874Y-109243519D01*
X309637778Y-454956D02*
X309580321Y-375464D01*
X207825278Y-109538047D02*
X207793539Y-109574841D01*
X93349740Y-107694826D02*
X93388047Y-107724721D01*
X254439966Y-12610033D02*
X254406460Y-12574841D01*
X246130974Y-12103138D02*
X246120328Y-12150549D01*
X207954946Y-109333278D02*
X207933099Y-109376681D01*
X246054946Y-12333278D02*
X246033099Y-12376681D01*
X309006994Y-22196D02*
X308982950Y-17413D01*
X297656460Y-54975158D02*
X297689966Y-54939966D01*
X63707874Y-10656480D02*
X63725362Y-10611144D01*
X297048498Y-13768041D02*
X296973545Y-13665969D01*
X63790851Y-10481039D02*
X63816847Y-10439987D01*
X284651Y-301986D02*
X227069Y-365989D01*
X293503949Y-68003711D02*
X293612605Y-68000000D01*
X6616Y-889843D02*
X4213Y-914240D01*
X12941921Y-106868534D02*
X13013289Y-106940804D01*
X298907036Y-54654770D02*
X298955262Y-54660718D01*
X292332546Y-69993640D02*
X292296500Y-69909642D01*
X93093519Y-109842125D02*
X93047380Y-109857368D01*
X10844737Y-109889281D02*
X10796861Y-109880974D01*
X299704946Y-10566721D02*
X299724637Y-10611144D01*
X36138797Y-12462815D02*
X36101906Y-12404156D01*
X55592125Y-10656480D02*
X55607368Y-10702619D01*
X10361952Y-54874721D02*
X10400259Y-54844826D01*
X24288117Y-12898823D02*
X24239807Y-12899999D01*
X10140851Y-55131039D02*
X10166847Y-55089987D01*
X24570880Y-12843041D02*
X24525073Y-12858044D01*
X207649740Y-107694826D02*
X207688047Y-107724721D01*
X24786049Y-12735740D02*
X24745209Y-12761344D01*
X36094157Y-12400161D02*
X25112457Y-12400000D01*
X17025178Y-68269529D02*
X17064726Y-68299485D01*
X12529194Y-106206375D02*
X12567373Y-106300223D01*
X227069Y-119534010D02*
X284651Y-119598013D01*
X299575278Y-10361952D02*
X299605173Y-10400259D01*
X102740122Y-107499999D02*
X207059877Y-107499999D01*
X297725158Y-54906460D02*
X297761952Y-54874721D01*
X10702619Y-10042631D02*
X10749450Y-10029671D01*
X297400000Y-45659877D02*
X297400000Y-14906333D01*
X101807874Y-108156480D02*
X101825362Y-108111144D01*
X216079671Y-108249450D02*
X216092631Y-108202619D01*
X309434010Y-119672930D02*
X309498013Y-119615348D01*
X245749740Y-10194826D02*
X245788047Y-10224721D01*
X254806480Y-12842125D02*
X254761144Y-12824637D01*
X17278614Y-68508105D02*
X17321730Y-68562979D01*
X12398804Y-45708576D02*
X12395229Y-45757036D01*
X54659877Y-10000000D02*
X54708576Y-10001195D01*
X10439987Y-109733152D02*
X10400259Y-109705173D01*
X217040122Y-107499999D02*
X295393666Y-107500000D01*
X11743519Y-46592125D02*
X11697380Y-46607368D01*
X297761952Y-46425278D02*
X297725158Y-46393539D01*
X299683099Y-109376681D02*
X299659148Y-109418960D01*
X63939966Y-10289966D02*
X63975158Y-10256460D01*
X24863751Y-12678726D02*
X24825594Y-12708179D01*
X10004770Y-45757036D02*
X10001195Y-45708576D01*
X54757036Y-12895229D02*
X54708576Y-12898804D01*
X299360012Y-109733152D02*
X299318960Y-109759148D01*
X299575278Y-109538047D02*
X299543539Y-109574841D01*
X101750000Y-108490122D02*
X101751195Y-108441423D01*
X17424302Y-68721791D02*
X17465341Y-68801841D01*
X10075362Y-46038855D02*
X10057874Y-45993519D01*
X296711954Y-107009190D02*
X296768719Y-106957906D01*
X101866900Y-108023318D02*
X101890851Y-107981039D01*
X16294528Y-68003594D02*
X16384038Y-68012551D01*
X10990122Y-46650000D02*
X10941423Y-46648804D01*
X216752619Y-107542631D02*
X216799450Y-107529671D01*
X11960012Y-54816847D02*
X11999740Y-54844826D01*
X208045229Y-109007036D02*
X208039281Y-109055262D01*
X297475362Y-55261144D02*
X297495053Y-55216721D01*
X245668960Y-10140851D02*
X245710012Y-10166847D01*
X10481039Y-46509148D02*
X10439987Y-46483152D01*
X11507036Y-46645229D02*
X11458576Y-46648804D01*
X10439987Y-54816847D02*
X10481039Y-54790851D01*
X245583278Y-12804946D02*
X245538855Y-12824637D01*
X12110033Y-54939966D02*
X12143539Y-54975158D01*
X298955262Y-46639281D02*
X298907036Y-46645229D01*
X17184450Y-68405142D02*
X17219091Y-68440658D01*
X254169025Y-12103138D02*
X254160718Y-12055262D01*
X296989049Y-106714000D02*
X297048356Y-106632168D01*
X297399087Y-67993997D02*
X297400000Y-55640122D01*
X299605173Y-46249740D02*
X299575278Y-46288047D01*
X245710012Y-10166847D02*
X245749740Y-10194826D01*
X207300549Y-109870328D02*
X207253138Y-109880974D01*
X93310012Y-107666847D02*
X93349740Y-107694826D01*
X55630974Y-10796861D02*
X55639281Y-10844737D01*
X10256460Y-46324841D02*
X10224721Y-46288047D01*
X292437056Y-68621277D02*
X292465854Y-68579901D01*
X297429671Y-45900549D02*
X297419025Y-45853138D01*
X10042631Y-109197380D02*
X10029671Y-109150549D01*
X309800000Y-1012272D02*
X309794857Y-901768D01*
X298341423Y-46648804D02*
X298292963Y-46645229D01*
X93000549Y-109870328D02*
X92953138Y-109880974D01*
X17219091Y-68440658D02*
X17278614Y-68508105D01*
X10004770Y-55542963D02*
X10010718Y-55494737D01*
X36582462Y-12825153D02*
X36538165Y-12805594D01*
X297304181Y-14289286D02*
X297270895Y-14193861D01*
X93674637Y-108111144D02*
X93692125Y-108156480D01*
X299633152Y-109460012D02*
X299605173Y-109499740D01*
X10057874Y-10656480D02*
X10075362Y-10611144D01*
X10289966Y-46360033D02*
X10256460Y-46324841D01*
X292508847Y-70276489D02*
X292477990Y-70236625D01*
X299050549Y-54679671D02*
X299097380Y-54692631D01*
X299543539Y-54975158D02*
X299575278Y-55011952D01*
X101974721Y-109538047D02*
X101944826Y-109499740D01*
X12342125Y-45993519D02*
X12324637Y-46038855D01*
X299003138Y-46630974D02*
X298955262Y-46639281D01*
X13985309Y-12943749D02*
X13886515Y-12967330D01*
X10194826Y-46249740D02*
X10166847Y-46210012D01*
X245824841Y-12643539D02*
X245788047Y-12675278D01*
X63745053Y-10566721D02*
X63766900Y-10523318D01*
X606222Y-119818632D02*
X628871Y-119828014D01*
X297923318Y-54766900D02*
X297966721Y-54745053D01*
X93750000Y-108490122D02*
X93750000Y-108909877D01*
X13185796Y-13311102D02*
X13088044Y-13390808D01*
X92808576Y-109898804D02*
X92759877Y-109900000D01*
X93748804Y-108441423D02*
X93750000Y-108490122D01*
X296634030Y-107073545D02*
X296711954Y-107009190D01*
X63790851Y-12418960D02*
X63766900Y-12376681D01*
X207992125Y-108156480D02*
X208007368Y-108202619D01*
X295814937Y-12943803D02*
X295690288Y-12921462D01*
X297966721Y-54745053D02*
X298011144Y-54725362D01*
X63679671Y-10749450D02*
X63692631Y-10702619D01*
X245983152Y-12460012D02*
X245955173Y-12499740D01*
X10042631Y-45947380D02*
X10029671Y-45900549D01*
X102452619Y-107542631D02*
X102499450Y-107529671D01*
X309793383Y-119010156D02*
X309795786Y-118985759D01*
X293343000Y-70775790D02*
X293293620Y-70765642D01*
X299683099Y-46126681D02*
X299659148Y-46168960D01*
X246150000Y-10990122D02*
X246150000Y-11909877D01*
X293137631Y-70721008D02*
X293090357Y-70703499D01*
X254511952Y-12675278D02*
X254475158Y-12643539D01*
X102452619Y-109857368D02*
X102406480Y-109842125D01*
X63692631Y-12197380D02*
X63679671Y-12150549D01*
X296909190Y-13588045D02*
X296840804Y-13513289D01*
X16701926Y-70706504D02*
X16636178Y-70729899D01*
X254374721Y-12538047D02*
X254344826Y-12499740D01*
X12412272Y-68000000D02*
X16212401Y-68000309D01*
X207300549Y-107529671D02*
X207347380Y-107542631D01*
X11555262Y-46639281D02*
X11507036Y-46645229D01*
X299276681Y-54766900D02*
X299318960Y-54790851D01*
X63939966Y-12610033D02*
X63906460Y-12574841D01*
X297442631Y-55352619D02*
X297457874Y-55306480D01*
X254899450Y-12870328D02*
X254852619Y-12857368D01*
X93525278Y-109538047D02*
X93493539Y-109574841D01*
X216306460Y-107825158D02*
X216339966Y-107789966D01*
X63816847Y-12460012D02*
X63790851Y-12418960D01*
X10844737Y-46639281D02*
X10796861Y-46630974D01*
X24431539Y-12881277D02*
X24384036Y-12889452D01*
X207974637Y-108111144D02*
X207992125Y-108156480D01*
X254475158Y-12643539D02*
X254439966Y-12610033D01*
X297457874Y-45993519D02*
X297442631Y-45947380D01*
X55574637Y-10611144D02*
X55592125Y-10656480D01*
X12421497Y-105790539D02*
X12438704Y-105890127D01*
X254316847Y-10439987D02*
X254344826Y-10400259D01*
X11409877Y-54650000D02*
X11458576Y-54651195D01*
X101792631Y-109197380D02*
X101779671Y-109150549D01*
X64494737Y-10010718D02*
X64542963Y-10004770D01*
X93692125Y-109243519D02*
X93674637Y-109288855D01*
X16501596Y-70766719D02*
X16452967Y-70776550D01*
X298011144Y-46574637D02*
X297966721Y-46554946D01*
X17511710Y-69888160D02*
X17485746Y-69952936D01*
X10289966Y-54939966D02*
X10325158Y-54906460D01*
X293273647Y-68038992D02*
X293363182Y-68020592D01*
X64352619Y-10042631D02*
X64399450Y-10029671D01*
X298056480Y-54707874D02*
X298102619Y-54692631D01*
X216991423Y-107501195D02*
X217040122Y-107499999D01*
X101974721Y-107861952D02*
X102006460Y-107825158D01*
X309498013Y-119615348D02*
X309515348Y-119598013D01*
X298907036Y-46645229D02*
X298858576Y-46648804D01*
X292437056Y-70178722D02*
X292388705Y-70101151D01*
X55083278Y-12804946D02*
X55038855Y-12824637D01*
X245257036Y-12895229D02*
X245208576Y-12898804D01*
X295393666Y-107500000D02*
X295488887Y-107497744D01*
X297387727Y-70800000D02*
X293587398Y-70799680D01*
X10892963Y-54654770D02*
X10941423Y-54651195D01*
X216079671Y-109150549D02*
X216069025Y-109103138D01*
X297442631Y-45947380D02*
X297429671Y-45900549D01*
X297356196Y-105914937D02*
X297378537Y-105790288D01*
X101754770Y-108392963D02*
X101760718Y-108344737D01*
X292961099Y-70645252D02*
X292881179Y-70600892D01*
X11555262Y-54660718D02*
X11603138Y-54669025D01*
X102691423Y-109898804D02*
X102642963Y-109895229D01*
X16212401Y-68000309D02*
X16294528Y-68003594D01*
X297374743Y-14584924D02*
X297361246Y-14509623D01*
X25058727Y-12466474D02*
X25030671Y-12505669D01*
X54900549Y-10029671D02*
X54947380Y-10042631D01*
X16452967Y-68023449D02*
X16501596Y-68033280D01*
X299605173Y-109499740D02*
X299575278Y-109538047D01*
X308982950Y-17413D02*
X308897743Y-5094D01*
X299742125Y-45993519D02*
X299724637Y-46038855D01*
X254290851Y-10481039D02*
X254316847Y-10439987D01*
X246092125Y-12243519D02*
X246074637Y-12288855D01*
X293363182Y-68020592D02*
X293433352Y-68010368D01*
X309515348Y-119598013D02*
X309572930Y-119534010D01*
X299798804Y-10941423D02*
X299800000Y-10990122D01*
X10166847Y-109460012D02*
X10140851Y-109418960D01*
X299770328Y-10749450D02*
X299780974Y-10796861D01*
X299360012Y-54816847D02*
X299399740Y-54844826D01*
X12696415Y-13852772D02*
X12657733Y-13918478D01*
X63725362Y-10611144D02*
X63745053Y-10566721D01*
X309089961Y-119856720D02*
X309171358Y-119827928D01*
X296381301Y-13157607D02*
X296292017Y-13110256D01*
X101751195Y-108958576D02*
X101750000Y-108909877D01*
X245893539Y-12574841D02*
X245860033Y-12610033D01*
X11833278Y-46554946D02*
X11788855Y-46574637D01*
X10611144Y-46574637D02*
X10566721Y-46554946D01*
X12324637Y-55261144D02*
X12342125Y-55306480D01*
X246107368Y-10702619D02*
X246120328Y-10749450D01*
X207883152Y-107939987D02*
X207909148Y-107981039D01*
X63669025Y-10796861D02*
X63679671Y-10749450D01*
X12380974Y-55446861D02*
X12389281Y-55494737D01*
X10656480Y-109842125D02*
X10611144Y-109824637D01*
X63707874Y-12243519D02*
X63692631Y-12197380D01*
X298149450Y-46620328D02*
X298102619Y-46607368D01*
X102273318Y-107616900D02*
X102316721Y-107595053D01*
X102499450Y-109870328D02*
X102452619Y-109857368D01*
X299188855Y-46574637D02*
X299143519Y-46592125D01*
X13331707Y-107190454D02*
X13418478Y-107242266D01*
X24336190Y-12895305D02*
X24288117Y-12898823D01*
X246120328Y-12150549D02*
X246107368Y-12197380D01*
X298292963Y-46645229D02*
X298244737Y-46639281D01*
X208050000Y-108909877D02*
X208048804Y-108958576D01*
X10941423Y-10001195D02*
X10990122Y-10000000D01*
X297270895Y-14193861D02*
X297232729Y-14100008D01*
X293090357Y-70703499D02*
X293024990Y-70676013D01*
X64011952Y-10224721D02*
X64050259Y-10194826D01*
X298244737Y-46639281D02*
X298196861Y-46630974D01*
X217040122Y-109900000D02*
X216991423Y-109898804D01*
X13813210Y-107411690D02*
X13886759Y-107432736D01*
X298907036Y-10004770D02*
X298955262Y-10010718D01*
X0Y-118887727D02*
X5094Y-118997743D01*
X296200223Y-107332626D02*
X296291791Y-107289858D01*
X36098490Y-12401270D02*
X36094157Y-12400161D01*
X10796861Y-109880974D02*
X10749450Y-109870328D01*
X10029671Y-10749450D02*
X10042631Y-10702619D01*
X168919Y-119455605D02*
X227069Y-119534010D01*
X216054770Y-109007036D02*
X216051195Y-108958576D01*
X299724637Y-46038855D02*
X299704946Y-46083278D01*
M02*
