M48
; DRILL file {KiCad (6.0.7)} date Fri Oct 14 17:00:14 2022
; FORMAT={-:-/ absolute / inch / decimal}
; #@! TF.CreationDate,2022-10-14T17:00:14+02:00
; #@! TF.GenerationSoftware,Kicad,Pcbnew,(6.0.7)
; #@! TF.FileFunction,Plated,1,2,PTH
FMAT,2
INCH
; #@! TA.AperFunction,Plated,PTH,ViaDrill
T1C0.0118
; #@! TA.AperFunction,Plated,PTH,ViaDrill
T2C0.0157
; #@! TA.AperFunction,Plated,PTH,ComponentDrill
T3C0.0197
; #@! TA.AperFunction,Plated,PTH,ComponentDrill
T4C0.0236
; #@! TA.AperFunction,Plated,PTH,ComponentDrill
T5C0.0394
; #@! TA.AperFunction,Plated,PTH,ComponentDrill
T6C0.0409
; #@! TA.AperFunction,Plated,PTH,ComponentDrill
T7C0.0551
; #@! TA.AperFunction,Plated,PTH,ComponentDrill
T8C0.0579
; #@! TA.AperFunction,Plated,PTH,ComponentDrill
T9C0.0984
%
G90
G05
T1
X1.5295Y-3.3346
X1.5354Y-3.3681
X1.5551Y-3.3189
X1.563Y-3.2402
X1.5906Y-3.2638
X1.6004Y-4.0551
X1.6024Y-4.0217
X1.6201Y-4.0866
X1.6457Y-2.5118
X1.6457Y-2.5512
X1.6457Y-2.6457
X1.6575Y-1.8346
X1.7008Y-2.3268
X1.7185Y-1.2579
X1.7205Y-4.5394
X1.7205Y-4.5748
X1.7461Y-3.2618
X1.7854Y-2.6535
X1.7913Y-3.1496
X1.7913Y-3.185
X1.7953Y-2.1378
X1.7992Y-4.0551
X1.7992Y-4.1496
X1.8031Y-2.5512
X1.8051Y-3.3051
X1.815Y-3.2461
X1.8209Y-3.9559
X1.8228Y-3.3917
X1.8543Y-2.5118
X1.8563Y-3.0236
X1.878Y-3.1398
X1.8819Y-3.0433
X1.9035Y-3.378
X1.9075Y-3.0236
X2.0118Y-1.2323
X2.0138Y-3.4921
X2.0197Y-3.0591
X2.0236Y-3.2559
X2.0354Y-2.9665
X2.0374Y-3.3563
X2.0531Y-3.2264
X2.0531Y-3.2854
X2.0669Y-1.626
X2.0827Y-3.1969
X2.0827Y-3.2559
X2.0827Y-3.315
X2.1024Y-1.1969
X2.1083Y-3.1398
X2.1122Y-3.2264
X2.1122Y-3.2854
X2.1417Y-3.2559
X2.1654Y-1.626
X2.1693Y-4.7087
X2.189Y-1.815
X2.189Y-2.3917
X2.189Y-2.498
X2.189Y-2.5472
X2.189Y-2.6339
X2.2047Y-4.3661
X2.2067Y-3.1339
X2.2106Y-2.8406
X2.2165Y-1.8543
X2.2362Y-3.4528
X2.248Y-2.8406
X2.2559Y-3.0276
X2.2697Y-2.3917
X2.2697Y-2.498
X2.2697Y-2.5472
X2.2697Y-2.6339
X2.3012Y-3.4449
X2.3287Y-3.6496
X2.376Y-3.185
X2.3858Y-4.7598
X2.3937Y-4.0551
X2.4016Y-3.2697
X2.4488Y-4.626
X2.4882Y-2.5433
X2.4882Y-3.2264
X2.514Y-2.1081
X2.5866Y-1.9685
X2.6575Y-1.7559
X2.6929Y-2.563
X2.6969Y-1.8425
X2.7126Y-4.5709
X2.7244Y-2.3661
X2.7323Y-1.8031
X2.7421Y-3.0394
X3.1142Y-3.2067
X3.1772Y-4.0551
X3.1811Y-1.8031
X3.1811Y-2.5512
X3.2028Y-4.002
X3.3346Y-1.9685
X3.4488Y-3.9961
X3.5079Y-3.061
X3.9291Y-1.8031
X3.9291Y-2.5512
X3.9291Y-4.0551
X3.9528Y-3.128
X3.9528Y-3.1969
X4.0906Y-1.9665
X4.6811Y-1.8031
X4.6811Y-2.5512
X4.7008Y-3.9892
X5.3346Y-4.0472
X5.4291Y-1.8031
X5.4291Y-2.5512
X5.9823Y-3.7165
X6.003Y-3.748
X6.0197Y-3.7756
X6.0335Y-2.0906
X6.0512Y-2.4685
X6.0512Y-3.7874
X6.0709Y-2.0906
X6.1339Y-3.1929
X6.1496Y-3.1299
X6.1811Y-1.8031
X6.2244Y-1.8031
X6.2795Y-1.3465
X6.3346Y-1.9311
X6.4508Y-3.3231
X6.4516Y-3.9106
X6.4525Y-2.5981
X6.4528Y-2.0106
X6.4685Y-3.1024
X6.5709Y-1.7303
X6.7598Y-1.811
X6.8701Y-1.937
X7.0118Y-1.8681
X7.0453Y-1.8681
X7.1437Y-1.7894
X7.1654Y-2.4921
X7.189Y-2.4587
X7.2008Y-2.0106
X7.2008Y-2.5981
X7.2008Y-3.3231
X7.2008Y-3.9106
X7.5157Y-1.8031
X7.563Y-1.3465
X7.5866Y-4.0512
X7.5906Y-4.1535
X7.6811Y-1.8031
X7.6811Y-2.5512
X8.4173Y-4.1732
X8.4291Y-1.8031
X8.4291Y-2.5512
X8.4291Y-4.0472
X9.1811Y-1.8031
X9.1811Y-2.5512
X9.2087Y-4.0335
X9.364Y-1.8514
X9.9291Y-1.8031
X9.9291Y-2.5512
X9.9291Y-4.0551
X10.114Y-1.8506
X10.6811Y-1.8031
X10.6811Y-2.5512
X10.6811Y-4.0551
X10.864Y-1.8506
X11.6181Y-1.8031
X11.6181Y-2.5512
X11.6181Y-4.0551
X11.7756Y-1.9606
T2
X1.626Y-1.3543
X1.6975Y-1.3655
X1.8904Y-1.3661
X1.8917Y-1.498
X1.939Y-1.3661
X1.9724Y-1.7756
X2.0669Y-1.4055
X2.0945Y-1.7756
X2.1614Y-1.4055
X2.5236Y-1.5945
T3
X1.1496Y-3.2283
X1.1496Y-3.4173
X1.2283Y-3.2283
X1.2283Y-3.4173
X1.2953Y-3.2559
X1.2953Y-3.3898
X1.3228Y-3.3228
X1.9803Y-2.1969
X2.0068Y-2.1328
X2.0068Y-2.2609
X2.0709Y-2.1063
X2.0709Y-2.2874
X2.1349Y-2.1328
X2.1349Y-2.2609
X2.1614Y-2.1969
X6.6417Y-2.8583
X6.6417Y-3.0394
X6.689Y-2.8583
X6.689Y-3.0394
X6.7362Y-2.8583
X6.7362Y-3.0394
X8.8917Y-4.3622
X8.8917Y-4.5433
X8.939Y-4.3622
X8.939Y-4.5433
X8.9862Y-4.3622
X8.9862Y-4.5433
X11.2697Y-2.1063
X11.2697Y-2.2874
X11.3169Y-2.1063
X11.3169Y-2.2874
X11.3642Y-2.1056
X11.3642Y-2.2874
X12.0551Y-3.3228
X12.0827Y-3.2559
X12.0827Y-3.3898
X12.1496Y-3.2283
X12.1496Y-3.4173
X12.2283Y-3.2283
X12.2283Y-3.4173
T5
X1.1378Y-3.626
X1.1378Y-3.726
X1.1378Y-3.826
X1.1378Y-3.926
X2.4656Y-4.189
X2.4656Y-4.7598
X2.564Y-4.7598
X2.6624Y-4.189
X2.6624Y-4.7598
T6
X1.5765Y-2.4106
X1.5765Y-3.1606
X1.5765Y-3.9106
X1.5765Y-4.6606
X1.6765Y-2.4106
X1.6765Y-3.1606
X1.6765Y-3.9106
X1.6765Y-4.6606
X1.8265Y-1.4106
X1.8265Y-1.5106
X2.514Y-1.6606
X2.514Y-2.4106
X2.514Y-3.1606
X2.514Y-3.9106
X2.514Y-4.6606
X2.614Y-1.6606
X2.614Y-2.4106
X2.614Y-3.1606
X2.614Y-3.9106
X2.614Y-4.6606
X3.264Y-1.6606
X3.264Y-2.4106
X3.264Y-3.1606
X3.264Y-3.9106
X3.264Y-4.6606
X3.364Y-1.6606
X3.364Y-2.4106
X3.364Y-3.1606
X3.364Y-3.9106
X3.364Y-4.6606
X3.4515Y-4.6606
X3.5515Y-4.6606
X4.014Y-1.6606
X4.014Y-2.4106
X4.014Y-3.1606
X4.014Y-3.9106
X4.014Y-4.6606
X4.114Y-1.6606
X4.114Y-2.4106
X4.114Y-3.1606
X4.114Y-3.9106
X4.114Y-4.6606
X4.764Y-1.6606
X4.764Y-2.4106
X4.764Y-3.1606
X4.764Y-3.9106
X4.764Y-4.6606
X4.864Y-1.6606
X4.864Y-2.4106
X4.864Y-3.1606
X4.864Y-3.9106
X4.864Y-4.6606
X5.139Y-4.6606
X5.239Y-4.6606
X5.514Y-1.6606
X5.514Y-2.4106
X5.514Y-3.1606
X5.514Y-3.9106
X5.514Y-4.6606
X5.614Y-1.6606
X5.614Y-2.4106
X5.614Y-3.1606
X5.614Y-3.9106
X5.614Y-4.6606
X5.889Y-4.6606
X5.989Y-4.6606
X6.264Y-1.6606
X6.264Y-2.0106
X6.264Y-2.5981
X6.264Y-3.1606
X6.264Y-3.3231
X6.264Y-3.9106
X6.264Y-4.6606
X6.364Y-1.6606
X6.364Y-2.0106
X6.364Y-2.5981
X6.364Y-3.1606
X6.364Y-3.3231
X6.364Y-3.9106
X6.364Y-4.6606
X6.639Y-4.6606
X6.739Y-4.6606
X7.014Y-1.6606
X7.014Y-2.0106
X7.014Y-2.5981
X7.014Y-3.1606
X7.014Y-3.3231
X7.014Y-3.9106
X7.014Y-4.6606
X7.114Y-1.6606
X7.114Y-2.0106
X7.114Y-2.5981
X7.114Y-3.1606
X7.114Y-3.3231
X7.114Y-3.9106
X7.114Y-4.6606
X7.389Y-4.6606
X7.489Y-4.6606
X7.764Y-1.6606
X7.764Y-2.4106
X7.764Y-3.1606
X7.764Y-3.9106
X7.764Y-4.6606
X7.864Y-1.6606
X7.864Y-2.4106
X7.864Y-3.1606
X7.864Y-3.9106
X7.864Y-4.6606
X8.139Y-4.6606
X8.239Y-4.6606
X8.514Y-1.6606
X8.514Y-2.4106
X8.514Y-3.1606
X8.514Y-3.9106
X8.514Y-4.6606
X8.614Y-1.6606
X8.614Y-2.4106
X8.614Y-3.1606
X8.614Y-3.9106
X8.614Y-4.6606
X9.264Y-1.6606
X9.264Y-2.4106
X9.264Y-3.1606
X9.264Y-3.9106
X9.264Y-4.6606
X9.364Y-1.6606
X9.364Y-2.4106
X9.364Y-3.1606
X9.364Y-3.9106
X9.364Y-4.6606
X9.8265Y-4.6606
X9.9265Y-4.6606
X10.014Y-1.6606
X10.014Y-2.4106
X10.014Y-3.1606
X10.014Y-3.9106
X10.014Y-4.6606
X10.114Y-1.6606
X10.114Y-2.4106
X10.114Y-3.1606
X10.114Y-3.9106
X10.114Y-4.6606
X10.764Y-1.6606
X10.764Y-2.4106
X10.764Y-3.1606
X10.764Y-3.9106
X10.764Y-4.6606
X10.864Y-1.6606
X10.864Y-2.4106
X10.864Y-3.1606
X10.864Y-3.9106
X10.864Y-4.6606
X11.7015Y-1.6606
X11.7015Y-2.4106
X11.7015Y-3.1606
X11.7015Y-3.9106
X11.7015Y-4.6606
X11.8015Y-1.6606
X11.8015Y-2.4106
X11.8015Y-3.1606
X11.8015Y-3.9106
X11.8015Y-4.6606
T8
X1.4265Y-1.3606
X1.4765Y-2.1106
X1.4765Y-2.8606
X1.4765Y-3.6106
X1.4765Y-4.3606
X1.5265Y-1.6106
X1.7265Y-2.0106
X1.7265Y-2.7606
X1.7265Y-3.5106
X1.7265Y-4.2606
X2.414Y-1.3606
X2.414Y-2.1106
X2.414Y-2.8606
X2.414Y-3.6106
X2.414Y-4.3606
X2.664Y-1.2606
X2.664Y-2.0106
X2.664Y-2.7606
X2.664Y-3.5106
X2.664Y-4.2606
X3.164Y-1.3606
X3.164Y-2.1106
X3.164Y-2.8606
X3.164Y-3.6106
X3.164Y-4.3606
X3.3515Y-4.3606
X3.414Y-1.2606
X3.414Y-2.0106
X3.414Y-2.7606
X3.414Y-3.5106
X3.414Y-4.2606
X3.6015Y-4.2606
X3.914Y-1.3606
X3.914Y-2.1106
X3.914Y-2.8606
X3.914Y-3.6106
X3.914Y-4.3606
X4.164Y-1.2606
X4.164Y-2.0106
X4.164Y-2.7606
X4.164Y-3.5106
X4.164Y-4.2606
X4.664Y-1.3606
X4.664Y-2.1106
X4.664Y-2.8606
X4.664Y-3.6106
X4.664Y-4.3606
X4.914Y-1.2606
X4.914Y-2.0106
X4.914Y-2.7606
X4.914Y-3.5106
X4.914Y-4.2606
X5.039Y-4.3606
X5.289Y-4.2606
X5.414Y-1.3606
X5.414Y-2.1106
X5.414Y-2.8606
X5.414Y-3.6106
X5.414Y-4.3606
X5.664Y-1.2606
X5.664Y-2.0106
X5.664Y-2.7606
X5.664Y-3.5106
X5.664Y-4.2606
X5.789Y-4.3606
X6.039Y-4.2606
X6.164Y-1.3606
X6.164Y-2.2981
X6.164Y-2.8606
X6.164Y-3.6106
X6.164Y-4.3606
X6.214Y-2.4106
X6.214Y-3.7231
X6.414Y-1.2606
X6.414Y-2.1981
X6.414Y-2.7606
X6.414Y-3.5106
X6.414Y-4.2606
X6.464Y-2.3106
X6.464Y-3.6231
X6.539Y-4.3606
X6.789Y-4.2606
X6.914Y-1.3606
X6.914Y-2.2981
X6.914Y-2.8606
X6.914Y-3.6106
X6.914Y-4.3606
X6.964Y-2.4106
X6.964Y-3.7231
X7.164Y-1.2606
X7.164Y-2.1981
X7.164Y-2.7606
X7.164Y-3.5106
X7.164Y-4.2606
X7.214Y-2.3106
X7.214Y-3.6231
X7.289Y-4.3606
X7.539Y-4.2606
X7.664Y-1.3606
X7.664Y-2.1106
X7.664Y-2.8606
X7.664Y-3.6106
X7.664Y-4.3606
X7.914Y-1.2606
X7.914Y-2.0106
X7.914Y-2.7606
X7.914Y-3.5106
X7.914Y-4.2606
X8.039Y-4.3606
X8.289Y-4.2606
X8.414Y-1.3606
X8.414Y-2.1106
X8.414Y-2.8606
X8.414Y-3.6106
X8.414Y-4.3606
X8.664Y-1.2606
X8.664Y-2.0106
X8.664Y-2.7606
X8.664Y-3.5106
X8.664Y-4.2606
X9.164Y-1.3606
X9.164Y-2.1106
X9.164Y-2.8606
X9.164Y-3.6106
X9.164Y-4.3606
X9.414Y-1.2606
X9.414Y-2.0106
X9.414Y-2.7606
X9.414Y-3.5106
X9.414Y-4.2606
X9.7265Y-4.3606
X9.914Y-1.3606
X9.914Y-2.1106
X9.914Y-2.8606
X9.914Y-3.6106
X9.914Y-4.3606
X9.9765Y-4.2606
X10.164Y-1.2606
X10.164Y-2.0106
X10.164Y-2.7606
X10.164Y-3.5106
X10.164Y-4.2606
X10.664Y-1.3606
X10.664Y-2.1106
X10.664Y-2.8606
X10.664Y-3.6106
X10.664Y-4.3606
X10.914Y-1.2606
X10.914Y-2.0106
X10.914Y-2.7606
X10.914Y-3.5106
X10.914Y-4.2606
X11.6015Y-1.3606
X11.6015Y-2.1106
X11.6015Y-2.8606
X11.6015Y-3.6106
X11.6015Y-4.3606
X11.8515Y-1.2606
X11.8515Y-2.0106
X11.8515Y-2.7606
X11.8515Y-3.5106
X11.8515Y-4.2606
T9
X2.0709Y-2.1969
T4
G00X1.6239Y-1.1025
M15
G01X1.6239Y-1.1261
M16
G05
G00X1.6239Y-1.2572
M15
G01X1.6239Y-1.3005
M16
G05
G00X1.9641Y-1.1025
M15
G01X1.9641Y-1.1261
M16
G05
G00X1.9641Y-1.2572
M15
G01X1.9641Y-1.3005
M16
G05
T7
G00X2.3435Y-4.4921
M15
G01X2.3435Y-4.437
M16
G05
G00X2.7844Y-4.4921
M15
G01X2.7844Y-4.437
M16
G05
T9
G00X6.6398Y-2.9488
M15
G01X6.7382Y-2.9488
M16
G05
G00X8.8898Y-4.4528
M15
G01X8.9882Y-4.4528
M16
G05
G00X11.2677Y-2.1969
M15
G01X11.3661Y-2.1969
M16
G05
T0
M30
