%TF.GenerationSoftware,KiCad,Pcbnew,(6.0.7)*%
%TF.CreationDate,2022-10-14T17:00:13+02:00*%
%TF.ProjectId,0x42_panel,30783432-5f70-4616-9e65-6c2e6b696361,1*%
%TF.SameCoordinates,Original*%
%TF.FileFunction,Soldermask,Bot*%
%TF.FilePolarity,Negative*%
%FSLAX46Y46*%
G04 Gerber Fmt 4.6, Leading zero omitted, Abs format (unit mm)*
G04 Created by KiCad (PCBNEW (6.0.7)) date 2022-10-14 17:00:13*
%MOMM*%
%LPD*%
G01*
G04 APERTURE LIST*
G04 Aperture macros list*
%AMRoundRect*
0 Rectangle with rounded corners*
0 $1 Rounding radius*
0 $2 $3 $4 $5 $6 $7 $8 $9 X,Y pos of 4 corners*
0 Add a 4 corners polygon primitive as box body*
4,1,4,$2,$3,$4,$5,$6,$7,$8,$9,$2,$3,0*
0 Add four circle primitives for the rounded corners*
1,1,$1+$1,$2,$3*
1,1,$1+$1,$4,$5*
1,1,$1+$1,$6,$7*
1,1,$1+$1,$8,$9*
0 Add four rect primitives between the rounded corners*
20,1,$1+$1,$2,$3,$4,$5,0*
20,1,$1+$1,$4,$5,$6,$7,0*
20,1,$1+$1,$6,$7,$8,$9,0*
20,1,$1+$1,$8,$9,$2,$3,0*%
%AMFreePoly0*
4,1,105,-2.399651,3.424998,-2.371729,3.424608,-2.368945,3.424413,-2.355336,3.422694,-2.043295,3.406340,-2.040692,3.406066,-1.689189,3.350394,-1.686630,3.349850,-1.342872,3.257740,-1.340383,3.256932,-1.008136,3.129395,-1.005745,3.128330,-0.688650,2.966761,-0.686384,2.965453,-0.387914,2.771625,-0.385797,2.770087,-0.109223,2.546121,-0.107278,2.544370,0.144370,2.292722,0.146121,2.290777,
0.370087,2.014203,0.371625,2.012086,0.565453,1.713616,0.566761,1.711350,0.728330,1.394255,0.729395,1.391864,0.856932,1.059617,0.857740,1.057128,0.949850,0.713370,0.950394,0.710811,1.006066,0.359308,1.006340,0.356705,1.024966,0.001308,1.024966,-0.001308,1.006340,-0.356705,1.006066,-0.359308,0.950394,-0.710811,0.949850,-0.713370,0.857740,-1.057128,0.856932,-1.059617,
0.729395,-1.391864,0.728330,-1.394255,0.566761,-1.711350,0.565453,-1.713616,0.371625,-2.012086,0.370087,-2.014203,0.146121,-2.290777,0.144370,-2.292722,-0.107278,-2.544370,-0.109223,-2.546121,-0.385797,-2.770087,-0.387914,-2.771625,-0.686384,-2.965453,-0.688650,-2.966761,-1.005745,-3.128330,-1.008136,-3.129395,-1.340383,-3.256932,-1.342872,-3.257740,-1.686630,-3.349850,-1.689189,-3.350394,
-2.040692,-3.406066,-2.043295,-3.406340,-2.398692,-3.424966,-2.400000,-3.425000,-6.200000,-3.425000,-6.217678,-3.417678,-6.225000,-3.400000,-6.225000,-1.400000,-6.217678,-1.382322,-6.200000,-1.375000,-2.400000,-1.375000,-2.397628,-1.375982,-2.388129,-1.375185,-2.383252,-1.375253,-2.369208,-1.376828,-2.184236,-1.362270,-1.973789,-1.311747,-1.773832,-1.228921,-1.589296,-1.115838,-1.424721,-0.975279,
-1.284162,-0.810704,-1.171079,-0.626168,-1.088253,-0.426211,-1.037730,-0.215764,-1.020748,0.000000,-1.037730,0.215764,-1.088253,0.426211,-1.171079,0.626168,-1.284162,0.810704,-1.424721,0.975279,-1.589296,1.115838,-1.773832,1.228921,-1.973789,1.311747,-2.184236,1.362270,-2.381130,1.377767,-2.396420,1.376483,-2.400000,1.375000,-6.200000,1.375000,-6.217678,1.382322,-6.225000,1.400000,
-6.225000,3.400000,-6.217678,3.417678,-6.200000,3.425000,-2.400000,3.425000,-2.399651,3.424998,-2.399651,3.424998,$1*%
G04 Aperture macros list end*
%ADD10C,1.750000*%
%ADD11C,3.987800*%
%ADD12C,2.300000*%
%ADD13C,1.955000*%
%ADD14RoundRect,0.310750X-0.666750X-0.666750X0.666750X-0.666750X0.666750X0.666750X-0.666750X0.666750X0*%
%ADD15C,0.550000*%
%ADD16C,3.048000*%
%ADD17RoundRect,0.280000X0.745000X-0.595000X0.745000X0.595000X-0.745000X0.595000X-0.745000X-0.595000X0*%
%ADD18C,2.050000*%
%ADD19O,2.050000X3.450000*%
%ADD20RoundRect,0.310750X0.666750X0.666750X-0.666750X0.666750X-0.666750X-0.666750X0.666750X-0.666750X0*%
%ADD21C,1.202000*%
%ADD22C,1.050000*%
%ADD23C,7.050000*%
%ADD24FreePoly0,0.000000*%
%ADD25FreePoly0,180.000000*%
%ADD26RoundRect,0.310750X0.666750X-0.666750X0.666750X0.666750X-0.666750X0.666750X-0.666750X-0.666750X0*%
%ADD27RoundRect,0.175000X-0.350000X-0.350000X0.350000X-0.350000X0.350000X0.350000X-0.350000X0.350000X0*%
%ADD28RoundRect,0.275000X0.625000X-0.375000X0.625000X0.375000X-0.625000X0.375000X-0.625000X-0.375000X0*%
%ADD29RoundRect,0.156250X0.306250X0.343750X-0.306250X0.343750X-0.306250X-0.343750X0.306250X-0.343750X0*%
%ADD30RoundRect,0.156250X-0.026517X0.459619X-0.459619X0.026517X0.026517X-0.459619X0.459619X-0.026517X0*%
%ADD31RoundRect,0.025000X0.575000X0.500000X-0.575000X0.500000X-0.575000X-0.500000X0.575000X-0.500000X0*%
%ADD32RoundRect,0.280000X0.595000X0.595000X-0.595000X0.595000X-0.595000X-0.595000X0.595000X-0.595000X0*%
%ADD33O,1.750000X1.750000*%
%ADD34RoundRect,0.156250X-0.306250X-0.343750X0.306250X-0.343750X0.306250X0.343750X-0.306250X0.343750X0*%
%ADD35RoundRect,0.075000X0.220971X0.291682X-0.291682X-0.220971X-0.220971X-0.291682X0.291682X0.220971X0*%
%ADD36RoundRect,0.075000X-0.220971X0.291682X-0.291682X0.220971X0.220971X-0.291682X0.291682X-0.220971X0*%
%ADD37RoundRect,0.275001X0.000000X1.272791X-1.272791X0.000000X0.000000X-1.272791X1.272791X0.000000X0*%
%ADD38RoundRect,0.156250X0.343750X-0.306250X0.343750X0.306250X-0.343750X0.306250X-0.343750X-0.306250X0*%
%ADD39RoundRect,0.175000X-0.625000X0.150000X-0.625000X-0.150000X0.625000X-0.150000X0.625000X0.150000X0*%
%ADD40RoundRect,0.275000X-0.650000X0.350000X-0.650000X-0.350000X0.650000X-0.350000X0.650000X0.350000X0*%
%ADD41RoundRect,0.156250X-0.343750X0.306250X-0.343750X-0.306250X0.343750X-0.306250X0.343750X0.306250X0*%
%ADD42RoundRect,0.062500X0.262500X0.087500X-0.262500X0.087500X-0.262500X-0.087500X0.262500X-0.087500X0*%
%ADD43RoundRect,0.070000X0.105000X0.830000X-0.105000X0.830000X-0.105000X-0.830000X0.105000X-0.830000X0*%
%ADD44RoundRect,0.122500X-0.227500X0.432500X-0.227500X-0.432500X0.227500X-0.432500X0.227500X0.432500X0*%
%ADD45RoundRect,0.075000X0.309359X-0.238649X-0.238649X0.309359X-0.309359X0.238649X0.238649X-0.309359X0*%
%ADD46RoundRect,0.075000X0.309359X0.238649X0.238649X0.309359X-0.309359X-0.238649X-0.238649X-0.309359X0*%
%ADD47RoundRect,0.169000X2.059095X0.000000X0.000000X2.059095X-2.059095X0.000000X0.000000X-2.059095X0*%
%ADD48RoundRect,0.171250X-0.341250X-0.553750X0.341250X-0.553750X0.341250X0.553750X-0.341250X0.553750X0*%
%ADD49RoundRect,0.175000X0.350000X0.350000X-0.350000X0.350000X-0.350000X-0.350000X0.350000X-0.350000X0*%
%ADD50RoundRect,0.025000X0.900000X0.550000X-0.900000X0.550000X-0.900000X-0.550000X0.900000X-0.550000X0*%
%ADD51C,0.700000*%
%ADD52RoundRect,0.025000X-0.300000X-0.725000X0.300000X-0.725000X0.300000X0.725000X-0.300000X0.725000X0*%
%ADD53RoundRect,0.025000X-0.150000X-0.725000X0.150000X-0.725000X0.150000X0.725000X-0.150000X0.725000X0*%
%ADD54O,1.050000X2.150000*%
%ADD55O,1.050000X1.650000*%
%ADD56RoundRect,0.171250X0.341250X0.553750X-0.341250X0.553750X-0.341250X-0.553750X0.341250X-0.553750X0*%
%ADD57RoundRect,0.025000X0.600000X0.600000X-0.600000X0.600000X-0.600000X-0.600000X0.600000X-0.600000X0*%
%ADD58RoundRect,0.025000X0.600000X0.400000X-0.600000X0.400000X-0.600000X-0.400000X0.600000X-0.400000X0*%
G04 APERTURE END LIST*
%TO.C,0x42*%
G36*
X293325500Y-85934000D02*
G01*
X293473030Y-85996500D01*
X293533530Y-86051000D01*
X293588230Y-86134700D01*
X293612300Y-86235500D01*
X295344520Y-86235500D01*
X295425370Y-86241000D01*
X295572526Y-86302400D01*
X295634068Y-86355500D01*
X295690980Y-86416100D01*
X295757528Y-86565500D01*
X295763528Y-86648000D01*
X295757835Y-86730700D01*
X295693305Y-86880800D01*
X295636987Y-86942600D01*
X295574799Y-86995000D01*
X295425900Y-87054800D01*
X295344520Y-87060100D01*
X293656440Y-87060100D01*
X293656440Y-88073100D01*
X295880954Y-88073100D01*
X295962538Y-88078600D01*
X296111202Y-88140400D01*
X296173058Y-88194200D01*
X296229166Y-88255600D01*
X296294164Y-88403700D01*
X296299966Y-88485200D01*
X296300000Y-88485300D01*
X296294319Y-88568100D01*
X296230232Y-88719600D01*
X296174551Y-88782900D01*
X296112522Y-88837200D01*
X295963051Y-88898900D01*
X295880989Y-88904300D01*
X292823920Y-88904300D01*
X292823920Y-87060100D01*
X291653670Y-87060100D01*
X291572340Y-87054900D01*
X291423710Y-86995400D01*
X291361570Y-86943100D01*
X291360070Y-86941600D01*
X291358570Y-86938700D01*
X291306220Y-86876700D01*
X291246710Y-86729200D01*
X291241510Y-86648000D01*
X291246770Y-86567800D01*
X291306460Y-86420300D01*
X291358570Y-86358500D01*
X291360070Y-86357000D01*
X291422100Y-86302700D01*
X291571570Y-86240900D01*
X291653630Y-86235500D01*
X292874930Y-86235500D01*
X292897630Y-86134900D01*
X292950420Y-86051000D01*
X293012450Y-85996600D01*
X293161920Y-85934000D01*
X293243980Y-85928500D01*
X293325500Y-85934000D01*
G37*
G36*
X295740061Y-94810800D02*
G01*
X295988213Y-94914860D01*
X296035245Y-94956350D01*
X294901700Y-95617960D01*
X292065760Y-95617960D01*
X292065760Y-97273220D01*
X295467450Y-97273220D01*
X296092312Y-97892880D01*
X295988213Y-97984840D01*
X295740061Y-98089730D01*
X295602376Y-98098840D01*
X291937760Y-98098840D01*
X291799000Y-98089940D01*
X291549400Y-97987170D01*
X291443990Y-97896080D01*
X291352530Y-97791830D01*
X291250350Y-97541710D01*
X291241590Y-97401590D01*
X291241590Y-95497980D01*
X291250390Y-95359360D01*
X291352670Y-95111370D01*
X291443990Y-95007490D01*
X291549240Y-94914730D01*
X291798720Y-94810760D01*
X291937760Y-94801820D01*
X295602376Y-94801820D01*
X295740061Y-94810800D01*
G37*
G36*
X296093230Y-95007490D02*
G01*
X296185830Y-95110580D01*
X296290842Y-95355190D01*
X296300000Y-95491050D01*
X296300000Y-97401590D01*
X296290885Y-97539220D01*
X296186001Y-97787100D01*
X296093230Y-97892070D01*
X296092312Y-97892880D01*
X295467450Y-97273220D01*
X295467450Y-95617960D01*
X294901700Y-95617960D01*
X296035245Y-94956350D01*
X296093230Y-95007490D01*
G37*
G36*
X295716390Y-81262500D02*
G01*
X295972056Y-81371600D01*
X296079373Y-81468100D01*
X296175290Y-81577100D01*
X296283662Y-81835400D01*
X296293073Y-81979400D01*
X296293071Y-84167200D01*
X296287510Y-84249800D01*
X296224740Y-84399700D01*
X296170176Y-84460700D01*
X296109418Y-84513800D01*
X295962212Y-84574000D01*
X295880989Y-84579200D01*
X295799655Y-84574200D01*
X295651027Y-84515500D01*
X295588884Y-84463300D01*
X295585884Y-84460300D01*
X295532539Y-84398900D01*
X295472550Y-84249300D01*
X295467370Y-84166700D01*
X295467370Y-82085500D01*
X294188090Y-82085500D01*
X294188090Y-83838900D01*
X294178760Y-83981700D01*
X294070800Y-84238500D01*
X293974750Y-84347200D01*
X293974750Y-84348700D01*
X293865420Y-84443100D01*
X293606150Y-84549300D01*
X293462020Y-84558400D01*
X291241510Y-84558400D01*
X291241510Y-81665500D01*
X291246770Y-81585400D01*
X291306460Y-81439000D01*
X291358570Y-81377400D01*
X291358570Y-81375900D01*
X291360070Y-81375900D01*
X291422100Y-81321400D01*
X291571570Y-81258500D01*
X291653630Y-81253000D01*
X291734950Y-81258600D01*
X291882660Y-81321600D01*
X291943190Y-81375900D01*
X291997370Y-81437400D01*
X292060120Y-81584600D01*
X292065720Y-81665400D01*
X292065720Y-83732800D01*
X293357030Y-83732800D01*
X293357030Y-81979500D01*
X293366010Y-81835500D01*
X293471030Y-81577300D01*
X293565260Y-81468200D01*
X293565260Y-81466700D01*
X293566760Y-81466700D01*
X293676170Y-81370300D01*
X293936640Y-81262300D01*
X294082410Y-81253000D01*
X295573568Y-81253000D01*
X295716390Y-81262500D01*
G37*
G36*
X294001390Y-99218050D02*
G01*
X294198010Y-99337180D01*
X294268360Y-99437210D01*
X295693487Y-101850612D01*
X295759367Y-101977003D01*
X295774807Y-102105520D01*
X295774868Y-102105529D01*
X295769501Y-102183280D01*
X295709911Y-102327576D01*
X295658902Y-102389611D01*
X295657402Y-102389611D01*
X295657402Y-102391111D01*
X295595662Y-102446800D01*
X295443000Y-102509649D01*
X295358370Y-102515100D01*
X295251530Y-102506402D01*
X295070370Y-102409472D01*
X295006820Y-102326198D01*
X295005720Y-102324698D01*
X293768020Y-100224170D01*
X292521920Y-102323239D01*
X292461450Y-102407853D01*
X292281370Y-102506240D01*
X292174390Y-102515058D01*
X292089940Y-102509560D01*
X291938370Y-102446435D01*
X291876810Y-102390704D01*
X291875310Y-102389604D01*
X291824350Y-102327571D01*
X291765030Y-102183274D01*
X291759710Y-102105522D01*
X291774540Y-101976320D01*
X291839580Y-101852073D01*
X291841080Y-101849173D01*
X293266230Y-99437210D01*
X293336400Y-99337180D01*
X293531920Y-99218050D01*
X293648040Y-99207100D01*
X293885080Y-99207100D01*
X294001390Y-99218050D01*
G37*
G36*
X291068120Y-76040000D02*
G01*
X291101550Y-76063600D01*
X291127050Y-76094600D01*
X291132550Y-76133300D01*
X291132550Y-80382200D01*
X291127050Y-80420800D01*
X291101550Y-80451800D01*
X291068120Y-80475400D01*
X291026430Y-80480500D01*
X290406490Y-80480500D01*
X290364690Y-80475500D01*
X290331130Y-80451900D01*
X290305530Y-80420900D01*
X290300000Y-80382200D01*
X290300000Y-76133300D01*
X290305530Y-76094500D01*
X290331130Y-76063500D01*
X290364690Y-76039900D01*
X290406490Y-76034900D01*
X291026430Y-76034900D01*
X291068120Y-76040000D01*
G37*
G36*
X291735330Y-90221600D02*
G01*
X291858290Y-90265800D01*
X291910000Y-90306100D01*
X293149170Y-91331600D01*
X294327430Y-90355700D01*
X294378840Y-90319500D01*
X294498650Y-90291900D01*
X294567390Y-90290800D01*
X294650130Y-90296800D01*
X294797700Y-90364400D01*
X294855480Y-90423200D01*
X294903500Y-90484800D01*
X294959180Y-90626700D01*
X294964150Y-90702900D01*
X294957620Y-90788500D01*
X294884840Y-90941500D01*
X294822290Y-91001900D01*
X293798290Y-91869100D01*
X294813910Y-92713700D01*
X294813910Y-92715190D01*
X294881120Y-92780820D01*
X294957480Y-92948450D01*
X294964150Y-93043400D01*
X294964190Y-93043350D01*
X294958240Y-93129370D01*
X294890320Y-93283560D01*
X294830720Y-93344940D01*
X294768200Y-93394070D01*
X294623300Y-93450460D01*
X294545180Y-93455440D01*
X294476640Y-93451130D01*
X294349610Y-93402510D01*
X294294650Y-93360260D01*
X294294650Y-93361760D01*
X293156140Y-92405200D01*
X291907120Y-93445630D01*
X291853080Y-93484860D01*
X291724500Y-93525290D01*
X291653670Y-93528410D01*
X291570980Y-93523270D01*
X291419920Y-93463950D01*
X291357190Y-93411350D01*
X291301950Y-93350150D01*
X291240000Y-93199640D01*
X291234660Y-93116330D01*
X291242620Y-93021770D01*
X291329520Y-92854990D01*
X291402780Y-92789580D01*
X291402780Y-92788080D01*
X292495710Y-91870200D01*
X291400230Y-90957800D01*
X291398730Y-90957800D01*
X291328290Y-90889600D01*
X291244810Y-90723000D01*
X291237170Y-90629900D01*
X291242880Y-90550300D01*
X291306090Y-90404400D01*
X291360070Y-90343300D01*
X291424790Y-90286900D01*
X291581940Y-90223400D01*
X291668590Y-90217900D01*
X291735330Y-90221600D01*
G37*
G36*
X293325500Y-85934000D02*
G01*
X293473030Y-85996500D01*
X293533530Y-86051000D01*
X293588230Y-86134700D01*
X293612300Y-86235500D01*
X295344520Y-86235500D01*
X295425370Y-86241000D01*
X295572526Y-86302400D01*
X295634068Y-86355500D01*
X295690980Y-86416100D01*
X295757528Y-86565500D01*
X295763528Y-86648000D01*
X295757835Y-86730700D01*
X295693305Y-86880800D01*
X295636987Y-86942600D01*
X295574799Y-86995000D01*
X295425900Y-87054800D01*
X295344520Y-87060100D01*
X293656440Y-87060100D01*
X293656440Y-88073100D01*
X295880954Y-88073100D01*
X295962538Y-88078600D01*
X296111202Y-88140400D01*
X296173058Y-88194200D01*
X296229166Y-88255600D01*
X296294164Y-88403700D01*
X296299966Y-88485200D01*
X296300000Y-88485300D01*
X296294319Y-88568100D01*
X296230232Y-88719600D01*
X296174551Y-88782900D01*
X296112522Y-88837200D01*
X295963051Y-88898900D01*
X295880989Y-88904300D01*
X292823920Y-88904300D01*
X292823920Y-87060100D01*
X291653670Y-87060100D01*
X291572340Y-87054900D01*
X291423710Y-86995400D01*
X291361570Y-86943100D01*
X291360070Y-86941600D01*
X291358570Y-86938700D01*
X291306220Y-86876700D01*
X291246710Y-86729200D01*
X291241510Y-86648000D01*
X291246770Y-86567800D01*
X291306460Y-86420300D01*
X291358570Y-86358500D01*
X291360070Y-86357000D01*
X291422100Y-86302700D01*
X291571570Y-86240900D01*
X291653630Y-86235500D01*
X292874930Y-86235500D01*
X292897630Y-86134900D01*
X292950420Y-86051000D01*
X293012450Y-85996600D01*
X293161920Y-85934000D01*
X293243980Y-85928500D01*
X293325500Y-85934000D01*
G37*
G36*
X295740061Y-94810800D02*
G01*
X295988213Y-94914860D01*
X296035245Y-94956350D01*
X294901700Y-95617960D01*
X292065760Y-95617960D01*
X292065760Y-97273220D01*
X295467450Y-97273220D01*
X296092312Y-97892880D01*
X295988213Y-97984840D01*
X295740061Y-98089730D01*
X295602376Y-98098840D01*
X291937760Y-98098840D01*
X291799000Y-98089940D01*
X291549400Y-97987170D01*
X291443990Y-97896080D01*
X291352530Y-97791830D01*
X291250350Y-97541710D01*
X291241590Y-97401590D01*
X291241590Y-95497980D01*
X291250390Y-95359360D01*
X291352670Y-95111370D01*
X291443990Y-95007490D01*
X291549240Y-94914730D01*
X291798720Y-94810760D01*
X291937760Y-94801820D01*
X295602376Y-94801820D01*
X295740061Y-94810800D01*
G37*
G36*
X296093230Y-95007490D02*
G01*
X296185830Y-95110580D01*
X296290842Y-95355190D01*
X296300000Y-95491050D01*
X296300000Y-97401590D01*
X296290885Y-97539220D01*
X296186001Y-97787100D01*
X296093230Y-97892070D01*
X296092312Y-97892880D01*
X295467450Y-97273220D01*
X295467450Y-95617960D01*
X294901700Y-95617960D01*
X296035245Y-94956350D01*
X296093230Y-95007490D01*
G37*
G36*
X295716390Y-81262500D02*
G01*
X295972056Y-81371600D01*
X296079373Y-81468100D01*
X296175290Y-81577100D01*
X296283662Y-81835400D01*
X296293073Y-81979400D01*
X296293071Y-84167200D01*
X296287510Y-84249800D01*
X296224740Y-84399700D01*
X296170176Y-84460700D01*
X296109418Y-84513800D01*
X295962212Y-84574000D01*
X295880989Y-84579200D01*
X295799655Y-84574200D01*
X295651027Y-84515500D01*
X295588884Y-84463300D01*
X295585884Y-84460300D01*
X295532539Y-84398900D01*
X295472550Y-84249300D01*
X295467370Y-84166700D01*
X295467370Y-82085500D01*
X294188090Y-82085500D01*
X294188090Y-83838900D01*
X294178760Y-83981700D01*
X294070800Y-84238500D01*
X293974750Y-84347200D01*
X293974750Y-84348700D01*
X293865420Y-84443100D01*
X293606150Y-84549300D01*
X293462020Y-84558400D01*
X291241510Y-84558400D01*
X291241510Y-81665500D01*
X291246770Y-81585400D01*
X291306460Y-81439000D01*
X291358570Y-81377400D01*
X291358570Y-81375900D01*
X291360070Y-81375900D01*
X291422100Y-81321400D01*
X291571570Y-81258500D01*
X291653630Y-81253000D01*
X291734950Y-81258600D01*
X291882660Y-81321600D01*
X291943190Y-81375900D01*
X291997370Y-81437400D01*
X292060120Y-81584600D01*
X292065720Y-81665400D01*
X292065720Y-83732800D01*
X293357030Y-83732800D01*
X293357030Y-81979500D01*
X293366010Y-81835500D01*
X293471030Y-81577300D01*
X293565260Y-81468200D01*
X293565260Y-81466700D01*
X293566760Y-81466700D01*
X293676170Y-81370300D01*
X293936640Y-81262300D01*
X294082410Y-81253000D01*
X295573568Y-81253000D01*
X295716390Y-81262500D01*
G37*
G36*
X294001390Y-99218050D02*
G01*
X294198010Y-99337180D01*
X294268360Y-99437210D01*
X295693487Y-101850612D01*
X295759367Y-101977003D01*
X295774807Y-102105520D01*
X295774868Y-102105529D01*
X295769501Y-102183280D01*
X295709911Y-102327576D01*
X295658902Y-102389611D01*
X295657402Y-102389611D01*
X295657402Y-102391111D01*
X295595662Y-102446800D01*
X295443000Y-102509649D01*
X295358370Y-102515100D01*
X295251530Y-102506402D01*
X295070370Y-102409472D01*
X295006820Y-102326198D01*
X295005720Y-102324698D01*
X293768020Y-100224170D01*
X292521920Y-102323239D01*
X292461450Y-102407853D01*
X292281370Y-102506240D01*
X292174390Y-102515058D01*
X292089940Y-102509560D01*
X291938370Y-102446435D01*
X291876810Y-102390704D01*
X291875310Y-102389604D01*
X291824350Y-102327571D01*
X291765030Y-102183274D01*
X291759710Y-102105522D01*
X291774540Y-101976320D01*
X291839580Y-101852073D01*
X291841080Y-101849173D01*
X293266230Y-99437210D01*
X293336400Y-99337180D01*
X293531920Y-99218050D01*
X293648040Y-99207100D01*
X293885080Y-99207100D01*
X294001390Y-99218050D01*
G37*
G36*
X291068120Y-76040000D02*
G01*
X291101550Y-76063600D01*
X291127050Y-76094600D01*
X291132550Y-76133300D01*
X291132550Y-80382200D01*
X291127050Y-80420800D01*
X291101550Y-80451800D01*
X291068120Y-80475400D01*
X291026430Y-80480500D01*
X290406490Y-80480500D01*
X290364690Y-80475500D01*
X290331130Y-80451900D01*
X290305530Y-80420900D01*
X290300000Y-80382200D01*
X290300000Y-76133300D01*
X290305530Y-76094500D01*
X290331130Y-76063500D01*
X290364690Y-76039900D01*
X290406490Y-76034900D01*
X291026430Y-76034900D01*
X291068120Y-76040000D01*
G37*
G36*
X291735330Y-90221600D02*
G01*
X291858290Y-90265800D01*
X291910000Y-90306100D01*
X293149170Y-91331600D01*
X294327430Y-90355700D01*
X294378840Y-90319500D01*
X294498650Y-90291900D01*
X294567390Y-90290800D01*
X294650130Y-90296800D01*
X294797700Y-90364400D01*
X294855480Y-90423200D01*
X294903500Y-90484800D01*
X294959180Y-90626700D01*
X294964150Y-90702900D01*
X294957620Y-90788500D01*
X294884840Y-90941500D01*
X294822290Y-91001900D01*
X293798290Y-91869100D01*
X294813910Y-92713700D01*
X294813910Y-92715190D01*
X294881120Y-92780820D01*
X294957480Y-92948450D01*
X294964150Y-93043400D01*
X294964190Y-93043350D01*
X294958240Y-93129370D01*
X294890320Y-93283560D01*
X294830720Y-93344940D01*
X294768200Y-93394070D01*
X294623300Y-93450460D01*
X294545180Y-93455440D01*
X294476640Y-93451130D01*
X294349610Y-93402510D01*
X294294650Y-93360260D01*
X294294650Y-93361760D01*
X293156140Y-92405200D01*
X291907120Y-93445630D01*
X291853080Y-93484860D01*
X291724500Y-93525290D01*
X291653670Y-93528410D01*
X291570980Y-93523270D01*
X291419920Y-93463950D01*
X291357190Y-93411350D01*
X291301950Y-93350150D01*
X291240000Y-93199640D01*
X291234660Y-93116330D01*
X291242620Y-93021770D01*
X291329520Y-92854990D01*
X291402780Y-92789580D01*
X291402780Y-92788080D01*
X292495710Y-91870200D01*
X291400230Y-90957800D01*
X291398730Y-90957800D01*
X291328290Y-90889600D01*
X291244810Y-90723000D01*
X291237170Y-90629900D01*
X291242880Y-90550300D01*
X291306090Y-90404400D01*
X291360070Y-90343300D01*
X291424790Y-90286900D01*
X291581940Y-90223400D01*
X291668590Y-90217900D01*
X291735330Y-90221600D01*
G37*
%TD*%
D10*
%TO.C,K402*%
X64095000Y-98300000D03*
D11*
X69175000Y-98300000D03*
D10*
X74255000Y-98300000D03*
D12*
X65365000Y-95760000D03*
X71715000Y-93220000D03*
D13*
X67905000Y-103380000D03*
D14*
X70445000Y-103380000D03*
%TD*%
D15*
%TO.C,REF\u002A\u002A*%
X12400000Y-2000000D03*
%TD*%
D10*
%TO.C,K110*%
X216495000Y-41150000D03*
X226655000Y-41150000D03*
D11*
X221575000Y-41150000D03*
D12*
X217765000Y-38610000D03*
X224115000Y-36070000D03*
D13*
X220305000Y-46230000D03*
D14*
X222845000Y-46230000D03*
%TD*%
D15*
%TO.C,REF\u002A\u002A*%
X3000000Y-12400000D03*
%TD*%
%TO.C,REF\u002A\u002A*%
X302800000Y-107500000D03*
%TD*%
%TO.C,REF\u002A\u002A*%
X12400000Y-1000000D03*
%TD*%
D10*
%TO.C,K100*%
X21232500Y-41150000D03*
D11*
X26312500Y-41150000D03*
D10*
X31392500Y-41150000D03*
D12*
X22502500Y-38610000D03*
X28852500Y-36070000D03*
D13*
X25042500Y-46230000D03*
D14*
X27582500Y-46230000D03*
%TD*%
D15*
%TO.C,REF\u002A\u002A*%
X94750000Y-107749999D03*
%TD*%
%TO.C,REF\u002A\u002A*%
X12400000Y-118900000D03*
%TD*%
%TO.C,REF\u002A\u002A*%
X12400000Y-110900000D03*
%TD*%
%TO.C,REF\u002A\u002A*%
X297400000Y-117900000D03*
%TD*%
D10*
%TO.C,K200*%
X21232500Y-60200000D03*
X31392500Y-60200000D03*
D11*
X26312500Y-60200000D03*
D12*
X22502500Y-57660000D03*
X28852500Y-55120000D03*
D13*
X25042500Y-65280000D03*
D14*
X27582500Y-65280000D03*
%TD*%
D15*
%TO.C,REF\u002A\u002A*%
X297400000Y-7000000D03*
%TD*%
%TO.C,REF\u002A\u002A*%
X3000000Y-107500000D03*
%TD*%
D10*
%TO.C,Kb402*%
X68857500Y-98300000D03*
D11*
X73937500Y-98300000D03*
D10*
X79017500Y-98300000D03*
D12*
X76477500Y-93220000D03*
X70127500Y-95760000D03*
D13*
X75207500Y-103380000D03*
D14*
X72667500Y-103380000D03*
%TD*%
D15*
%TO.C,REF\u002A\u002A*%
X304800000Y-12400000D03*
%TD*%
%TO.C,REF\u002A\u002A*%
X213050000Y-107749999D03*
%TD*%
%TO.C,REF\u002A\u002A*%
X297400000Y-116900000D03*
%TD*%
D11*
%TO.C,K304*%
X107275000Y-79250000D03*
D10*
X112355000Y-79250000D03*
X102195000Y-79250000D03*
D12*
X103465000Y-76710000D03*
X109815000Y-74170000D03*
D13*
X106005000Y-84330000D03*
D14*
X108545000Y-84330000D03*
%TD*%
D15*
%TO.C,REF\u002A\u002A*%
X306800000Y-107500000D03*
%TD*%
%TO.C,REF\u002A\u002A*%
X1000000Y-12400000D03*
%TD*%
D10*
%TO.C,K113*%
X288567500Y-41150000D03*
X278407500Y-41150000D03*
D11*
X283487500Y-41150000D03*
D12*
X279677500Y-38610000D03*
X286027500Y-36070000D03*
D13*
X282217500Y-46230000D03*
D14*
X284757500Y-46230000D03*
%TD*%
D11*
%TO.C,Kb409*%
X193000000Y-98300000D03*
X204938000Y-90045000D03*
D10*
X187920000Y-98300000D03*
X198080000Y-98300000D03*
D11*
X181062000Y-90045000D03*
D16*
X204938000Y-105285000D03*
X181062000Y-105285000D03*
D12*
X189190000Y-95760000D03*
X195540000Y-93220000D03*
D13*
X191730000Y-103380000D03*
D14*
X194270000Y-103380000D03*
%TD*%
D15*
%TO.C,REF\u002A\u002A*%
X12400000Y-115900000D03*
%TD*%
D11*
%TO.C,K001*%
X50125000Y-22100000D03*
D10*
X55205000Y-22100000D03*
X45045000Y-22100000D03*
D12*
X46315000Y-19560000D03*
X52665000Y-17020000D03*
D13*
X48855000Y-27180000D03*
D14*
X51395000Y-27180000D03*
%TD*%
D11*
%TO.C,K007*%
X164425000Y-22100000D03*
D10*
X169505000Y-22100000D03*
X159345000Y-22100000D03*
D12*
X160615000Y-19560000D03*
X166965000Y-17020000D03*
D13*
X163155000Y-27180000D03*
D14*
X165695000Y-27180000D03*
%TD*%
D16*
%TO.C,Stab1*%
X97750000Y-105285000D03*
D11*
X97750000Y-90045000D03*
D16*
X212050000Y-105285000D03*
D11*
X212050000Y-90045000D03*
%TD*%
D15*
%TO.C,REF\u002A\u002A*%
X95750000Y-107749999D03*
%TD*%
%TO.C,REF\u002A\u002A*%
X297400000Y-3000000D03*
%TD*%
%TO.C,REF\u002A\u002A*%
X247150000Y-12650000D03*
%TD*%
%TO.C,REF\u002A\u002A*%
X303800000Y-12400000D03*
%TD*%
%TO.C,REF\u002A\u002A*%
X12400000Y-116900000D03*
%TD*%
%TO.C,REF\u002A\u002A*%
X308800000Y-107500000D03*
%TD*%
%TO.C,REF\u002A\u002A*%
X297400000Y0D03*
%TD*%
%TO.C,REF\u002A\u002A*%
X12150001Y-49650000D03*
%TD*%
%TO.C,REF\u002A\u002A*%
X297650000Y-52650000D03*
%TD*%
%TO.C,REF\u002A\u002A*%
X300800000Y-12400000D03*
%TD*%
D10*
%TO.C,K313*%
X278407500Y-79250000D03*
D11*
X283487500Y-79250000D03*
D10*
X288567500Y-79250000D03*
D12*
X279677500Y-76710000D03*
X286027500Y-74170000D03*
D13*
X282217500Y-84330000D03*
D14*
X284757500Y-84330000D03*
%TD*%
D11*
%TO.C,K302*%
X69175000Y-79250000D03*
D10*
X64095000Y-79250000D03*
X74255000Y-79250000D03*
D12*
X65365000Y-76710000D03*
X71715000Y-74170000D03*
D13*
X67905000Y-84330000D03*
D14*
X70445000Y-84330000D03*
%TD*%
D15*
%TO.C,REF\u002A\u002A*%
X4000000Y-107500000D03*
%TD*%
D10*
%TO.C,K308*%
X178395000Y-79250000D03*
D11*
X183475000Y-79250000D03*
D10*
X188555000Y-79250000D03*
D12*
X179665000Y-76710000D03*
X186015000Y-74170000D03*
D13*
X182205000Y-84330000D03*
D14*
X184745000Y-84330000D03*
%TD*%
D15*
%TO.C,REF\u002A\u002A*%
X249150000Y-12650000D03*
%TD*%
%TO.C,REF\u002A\u002A*%
X297650000Y-46650000D03*
%TD*%
%TO.C,REF\u002A\u002A*%
X61650000Y-12650000D03*
%TD*%
%TO.C,REF\u002A\u002A*%
X58650000Y-12650000D03*
%TD*%
%TO.C,REF\u002A\u002A*%
X248150000Y-12650000D03*
%TD*%
%TO.C,REF\u002A\u002A*%
X297400000Y-9000000D03*
%TD*%
%TO.C,REF\u002A\u002A*%
X297650000Y-54650000D03*
%TD*%
D10*
%TO.C,K004*%
X112355000Y-22100000D03*
X102195000Y-22100000D03*
D11*
X107275000Y-22100000D03*
D12*
X103465000Y-19560000D03*
X109815000Y-17020000D03*
D13*
X106005000Y-27180000D03*
D14*
X108545000Y-27180000D03*
%TD*%
D15*
%TO.C,REF\u002A\u002A*%
X0Y-107500000D03*
%TD*%
D11*
%TO.C,K005*%
X126325000Y-22100000D03*
D10*
X121245000Y-22100000D03*
X131405000Y-22100000D03*
D12*
X122515000Y-19560000D03*
X128865000Y-17020000D03*
D13*
X125055000Y-27180000D03*
D14*
X127595000Y-27180000D03*
%TD*%
D15*
%TO.C,REF\u002A\u002A*%
X246150000Y-12650000D03*
%TD*%
D10*
%TO.C,K205*%
X131405000Y-60200000D03*
D11*
X126325000Y-60200000D03*
D10*
X121245000Y-60200000D03*
D12*
X122515000Y-57660000D03*
X128865000Y-55120000D03*
D13*
X125055000Y-65280000D03*
D14*
X127595000Y-65280000D03*
%TD*%
D10*
%TO.C,K009*%
X197445000Y-22100000D03*
D11*
X202525000Y-22100000D03*
D10*
X207605000Y-22100000D03*
D12*
X198715000Y-19560000D03*
X205065000Y-17020000D03*
D13*
X201255000Y-27180000D03*
D14*
X203795000Y-27180000D03*
%TD*%
D15*
%TO.C,REF\u002A\u002A*%
X297400000Y-4000000D03*
%TD*%
D10*
%TO.C,K404*%
X102195000Y-98300000D03*
D11*
X107275000Y-98300000D03*
D10*
X112355000Y-98300000D03*
D12*
X103465000Y-95760000D03*
X109815000Y-93220000D03*
D13*
X106005000Y-103380000D03*
D14*
X108545000Y-103380000D03*
%TD*%
D15*
%TO.C,REF\u002A\u002A*%
X5000000Y-107500000D03*
%TD*%
D17*
%TO.C,Enc0*%
X47625000Y-105900000D03*
D18*
X52625000Y-105900000D03*
X50125000Y-105900000D03*
D19*
X55725000Y-98400000D03*
X44525000Y-98400000D03*
D18*
X52625000Y-91400000D03*
X47625000Y-91400000D03*
%TD*%
D10*
%TO.C,K212*%
X254595000Y-60200000D03*
X264755000Y-60200000D03*
D11*
X259675000Y-60200000D03*
D12*
X255865000Y-57660000D03*
X262215000Y-55120000D03*
D13*
X258405000Y-65280000D03*
D14*
X260945000Y-65280000D03*
%TD*%
D15*
%TO.C,REF\u002A\u002A*%
X297400000Y-111900000D03*
%TD*%
%TO.C,REF\u002A\u002A*%
X297650000Y-47650000D03*
%TD*%
D10*
%TO.C,K300*%
X31392500Y-79250000D03*
X21232500Y-79250000D03*
D11*
X26312500Y-79250000D03*
D12*
X22502500Y-76710000D03*
X28852500Y-74170000D03*
D13*
X25042500Y-84330000D03*
D14*
X27582500Y-84330000D03*
%TD*%
D10*
%TO.C,K210*%
X226655000Y-60200000D03*
X216495000Y-60200000D03*
D11*
X221575000Y-60200000D03*
D12*
X217765000Y-57660000D03*
X224115000Y-55120000D03*
D13*
X220305000Y-65280000D03*
D14*
X222845000Y-65280000D03*
%TD*%
D15*
%TO.C,REF\u002A\u002A*%
X97750000Y-107749999D03*
%TD*%
D10*
%TO.C,K307*%
X169505000Y-79250000D03*
D11*
X164425000Y-79250000D03*
D10*
X159345000Y-79250000D03*
D12*
X160615000Y-76710000D03*
X166965000Y-74170000D03*
D13*
X163155000Y-84330000D03*
D14*
X165695000Y-84330000D03*
%TD*%
D15*
%TO.C,REF\u002A\u002A*%
X2000000Y-107500000D03*
%TD*%
D10*
%TO.C,K412*%
X254595000Y-98300000D03*
D11*
X259675000Y-98300000D03*
D10*
X264755000Y-98300000D03*
D12*
X255865000Y-95760000D03*
X262215000Y-93220000D03*
D13*
X258405000Y-103380000D03*
D14*
X260945000Y-103380000D03*
%TD*%
D10*
%TO.C,K107*%
X159345000Y-41150000D03*
X169505000Y-41150000D03*
D11*
X164425000Y-41150000D03*
D12*
X161885000Y-46230000D03*
X168235000Y-43690000D03*
D13*
X163155000Y-36070000D03*
D20*
X165695000Y-36070000D03*
%TD*%
D15*
%TO.C,REF\u002A\u002A*%
X297400000Y-2000000D03*
%TD*%
D11*
%TO.C,Kb404*%
X116800000Y-98300000D03*
X128738000Y-90045000D03*
D10*
X111720000Y-98300000D03*
D16*
X104862000Y-105285000D03*
D11*
X104862000Y-90045000D03*
D10*
X121880000Y-98300000D03*
D16*
X128738000Y-105285000D03*
D12*
X112990000Y-95760000D03*
X119340000Y-93220000D03*
D13*
X115530000Y-103380000D03*
D14*
X118070000Y-103380000D03*
%TD*%
D15*
%TO.C,REF\u002A\u002A*%
X297400000Y-115900000D03*
%TD*%
%TO.C,REF\u002A\u002A*%
X56650000Y-12650000D03*
%TD*%
%TO.C,REF\u002A\u002A*%
X303800000Y-107500000D03*
%TD*%
%TO.C,REF\u002A\u002A*%
X12150001Y-47650000D03*
%TD*%
D10*
%TO.C,K305*%
X121245000Y-79250000D03*
X131405000Y-79250000D03*
D11*
X126325000Y-79250000D03*
D12*
X122515000Y-76710000D03*
X128865000Y-74170000D03*
D13*
X125055000Y-84330000D03*
D14*
X127595000Y-84330000D03*
%TD*%
D11*
%TO.C,K104*%
X107275000Y-41150000D03*
D10*
X112355000Y-41150000D03*
X102195000Y-41150000D03*
D12*
X103465000Y-38610000D03*
X109815000Y-36070000D03*
D13*
X106005000Y-46230000D03*
D14*
X108545000Y-46230000D03*
%TD*%
D21*
%TO.C,REF\u002A\u002A*%
X3500000Y-116400000D03*
%TD*%
D15*
%TO.C,REF\u002A\u002A*%
X297400000Y-5000000D03*
%TD*%
D10*
%TO.C,K106*%
X140295000Y-41150000D03*
X150455000Y-41150000D03*
D11*
X145375000Y-41150000D03*
D12*
X142835000Y-46230000D03*
X149185000Y-43690000D03*
D13*
X144105000Y-36070000D03*
D20*
X146645000Y-36070000D03*
%TD*%
D11*
%TO.C,K008*%
X183475000Y-22100000D03*
D10*
X188555000Y-22100000D03*
X178395000Y-22100000D03*
D12*
X179665000Y-19560000D03*
X186015000Y-17020000D03*
D13*
X182205000Y-27180000D03*
D14*
X184745000Y-27180000D03*
%TD*%
D15*
%TO.C,REF\u002A\u002A*%
X99750000Y-107749999D03*
%TD*%
%TO.C,REF\u002A\u002A*%
X301800000Y-107500000D03*
%TD*%
D10*
%TO.C,K206*%
X150455000Y-60200000D03*
D11*
X145375000Y-60200000D03*
D10*
X140295000Y-60200000D03*
D12*
X141565000Y-57660000D03*
X147915000Y-55120000D03*
D13*
X144105000Y-65280000D03*
D14*
X146645000Y-65280000D03*
%TD*%
D15*
%TO.C,REF\u002A\u002A*%
X60650000Y-12650000D03*
%TD*%
D11*
%TO.C,Kb406*%
X166838000Y-90045000D03*
D16*
X166838000Y-105285000D03*
D10*
X149820000Y-98300000D03*
D11*
X142962000Y-90045000D03*
X154900000Y-98300000D03*
D16*
X142962000Y-105285000D03*
D10*
X159980000Y-98300000D03*
D12*
X151090000Y-95760000D03*
X157440000Y-93220000D03*
D13*
X153630000Y-103380000D03*
D14*
X156170000Y-103380000D03*
%TD*%
D15*
%TO.C,REF\u002A\u002A*%
X305800000Y-12400000D03*
%TD*%
D10*
%TO.C,K208*%
X188555000Y-60200000D03*
X178395000Y-60200000D03*
D11*
X183475000Y-60200000D03*
D12*
X179665000Y-57660000D03*
X186015000Y-55120000D03*
D13*
X182205000Y-65280000D03*
D14*
X184745000Y-65280000D03*
%TD*%
D15*
%TO.C,REF\u002A\u002A*%
X12400000Y-119900000D03*
%TD*%
D10*
%TO.C,K401*%
X55205000Y-98300000D03*
X45045000Y-98300000D03*
D11*
X50125000Y-98300000D03*
D12*
X46315000Y-95760000D03*
X52665000Y-93220000D03*
D13*
X48855000Y-103380000D03*
D14*
X51395000Y-103380000D03*
%TD*%
D15*
%TO.C,REF\u002A\u002A*%
X297400000Y-112900000D03*
%TD*%
%TO.C,REF\u002A\u002A*%
X297650000Y-53650000D03*
%TD*%
%TO.C,REF\u002A\u002A*%
X12150001Y-46650000D03*
%TD*%
D10*
%TO.C,K310*%
X216495000Y-79250000D03*
D11*
X221575000Y-79250000D03*
D10*
X226655000Y-79250000D03*
D12*
X217765000Y-76710000D03*
X224115000Y-74170000D03*
D13*
X220305000Y-84330000D03*
D14*
X222845000Y-84330000D03*
%TD*%
D15*
%TO.C,REF\u002A\u002A*%
X309800000Y-107500000D03*
%TD*%
D10*
%TO.C,K213*%
X288567500Y-60200000D03*
D11*
X283487500Y-60200000D03*
D10*
X278407500Y-60200000D03*
D12*
X279677500Y-57660000D03*
X286027500Y-55120000D03*
D13*
X282217500Y-65280000D03*
D14*
X284757500Y-65280000D03*
%TD*%
D15*
%TO.C,REF\u002A\u002A*%
X297650000Y-49650000D03*
%TD*%
D10*
%TO.C,K111*%
X235545000Y-41150000D03*
D11*
X240625000Y-41150000D03*
D10*
X245705000Y-41150000D03*
D12*
X236815000Y-38610000D03*
X243165000Y-36070000D03*
D13*
X239355000Y-46230000D03*
D14*
X241895000Y-46230000D03*
%TD*%
D15*
%TO.C,REF\u002A\u002A*%
X63650000Y-12650000D03*
%TD*%
D10*
%TO.C,K209*%
X197445000Y-60200000D03*
X207605000Y-60200000D03*
D11*
X202525000Y-60200000D03*
D12*
X198715000Y-57660000D03*
X205065000Y-55120000D03*
D13*
X201255000Y-65280000D03*
D14*
X203795000Y-65280000D03*
%TD*%
D15*
%TO.C,REF\u002A\u002A*%
X309800000Y-12400000D03*
%TD*%
D10*
%TO.C,K109*%
X197445000Y-41150000D03*
D11*
X202525000Y-41150000D03*
D10*
X207605000Y-41150000D03*
D12*
X198715000Y-38610000D03*
X205065000Y-36070000D03*
D13*
X201255000Y-46230000D03*
D14*
X203795000Y-46230000D03*
%TD*%
D15*
%TO.C,REF\u002A\u002A*%
X12150001Y-54650000D03*
%TD*%
%TO.C,REF\u002A\u002A*%
X4000000Y-12400000D03*
%TD*%
%TO.C,REF\u002A\u002A*%
X10000000Y-107500000D03*
%TD*%
%TO.C,REF\u002A\u002A*%
X12400000Y-7000000D03*
%TD*%
D10*
%TO.C,K408*%
X178395000Y-98300000D03*
X188555000Y-98300000D03*
D11*
X183475000Y-98300000D03*
D12*
X179665000Y-95760000D03*
X186015000Y-93220000D03*
D13*
X182205000Y-103380000D03*
D14*
X184745000Y-103380000D03*
%TD*%
D15*
%TO.C,REF\u002A\u002A*%
X12400000Y-6000000D03*
%TD*%
D11*
%TO.C,K203*%
X88225000Y-60200000D03*
D10*
X83145000Y-60200000D03*
X93305000Y-60200000D03*
D12*
X84415000Y-57660000D03*
X90765000Y-55120000D03*
D13*
X86955000Y-65280000D03*
D14*
X89495000Y-65280000D03*
%TD*%
D15*
%TO.C,REF\u002A\u002A*%
X299800000Y-107500000D03*
%TD*%
D10*
%TO.C,K211*%
X245705000Y-60200000D03*
X235545000Y-60200000D03*
D11*
X240625000Y-60200000D03*
D12*
X236815000Y-57660000D03*
X243165000Y-55120000D03*
D13*
X239355000Y-65280000D03*
D14*
X241895000Y-65280000D03*
%TD*%
D15*
%TO.C,REF\u002A\u002A*%
X302800000Y-12400000D03*
%TD*%
D10*
%TO.C,K102*%
X64095000Y-41150000D03*
X74255000Y-41150000D03*
D11*
X69175000Y-41150000D03*
D12*
X65365000Y-38610000D03*
X71715000Y-36070000D03*
D13*
X67905000Y-46230000D03*
D14*
X70445000Y-46230000D03*
%TD*%
D10*
%TO.C,K311*%
X235545000Y-79250000D03*
X245705000Y-79250000D03*
D11*
X240625000Y-79250000D03*
D12*
X236815000Y-76710000D03*
X243165000Y-74170000D03*
D13*
X239355000Y-84330000D03*
D14*
X241895000Y-84330000D03*
%TD*%
D15*
%TO.C,REF\u002A\u002A*%
X297400000Y-119900000D03*
%TD*%
%TO.C,REF\u002A\u002A*%
X57650000Y-12650000D03*
%TD*%
D16*
%TO.C,Stab0*%
X202525000Y-105285000D03*
X107275000Y-105285000D03*
D11*
X107275000Y-90045000D03*
X202525000Y-90045000D03*
%TD*%
D10*
%TO.C,K204*%
X112355000Y-60200000D03*
X102195000Y-60200000D03*
D11*
X107275000Y-60200000D03*
D12*
X103465000Y-57660000D03*
X109815000Y-55120000D03*
D13*
X106005000Y-65280000D03*
D14*
X108545000Y-65280000D03*
%TD*%
D15*
%TO.C,REF\u002A\u002A*%
X216050000Y-107749999D03*
%TD*%
D10*
%TO.C,K012*%
X254595000Y-22100000D03*
X264755000Y-22100000D03*
D11*
X259675000Y-22100000D03*
D12*
X255865000Y-19560000D03*
X262215000Y-17020000D03*
D13*
X258405000Y-27180000D03*
D14*
X260945000Y-27180000D03*
%TD*%
D15*
%TO.C,REF\u002A\u002A*%
X297400000Y-109900000D03*
%TD*%
D10*
%TO.C,K108*%
X178395000Y-41150000D03*
X188555000Y-41150000D03*
D11*
X183475000Y-41150000D03*
D12*
X179665000Y-38610000D03*
X186015000Y-36070000D03*
D13*
X182205000Y-46230000D03*
D14*
X184745000Y-46230000D03*
%TD*%
D16*
%TO.C,Kb408*%
X162012000Y-105285000D03*
D11*
X162012000Y-90045000D03*
D10*
X179030000Y-98300000D03*
D11*
X185888000Y-90045000D03*
D10*
X168870000Y-98300000D03*
D16*
X185888000Y-105285000D03*
D11*
X173950000Y-98300000D03*
D12*
X170140000Y-95760000D03*
X176490000Y-93220000D03*
D13*
X172680000Y-103380000D03*
D14*
X175220000Y-103380000D03*
%TD*%
D10*
%TO.C,K011*%
X245705000Y-22100000D03*
D11*
X240625000Y-22100000D03*
D10*
X235545000Y-22100000D03*
D12*
X236815000Y-19560000D03*
X243165000Y-17020000D03*
D13*
X239355000Y-27180000D03*
D14*
X241895000Y-27180000D03*
%TD*%
D15*
%TO.C,REF\u002A\u002A*%
X208050000Y-107749999D03*
%TD*%
%TO.C,REF\u002A\u002A*%
X305800000Y-107500000D03*
%TD*%
D22*
%TO.C,BRD0*%
X212050000Y-100400000D03*
X212050000Y-95800000D03*
X17900000Y-67700000D03*
X293600000Y-71800000D03*
X14200000Y-71800000D03*
X273650000Y-38483000D03*
X271250000Y-43100000D03*
X153700000Y-62200000D03*
X210850000Y-95800000D03*
X16200000Y-71800000D03*
X272450000Y-43100000D03*
D23*
X212050000Y-98100000D03*
D22*
X210850000Y-100400000D03*
D23*
X154900000Y-59900000D03*
D22*
X14200000Y-67000000D03*
X271250000Y-38500000D03*
X295600000Y-67000000D03*
X213250000Y-100400000D03*
X295600000Y-71800000D03*
X156100000Y-62200000D03*
X291900000Y-71100000D03*
X273650000Y-43100000D03*
D24*
X18600000Y-69400000D03*
D22*
X154900000Y-62200000D03*
X293600000Y-67000000D03*
X153700000Y-57600000D03*
X16200000Y-67000000D03*
X272450000Y-38500000D03*
D25*
X291200000Y-69400000D03*
D22*
X154900000Y-57600000D03*
D23*
X272450000Y-40800000D03*
D22*
X156100000Y-57600000D03*
X213250000Y-95800000D03*
X17900000Y-71100000D03*
X291900000Y-67700000D03*
D23*
X37600000Y-40800000D03*
D22*
X35973654Y-39173654D03*
X35300000Y-40800000D03*
X39900000Y-40800000D03*
X37600000Y-43100000D03*
X39226346Y-42426346D03*
X37600000Y-38500000D03*
X35973654Y-42426346D03*
X39226346Y-39173654D03*
%TD*%
D15*
%TO.C,REF\u002A\u002A*%
X297400000Y-113900000D03*
%TD*%
%TO.C,REF\u002A\u002A*%
X301800000Y-12400000D03*
%TD*%
%TO.C,REF\u002A\u002A*%
X7000000Y-12400000D03*
%TD*%
%TO.C,REF\u002A\u002A*%
X253150000Y-12650000D03*
%TD*%
%TO.C,REF\u002A\u002A*%
X252150000Y-12650000D03*
%TD*%
D10*
%TO.C,K002*%
X64095000Y-22100000D03*
D11*
X69175000Y-22100000D03*
D10*
X74255000Y-22100000D03*
D12*
X65365000Y-19560000D03*
X71715000Y-17020000D03*
D13*
X67905000Y-27180000D03*
D14*
X70445000Y-27180000D03*
%TD*%
D21*
%TO.C,REF\u002A\u002A*%
X3500000Y-3500000D03*
%TD*%
D15*
%TO.C,REF\u002A\u002A*%
X7000000Y-107500000D03*
%TD*%
%TO.C,REF\u002A\u002A*%
X96750000Y-107749999D03*
%TD*%
%TO.C,REF\u002A\u002A*%
X98750000Y-107749999D03*
%TD*%
%TO.C,REF\u002A\u002A*%
X8000000Y-107500000D03*
%TD*%
%TO.C,REF\u002A\u002A*%
X297400000Y-110900000D03*
%TD*%
%TO.C,REF\u002A\u002A*%
X211050000Y-107749999D03*
%TD*%
D11*
%TO.C,K301*%
X50125000Y-79250000D03*
D10*
X45045000Y-79250000D03*
X55205000Y-79250000D03*
D12*
X46315000Y-76710000D03*
X52665000Y-74170000D03*
D13*
X48855000Y-84330000D03*
D14*
X51395000Y-84330000D03*
%TD*%
D15*
%TO.C,REF\u002A\u002A*%
X297400000Y-118900000D03*
%TD*%
D10*
%TO.C,K409*%
X207605000Y-98300000D03*
D11*
X202525000Y-98300000D03*
D10*
X197445000Y-98300000D03*
D12*
X198715000Y-95760000D03*
X205065000Y-93220000D03*
D13*
X201255000Y-103380000D03*
D14*
X203795000Y-103380000D03*
%TD*%
D15*
%TO.C,REF\u002A\u002A*%
X2000000Y-12400000D03*
%TD*%
D10*
%TO.C,K407*%
X169505000Y-98300000D03*
X159345000Y-98300000D03*
D11*
X164425000Y-98300000D03*
D12*
X160615000Y-95760000D03*
X166965000Y-93220000D03*
D13*
X163155000Y-103380000D03*
D14*
X165695000Y-103380000D03*
%TD*%
D10*
%TO.C,K010*%
X226655000Y-22100000D03*
D11*
X221575000Y-22100000D03*
D10*
X216495000Y-22100000D03*
D12*
X217765000Y-19560000D03*
X224115000Y-17020000D03*
D13*
X220305000Y-27180000D03*
D14*
X222845000Y-27180000D03*
%TD*%
D15*
%TO.C,REF\u002A\u002A*%
X8000000Y-12400000D03*
%TD*%
D10*
%TO.C,Kb106*%
X150455000Y-45912500D03*
X140295000Y-45912500D03*
D11*
X145375000Y-45912500D03*
D12*
X141565000Y-43372500D03*
X147915000Y-40832500D03*
D13*
X144105000Y-50992500D03*
D14*
X146645000Y-50992500D03*
%TD*%
D15*
%TO.C,REF\u002A\u002A*%
X12400000Y-114900000D03*
%TD*%
%TO.C,REF\u002A\u002A*%
X210050000Y-107749999D03*
%TD*%
D11*
%TO.C,K000*%
X26312500Y-22100000D03*
D10*
X26312500Y-27180000D03*
D12*
X21232500Y-19560000D03*
X23772500Y-25910000D03*
D13*
X31392500Y-20830000D03*
D26*
X31392500Y-23370000D03*
%TD*%
D10*
%TO.C,Kb107*%
X169505000Y-45912500D03*
D11*
X164425000Y-45912500D03*
D10*
X159345000Y-45912500D03*
D12*
X160615000Y-43372500D03*
X166965000Y-40832500D03*
D13*
X163155000Y-50992500D03*
D14*
X165695000Y-50992500D03*
%TD*%
D15*
%TO.C,REF\u002A\u002A*%
X12400000Y-10000000D03*
%TD*%
D11*
%TO.C,K309*%
X202525000Y-79250000D03*
D10*
X207605000Y-79250000D03*
X197445000Y-79250000D03*
D12*
X198715000Y-76710000D03*
X205065000Y-74170000D03*
D13*
X201255000Y-84330000D03*
D14*
X203795000Y-84330000D03*
%TD*%
D15*
%TO.C,REF\u002A\u002A*%
X12400000Y-3000000D03*
%TD*%
%TO.C,REF\u002A\u002A*%
X212050000Y-107749999D03*
%TD*%
%TO.C,REF\u002A\u002A*%
X12400000Y-117900000D03*
%TD*%
D10*
%TO.C,K405*%
X131405000Y-98300000D03*
X121245000Y-98300000D03*
D11*
X126325000Y-98300000D03*
D12*
X122515000Y-95760000D03*
X128865000Y-93220000D03*
D13*
X125055000Y-103380000D03*
D14*
X127595000Y-103380000D03*
%TD*%
D15*
%TO.C,REF\u002A\u002A*%
X300800000Y-107500000D03*
%TD*%
%TO.C,REF\u002A\u002A*%
X307800000Y-107500000D03*
%TD*%
D10*
%TO.C,K410*%
X216495000Y-98300000D03*
X226655000Y-98300000D03*
D11*
X221575000Y-98300000D03*
D12*
X217765000Y-95760000D03*
X224115000Y-93220000D03*
D13*
X220305000Y-103380000D03*
D14*
X222845000Y-103380000D03*
%TD*%
D15*
%TO.C,REF\u002A\u002A*%
X12400000Y-111900000D03*
%TD*%
%TO.C,REF\u002A\u002A*%
X299800000Y-12400000D03*
%TD*%
%TO.C,REF\u002A\u002A*%
X308800000Y-12400000D03*
%TD*%
D16*
%TO.C,Kb405*%
X147788000Y-105285000D03*
D10*
X140930000Y-98300000D03*
D11*
X147788000Y-90045000D03*
D10*
X130770000Y-98300000D03*
D11*
X135850000Y-98300000D03*
X123912000Y-90045000D03*
D16*
X123912000Y-105285000D03*
D12*
X132040000Y-95760000D03*
X138390000Y-93220000D03*
D13*
X134580000Y-103380000D03*
D14*
X137120000Y-103380000D03*
%TD*%
D15*
%TO.C,REF\u002A\u002A*%
X9000000Y-12400000D03*
%TD*%
D10*
%TO.C,K003*%
X93305000Y-22100000D03*
X83145000Y-22100000D03*
D11*
X88225000Y-22100000D03*
D12*
X84415000Y-19560000D03*
X90765000Y-17020000D03*
D13*
X86955000Y-27180000D03*
D14*
X89495000Y-27180000D03*
%TD*%
D15*
%TO.C,REF\u002A\u002A*%
X12150001Y-50650000D03*
%TD*%
D10*
%TO.C,K400*%
X21232500Y-98300000D03*
X31392500Y-98300000D03*
D11*
X26312500Y-98300000D03*
D12*
X22502500Y-95760000D03*
X28852500Y-93220000D03*
D13*
X25042500Y-103380000D03*
D14*
X27582500Y-103380000D03*
%TD*%
D15*
%TO.C,REF\u002A\u002A*%
X297400000Y-6000000D03*
%TD*%
%TO.C,REF\u002A\u002A*%
X9000000Y-107500000D03*
%TD*%
%TO.C,REF\u002A\u002A*%
X12400000Y-9000000D03*
%TD*%
D10*
%TO.C,Kb307*%
X169505000Y-74487500D03*
D11*
X164425000Y-74487500D03*
D10*
X159345000Y-74487500D03*
D12*
X161885000Y-79567500D03*
X168235000Y-77027500D03*
D13*
X163155000Y-69407500D03*
D20*
X165695000Y-69407500D03*
%TD*%
D15*
%TO.C,REF\u002A\u002A*%
X214050000Y-107749999D03*
%TD*%
D10*
%TO.C,K312*%
X254595000Y-79250000D03*
X264755000Y-79250000D03*
D11*
X259675000Y-79250000D03*
D12*
X255865000Y-76710000D03*
X262215000Y-74170000D03*
D13*
X258405000Y-84330000D03*
D14*
X260945000Y-84330000D03*
%TD*%
D10*
%TO.C,Kb306*%
X140295000Y-74487500D03*
X150455000Y-74487500D03*
D11*
X145375000Y-74487500D03*
D12*
X142835000Y-79567500D03*
X149185000Y-77027500D03*
D13*
X144105000Y-69407500D03*
D20*
X146645000Y-69407500D03*
%TD*%
D15*
%TO.C,REF\u002A\u002A*%
X297650000Y-48650000D03*
%TD*%
%TO.C,REF\u002A\u002A*%
X297650000Y-51650000D03*
%TD*%
D10*
%TO.C,K105*%
X121245000Y-41150000D03*
D11*
X126325000Y-41150000D03*
D10*
X131405000Y-41150000D03*
D12*
X122515000Y-38610000D03*
X128865000Y-36070000D03*
D13*
X125055000Y-46230000D03*
D14*
X127595000Y-46230000D03*
%TD*%
D15*
%TO.C,REF\u002A\u002A*%
X10000000Y-12400000D03*
%TD*%
%TO.C,REF\u002A\u002A*%
X0Y-12400000D03*
%TD*%
%TO.C,REF\u002A\u002A*%
X93750000Y-107749999D03*
%TD*%
%TO.C,REF\u002A\u002A*%
X12400000Y-109900000D03*
%TD*%
D11*
%TO.C,K201*%
X50125000Y-60200000D03*
D10*
X45045000Y-60200000D03*
X55205000Y-60200000D03*
D12*
X46315000Y-57660000D03*
X52665000Y-55120000D03*
D13*
X48855000Y-65280000D03*
D14*
X51395000Y-65280000D03*
%TD*%
D11*
%TO.C,K411*%
X240625000Y-98300000D03*
D10*
X245705000Y-98300000D03*
X235545000Y-98300000D03*
D12*
X236815000Y-95760000D03*
X243165000Y-93220000D03*
D13*
X239355000Y-103380000D03*
D14*
X241895000Y-103380000D03*
%TD*%
D10*
%TO.C,K202*%
X74255000Y-60200000D03*
D11*
X69175000Y-60200000D03*
D10*
X64095000Y-60200000D03*
D12*
X65365000Y-57660000D03*
X71715000Y-55120000D03*
D13*
X67905000Y-65280000D03*
D14*
X70445000Y-65280000D03*
%TD*%
D15*
%TO.C,REF\u002A\u002A*%
X254150000Y-12650000D03*
%TD*%
%TO.C,REF\u002A\u002A*%
X12150001Y-52650000D03*
%TD*%
D10*
%TO.C,K406*%
X140295000Y-98300000D03*
X150455000Y-98300000D03*
D11*
X145375000Y-98300000D03*
D12*
X141565000Y-95760000D03*
X147915000Y-93220000D03*
D13*
X144105000Y-103380000D03*
D14*
X146645000Y-103380000D03*
%TD*%
D15*
%TO.C,REF\u002A\u002A*%
X251150000Y-12650000D03*
%TD*%
%TO.C,REF\u002A\u002A*%
X209050000Y-107749999D03*
%TD*%
D10*
%TO.C,Kb411*%
X230782500Y-98300000D03*
X240942500Y-98300000D03*
D11*
X235862500Y-98300000D03*
D12*
X238402500Y-93220000D03*
X232052500Y-95760000D03*
D13*
X237132500Y-103380000D03*
D14*
X234592500Y-103380000D03*
%TD*%
D15*
%TO.C,REF\u002A\u002A*%
X306800000Y-12400000D03*
%TD*%
%TO.C,REF\u002A\u002A*%
X297400000Y-114900000D03*
%TD*%
D11*
%TO.C,K207*%
X164425000Y-60200000D03*
D10*
X169505000Y-60200000D03*
X159345000Y-60200000D03*
D12*
X160615000Y-57660000D03*
X166965000Y-55120000D03*
D13*
X163155000Y-65280000D03*
D14*
X165695000Y-65280000D03*
%TD*%
D15*
%TO.C,REF\u002A\u002A*%
X6000000Y-12400000D03*
%TD*%
D11*
%TO.C,K403*%
X88225000Y-98300000D03*
D10*
X93305000Y-98300000D03*
X83145000Y-98300000D03*
D12*
X84415000Y-95760000D03*
X90765000Y-93220000D03*
D13*
X86955000Y-103380000D03*
D14*
X89495000Y-103380000D03*
%TD*%
D15*
%TO.C,REF\u002A\u002A*%
X12150001Y-53650000D03*
%TD*%
%TO.C,REF\u002A\u002A*%
X6000000Y-107500000D03*
%TD*%
%TO.C,REF\u002A\u002A*%
X12400000Y0D03*
%TD*%
%TO.C,REF\u002A\u002A*%
X297400000Y-8000000D03*
%TD*%
D10*
%TO.C,K006*%
X150455000Y-22100000D03*
D11*
X145375000Y-22100000D03*
D10*
X140295000Y-22100000D03*
D12*
X141565000Y-19560000D03*
X147915000Y-17020000D03*
D13*
X144105000Y-27180000D03*
D14*
X146645000Y-27180000D03*
%TD*%
D15*
%TO.C,REF\u002A\u002A*%
X12400000Y-4000000D03*
%TD*%
D10*
%TO.C,K101*%
X55205000Y-41150000D03*
D11*
X50125000Y-41150000D03*
D10*
X45045000Y-41150000D03*
D12*
X46315000Y-38610000D03*
X52665000Y-36070000D03*
D13*
X48855000Y-46230000D03*
D14*
X51395000Y-46230000D03*
%TD*%
D15*
%TO.C,REF\u002A\u002A*%
X297400000Y-1000000D03*
%TD*%
%TO.C,REF\u002A\u002A*%
X55650000Y-12650000D03*
%TD*%
%TO.C,REF\u002A\u002A*%
X12150001Y-48650000D03*
%TD*%
%TO.C,REF\u002A\u002A*%
X12400000Y-113900000D03*
%TD*%
D10*
%TO.C,K306*%
X140295000Y-79250000D03*
D11*
X145375000Y-79250000D03*
D10*
X150455000Y-79250000D03*
D12*
X141565000Y-76710000D03*
X147915000Y-74170000D03*
D13*
X144105000Y-84330000D03*
D14*
X146645000Y-84330000D03*
%TD*%
D10*
%TO.C,K112*%
X264755000Y-41150000D03*
D11*
X259675000Y-41150000D03*
D10*
X254595000Y-41150000D03*
D12*
X255865000Y-38610000D03*
X262215000Y-36070000D03*
D13*
X258405000Y-46230000D03*
D14*
X260945000Y-46230000D03*
%TD*%
D15*
%TO.C,REF\u002A\u002A*%
X12400000Y-5000000D03*
%TD*%
%TO.C,REF\u002A\u002A*%
X304800000Y-107500000D03*
%TD*%
%TO.C,REF\u002A\u002A*%
X297400000Y-10000000D03*
%TD*%
%TO.C,REF\u002A\u002A*%
X12400000Y-112900000D03*
%TD*%
%TO.C,REF\u002A\u002A*%
X1000000Y-107500000D03*
%TD*%
%TO.C,REF\u002A\u002A*%
X307800000Y-12400000D03*
%TD*%
%TO.C,REF\u002A\u002A*%
X12400000Y-8000000D03*
%TD*%
D10*
%TO.C,K303*%
X93305000Y-79250000D03*
X83145000Y-79250000D03*
D11*
X88225000Y-79250000D03*
D12*
X84415000Y-76710000D03*
X90765000Y-74170000D03*
D13*
X86955000Y-84330000D03*
D14*
X89495000Y-84330000D03*
%TD*%
D21*
%TO.C,REF\u002A\u002A*%
X306300000Y-3500000D03*
%TD*%
D15*
%TO.C,REF\u002A\u002A*%
X215050000Y-107749999D03*
%TD*%
D10*
%TO.C,K413*%
X288567500Y-98300000D03*
D11*
X283487500Y-98300000D03*
D10*
X278407500Y-98300000D03*
D12*
X279677500Y-95760000D03*
X286027500Y-93220000D03*
D13*
X282217500Y-103380000D03*
D14*
X284757500Y-103380000D03*
%TD*%
D10*
%TO.C,K103*%
X83145000Y-41150000D03*
X93305000Y-41150000D03*
D11*
X88225000Y-41150000D03*
D12*
X84415000Y-38610000D03*
X90765000Y-36070000D03*
D13*
X86955000Y-46230000D03*
D14*
X89495000Y-46230000D03*
%TD*%
D15*
%TO.C,REF\u002A\u002A*%
X12150001Y-51650000D03*
%TD*%
D10*
%TO.C,K013*%
X288567500Y-22100000D03*
D11*
X283487500Y-22100000D03*
D10*
X278407500Y-22100000D03*
D12*
X279677500Y-19560000D03*
X286027500Y-17020000D03*
D13*
X282217500Y-27180000D03*
D14*
X284757500Y-27180000D03*
%TD*%
D15*
%TO.C,REF\u002A\u002A*%
X101750000Y-107749999D03*
%TD*%
%TO.C,REF\u002A\u002A*%
X297650000Y-50650000D03*
%TD*%
%TO.C,REF\u002A\u002A*%
X100750000Y-107749999D03*
%TD*%
%TO.C,REF\u002A\u002A*%
X62650000Y-12650000D03*
%TD*%
%TO.C,REF\u002A\u002A*%
X250150000Y-12650000D03*
%TD*%
%TO.C,REF\u002A\u002A*%
X59650000Y-12650000D03*
%TD*%
%TO.C,REF\u002A\u002A*%
X5000000Y-12400000D03*
%TD*%
D27*
%TO.C,D307*%
X155237500Y-88000000D03*
X157737500Y-88000000D03*
%TD*%
D28*
%TO.C,F1*%
X35100000Y-24600000D03*
X35100000Y-21800000D03*
%TD*%
D27*
%TO.C,D112*%
X252868750Y-49800000D03*
X255368750Y-49800000D03*
%TD*%
D29*
%TO.C,C6*%
X33237500Y-64700000D03*
X31662500Y-64700000D03*
%TD*%
D27*
%TO.C,D212*%
X252868750Y-52200000D03*
X255368750Y-52200000D03*
%TD*%
D30*
%TO.C,C18*%
X154856847Y-29643153D03*
X153743153Y-30756847D03*
%TD*%
D27*
%TO.C,D206*%
X138568750Y-52200000D03*
X141068750Y-52200000D03*
%TD*%
D31*
%TO.C,Y1*%
X34625000Y-77150000D03*
X32875000Y-77150000D03*
X32875000Y-75750000D03*
X34625000Y-75750000D03*
%TD*%
D27*
%TO.C,D404*%
X91243750Y-90400000D03*
X93743750Y-90400000D03*
%TD*%
D32*
%TO.C,J3*%
X13900000Y-77100000D03*
D33*
X13900000Y-79640000D03*
X13900000Y-82180000D03*
X13900000Y-84720000D03*
%TD*%
D34*
%TO.C,C9*%
X43812500Y-68050000D03*
X45387500Y-68050000D03*
%TD*%
D27*
%TO.C,D303*%
X81418750Y-88000000D03*
X83918750Y-88000000D03*
%TD*%
%TO.C,D012*%
X252868750Y-30800000D03*
X255368750Y-30800000D03*
%TD*%
%TO.C,D410*%
X216934375Y-90400000D03*
X219434375Y-90400000D03*
%TD*%
%TO.C,D305*%
X117137500Y-88000000D03*
X119637500Y-88000000D03*
%TD*%
%TO.C,D407*%
X155237500Y-90400000D03*
X157737500Y-90400000D03*
%TD*%
%TO.C,D405*%
X117137500Y-90400000D03*
X119637500Y-90400000D03*
%TD*%
D35*
%TO.C,U4*%
X155421491Y-32262702D03*
X155704334Y-32545545D03*
X155987177Y-32828388D03*
X156270019Y-33111231D03*
X156552862Y-33394073D03*
X156835705Y-33676916D03*
X157118548Y-33959759D03*
D36*
X157118548Y-35002741D03*
X156835705Y-35285584D03*
X156552862Y-35568427D03*
X156270019Y-35851269D03*
X155987177Y-36134112D03*
X155704334Y-36416955D03*
X155421491Y-36699798D03*
D35*
X154378509Y-36699798D03*
X154095666Y-36416955D03*
X153812823Y-36134112D03*
X153529981Y-35851269D03*
X153247138Y-35568427D03*
X152964295Y-35285584D03*
X152681452Y-35002741D03*
D36*
X152681452Y-33959759D03*
X152964295Y-33676916D03*
X153247138Y-33394073D03*
X153529981Y-33111231D03*
X153812823Y-32828388D03*
X154095666Y-32545545D03*
X154378509Y-32262702D03*
D37*
X154900000Y-34481250D03*
%TD*%
D27*
%TO.C,D211*%
X233818750Y-52200000D03*
X236318750Y-52200000D03*
%TD*%
%TO.C,D208*%
X176668750Y-52200000D03*
X179168750Y-52200000D03*
%TD*%
D29*
%TO.C,R6*%
X46737500Y-63200000D03*
X45162500Y-63200000D03*
%TD*%
D27*
%TO.C,D306*%
X136187500Y-88000000D03*
X138687500Y-88000000D03*
%TD*%
D38*
%TO.C,C10*%
X43800000Y-63187500D03*
X43800000Y-61612500D03*
%TD*%
D27*
%TO.C,D311*%
X233818750Y-88000000D03*
X236318750Y-88000000D03*
%TD*%
%TO.C,D412*%
X252868750Y-90400000D03*
X255368750Y-90400000D03*
%TD*%
%TO.C,D103*%
X81418750Y-49800000D03*
X83918750Y-49800000D03*
%TD*%
%TO.C,D002*%
X62368750Y-30800000D03*
X64868750Y-30800000D03*
%TD*%
D38*
%TO.C,R11*%
X39200000Y-98187500D03*
X39200000Y-96612500D03*
%TD*%
D39*
%TO.C,J2*%
X39300000Y-30100000D03*
X39300000Y-31100000D03*
X39300000Y-32100000D03*
X39300000Y-33100000D03*
D40*
X43175000Y-28800000D03*
X43175000Y-34400000D03*
%TD*%
D29*
%TO.C,R8*%
X46737500Y-61800000D03*
X45162500Y-61800000D03*
%TD*%
%TO.C,C7*%
X33887500Y-72650000D03*
X32312500Y-72650000D03*
%TD*%
D30*
%TO.C,C19*%
X153656847Y-28443153D03*
X152543153Y-29556847D03*
%TD*%
D27*
%TO.C,D309*%
X195718750Y-88000000D03*
X198218750Y-88000000D03*
%TD*%
D41*
%TO.C,R4*%
X40950000Y-57712500D03*
X40950000Y-59287500D03*
%TD*%
D42*
%TO.C,U2*%
X46100000Y-64400000D03*
X46100000Y-64900000D03*
X46100000Y-65400000D03*
X46100000Y-65900000D03*
X43500000Y-65900000D03*
X43500000Y-65400000D03*
X43500000Y-64900000D03*
X43500000Y-64400000D03*
D43*
X44800000Y-65150000D03*
%TD*%
D27*
%TO.C,D401*%
X42550000Y-90400000D03*
X45050000Y-90400000D03*
%TD*%
D41*
%TO.C,C14*%
X31350000Y-75662500D03*
X31350000Y-77237500D03*
%TD*%
D27*
%TO.C,D308*%
X174287500Y-88000000D03*
X176787500Y-88000000D03*
%TD*%
D44*
%TO.C,U3*%
X19750000Y-49400000D03*
X20700000Y-49400000D03*
X21650000Y-49400000D03*
X21650000Y-51600000D03*
X19750000Y-51600000D03*
%TD*%
D27*
%TO.C,D108*%
X176668750Y-49800000D03*
X179168750Y-49800000D03*
%TD*%
D29*
%TO.C,R7*%
X29837500Y-68750000D03*
X28262500Y-68750000D03*
%TD*%
D41*
%TO.C,C15*%
X39200000Y-103012500D03*
X39200000Y-104587500D03*
%TD*%
D27*
%TO.C,D207*%
X157618750Y-52200000D03*
X160118750Y-52200000D03*
%TD*%
%TO.C,D003*%
X81418750Y-30800000D03*
X83918750Y-30800000D03*
%TD*%
%TO.C,D106*%
X138568750Y-49800000D03*
X141068750Y-49800000D03*
%TD*%
%TO.C,D213*%
X276681250Y-52200000D03*
X279181250Y-52200000D03*
%TD*%
%TO.C,D008*%
X176668750Y-30800000D03*
X179168750Y-30800000D03*
%TD*%
D38*
%TO.C,R2*%
X39100000Y-17187500D03*
X39100000Y-15612500D03*
%TD*%
D27*
%TO.C,D304*%
X91243750Y-88000000D03*
X93743750Y-88000000D03*
%TD*%
D38*
%TO.C,C11*%
X42300000Y-64137500D03*
X42300000Y-62562500D03*
%TD*%
D41*
%TO.C,R15*%
X43400000Y-76162500D03*
X43400000Y-77737500D03*
%TD*%
D27*
%TO.C,D310*%
X216934375Y-88000000D03*
X219434375Y-88000000D03*
%TD*%
%TO.C,D110*%
X214768750Y-49800000D03*
X217268750Y-49800000D03*
%TD*%
D38*
%TO.C,R10*%
X41000000Y-101387500D03*
X41000000Y-99812500D03*
%TD*%
%TO.C,C5*%
X40950000Y-63537500D03*
X40950000Y-61962500D03*
%TD*%
D27*
%TO.C,D413*%
X276681250Y-90400000D03*
X279181250Y-90400000D03*
%TD*%
D45*
%TO.C,U1*%
X42169157Y-68292202D03*
X41886314Y-68575045D03*
X41603472Y-68857887D03*
X41320629Y-69140730D03*
X41037786Y-69423573D03*
X40754944Y-69706415D03*
X40472101Y-69989258D03*
X40189258Y-70272101D03*
X39906415Y-70554944D03*
X39623573Y-70837786D03*
X39340730Y-71120629D03*
X39057887Y-71403472D03*
X38775045Y-71686314D03*
X38492202Y-71969157D03*
D46*
X37307798Y-71969157D03*
X37024955Y-71686314D03*
X36742113Y-71403472D03*
X36459270Y-71120629D03*
X36176427Y-70837786D03*
X35893585Y-70554944D03*
X35610742Y-70272101D03*
X35327899Y-69989258D03*
X35045056Y-69706415D03*
X34762214Y-69423573D03*
X34479371Y-69140730D03*
X34196528Y-68857887D03*
X33913686Y-68575045D03*
X33630843Y-68292202D03*
D45*
X33630843Y-67107798D03*
X33913686Y-66824955D03*
X34196528Y-66542113D03*
X34479371Y-66259270D03*
X34762214Y-65976427D03*
X35045056Y-65693585D03*
X35327899Y-65410742D03*
X35610742Y-65127899D03*
X35893585Y-64845056D03*
X36176427Y-64562214D03*
X36459270Y-64279371D03*
X36742113Y-63996528D03*
X37024955Y-63713686D03*
X37307798Y-63430843D03*
D46*
X38492202Y-63430843D03*
X38775045Y-63713686D03*
X39057887Y-63996528D03*
X39340730Y-64279371D03*
X39623573Y-64562214D03*
X39906415Y-64845056D03*
X40189258Y-65127899D03*
X40472101Y-65410742D03*
X40754944Y-65693585D03*
X41037786Y-65976427D03*
X41320629Y-66259270D03*
X41603472Y-66542113D03*
X41886314Y-66824955D03*
X42169157Y-67107798D03*
D47*
X37900000Y-67700000D03*
%TD*%
D27*
%TO.C,D013*%
X276681250Y-30800000D03*
X279181250Y-30800000D03*
%TD*%
D48*
%TO.C,Cb1*%
X19762500Y-45600000D03*
X21637500Y-45600000D03*
%TD*%
D27*
%TO.C,D209*%
X195718750Y-52200000D03*
X198218750Y-52200000D03*
%TD*%
D38*
%TO.C,R12*%
X41000000Y-98187500D03*
X41000000Y-96612500D03*
%TD*%
D34*
%TO.C,C2*%
X19912500Y-53300000D03*
X21487500Y-53300000D03*
%TD*%
D29*
%TO.C,C12*%
X33887500Y-71150000D03*
X32312500Y-71150000D03*
%TD*%
D27*
%TO.C,D312*%
X252868750Y-88000000D03*
X255368750Y-88000000D03*
%TD*%
%TO.C,D204*%
X100468750Y-52200000D03*
X102968750Y-52200000D03*
%TD*%
%TO.C,D202*%
X62368750Y-52200000D03*
X64868750Y-52200000D03*
%TD*%
%TO.C,D302*%
X62368750Y-88000000D03*
X64868750Y-88000000D03*
%TD*%
%TO.C,D201*%
X46493750Y-52200000D03*
X48993750Y-52200000D03*
%TD*%
%TO.C,D403*%
X81418750Y-90400000D03*
X83918750Y-90400000D03*
%TD*%
%TO.C,D301*%
X42550000Y-88000000D03*
X45050000Y-88000000D03*
%TD*%
%TO.C,D010*%
X214768750Y-30800000D03*
X217268750Y-30800000D03*
%TD*%
%TO.C,D409*%
X195718750Y-90400000D03*
X198218750Y-90400000D03*
%TD*%
%TO.C,D006*%
X138568750Y-30800000D03*
X141068750Y-30800000D03*
%TD*%
%TO.C,D104*%
X100468750Y-49800000D03*
X102968750Y-49800000D03*
%TD*%
%TO.C,D011*%
X233818750Y-30800000D03*
X236318750Y-30800000D03*
%TD*%
%TO.C,D107*%
X157618750Y-49800000D03*
X160118750Y-49800000D03*
%TD*%
D49*
%TO.C,D100*%
X31531250Y-49800000D03*
X29031250Y-49800000D03*
%TD*%
%TO.C,D300*%
X31531250Y-88000000D03*
X29031250Y-88000000D03*
%TD*%
D27*
%TO.C,D109*%
X195718750Y-49800000D03*
X198218750Y-49800000D03*
%TD*%
D50*
%TO.C,SW2*%
X62800000Y-62750000D03*
X62800000Y-66450000D03*
X56600000Y-62750000D03*
X56600000Y-66450000D03*
%TD*%
D34*
%TO.C,C17*%
X154112500Y-39281250D03*
X155687500Y-39281250D03*
%TD*%
D27*
%TO.C,D005*%
X119518750Y-30800000D03*
X122018750Y-30800000D03*
%TD*%
D38*
%TO.C,C13*%
X36250000Y-77237500D03*
X36250000Y-75662500D03*
%TD*%
D27*
%TO.C,D411*%
X233818750Y-90400000D03*
X236318750Y-90400000D03*
%TD*%
D38*
%TO.C,C3*%
X37650000Y-61937500D03*
X37650000Y-60362500D03*
%TD*%
D29*
%TO.C,R17*%
X160287500Y-32400000D03*
X158712500Y-32400000D03*
%TD*%
D27*
%TO.C,D402*%
X62368750Y-90400000D03*
X64868750Y-90400000D03*
%TD*%
D48*
%TO.C,C1*%
X19762500Y-47600000D03*
X21637500Y-47600000D03*
%TD*%
D38*
%TO.C,C4*%
X39050000Y-61937500D03*
X39050000Y-60362500D03*
%TD*%
%TO.C,R1*%
X40900000Y-17187500D03*
X40900000Y-15612500D03*
%TD*%
D27*
%TO.C,D001*%
X55225000Y-30800000D03*
X57725000Y-30800000D03*
%TD*%
D50*
%TO.C,SW1*%
X81800000Y-62750000D03*
X81800000Y-66450000D03*
X75600000Y-62750000D03*
X75600000Y-66450000D03*
%TD*%
D27*
%TO.C,D205*%
X119518750Y-52200000D03*
X122018750Y-52200000D03*
%TD*%
D41*
%TO.C,C16*%
X41000000Y-103012500D03*
X41000000Y-104587500D03*
%TD*%
D27*
%TO.C,D203*%
X81418750Y-52200000D03*
X83918750Y-52200000D03*
%TD*%
D41*
%TO.C,R3*%
X42300000Y-57712500D03*
X42300000Y-59287500D03*
%TD*%
D27*
%TO.C,D102*%
X62368750Y-49800000D03*
X64868750Y-49800000D03*
%TD*%
%TO.C,D004*%
X100468750Y-30800000D03*
X102968750Y-30800000D03*
%TD*%
D49*
%TO.C,D400*%
X31531250Y-90400000D03*
X29031250Y-90400000D03*
%TD*%
D27*
%TO.C,D210*%
X214768750Y-52200000D03*
X217268750Y-52200000D03*
%TD*%
%TO.C,D406*%
X136187500Y-90400000D03*
X138687500Y-90400000D03*
%TD*%
%TO.C,D408*%
X174287500Y-90400000D03*
X176787500Y-90400000D03*
%TD*%
%TO.C,D111*%
X233818750Y-49800000D03*
X236318750Y-49800000D03*
%TD*%
D51*
%TO.C,J1*%
X27677000Y-16953000D03*
X33457000Y-16953000D03*
D52*
X27317000Y-18398000D03*
X28117000Y-18398000D03*
D53*
X29317000Y-18398000D03*
X30317000Y-18398000D03*
X30817000Y-18398000D03*
X31817000Y-18398000D03*
D52*
X33017000Y-18398000D03*
X33817000Y-18398000D03*
X33817000Y-18398000D03*
X33017000Y-18398000D03*
D53*
X32317000Y-18398000D03*
X31317000Y-18398000D03*
X29817000Y-18398000D03*
X28817000Y-18398000D03*
D52*
X28117000Y-18398000D03*
X27317000Y-18398000D03*
D54*
X34887000Y-17483000D03*
X26247000Y-17483000D03*
D55*
X26247000Y-13303000D03*
X34887000Y-13303000D03*
%TD*%
D27*
%TO.C,D101*%
X46493750Y-49800000D03*
X48993750Y-49800000D03*
%TD*%
D34*
%TO.C,R0*%
X22612500Y-14450000D03*
X24187500Y-14450000D03*
%TD*%
D27*
%TO.C,D007*%
X164762500Y-30800000D03*
X167262500Y-30800000D03*
%TD*%
D56*
%TO.C,C0*%
X24337500Y-16450000D03*
X22462500Y-16450000D03*
%TD*%
D27*
%TO.C,D009*%
X195718750Y-30800000D03*
X198218750Y-30800000D03*
%TD*%
D41*
%TO.C,R14*%
X41850000Y-75662500D03*
X41850000Y-77237500D03*
%TD*%
D27*
%TO.C,D105*%
X119518750Y-49800000D03*
X122018750Y-49800000D03*
%TD*%
D49*
%TO.C,D200*%
X31550000Y-52200000D03*
X29050000Y-52200000D03*
%TD*%
D34*
%TO.C,R5*%
X32912500Y-74150000D03*
X34487500Y-74150000D03*
%TD*%
D49*
%TO.C,D000*%
X26950000Y-30800000D03*
X24450000Y-30800000D03*
%TD*%
D57*
%TO.C,ESD1*%
X39900000Y-22000000D03*
D58*
X39900000Y-23700000D03*
X37500000Y-23700000D03*
X37500000Y-21800000D03*
%TD*%
D34*
%TO.C,C8*%
X41262500Y-72500000D03*
X42837500Y-72500000D03*
%TD*%
D27*
%TO.C,D313*%
X276681250Y-88000000D03*
X279181250Y-88000000D03*
%TD*%
D29*
%TO.C,R16*%
X160287500Y-30700000D03*
X158712500Y-30700000D03*
%TD*%
D27*
%TO.C,D113*%
X276681250Y-49800000D03*
X279181250Y-49800000D03*
%TD*%
D38*
%TO.C,R9*%
X39200000Y-101387500D03*
X39200000Y-99812500D03*
%TD*%
G36*
X208530745Y-98015948D02*
G01*
X208531328Y-98017467D01*
X208527003Y-98100000D01*
X208546302Y-98468255D01*
X208552815Y-98509378D01*
X208552099Y-98511245D01*
X208550123Y-98511558D01*
X208549135Y-98510736D01*
X208529667Y-98478967D01*
X208494066Y-98470420D01*
X208462626Y-98489686D01*
X208456574Y-98501564D01*
X208454897Y-98502653D01*
X208453115Y-98501745D01*
X208452890Y-98500038D01*
X208458912Y-98481505D01*
X208477989Y-98300000D01*
X208458912Y-98118495D01*
X208430496Y-98031039D01*
X208430912Y-98029083D01*
X208432814Y-98028465D01*
X208433919Y-98029122D01*
X208457770Y-98057048D01*
X208494268Y-98059920D01*
X208522265Y-98036008D01*
X208527399Y-98016844D01*
X208528813Y-98015430D01*
X208530745Y-98015948D01*
G37*
G36*
X215572466Y-98016344D02*
G01*
X215588506Y-98049974D01*
X215623018Y-98062195D01*
X215656248Y-98046345D01*
X215665677Y-98030016D01*
X215667409Y-98029016D01*
X215669141Y-98030016D01*
X215669311Y-98031634D01*
X215641088Y-98118495D01*
X215622011Y-98300000D01*
X215641088Y-98481505D01*
X215647440Y-98501053D01*
X215647024Y-98503009D01*
X215645122Y-98503627D01*
X215644017Y-98502970D01*
X215620166Y-98475045D01*
X215583669Y-98472172D01*
X215555629Y-98496121D01*
X215551104Y-98510047D01*
X215549618Y-98511385D01*
X215547716Y-98510767D01*
X215547227Y-98509116D01*
X215553698Y-98468255D01*
X215572997Y-98100000D01*
X215568664Y-98017310D01*
X215569572Y-98015528D01*
X215571569Y-98015423D01*
X215572466Y-98016344D01*
G37*
G36*
X129158704Y-91990245D02*
G01*
X129159033Y-91992218D01*
X129157668Y-91993451D01*
X129109522Y-92006082D01*
X129080018Y-92028475D01*
X129075050Y-92064747D01*
X129097339Y-92094112D01*
X129111092Y-92099328D01*
X129112357Y-92100877D01*
X129111648Y-92102747D01*
X129109993Y-92103160D01*
X128984997Y-92078298D01*
X128774928Y-92075547D01*
X128567876Y-92111125D01*
X128536570Y-92122675D01*
X128534599Y-92122337D01*
X128533907Y-92120460D01*
X128534520Y-92119330D01*
X128561609Y-92094288D01*
X128563046Y-92057707D01*
X128538000Y-92030615D01*
X128525292Y-92026795D01*
X128463152Y-92017286D01*
X128461592Y-92016035D01*
X128461894Y-92014059D01*
X128463690Y-92013323D01*
X128644171Y-92034685D01*
X128925451Y-92028055D01*
X129156832Y-91989543D01*
X129158704Y-91990245D01*
G37*
G36*
X148208704Y-91990245D02*
G01*
X148209033Y-91992218D01*
X148207668Y-91993451D01*
X148159522Y-92006082D01*
X148130018Y-92028475D01*
X148125050Y-92064747D01*
X148147339Y-92094112D01*
X148161092Y-92099328D01*
X148162357Y-92100877D01*
X148161648Y-92102747D01*
X148159993Y-92103160D01*
X148034997Y-92078298D01*
X147824928Y-92075547D01*
X147617876Y-92111125D01*
X147586570Y-92122675D01*
X147584599Y-92122337D01*
X147583907Y-92120460D01*
X147584520Y-92119330D01*
X147611609Y-92094288D01*
X147613046Y-92057707D01*
X147588000Y-92030615D01*
X147575292Y-92026795D01*
X147513152Y-92017286D01*
X147511592Y-92016035D01*
X147511894Y-92014059D01*
X147513690Y-92013323D01*
X147694171Y-92034685D01*
X147975451Y-92028055D01*
X148206832Y-91989543D01*
X148208704Y-91990245D01*
G37*
G36*
X205358704Y-91990245D02*
G01*
X205359033Y-91992218D01*
X205357668Y-91993451D01*
X205309522Y-92006082D01*
X205280018Y-92028475D01*
X205275050Y-92064747D01*
X205297339Y-92094112D01*
X205311092Y-92099328D01*
X205312357Y-92100877D01*
X205311648Y-92102747D01*
X205309993Y-92103160D01*
X205184997Y-92078298D01*
X204974928Y-92075547D01*
X204767876Y-92111125D01*
X204736570Y-92122675D01*
X204734599Y-92122337D01*
X204733907Y-92120460D01*
X204734520Y-92119330D01*
X204761609Y-92094288D01*
X204763046Y-92057707D01*
X204738000Y-92030615D01*
X204725292Y-92026795D01*
X204663152Y-92017286D01*
X204661592Y-92016035D01*
X204661894Y-92014059D01*
X204663690Y-92013323D01*
X204844171Y-92034685D01*
X205125451Y-92028055D01*
X205356832Y-91989543D01*
X205358704Y-91990245D01*
G37*
G36*
X167258704Y-91990245D02*
G01*
X167259033Y-91992218D01*
X167257668Y-91993451D01*
X167209522Y-92006082D01*
X167180018Y-92028475D01*
X167175050Y-92064747D01*
X167197339Y-92094112D01*
X167211092Y-92099328D01*
X167212357Y-92100877D01*
X167211648Y-92102747D01*
X167209993Y-92103160D01*
X167084997Y-92078298D01*
X166874928Y-92075547D01*
X166667876Y-92111125D01*
X166636570Y-92122675D01*
X166634599Y-92122337D01*
X166633907Y-92120460D01*
X166634520Y-92119330D01*
X166661609Y-92094288D01*
X166663046Y-92057707D01*
X166638000Y-92030615D01*
X166625292Y-92026795D01*
X166563152Y-92017286D01*
X166561592Y-92016035D01*
X166561894Y-92014059D01*
X166563690Y-92013323D01*
X166744171Y-92034685D01*
X167025451Y-92028055D01*
X167256832Y-91989543D01*
X167258704Y-91990245D01*
G37*
G36*
X186308704Y-91990245D02*
G01*
X186309033Y-91992218D01*
X186307668Y-91993451D01*
X186259522Y-92006082D01*
X186230018Y-92028475D01*
X186225050Y-92064747D01*
X186247339Y-92094112D01*
X186261092Y-92099328D01*
X186262357Y-92100877D01*
X186261648Y-92102747D01*
X186259993Y-92103160D01*
X186134997Y-92078298D01*
X185924928Y-92075547D01*
X185717876Y-92111125D01*
X185686570Y-92122675D01*
X185684599Y-92122337D01*
X185683907Y-92120460D01*
X185684520Y-92119330D01*
X185711609Y-92094288D01*
X185713046Y-92057707D01*
X185688000Y-92030615D01*
X185675292Y-92026795D01*
X185613152Y-92017286D01*
X185611592Y-92016035D01*
X185611894Y-92014059D01*
X185613690Y-92013323D01*
X185794171Y-92034685D01*
X186075451Y-92028055D01*
X186306832Y-91989543D01*
X186308704Y-91990245D01*
G37*
G36*
X158426055Y-59898973D02*
G01*
X158426963Y-59900545D01*
X158426976Y-59900790D01*
X158428267Y-59901447D01*
X158428475Y-59901869D01*
X158439414Y-59932755D01*
X158472459Y-59948514D01*
X158507111Y-59936241D01*
X158520259Y-59915994D01*
X158522041Y-59915086D01*
X158523718Y-59916175D01*
X158523838Y-59917701D01*
X158491088Y-60018495D01*
X158472011Y-60200000D01*
X158490156Y-60372638D01*
X158489343Y-60374465D01*
X158487354Y-60374674D01*
X158486409Y-60373801D01*
X158468887Y-60341528D01*
X158433783Y-60331129D01*
X158401477Y-60348669D01*
X158391334Y-60371452D01*
X158389716Y-60372628D01*
X158387889Y-60371815D01*
X158387532Y-60370326D01*
X158403698Y-60268255D01*
X158422969Y-59900545D01*
X158424058Y-59898868D01*
X158426055Y-59898973D01*
G37*
G36*
X151376123Y-59898973D02*
G01*
X151377031Y-59900545D01*
X151396302Y-60268255D01*
X151412482Y-60370415D01*
X151411766Y-60372282D01*
X151409790Y-60372595D01*
X151408802Y-60371773D01*
X151389334Y-60340003D01*
X151353733Y-60331456D01*
X151322391Y-60350662D01*
X151313738Y-60373206D01*
X151312184Y-60374464D01*
X151310317Y-60373748D01*
X151309882Y-60372280D01*
X151327989Y-60200000D01*
X151308912Y-60018495D01*
X151276051Y-59917358D01*
X151276467Y-59915402D01*
X151278369Y-59914784D01*
X151279474Y-59915441D01*
X151303324Y-59943365D01*
X151339822Y-59946238D01*
X151367774Y-59922363D01*
X151372071Y-59902154D01*
X151373007Y-59901114D01*
X151373037Y-59900545D01*
X151374126Y-59898868D01*
X151376123Y-59898973D01*
G37*
M02*
