M48
; DRILL file {KiCad 7.0.7} date Mon Jan 22 13:40:03 2024
; FORMAT={-:-/ absolute / inch / decimal}
; #@! TF.CreationDate,2024-01-22T13:40:03+01:00
; #@! TF.GenerationSoftware,Kicad,Pcbnew,7.0.7
; #@! TF.FileFunction,Plated,1,2,PTH
FMAT,2
INCH
; #@! TA.AperFunction,Plated,PTH,ViaDrill
T1C0.0118
; #@! TA.AperFunction,Plated,PTH,ViaDrill
T2C0.0157
; #@! TA.AperFunction,Plated,PTH,ComponentDrill
T3C0.0197
; #@! TA.AperFunction,Plated,PTH,ComponentDrill
T4C0.0236
; #@! TA.AperFunction,Plated,PTH,ComponentDrill
T5C0.0394
; #@! TA.AperFunction,Plated,PTH,ComponentDrill
T6C0.0409
; #@! TA.AperFunction,Plated,PTH,ComponentDrill
T7C0.0551
; #@! TA.AperFunction,Plated,PTH,ComponentDrill
T8C0.0579
; #@! TA.AperFunction,Plated,PTH,ComponentDrill
T9C0.0984
%
G90
G05
T1
X0.939Y-2.7441
X0.9449Y-2.7776
X0.9646Y-2.7283
X0.9724Y-2.6496
X1.0Y-2.6732
X1.0098Y-3.4646
X1.0118Y-3.4311
X1.0295Y-3.4961
X1.0551Y-1.9213
X1.0551Y-1.9606
X1.0551Y-2.0551
X1.0669Y-1.2441
X1.1102Y-1.7362
X1.128Y-0.6673
X1.1299Y-3.9488
X1.1299Y-3.9843
X1.1555Y-2.6713
X1.1949Y-2.063
X1.2008Y-2.5591
X1.2008Y-2.5945
X1.2047Y-1.5472
X1.2146Y-2.7146
X1.2165Y-3.4331
X1.2205Y-1.9606
X1.2244Y-2.6555
X1.2303Y-3.3654
X1.2323Y-2.8012
X1.2402Y-3.5354
X1.2657Y-2.4331
X1.2874Y-2.5492
X1.2913Y-2.4528
X1.3071Y-1.9094
X1.313Y-2.7874
X1.3169Y-2.4331
X1.4213Y-0.6417
X1.4232Y-2.9016
X1.4291Y-2.4685
X1.4331Y-2.6654
X1.4449Y-2.376
X1.4469Y-2.7657
X1.4626Y-2.6358
X1.4626Y-2.6949
X1.4764Y-1.0354
X1.4921Y-2.6063
X1.4921Y-2.6654
X1.4921Y-2.7244
X1.5118Y-0.6063
X1.5177Y-2.5492
X1.5217Y-2.6358
X1.5217Y-2.6949
X1.5512Y-2.6654
X1.5748Y-1.0354
X1.5787Y-4.1181
X1.5984Y-1.2244
X1.5984Y-1.8012
X1.5984Y-1.9075
X1.5984Y-1.9567
X1.5984Y-2.0433
X1.6142Y-3.7756
X1.6161Y-2.5433
X1.6201Y-2.25
X1.626Y-1.2638
X1.6457Y-2.8622
X1.6575Y-2.25
X1.6654Y-2.437
X1.6791Y-1.8012
X1.6791Y-1.9075
X1.6791Y-1.9567
X1.6791Y-2.0433
X1.7106Y-2.8543
X1.7382Y-3.0591
X1.7854Y-2.5945
X1.7953Y-4.1693
X1.811Y-2.6791
X1.8268Y-3.4567
X1.8583Y-4.0354
X1.8976Y-2.6358
X1.9134Y-1.937
X1.9234Y-1.5175
X1.9961Y-1.378
X2.0866Y-1.1457
X2.1024Y-1.9724
X2.1063Y-1.252
X2.1181Y-1.2047
X2.122Y-3.9803
X2.1339Y-1.7756
X2.1516Y-2.4488
X2.1772Y-1.3228
X2.5236Y-2.6161
X2.5472Y-3.2441
X2.5906Y-1.2126
X2.6063Y-1.9528
X2.6063Y-3.4567
X2.6122Y-3.4114
X2.6732Y-2.8976
X2.7283Y-1.3228
X2.7441Y-1.378
X2.8583Y-3.4055
X2.9173Y-2.4705
X2.9252Y-3.2677
X3.3268Y-3.2205
X3.3543Y-1.2047
X3.3543Y-3.4567
X3.3583Y-1.9528
X3.3622Y-2.5374
X3.3622Y-2.6063
X3.4606Y-2.8819
X3.4685Y-1.3465
X3.5Y-1.376
X3.6575Y-3.2441
X4.0689Y-3.3917
X4.0748Y-3.2441
X4.1063Y-1.2047
X4.1063Y-1.9528
X4.2087Y-1.3622
X4.2087Y-2.8661
X4.3937Y-2.6102
X4.4134Y-3.2441
X4.7598Y-3.4567
X4.8228Y-3.2441
X4.8386Y-1.2126
X4.8583Y-1.9528
X4.9409Y-2.8504
X4.9646Y-1.3622
X5.3346Y-3.1811
X5.3583Y-2.8268
X5.374Y-1.8346
X5.4124Y-3.1575
X5.4291Y-3.185
X5.4429Y-1.5
X5.4567Y-3.248
X5.4606Y-1.878
X5.4606Y-3.1969
X5.4803Y-1.5
X5.5157Y-1.5591
X5.5433Y-2.6024
X5.5472Y-2.8268
X5.5591Y-2.5
X5.5591Y-2.5394
X5.5906Y-1.2126
X5.6339Y-1.2126
X5.6339Y-1.3622
X5.689Y-0.7559
X5.7441Y-1.3406
X5.8602Y-2.7326
X5.861Y-3.3201
X5.8619Y-2.0076
X5.8622Y-1.3622
X5.8622Y-1.4201
X5.878Y-2.5118
X5.9016Y-1.4567
X5.9803Y-1.1398
X6.1693Y-1.2205
X6.2795Y-1.3465
X6.4213Y-1.2776
X6.4547Y-1.2776
X6.5531Y-1.1988
X6.5748Y-1.9016
X6.5984Y-1.8681
X6.6102Y-1.4201
X6.6102Y-2.0076
X6.6102Y-2.7326
X6.6102Y-3.3201
X6.9646Y-0.7559
X6.9646Y-1.2402
X7.0Y-3.563
X7.0118Y-3.437
X7.1063Y-1.2047
X7.1063Y-1.9528
X7.8236Y-3.6134
X7.8543Y-1.9528
X7.8583Y-1.2047
X7.8583Y-3.437
X8.6063Y-1.2047
X8.6063Y-1.9528
X8.6339Y-3.4213
X8.7734Y-1.2608
X9.3583Y-1.2047
X9.3583Y-1.9528
X9.3583Y-3.4567
X9.5234Y-1.26
X10.1063Y-1.2047
X10.1063Y-1.9528
X10.1063Y-3.4567
X10.2734Y-1.26
X11.0433Y-1.2047
X11.0433Y-1.9528
X11.0472Y-3.4567
X11.185Y-1.3701
T2
X1.0354Y-0.7638
X1.107Y-0.7749
X1.2999Y-0.7756
X1.3012Y-0.9075
X1.3484Y-0.7756
X1.3819Y-1.185
X1.4764Y-0.815
X1.5039Y-1.185
X1.5709Y-0.815
X1.9331Y-1.0039
T3
X0.5591Y-2.6378
X0.5591Y-2.8268
X0.6378Y-2.6378
X0.6378Y-2.8268
X0.7047Y-2.6654
X0.7047Y-2.7992
X0.7323Y-2.7323
X1.3898Y-1.6063
X1.4163Y-1.5423
X1.4163Y-1.6703
X1.4803Y-1.5157
X1.4803Y-1.6969
X1.5443Y-1.5423
X1.5443Y-1.6703
X1.5709Y-1.6063
X6.0512Y-2.2677
X6.0512Y-2.4488
X6.0984Y-2.2677
X6.0984Y-2.4488
X6.1457Y-2.2677
X6.1457Y-2.4488
X8.3012Y-3.7717
X8.3012Y-3.9528
X8.3484Y-3.7717
X8.3484Y-3.9528
X8.3957Y-3.7717
X8.3957Y-3.9528
X10.6791Y-1.5157
X10.6791Y-1.6969
X10.7264Y-1.5157
X10.7264Y-1.6969
X10.7736Y-1.5151
X10.7736Y-1.6969
X11.4646Y-2.7323
X11.4921Y-2.6654
X11.4921Y-2.7992
X11.5591Y-2.6378
X11.5591Y-2.8268
X11.6378Y-2.6378
X11.6378Y-2.8268
T5
X0.5472Y-3.0354
X0.5472Y-3.1354
X0.5472Y-3.2354
X0.5472Y-3.3354
X1.875Y-3.5984
X1.875Y-4.1693
X1.9734Y-4.1693
X2.0719Y-3.5984
X2.0719Y-4.1693
T6
X0.9859Y-1.8201
X0.9859Y-2.5701
X0.9859Y-3.3201
X0.9859Y-4.0701
X1.0859Y-1.8201
X1.0859Y-2.5701
X1.0859Y-3.3201
X1.0859Y-4.0701
X1.2359Y-0.8201
X1.2359Y-0.9201
X1.9234Y-1.0701
X1.9234Y-1.8201
X1.9234Y-2.5701
X1.9234Y-3.3201
X1.9234Y-4.0701
X2.0234Y-1.0701
X2.0234Y-1.8201
X2.0234Y-2.5701
X2.0234Y-3.3201
X2.0234Y-4.0701
X2.6734Y-1.0701
X2.6734Y-1.8201
X2.6734Y-2.5701
X2.6734Y-3.3201
X2.6734Y-4.0701
X2.7734Y-1.0701
X2.7734Y-1.8201
X2.7734Y-2.5701
X2.7734Y-3.3201
X2.7734Y-4.0701
X2.8609Y-4.0701
X2.9609Y-4.0701
X3.4234Y-1.0701
X3.4234Y-1.8201
X3.4234Y-2.5701
X3.4234Y-3.3201
X3.4234Y-4.0701
X3.5234Y-1.0701
X3.5234Y-1.8201
X3.5234Y-2.5701
X3.5234Y-3.3201
X3.5234Y-4.0701
X4.1734Y-1.0701
X4.1734Y-1.8201
X4.1734Y-2.5701
X4.1734Y-3.3201
X4.1734Y-4.0701
X4.2734Y-1.0701
X4.2734Y-1.8201
X4.2734Y-2.5701
X4.2734Y-3.3201
X4.2734Y-4.0701
X4.5484Y-4.0701
X4.6484Y-4.0701
X4.9234Y-1.0701
X4.9234Y-1.8201
X4.9234Y-2.5701
X4.9234Y-3.3201
X4.9234Y-4.0701
X5.0234Y-1.0701
X5.0234Y-1.8201
X5.0234Y-2.5701
X5.0234Y-3.3201
X5.0234Y-4.0701
X5.2984Y-4.0701
X5.3984Y-4.0701
X5.6734Y-1.0701
X5.6734Y-1.4201
X5.6734Y-2.0076
X5.6734Y-2.5701
X5.6734Y-2.7326
X5.6734Y-3.3201
X5.6734Y-4.0701
X5.7734Y-1.0701
X5.7734Y-1.4201
X5.7734Y-2.0076
X5.7734Y-2.5701
X5.7734Y-2.7326
X5.7734Y-3.3201
X5.7734Y-4.0701
X6.0484Y-4.0701
X6.1484Y-4.0701
X6.4234Y-1.0701
X6.4234Y-1.4201
X6.4234Y-2.0076
X6.4234Y-2.5701
X6.4234Y-2.7326
X6.4234Y-3.3201
X6.4234Y-4.0701
X6.5234Y-1.0701
X6.5234Y-1.4201
X6.5234Y-2.0076
X6.5234Y-2.5701
X6.5234Y-2.7326
X6.5234Y-3.3201
X6.5234Y-4.0701
X6.7984Y-4.0701
X6.8984Y-4.0701
X7.1734Y-1.0701
X7.1734Y-1.8201
X7.1734Y-2.5701
X7.1734Y-3.3201
X7.1734Y-4.0701
X7.2734Y-1.0701
X7.2734Y-1.8201
X7.2734Y-2.5701
X7.2734Y-3.3201
X7.2734Y-4.0701
X7.5484Y-4.0701
X7.6484Y-4.0701
X7.9234Y-1.0701
X7.9234Y-1.8201
X7.9234Y-2.5701
X7.9234Y-3.3201
X7.9234Y-4.0701
X8.0234Y-1.0701
X8.0234Y-1.8201
X8.0234Y-2.5701
X8.0234Y-3.3201
X8.0234Y-4.0701
X8.6734Y-1.0701
X8.6734Y-1.8201
X8.6734Y-2.5701
X8.6734Y-3.3201
X8.6734Y-4.0701
X8.7734Y-1.0701
X8.7734Y-1.8201
X8.7734Y-2.5701
X8.7734Y-3.3201
X8.7734Y-4.0701
X9.2359Y-4.0701
X9.3359Y-4.0701
X9.4234Y-1.0701
X9.4234Y-1.8201
X9.4234Y-2.5701
X9.4234Y-3.3201
X9.4234Y-4.0701
X9.5234Y-1.0701
X9.5234Y-1.8201
X9.5234Y-2.5701
X9.5234Y-3.3201
X9.5234Y-4.0701
X10.1734Y-1.0701
X10.1734Y-1.8201
X10.1734Y-2.5701
X10.1734Y-3.3201
X10.1734Y-4.0701
X10.2734Y-1.0701
X10.2734Y-1.8201
X10.2734Y-2.5701
X10.2734Y-3.3201
X10.2734Y-4.0701
X11.1109Y-1.0701
X11.1109Y-1.8201
X11.1109Y-2.5701
X11.1109Y-3.3201
X11.1109Y-4.0701
X11.2109Y-1.0701
X11.2109Y-1.8201
X11.2109Y-2.5701
X11.2109Y-3.3201
X11.2109Y-4.0701
T8
X0.8359Y-0.7701
X0.8859Y-1.5201
X0.8859Y-2.2701
X0.8859Y-3.0201
X0.8859Y-3.7701
X0.9359Y-1.0201
X1.1359Y-1.4201
X1.1359Y-2.1701
X1.1359Y-2.9201
X1.1359Y-3.6701
X1.8234Y-0.7701
X1.8234Y-1.5201
X1.8234Y-2.2701
X1.8234Y-3.0201
X1.8234Y-3.7701
X2.0734Y-0.6701
X2.0734Y-1.4201
X2.0734Y-2.1701
X2.0734Y-2.9201
X2.0734Y-3.6701
X2.5734Y-0.7701
X2.5734Y-1.5201
X2.5734Y-2.2701
X2.5734Y-3.0201
X2.5734Y-3.7701
X2.7609Y-3.7701
X2.8234Y-0.6701
X2.8234Y-1.4201
X2.8234Y-2.1701
X2.8234Y-2.9201
X2.8234Y-3.6701
X3.0109Y-3.6701
X3.3234Y-0.7701
X3.3234Y-1.5201
X3.3234Y-2.2701
X3.3234Y-3.0201
X3.3234Y-3.7701
X3.5734Y-0.6701
X3.5734Y-1.4201
X3.5734Y-2.1701
X3.5734Y-2.9201
X3.5734Y-3.6701
X4.0734Y-0.7701
X4.0734Y-1.5201
X4.0734Y-2.2701
X4.0734Y-3.0201
X4.0734Y-3.7701
X4.3234Y-0.6701
X4.3234Y-1.4201
X4.3234Y-2.1701
X4.3234Y-2.9201
X4.3234Y-3.6701
X4.4484Y-3.7701
X4.6984Y-3.6701
X4.8234Y-0.7701
X4.8234Y-1.5201
X4.8234Y-2.2701
X4.8234Y-3.0201
X4.8234Y-3.7701
X5.0734Y-0.6701
X5.0734Y-1.4201
X5.0734Y-2.1701
X5.0734Y-2.9201
X5.0734Y-3.6701
X5.1984Y-3.7701
X5.4484Y-3.6701
X5.5734Y-0.7701
X5.5734Y-1.7076
X5.5734Y-2.2701
X5.5734Y-3.0201
X5.5734Y-3.7701
X5.6234Y-1.8201
X5.6234Y-3.1326
X5.8234Y-0.6701
X5.8234Y-1.6076
X5.8234Y-2.1701
X5.8234Y-2.9201
X5.8234Y-3.6701
X5.8734Y-1.7201
X5.8734Y-3.0326
X5.9484Y-3.7701
X6.1984Y-3.6701
X6.3234Y-0.7701
X6.3234Y-1.7076
X6.3234Y-2.2701
X6.3234Y-3.0201
X6.3234Y-3.7701
X6.3734Y-1.8201
X6.3734Y-3.1326
X6.5734Y-0.6701
X6.5734Y-1.6076
X6.5734Y-2.1701
X6.5734Y-2.9201
X6.5734Y-3.6701
X6.6234Y-1.7201
X6.6234Y-3.0326
X6.6984Y-3.7701
X6.9484Y-3.6701
X7.0734Y-0.7701
X7.0734Y-1.5201
X7.0734Y-2.2701
X7.0734Y-3.0201
X7.0734Y-3.7701
X7.3234Y-0.6701
X7.3234Y-1.4201
X7.3234Y-2.1701
X7.3234Y-2.9201
X7.3234Y-3.6701
X7.4484Y-3.7701
X7.6984Y-3.6701
X7.8234Y-0.7701
X7.8234Y-1.5201
X7.8234Y-2.2701
X7.8234Y-3.0201
X7.8234Y-3.7701
X8.0734Y-0.6701
X8.0734Y-1.4201
X8.0734Y-2.1701
X8.0734Y-2.9201
X8.0734Y-3.6701
X8.5734Y-0.7701
X8.5734Y-1.5201
X8.5734Y-2.2701
X8.5734Y-3.0201
X8.5734Y-3.7701
X8.8234Y-0.6701
X8.8234Y-1.4201
X8.8234Y-2.1701
X8.8234Y-2.9201
X8.8234Y-3.6701
X9.1359Y-3.7701
X9.3234Y-0.7701
X9.3234Y-1.5201
X9.3234Y-2.2701
X9.3234Y-3.0201
X9.3234Y-3.7701
X9.3859Y-3.6701
X9.5734Y-0.6701
X9.5734Y-1.4201
X9.5734Y-2.1701
X9.5734Y-2.9201
X9.5734Y-3.6701
X10.0734Y-0.7701
X10.0734Y-1.5201
X10.0734Y-2.2701
X10.0734Y-3.0201
X10.0734Y-3.7701
X10.3234Y-0.6701
X10.3234Y-1.4201
X10.3234Y-2.1701
X10.3234Y-2.9201
X10.3234Y-3.6701
X11.0109Y-0.7701
X11.0109Y-1.5201
X11.0109Y-2.2701
X11.0109Y-3.0201
X11.0109Y-3.7701
X11.2609Y-0.6701
X11.2609Y-1.4201
X11.2609Y-2.1701
X11.2609Y-2.9201
X11.2609Y-3.6701
T9
X1.4803Y-1.6063
T4
G00X1.0333Y-0.5119
M15
G01X1.0333Y-0.5356
M16
G05
G00X1.0333Y-0.6667
M15
G01X1.0333Y-0.71
M16
G05
G00X1.3735Y-0.5119
M15
G01X1.3735Y-0.5356
M16
G05
G00X1.3735Y-0.6667
M15
G01X1.3735Y-0.71
M16
G05
T7
G00X1.753Y-3.9016
M15
G01X1.753Y-3.8465
M16
G05
G00X2.1939Y-3.9016
M15
G01X2.1939Y-3.8465
M16
G05
T9
G00X6.0492Y-2.3583
M15
G01X6.1476Y-2.3583
M16
G05
G00X8.2992Y-3.8622
M15
G01X8.3976Y-3.8622
M16
G05
G00X10.6772Y-1.6063
M15
G01X10.7756Y-1.6063
M16
G05
T0
M30
