G04 #@! TF.GenerationSoftware,KiCad,Pcbnew,(5.1.5)-3*
G04 #@! TF.CreationDate,2020-09-16T11:12:37+02:00*
G04 #@! TF.ProjectId,0x42,30783432-2e6b-4696-9361-645f70636258,v0.1*
G04 #@! TF.SameCoordinates,Original*
G04 #@! TF.FileFunction,Legend,Top*
G04 #@! TF.FilePolarity,Positive*
%FSLAX46Y46*%
G04 Gerber Fmt 4.6, Leading zero omitted, Abs format (unit mm)*
G04 Created by KiCad (PCBNEW (5.1.5)-3) date 2020-09-16 11:12:37*
%MOMM*%
%LPD*%
G04 APERTURE LIST*
%ADD10C,0.400000*%
G04 APERTURE END LIST*
D10*
X214525000Y-121000000D02*
X214525000Y-123250000D01*
X228525000Y-123250000D02*
X228525000Y-121000000D01*
X228525000Y-108750000D02*
X228525000Y-111000000D01*
X214525000Y-111000000D02*
X214525000Y-108750000D01*
X195475000Y-121000000D02*
X195475000Y-123250000D01*
X209475000Y-123250000D02*
X209475000Y-121000000D01*
X209475000Y-108750000D02*
X209475000Y-111000000D01*
X195475000Y-111000000D02*
X195475000Y-108750000D01*
X209475000Y-161100000D02*
X209475000Y-159100000D01*
X207475000Y-161100000D02*
X209475000Y-161100000D01*
X209475000Y-147100000D02*
X209475000Y-149100000D01*
X207475000Y-147100000D02*
X209475000Y-147100000D01*
X176425000Y-161100000D02*
X178425000Y-161100000D01*
X176425000Y-159100000D02*
X176425000Y-161100000D01*
X176425000Y-147100000D02*
X178425000Y-147100000D01*
X176425000Y-149100000D02*
X176425000Y-147100000D01*
X214525000Y-161100000D02*
X216525000Y-161100000D01*
X214525000Y-159100000D02*
X214525000Y-161100000D01*
X214525000Y-147100000D02*
X216525000Y-147100000D01*
X214525000Y-149100000D02*
X214525000Y-147100000D01*
X247575000Y-161100000D02*
X247575000Y-159100000D01*
X245575000Y-161100000D02*
X247575000Y-161100000D01*
X247575000Y-147100000D02*
X247575000Y-149100000D01*
X245575000Y-147100000D02*
X247575000Y-147100000D01*
G36*
X119227848Y-156206924D02*
G01*
X119297970Y-156028725D01*
X119359622Y-155918189D01*
X119488778Y-155693211D01*
X119677067Y-155368061D01*
X119916120Y-154957010D01*
X120197566Y-154474330D01*
X120513034Y-153934289D01*
X120854154Y-153351160D01*
X121212557Y-152739213D01*
X121579871Y-152112718D01*
X121947727Y-151485946D01*
X122307754Y-150873168D01*
X122651582Y-150288654D01*
X122970840Y-149746675D01*
X123257159Y-149261503D01*
X123502168Y-148847406D01*
X123697497Y-148518657D01*
X123834775Y-148289526D01*
X123896358Y-148188837D01*
X124087785Y-147930776D01*
X124300607Y-147757220D01*
X124566566Y-147655485D01*
X124917404Y-147612883D01*
X125333030Y-147614655D01*
X125754120Y-147643389D01*
X126044096Y-147694782D01*
X126207359Y-147763019D01*
X126274986Y-147846140D01*
X126410509Y-148046482D01*
X126606739Y-148352092D01*
X126856489Y-148751013D01*
X127152570Y-149231292D01*
X127487797Y-149780974D01*
X127854979Y-150388103D01*
X128246931Y-151040727D01*
X128656465Y-151726889D01*
X129076392Y-152434636D01*
X129499525Y-153152012D01*
X129918676Y-153867063D01*
X130326659Y-154567834D01*
X130716284Y-155242372D01*
X130961019Y-155669367D01*
X131178956Y-156106024D01*
X131283616Y-156467907D01*
X131275880Y-156776638D01*
X131156630Y-157053837D01*
X131024270Y-157222421D01*
X130871449Y-157377600D01*
X130738846Y-157461130D01*
X130569910Y-157495068D01*
X130308823Y-157501471D01*
X130046536Y-157494819D01*
X129878230Y-157460996D01*
X129748610Y-157379200D01*
X129612053Y-157239341D01*
X129529694Y-157125822D01*
X129380234Y-156896046D01*
X129171561Y-156562989D01*
X128911562Y-156139624D01*
X128608126Y-155638926D01*
X128269139Y-155073870D01*
X127902490Y-154457430D01*
X127516065Y-153802581D01*
X127329943Y-153485370D01*
X126943608Y-152827406D01*
X126579109Y-152209890D01*
X126243517Y-151644575D01*
X125943900Y-151143214D01*
X125687327Y-150717561D01*
X125480867Y-150379368D01*
X125331589Y-150140390D01*
X125246561Y-150012379D01*
X125229798Y-149993529D01*
X125182753Y-150056132D01*
X125067603Y-150236107D01*
X124891417Y-150521701D01*
X124661263Y-150901162D01*
X124384209Y-151362739D01*
X124067324Y-151894679D01*
X123717676Y-152485230D01*
X123342333Y-153122640D01*
X123129203Y-153486029D01*
X122736510Y-154154005D01*
X122360206Y-154789290D01*
X122008135Y-155378971D01*
X121688140Y-155910133D01*
X121408063Y-156369859D01*
X121175746Y-156745237D01*
X120999033Y-157023349D01*
X120885766Y-157191282D01*
X120856489Y-157228684D01*
X120571425Y-157442075D01*
X120240305Y-157531046D01*
X119896119Y-157497966D01*
X119571860Y-157345203D01*
X119333655Y-157119359D01*
X119214727Y-156863155D01*
X119178824Y-156539627D01*
X119227848Y-156206924D01*
G37*
X119227848Y-156206924D02*
X119297970Y-156028725D01*
X119359622Y-155918189D01*
X119488778Y-155693211D01*
X119677067Y-155368061D01*
X119916120Y-154957010D01*
X120197566Y-154474330D01*
X120513034Y-153934289D01*
X120854154Y-153351160D01*
X121212557Y-152739213D01*
X121579871Y-152112718D01*
X121947727Y-151485946D01*
X122307754Y-150873168D01*
X122651582Y-150288654D01*
X122970840Y-149746675D01*
X123257159Y-149261503D01*
X123502168Y-148847406D01*
X123697497Y-148518657D01*
X123834775Y-148289526D01*
X123896358Y-148188837D01*
X124087785Y-147930776D01*
X124300607Y-147757220D01*
X124566566Y-147655485D01*
X124917404Y-147612883D01*
X125333030Y-147614655D01*
X125754120Y-147643389D01*
X126044096Y-147694782D01*
X126207359Y-147763019D01*
X126274986Y-147846140D01*
X126410509Y-148046482D01*
X126606739Y-148352092D01*
X126856489Y-148751013D01*
X127152570Y-149231292D01*
X127487797Y-149780974D01*
X127854979Y-150388103D01*
X128246931Y-151040727D01*
X128656465Y-151726889D01*
X129076392Y-152434636D01*
X129499525Y-153152012D01*
X129918676Y-153867063D01*
X130326659Y-154567834D01*
X130716284Y-155242372D01*
X130961019Y-155669367D01*
X131178956Y-156106024D01*
X131283616Y-156467907D01*
X131275880Y-156776638D01*
X131156630Y-157053837D01*
X131024270Y-157222421D01*
X130871449Y-157377600D01*
X130738846Y-157461130D01*
X130569910Y-157495068D01*
X130308823Y-157501471D01*
X130046536Y-157494819D01*
X129878230Y-157460996D01*
X129748610Y-157379200D01*
X129612053Y-157239341D01*
X129529694Y-157125822D01*
X129380234Y-156896046D01*
X129171561Y-156562989D01*
X128911562Y-156139624D01*
X128608126Y-155638926D01*
X128269139Y-155073870D01*
X127902490Y-154457430D01*
X127516065Y-153802581D01*
X127329943Y-153485370D01*
X126943608Y-152827406D01*
X126579109Y-152209890D01*
X126243517Y-151644575D01*
X125943900Y-151143214D01*
X125687327Y-150717561D01*
X125480867Y-150379368D01*
X125331589Y-150140390D01*
X125246561Y-150012379D01*
X125229798Y-149993529D01*
X125182753Y-150056132D01*
X125067603Y-150236107D01*
X124891417Y-150521701D01*
X124661263Y-150901162D01*
X124384209Y-151362739D01*
X124067324Y-151894679D01*
X123717676Y-152485230D01*
X123342333Y-153122640D01*
X123129203Y-153486029D01*
X122736510Y-154154005D01*
X122360206Y-154789290D01*
X122008135Y-155378971D01*
X121688140Y-155910133D01*
X121408063Y-156369859D01*
X121175746Y-156745237D01*
X120999033Y-157023349D01*
X120885766Y-157191282D01*
X120856489Y-157228684D01*
X120571425Y-157442075D01*
X120240305Y-157531046D01*
X119896119Y-157497966D01*
X119571860Y-157345203D01*
X119333655Y-157119359D01*
X119214727Y-156863155D01*
X119178824Y-156539627D01*
X119227848Y-156206924D01*
G36*
X117471800Y-96396676D02*
G01*
X117475410Y-95471198D01*
X117476081Y-95344535D01*
X117480751Y-94459308D01*
X117485488Y-93710348D01*
X117491980Y-93084516D01*
X117501921Y-92568677D01*
X117517001Y-92149693D01*
X117538910Y-91814428D01*
X117569341Y-91549744D01*
X117609985Y-91342504D01*
X117662532Y-91179572D01*
X117728673Y-91047811D01*
X117810101Y-90934084D01*
X117908505Y-90825253D01*
X118025577Y-90708183D01*
X118079871Y-90654246D01*
X118219876Y-90516007D01*
X118347875Y-90402075D01*
X118479384Y-90310093D01*
X118629918Y-90237699D01*
X118814992Y-90182536D01*
X119050123Y-90142243D01*
X119350824Y-90114461D01*
X119732613Y-90096830D01*
X120211005Y-90086992D01*
X120801514Y-90082587D01*
X121519657Y-90081255D01*
X121849196Y-90081052D01*
X122579838Y-90080922D01*
X123176728Y-90081963D01*
X123655523Y-90084942D01*
X124031882Y-90090627D01*
X124321464Y-90099782D01*
X124539926Y-90113175D01*
X124702929Y-90131573D01*
X124826129Y-90155741D01*
X124925185Y-90186447D01*
X125015757Y-90224457D01*
X125043694Y-90237436D01*
X125350052Y-90431711D01*
X125652354Y-90707846D01*
X125910359Y-91021771D01*
X126083824Y-91329416D01*
X126111190Y-91406501D01*
X126136191Y-91549680D01*
X126156786Y-91801813D01*
X126173157Y-92169785D01*
X126185481Y-92660481D01*
X126193939Y-93280785D01*
X126198709Y-94037582D01*
X126200000Y-94813226D01*
X126200000Y-97923529D01*
X130981176Y-97923529D01*
X130981176Y-94404967D01*
X130981627Y-93577851D01*
X130983271Y-92886795D01*
X130986550Y-92318450D01*
X130991904Y-91859466D01*
X130999774Y-91496495D01*
X131010600Y-91216185D01*
X131024822Y-91005187D01*
X131042881Y-90850153D01*
X131065216Y-90737733D01*
X131092270Y-90654576D01*
X131105932Y-90623500D01*
X131314053Y-90339391D01*
X131597786Y-90158762D01*
X131923628Y-90083023D01*
X132258077Y-90113586D01*
X132567629Y-90251862D01*
X132818782Y-90499263D01*
X132851848Y-90549950D01*
X132881852Y-90603987D01*
X132907438Y-90667785D01*
X132928956Y-90752952D01*
X132946760Y-90871096D01*
X132961201Y-91033824D01*
X132972632Y-91252744D01*
X132981406Y-91539464D01*
X132987873Y-91905591D01*
X132992387Y-92362733D01*
X132995300Y-92922497D01*
X132996964Y-93596492D01*
X132997731Y-94396325D01*
X132997954Y-95333604D01*
X132997956Y-95364853D01*
X132998235Y-99940588D01*
X129361233Y-99940588D01*
X128529193Y-99940400D01*
X127833074Y-99939483D01*
X127259387Y-99937308D01*
X126794642Y-99933345D01*
X126425349Y-99927065D01*
X126138019Y-99917940D01*
X125919160Y-99905439D01*
X125755283Y-99889034D01*
X125632899Y-99868194D01*
X125538518Y-99842392D01*
X125458648Y-99811097D01*
X125403470Y-99785310D01*
X125106899Y-99592689D01*
X124810779Y-99318837D01*
X124555122Y-99008112D01*
X124379939Y-98704871D01*
X124346457Y-98613499D01*
X124321456Y-98470320D01*
X124300860Y-98218187D01*
X124284490Y-97850215D01*
X124272165Y-97359519D01*
X124263708Y-96739215D01*
X124258937Y-95982418D01*
X124257647Y-95206774D01*
X124257647Y-92096471D01*
X119476470Y-92096471D01*
X119476470Y-95648710D01*
X119476360Y-96499300D01*
X119475142Y-97213586D01*
X119471487Y-97804674D01*
X119464067Y-98285670D01*
X119451551Y-98669682D01*
X119432611Y-98969817D01*
X119405917Y-99199181D01*
X119370140Y-99370880D01*
X119323950Y-99498023D01*
X119266019Y-99593715D01*
X119195016Y-99671064D01*
X119109614Y-99743176D01*
X119057006Y-99784580D01*
X118788006Y-99912044D01*
X118459278Y-99950041D01*
X118129683Y-99899995D01*
X117858077Y-99763331D01*
X117848363Y-99755336D01*
X117675575Y-99573516D01*
X117549274Y-99378464D01*
X117541800Y-99361489D01*
X117520717Y-99260875D01*
X117503536Y-99065361D01*
X117490134Y-98767300D01*
X117480384Y-98359047D01*
X117474162Y-97832955D01*
X117471342Y-97181380D01*
X117471800Y-96396676D01*
G37*
X117471800Y-96396676D02*
X117475410Y-95471198D01*
X117476081Y-95344535D01*
X117480751Y-94459308D01*
X117485488Y-93710348D01*
X117491980Y-93084516D01*
X117501921Y-92568677D01*
X117517001Y-92149693D01*
X117538910Y-91814428D01*
X117569341Y-91549744D01*
X117609985Y-91342504D01*
X117662532Y-91179572D01*
X117728673Y-91047811D01*
X117810101Y-90934084D01*
X117908505Y-90825253D01*
X118025577Y-90708183D01*
X118079871Y-90654246D01*
X118219876Y-90516007D01*
X118347875Y-90402075D01*
X118479384Y-90310093D01*
X118629918Y-90237699D01*
X118814992Y-90182536D01*
X119050123Y-90142243D01*
X119350824Y-90114461D01*
X119732613Y-90096830D01*
X120211005Y-90086992D01*
X120801514Y-90082587D01*
X121519657Y-90081255D01*
X121849196Y-90081052D01*
X122579838Y-90080922D01*
X123176728Y-90081963D01*
X123655523Y-90084942D01*
X124031882Y-90090627D01*
X124321464Y-90099782D01*
X124539926Y-90113175D01*
X124702929Y-90131573D01*
X124826129Y-90155741D01*
X124925185Y-90186447D01*
X125015757Y-90224457D01*
X125043694Y-90237436D01*
X125350052Y-90431711D01*
X125652354Y-90707846D01*
X125910359Y-91021771D01*
X126083824Y-91329416D01*
X126111190Y-91406501D01*
X126136191Y-91549680D01*
X126156786Y-91801813D01*
X126173157Y-92169785D01*
X126185481Y-92660481D01*
X126193939Y-93280785D01*
X126198709Y-94037582D01*
X126200000Y-94813226D01*
X126200000Y-97923529D01*
X130981176Y-97923529D01*
X130981176Y-94404967D01*
X130981627Y-93577851D01*
X130983271Y-92886795D01*
X130986550Y-92318450D01*
X130991904Y-91859466D01*
X130999774Y-91496495D01*
X131010600Y-91216185D01*
X131024822Y-91005187D01*
X131042881Y-90850153D01*
X131065216Y-90737733D01*
X131092270Y-90654576D01*
X131105932Y-90623500D01*
X131314053Y-90339391D01*
X131597786Y-90158762D01*
X131923628Y-90083023D01*
X132258077Y-90113586D01*
X132567629Y-90251862D01*
X132818782Y-90499263D01*
X132851848Y-90549950D01*
X132881852Y-90603987D01*
X132907438Y-90667785D01*
X132928956Y-90752952D01*
X132946760Y-90871096D01*
X132961201Y-91033824D01*
X132972632Y-91252744D01*
X132981406Y-91539464D01*
X132987873Y-91905591D01*
X132992387Y-92362733D01*
X132995300Y-92922497D01*
X132996964Y-93596492D01*
X132997731Y-94396325D01*
X132997954Y-95333604D01*
X132997956Y-95364853D01*
X132998235Y-99940588D01*
X129361233Y-99940588D01*
X128529193Y-99940400D01*
X127833074Y-99939483D01*
X127259387Y-99937308D01*
X126794642Y-99933345D01*
X126425349Y-99927065D01*
X126138019Y-99917940D01*
X125919160Y-99905439D01*
X125755283Y-99889034D01*
X125632899Y-99868194D01*
X125538518Y-99842392D01*
X125458648Y-99811097D01*
X125403470Y-99785310D01*
X125106899Y-99592689D01*
X124810779Y-99318837D01*
X124555122Y-99008112D01*
X124379939Y-98704871D01*
X124346457Y-98613499D01*
X124321456Y-98470320D01*
X124300860Y-98218187D01*
X124284490Y-97850215D01*
X124272165Y-97359519D01*
X124263708Y-96739215D01*
X124258937Y-95982418D01*
X124257647Y-95206774D01*
X124257647Y-92096471D01*
X119476470Y-92096471D01*
X119476470Y-95648710D01*
X119476360Y-96499300D01*
X119475142Y-97213586D01*
X119471487Y-97804674D01*
X119464067Y-98285670D01*
X119451551Y-98669682D01*
X119432611Y-98969817D01*
X119405917Y-99199181D01*
X119370140Y-99370880D01*
X119323950Y-99498023D01*
X119266019Y-99593715D01*
X119195016Y-99671064D01*
X119109614Y-99743176D01*
X119057006Y-99784580D01*
X118788006Y-99912044D01*
X118459278Y-99950041D01*
X118129683Y-99899995D01*
X117858077Y-99763331D01*
X117848363Y-99755336D01*
X117675575Y-99573516D01*
X117549274Y-99378464D01*
X117541800Y-99361489D01*
X117520717Y-99260875D01*
X117503536Y-99065361D01*
X117490134Y-98767300D01*
X117480384Y-98359047D01*
X117474162Y-97832955D01*
X117471342Y-97181380D01*
X117471800Y-96396676D01*
G36*
X117511901Y-112570238D02*
G01*
X117605799Y-112364068D01*
X117667695Y-112263098D01*
X117728440Y-112177708D01*
X117800359Y-112106594D01*
X117895778Y-112048451D01*
X118027022Y-112001974D01*
X118206418Y-111965857D01*
X118446292Y-111938796D01*
X118758967Y-111919486D01*
X119156772Y-111906622D01*
X119652030Y-111898898D01*
X120257069Y-111895011D01*
X120984213Y-111893654D01*
X121845788Y-111893523D01*
X122050113Y-111893529D01*
X125901176Y-111893529D01*
X125901176Y-107934118D01*
X122894264Y-107933016D01*
X122082856Y-107931472D01*
X121410150Y-107927274D01*
X120865454Y-107920108D01*
X120438076Y-107909655D01*
X120117326Y-107895601D01*
X119892511Y-107877628D01*
X119752940Y-107855420D01*
X119702830Y-107838546D01*
X119438795Y-107627394D01*
X119264167Y-107329813D01*
X119189491Y-106986276D01*
X119225312Y-106637258D01*
X119328236Y-106400742D01*
X119402487Y-106285421D01*
X119479012Y-106190061D01*
X119571959Y-106112763D01*
X119695478Y-106051633D01*
X119863716Y-106004773D01*
X120090823Y-105970287D01*
X120390948Y-105946279D01*
X120778238Y-105930853D01*
X121266844Y-105922111D01*
X121870914Y-105918158D01*
X122604596Y-105917098D01*
X122936972Y-105917059D01*
X125889305Y-105917059D01*
X125936045Y-105704250D01*
X126071206Y-105410214D01*
X126311575Y-105176946D01*
X126619539Y-105021331D01*
X126957485Y-104960254D01*
X127287798Y-105010601D01*
X127386218Y-105053248D01*
X127596906Y-105212127D01*
X127779888Y-105434197D01*
X127896271Y-105665842D01*
X127917956Y-105786323D01*
X127926954Y-105824723D01*
X127964522Y-105854803D01*
X128046793Y-105877569D01*
X128189902Y-105894029D01*
X128409980Y-105905189D01*
X128723163Y-105912057D01*
X129145585Y-105915641D01*
X129693378Y-105916946D01*
X130012399Y-105917059D01*
X130676553Y-105918251D01*
X131209072Y-105923544D01*
X131627726Y-105935511D01*
X131950285Y-105956726D01*
X132194517Y-105989761D01*
X132378192Y-106037191D01*
X132519079Y-106101589D01*
X132634948Y-106185528D01*
X132743569Y-106291582D01*
X132766173Y-106315875D01*
X132921936Y-106584202D01*
X132984237Y-106914423D01*
X132948507Y-107248345D01*
X132856286Y-107463579D01*
X132770853Y-107591791D01*
X132681759Y-107694325D01*
X132572145Y-107774046D01*
X132425153Y-107833820D01*
X132223922Y-107876514D01*
X131951595Y-107904993D01*
X131591313Y-107922123D01*
X131126216Y-107930771D01*
X130539446Y-107933802D01*
X130088416Y-107934118D01*
X127918235Y-107934118D01*
X127918235Y-113910588D01*
X123118382Y-113910472D01*
X122147539Y-113910208D01*
X121314817Y-113909273D01*
X120608929Y-113907374D01*
X120018583Y-113904221D01*
X119532492Y-113899520D01*
X119139365Y-113892982D01*
X118827914Y-113884313D01*
X118586848Y-113873223D01*
X118404880Y-113859419D01*
X118270719Y-113842610D01*
X118173076Y-113822504D01*
X118100662Y-113798810D01*
X118058548Y-113779737D01*
X117754443Y-113554820D01*
X117555006Y-113256498D01*
X117470678Y-112917421D01*
X117511901Y-112570238D01*
G37*
X117511901Y-112570238D02*
X117605799Y-112364068D01*
X117667695Y-112263098D01*
X117728440Y-112177708D01*
X117800359Y-112106594D01*
X117895778Y-112048451D01*
X118027022Y-112001974D01*
X118206418Y-111965857D01*
X118446292Y-111938796D01*
X118758967Y-111919486D01*
X119156772Y-111906622D01*
X119652030Y-111898898D01*
X120257069Y-111895011D01*
X120984213Y-111893654D01*
X121845788Y-111893523D01*
X122050113Y-111893529D01*
X125901176Y-111893529D01*
X125901176Y-107934118D01*
X122894264Y-107933016D01*
X122082856Y-107931472D01*
X121410150Y-107927274D01*
X120865454Y-107920108D01*
X120438076Y-107909655D01*
X120117326Y-107895601D01*
X119892511Y-107877628D01*
X119752940Y-107855420D01*
X119702830Y-107838546D01*
X119438795Y-107627394D01*
X119264167Y-107329813D01*
X119189491Y-106986276D01*
X119225312Y-106637258D01*
X119328236Y-106400742D01*
X119402487Y-106285421D01*
X119479012Y-106190061D01*
X119571959Y-106112763D01*
X119695478Y-106051633D01*
X119863716Y-106004773D01*
X120090823Y-105970287D01*
X120390948Y-105946279D01*
X120778238Y-105930853D01*
X121266844Y-105922111D01*
X121870914Y-105918158D01*
X122604596Y-105917098D01*
X122936972Y-105917059D01*
X125889305Y-105917059D01*
X125936045Y-105704250D01*
X126071206Y-105410214D01*
X126311575Y-105176946D01*
X126619539Y-105021331D01*
X126957485Y-104960254D01*
X127287798Y-105010601D01*
X127386218Y-105053248D01*
X127596906Y-105212127D01*
X127779888Y-105434197D01*
X127896271Y-105665842D01*
X127917956Y-105786323D01*
X127926954Y-105824723D01*
X127964522Y-105854803D01*
X128046793Y-105877569D01*
X128189902Y-105894029D01*
X128409980Y-105905189D01*
X128723163Y-105912057D01*
X129145585Y-105915641D01*
X129693378Y-105916946D01*
X130012399Y-105917059D01*
X130676553Y-105918251D01*
X131209072Y-105923544D01*
X131627726Y-105935511D01*
X131950285Y-105956726D01*
X132194517Y-105989761D01*
X132378192Y-106037191D01*
X132519079Y-106101589D01*
X132634948Y-106185528D01*
X132743569Y-106291582D01*
X132766173Y-106315875D01*
X132921936Y-106584202D01*
X132984237Y-106914423D01*
X132948507Y-107248345D01*
X132856286Y-107463579D01*
X132770853Y-107591791D01*
X132681759Y-107694325D01*
X132572145Y-107774046D01*
X132425153Y-107833820D01*
X132223922Y-107876514D01*
X131951595Y-107904993D01*
X131591313Y-107922123D01*
X131126216Y-107930771D01*
X130539446Y-107933802D01*
X130088416Y-107934118D01*
X127918235Y-107934118D01*
X127918235Y-113910588D01*
X123118382Y-113910472D01*
X122147539Y-113910208D01*
X121314817Y-113909273D01*
X120608929Y-113907374D01*
X120018583Y-113904221D01*
X119532492Y-113899520D01*
X119139365Y-113892982D01*
X118827914Y-113884313D01*
X118586848Y-113873223D01*
X118404880Y-113859419D01*
X118270719Y-113842610D01*
X118173076Y-113822504D01*
X118100662Y-113798810D01*
X118058548Y-113779737D01*
X117754443Y-113554820D01*
X117555006Y-113256498D01*
X117470678Y-112917421D01*
X117511901Y-112570238D01*
G36*
X121727322Y-127242143D02*
G01*
X121752343Y-127141901D01*
X121821060Y-127055016D01*
X121991089Y-126886527D01*
X122248027Y-126649349D01*
X122577472Y-126356397D01*
X122965019Y-126020585D01*
X123396266Y-125654828D01*
X123609963Y-125476241D01*
X124058074Y-125103252D01*
X124472010Y-124758193D01*
X124837013Y-124453406D01*
X125138329Y-124201232D01*
X125361200Y-124014011D01*
X125490872Y-123904085D01*
X125515496Y-123882567D01*
X125524902Y-123840956D01*
X125484039Y-123767589D01*
X125383123Y-123653400D01*
X125212371Y-123489324D01*
X124962002Y-123266298D01*
X124622232Y-122975256D01*
X124183279Y-122607133D01*
X123759907Y-122255824D01*
X123304177Y-121876349D01*
X122882850Y-121520773D01*
X122510595Y-121201845D01*
X122202082Y-120932318D01*
X121971980Y-120724939D01*
X121834959Y-120592461D01*
X121804804Y-120556504D01*
X121727569Y-120322622D01*
X121710031Y-120023755D01*
X121750589Y-119731180D01*
X121827539Y-119543704D01*
X122077357Y-119282399D01*
X122396376Y-119121835D01*
X122743919Y-119073738D01*
X123079308Y-119149831D01*
X123122092Y-119170599D01*
X123226671Y-119242542D01*
X123430747Y-119398326D01*
X123719252Y-119625884D01*
X124077118Y-119913147D01*
X124489277Y-120248049D01*
X124940659Y-120618520D01*
X125263701Y-120885751D01*
X125795573Y-121325832D01*
X126225094Y-121677647D01*
X126563778Y-121949669D01*
X126823139Y-122150370D01*
X127014692Y-122288224D01*
X127149952Y-122371703D01*
X127240432Y-122409280D01*
X127297648Y-122409429D01*
X127318113Y-122397495D01*
X127617744Y-122143079D01*
X127978515Y-121840350D01*
X128385115Y-121501822D01*
X128822236Y-121140006D01*
X129274567Y-120767415D01*
X129726799Y-120396564D01*
X130163621Y-120039963D01*
X130569725Y-119710126D01*
X130929800Y-119419565D01*
X131228537Y-119180794D01*
X131450626Y-119006325D01*
X131580757Y-118908671D01*
X131606476Y-118892589D01*
X131953842Y-118829514D01*
X132283770Y-118892546D01*
X132574650Y-119058441D01*
X132804869Y-119303952D01*
X132952815Y-119605834D01*
X132996875Y-119940840D01*
X132915436Y-120285727D01*
X132910971Y-120295670D01*
X132834095Y-120387116D01*
X132655129Y-120560318D01*
X132388057Y-120802956D01*
X132046864Y-121102711D01*
X131645537Y-121447263D01*
X131198059Y-121824292D01*
X130815420Y-122141701D01*
X130262926Y-122598685D01*
X129818327Y-122970947D01*
X129472566Y-123266746D01*
X129216583Y-123494341D01*
X129041320Y-123661991D01*
X128937718Y-123777955D01*
X128896718Y-123850494D01*
X128904301Y-123884157D01*
X128983696Y-123951506D01*
X129164071Y-124101963D01*
X129431084Y-124323644D01*
X129770388Y-124604665D01*
X130167639Y-124933139D01*
X130608493Y-125297182D01*
X130910010Y-125545915D01*
X131372497Y-125930924D01*
X131800017Y-126293778D01*
X132178156Y-126621701D01*
X132492494Y-126901918D01*
X132728616Y-127121651D01*
X132872105Y-127268123D01*
X132908393Y-127316907D01*
X132990608Y-127664860D01*
X132950387Y-128037520D01*
X132876503Y-128232636D01*
X132696564Y-128457157D01*
X132443735Y-128624842D01*
X132133237Y-128745828D01*
X131874219Y-128768965D01*
X131631616Y-128708223D01*
X131543940Y-128650220D01*
X131356688Y-128509444D01*
X131085354Y-128298423D01*
X130745433Y-128029684D01*
X130352423Y-127715754D01*
X129921817Y-127369161D01*
X129469112Y-127002431D01*
X129009803Y-126628094D01*
X128559386Y-126258676D01*
X128133356Y-125906703D01*
X127747210Y-125584705D01*
X127416441Y-125305208D01*
X127316968Y-125220040D01*
X127272553Y-125202967D01*
X127202110Y-125218192D01*
X127093926Y-125274299D01*
X126936284Y-125379872D01*
X126717469Y-125543495D01*
X126425766Y-125773751D01*
X126049459Y-126079224D01*
X125576834Y-126468498D01*
X125299909Y-126697932D01*
X124833491Y-127083459D01*
X124394866Y-127443339D01*
X123999542Y-127765055D01*
X123663024Y-128036087D01*
X123400819Y-128243918D01*
X123228434Y-128376031D01*
X123174412Y-128413841D01*
X122852225Y-128531477D01*
X122506061Y-128523762D01*
X122175444Y-128400591D01*
X121899895Y-128171860D01*
X121829166Y-128077014D01*
X121740891Y-127846115D01*
X121705000Y-127544179D01*
X121727322Y-127242143D01*
G37*
X121727322Y-127242143D02*
X121752343Y-127141901D01*
X121821060Y-127055016D01*
X121991089Y-126886527D01*
X122248027Y-126649349D01*
X122577472Y-126356397D01*
X122965019Y-126020585D01*
X123396266Y-125654828D01*
X123609963Y-125476241D01*
X124058074Y-125103252D01*
X124472010Y-124758193D01*
X124837013Y-124453406D01*
X125138329Y-124201232D01*
X125361200Y-124014011D01*
X125490872Y-123904085D01*
X125515496Y-123882567D01*
X125524902Y-123840956D01*
X125484039Y-123767589D01*
X125383123Y-123653400D01*
X125212371Y-123489324D01*
X124962002Y-123266298D01*
X124622232Y-122975256D01*
X124183279Y-122607133D01*
X123759907Y-122255824D01*
X123304177Y-121876349D01*
X122882850Y-121520773D01*
X122510595Y-121201845D01*
X122202082Y-120932318D01*
X121971980Y-120724939D01*
X121834959Y-120592461D01*
X121804804Y-120556504D01*
X121727569Y-120322622D01*
X121710031Y-120023755D01*
X121750589Y-119731180D01*
X121827539Y-119543704D01*
X122077357Y-119282399D01*
X122396376Y-119121835D01*
X122743919Y-119073738D01*
X123079308Y-119149831D01*
X123122092Y-119170599D01*
X123226671Y-119242542D01*
X123430747Y-119398326D01*
X123719252Y-119625884D01*
X124077118Y-119913147D01*
X124489277Y-120248049D01*
X124940659Y-120618520D01*
X125263701Y-120885751D01*
X125795573Y-121325832D01*
X126225094Y-121677647D01*
X126563778Y-121949669D01*
X126823139Y-122150370D01*
X127014692Y-122288224D01*
X127149952Y-122371703D01*
X127240432Y-122409280D01*
X127297648Y-122409429D01*
X127318113Y-122397495D01*
X127617744Y-122143079D01*
X127978515Y-121840350D01*
X128385115Y-121501822D01*
X128822236Y-121140006D01*
X129274567Y-120767415D01*
X129726799Y-120396564D01*
X130163621Y-120039963D01*
X130569725Y-119710126D01*
X130929800Y-119419565D01*
X131228537Y-119180794D01*
X131450626Y-119006325D01*
X131580757Y-118908671D01*
X131606476Y-118892589D01*
X131953842Y-118829514D01*
X132283770Y-118892546D01*
X132574650Y-119058441D01*
X132804869Y-119303952D01*
X132952815Y-119605834D01*
X132996875Y-119940840D01*
X132915436Y-120285727D01*
X132910971Y-120295670D01*
X132834095Y-120387116D01*
X132655129Y-120560318D01*
X132388057Y-120802956D01*
X132046864Y-121102711D01*
X131645537Y-121447263D01*
X131198059Y-121824292D01*
X130815420Y-122141701D01*
X130262926Y-122598685D01*
X129818327Y-122970947D01*
X129472566Y-123266746D01*
X129216583Y-123494341D01*
X129041320Y-123661991D01*
X128937718Y-123777955D01*
X128896718Y-123850494D01*
X128904301Y-123884157D01*
X128983696Y-123951506D01*
X129164071Y-124101963D01*
X129431084Y-124323644D01*
X129770388Y-124604665D01*
X130167639Y-124933139D01*
X130608493Y-125297182D01*
X130910010Y-125545915D01*
X131372497Y-125930924D01*
X131800017Y-126293778D01*
X132178156Y-126621701D01*
X132492494Y-126901918D01*
X132728616Y-127121651D01*
X132872105Y-127268123D01*
X132908393Y-127316907D01*
X132990608Y-127664860D01*
X132950387Y-128037520D01*
X132876503Y-128232636D01*
X132696564Y-128457157D01*
X132443735Y-128624842D01*
X132133237Y-128745828D01*
X131874219Y-128768965D01*
X131631616Y-128708223D01*
X131543940Y-128650220D01*
X131356688Y-128509444D01*
X131085354Y-128298423D01*
X130745433Y-128029684D01*
X130352423Y-127715754D01*
X129921817Y-127369161D01*
X129469112Y-127002431D01*
X129009803Y-126628094D01*
X128559386Y-126258676D01*
X128133356Y-125906703D01*
X127747210Y-125584705D01*
X127416441Y-125305208D01*
X127316968Y-125220040D01*
X127272553Y-125202967D01*
X127202110Y-125218192D01*
X127093926Y-125274299D01*
X126936284Y-125379872D01*
X126717469Y-125543495D01*
X126425766Y-125773751D01*
X126049459Y-126079224D01*
X125576834Y-126468498D01*
X125299909Y-126697932D01*
X124833491Y-127083459D01*
X124394866Y-127443339D01*
X123999542Y-127765055D01*
X123663024Y-128036087D01*
X123400819Y-128243918D01*
X123228434Y-128376031D01*
X123174412Y-128413841D01*
X122852225Y-128531477D01*
X122506061Y-128523762D01*
X122175444Y-128400591D01*
X121899895Y-128171860D01*
X121829166Y-128077014D01*
X121740891Y-127846115D01*
X121705000Y-127544179D01*
X121727322Y-127242143D01*
G36*
X117450324Y-137260266D02*
G01*
X117458573Y-136635150D01*
X117471283Y-136057794D01*
X117488465Y-135547862D01*
X117510127Y-135125016D01*
X117536277Y-134808919D01*
X117566923Y-134619233D01*
X117572455Y-134601326D01*
X117795985Y-134168392D01*
X118128410Y-133781861D01*
X118529216Y-133487269D01*
X118593867Y-133453258D01*
X118982865Y-133259412D01*
X131474781Y-133259412D01*
X131862802Y-133452770D01*
X132287373Y-133737239D01*
X132633414Y-134114590D01*
X132867389Y-134547449D01*
X132882121Y-134588783D01*
X132911901Y-134753204D01*
X132937654Y-135046907D01*
X132959363Y-135450417D01*
X132977010Y-135944261D01*
X132990579Y-136508966D01*
X133000051Y-137125060D01*
X133005410Y-137773069D01*
X133006638Y-138433520D01*
X133003717Y-139086940D01*
X132996631Y-139713856D01*
X132985362Y-140294795D01*
X132969893Y-140810285D01*
X132950206Y-141240851D01*
X132926283Y-141567021D01*
X132898109Y-141769322D01*
X132888554Y-141803711D01*
X132662565Y-142230960D01*
X132314876Y-142615940D01*
X131988326Y-142859118D01*
X131627963Y-143083235D01*
X125312743Y-143103165D01*
X119476470Y-143121583D01*
X119476470Y-141103529D01*
X130981176Y-141103529D01*
X130981176Y-135276471D01*
X119476470Y-135276471D01*
X119476470Y-141103529D01*
X119476470Y-143121583D01*
X118997522Y-143123095D01*
X118603920Y-142930524D01*
X118178279Y-142649269D01*
X117830314Y-142273853D01*
X117593608Y-141841478D01*
X117575525Y-141791217D01*
X117543987Y-141621072D01*
X117516836Y-141321724D01*
X117494080Y-140912835D01*
X117475728Y-140414069D01*
X117461789Y-139845088D01*
X117452272Y-139225555D01*
X117447182Y-138575131D01*
X117446530Y-137913481D01*
X117450324Y-137260266D01*
G37*
X117450324Y-137260266D02*
X117458573Y-136635150D01*
X117471283Y-136057794D01*
X117488465Y-135547862D01*
X117510127Y-135125016D01*
X117536277Y-134808919D01*
X117566923Y-134619233D01*
X117572455Y-134601326D01*
X117795985Y-134168392D01*
X118128410Y-133781861D01*
X118529216Y-133487269D01*
X118593867Y-133453258D01*
X118982865Y-133259412D01*
X131474781Y-133259412D01*
X131862802Y-133452770D01*
X132287373Y-133737239D01*
X132633414Y-134114590D01*
X132867389Y-134547449D01*
X132882121Y-134588783D01*
X132911901Y-134753204D01*
X132937654Y-135046907D01*
X132959363Y-135450417D01*
X132977010Y-135944261D01*
X132990579Y-136508966D01*
X133000051Y-137125060D01*
X133005410Y-137773069D01*
X133006638Y-138433520D01*
X133003717Y-139086940D01*
X132996631Y-139713856D01*
X132985362Y-140294795D01*
X132969893Y-140810285D01*
X132950206Y-141240851D01*
X132926283Y-141567021D01*
X132898109Y-141769322D01*
X132888554Y-141803711D01*
X132662565Y-142230960D01*
X132314876Y-142615940D01*
X131988326Y-142859118D01*
X131627963Y-143083235D01*
X125312743Y-143103165D01*
X119476470Y-143121583D01*
X119476470Y-141103529D01*
X130981176Y-141103529D01*
X130981176Y-135276471D01*
X119476470Y-135276471D01*
X119476470Y-141103529D01*
X119476470Y-143121583D01*
X118997522Y-143123095D01*
X118603920Y-142930524D01*
X118178279Y-142649269D01*
X117830314Y-142273853D01*
X117593608Y-141841478D01*
X117575525Y-141791217D01*
X117543987Y-141621072D01*
X117516836Y-141321724D01*
X117494080Y-140912835D01*
X117475728Y-140414069D01*
X117461789Y-139845088D01*
X117452272Y-139225555D01*
X117447182Y-138575131D01*
X117446530Y-137913481D01*
X117450324Y-137260266D01*
G36*
X133316980Y-75979922D02*
G01*
X133502607Y-75810888D01*
X133663030Y-75727460D01*
X133868450Y-75700257D01*
X133989333Y-75698529D01*
X134327877Y-75732129D01*
X134571857Y-75839728D01*
X134583264Y-75847941D01*
X134672957Y-75914488D01*
X134749294Y-75979667D01*
X134813337Y-76055388D01*
X134866150Y-76153564D01*
X134908793Y-76286105D01*
X134942328Y-76464922D01*
X134967818Y-76701926D01*
X134986325Y-77009029D01*
X134998910Y-77398142D01*
X135006635Y-77881175D01*
X135010564Y-78470041D01*
X135011756Y-79176649D01*
X135011275Y-80012911D01*
X135010559Y-80640408D01*
X135008575Y-81420264D01*
X135004577Y-82158199D01*
X134998785Y-82840156D01*
X134991419Y-83452080D01*
X134982698Y-83979914D01*
X134972841Y-84409600D01*
X134962070Y-84727084D01*
X134950602Y-84918308D01*
X134942915Y-84968152D01*
X134798075Y-85177760D01*
X134563423Y-85376789D01*
X134295120Y-85522798D01*
X134152732Y-85565281D01*
X133803836Y-85559141D01*
X133471341Y-85405759D01*
X133249806Y-85213196D01*
X133035588Y-84989601D01*
X133035588Y-76261314D01*
X133316980Y-75979922D01*
G37*
X133316980Y-75979922D02*
X133502607Y-75810888D01*
X133663030Y-75727460D01*
X133868450Y-75700257D01*
X133989333Y-75698529D01*
X134327877Y-75732129D01*
X134571857Y-75839728D01*
X134583264Y-75847941D01*
X134672957Y-75914488D01*
X134749294Y-75979667D01*
X134813337Y-76055388D01*
X134866150Y-76153564D01*
X134908793Y-76286105D01*
X134942328Y-76464922D01*
X134967818Y-76701926D01*
X134986325Y-77009029D01*
X134998910Y-77398142D01*
X135006635Y-77881175D01*
X135010564Y-78470041D01*
X135011756Y-79176649D01*
X135011275Y-80012911D01*
X135010559Y-80640408D01*
X135008575Y-81420264D01*
X135004577Y-82158199D01*
X134998785Y-82840156D01*
X134991419Y-83452080D01*
X134982698Y-83979914D01*
X134972841Y-84409600D01*
X134962070Y-84727084D01*
X134950602Y-84918308D01*
X134942915Y-84968152D01*
X134798075Y-85177760D01*
X134563423Y-85376789D01*
X134295120Y-85522798D01*
X134152732Y-85565281D01*
X133803836Y-85559141D01*
X133471341Y-85405759D01*
X133249806Y-85213196D01*
X133035588Y-84989601D01*
X133035588Y-76261314D01*
X133316980Y-75979922D01*
X110725000Y-148100000D02*
X113125000Y-148100000D01*
X105925000Y-148100000D02*
X108525000Y-148100000D01*
X101325000Y-148100000D02*
X103725000Y-148100000D01*
X101325000Y-160300000D02*
X113125000Y-160300000D01*
X101325000Y-158200000D02*
X101325000Y-160300000D01*
X113125000Y-158200000D02*
X113125000Y-160300000D01*
X113125000Y-148100000D02*
X113125000Y-150200000D01*
X101325000Y-150200000D02*
X101325000Y-148100000D01*
X214525000Y-123287500D02*
X214525000Y-125287500D01*
X228525000Y-125287500D02*
X228525000Y-123287500D01*
X216525000Y-123287500D02*
X214525000Y-123287500D01*
X228525000Y-123287500D02*
X226525000Y-123287500D01*
X195475000Y-123287500D02*
X195475000Y-125287500D01*
X209475000Y-125287500D02*
X209475000Y-123287500D01*
X197475000Y-123287500D02*
X195475000Y-123287500D01*
X209475000Y-123287500D02*
X207475000Y-123287500D01*
X214525000Y-142050000D02*
X216525000Y-142050000D01*
X214525000Y-140050000D02*
X214525000Y-142050000D01*
X228525000Y-142050000D02*
X228525000Y-140050000D01*
X226525000Y-142050000D02*
X228525000Y-142050000D01*
X195475000Y-142050000D02*
X197475000Y-142050000D01*
X195475000Y-140050000D02*
X195475000Y-142050000D01*
X209475000Y-142050000D02*
X209475000Y-140050000D01*
X207475000Y-142050000D02*
X209475000Y-142050000D01*
X228525000Y-108712500D02*
X228525000Y-106712500D01*
X214525000Y-106712500D02*
X214525000Y-108712500D01*
X226525000Y-108712500D02*
X228525000Y-108712500D01*
X214525000Y-108712500D02*
X216525000Y-108712500D01*
X228525000Y-89950000D02*
X226525000Y-89950000D01*
X228525000Y-91950000D02*
X228525000Y-89950000D01*
X214525000Y-89950000D02*
X214525000Y-91950000D01*
X216525000Y-89950000D02*
X214525000Y-89950000D01*
X209475000Y-108712500D02*
X209475000Y-106712500D01*
X195475000Y-106712500D02*
X195475000Y-108712500D01*
X207475000Y-108712500D02*
X209475000Y-108712500D01*
X195475000Y-108712500D02*
X197475000Y-108712500D01*
X209475000Y-89950000D02*
X207475000Y-89950000D01*
X209475000Y-91950000D02*
X209475000Y-89950000D01*
X195475000Y-89950000D02*
X195475000Y-91950000D01*
X197475000Y-89950000D02*
X195475000Y-89950000D01*
X76412500Y-84900000D02*
X76412500Y-82900000D01*
X76412500Y-72900000D02*
X76412500Y-70900000D01*
X78412500Y-84900000D02*
X76412500Y-84900000D01*
X76412500Y-70900000D02*
X78412500Y-70900000D01*
X90412500Y-70900000D02*
X88412500Y-70900000D01*
X88412500Y-84900000D02*
X90412500Y-84900000D01*
X90412500Y-72900000D02*
X90412500Y-70900000D01*
X90412500Y-84900000D02*
X90412500Y-82900000D01*
X157375000Y-161100000D02*
X159375000Y-161100000D01*
X157375000Y-159100000D02*
X157375000Y-161100000D01*
X171375000Y-161100000D02*
X171375000Y-159100000D01*
X169375000Y-161100000D02*
X171375000Y-161100000D01*
X171375000Y-147100000D02*
X171375000Y-149100000D01*
X169375000Y-147100000D02*
X171375000Y-147100000D01*
X157375000Y-147100000D02*
X159375000Y-147100000D01*
X157375000Y-149100000D02*
X157375000Y-147100000D01*
X100225000Y-161100000D02*
X102225000Y-161100000D01*
X100225000Y-159100000D02*
X100225000Y-161100000D01*
X114225000Y-161100000D02*
X114225000Y-159100000D01*
X112225000Y-161100000D02*
X114225000Y-161100000D01*
X114225000Y-147100000D02*
X114225000Y-149100000D01*
X112225000Y-147100000D02*
X114225000Y-147100000D01*
X100225000Y-147100000D02*
X102225000Y-147100000D01*
X100225000Y-149100000D02*
X100225000Y-147100000D01*
X309775000Y-161100000D02*
X311775000Y-161100000D01*
X309775000Y-159100000D02*
X309775000Y-161100000D01*
X323775000Y-161100000D02*
X323775000Y-159100000D01*
X321775000Y-161100000D02*
X323775000Y-161100000D01*
X323775000Y-147100000D02*
X323775000Y-149100000D01*
X321775000Y-147100000D02*
X323775000Y-147100000D01*
X309775000Y-147100000D02*
X311775000Y-147100000D01*
X309775000Y-149100000D02*
X309775000Y-147100000D01*
X290725000Y-161100000D02*
X292725000Y-161100000D01*
X290725000Y-159100000D02*
X290725000Y-161100000D01*
X304725000Y-161100000D02*
X304725000Y-159100000D01*
X302725000Y-161100000D02*
X304725000Y-161100000D01*
X304725000Y-147100000D02*
X304725000Y-149100000D01*
X302725000Y-147100000D02*
X304725000Y-147100000D01*
X290725000Y-147100000D02*
X292725000Y-147100000D01*
X290725000Y-149100000D02*
X290725000Y-147100000D01*
X271675000Y-161100000D02*
X273675000Y-161100000D01*
X271675000Y-159100000D02*
X271675000Y-161100000D01*
X285675000Y-161100000D02*
X285675000Y-159100000D01*
X283675000Y-161100000D02*
X285675000Y-161100000D01*
X285675000Y-147100000D02*
X285675000Y-149100000D01*
X283675000Y-147100000D02*
X285675000Y-147100000D01*
X271675000Y-147100000D02*
X273675000Y-147100000D01*
X271675000Y-149100000D02*
X271675000Y-147100000D01*
X252625000Y-161100000D02*
X254625000Y-161100000D01*
X252625000Y-159100000D02*
X252625000Y-161100000D01*
X266625000Y-161100000D02*
X266625000Y-159100000D01*
X264625000Y-161100000D02*
X266625000Y-161100000D01*
X266625000Y-147100000D02*
X266625000Y-149100000D01*
X264625000Y-147100000D02*
X266625000Y-147100000D01*
X252625000Y-147100000D02*
X254625000Y-147100000D01*
X252625000Y-149100000D02*
X252625000Y-147100000D01*
X138325000Y-161100000D02*
X140325000Y-161100000D01*
X138325000Y-159100000D02*
X138325000Y-161100000D01*
X152325000Y-161100000D02*
X152325000Y-159100000D01*
X150325000Y-161100000D02*
X152325000Y-161100000D01*
X152325000Y-147100000D02*
X152325000Y-149100000D01*
X150325000Y-147100000D02*
X152325000Y-147100000D01*
X138325000Y-147100000D02*
X140325000Y-147100000D01*
X138325000Y-149100000D02*
X138325000Y-147100000D01*
X309775000Y-142050000D02*
X311775000Y-142050000D01*
X309775000Y-140050000D02*
X309775000Y-142050000D01*
X323775000Y-142050000D02*
X323775000Y-140050000D01*
X321775000Y-142050000D02*
X323775000Y-142050000D01*
X323775000Y-128050000D02*
X323775000Y-130050000D01*
X321775000Y-128050000D02*
X323775000Y-128050000D01*
X309775000Y-128050000D02*
X311775000Y-128050000D01*
X309775000Y-130050000D02*
X309775000Y-128050000D01*
X290725000Y-142050000D02*
X292725000Y-142050000D01*
X290725000Y-140050000D02*
X290725000Y-142050000D01*
X304725000Y-142050000D02*
X304725000Y-140050000D01*
X302725000Y-142050000D02*
X304725000Y-142050000D01*
X304725000Y-128050000D02*
X304725000Y-130050000D01*
X302725000Y-128050000D02*
X304725000Y-128050000D01*
X290725000Y-128050000D02*
X292725000Y-128050000D01*
X290725000Y-130050000D02*
X290725000Y-128050000D01*
X271675000Y-142050000D02*
X273675000Y-142050000D01*
X271675000Y-140050000D02*
X271675000Y-142050000D01*
X285675000Y-142050000D02*
X285675000Y-140050000D01*
X283675000Y-142050000D02*
X285675000Y-142050000D01*
X285675000Y-128050000D02*
X285675000Y-130050000D01*
X283675000Y-128050000D02*
X285675000Y-128050000D01*
X271675000Y-128050000D02*
X273675000Y-128050000D01*
X271675000Y-130050000D02*
X271675000Y-128050000D01*
X252625000Y-142050000D02*
X254625000Y-142050000D01*
X252625000Y-140050000D02*
X252625000Y-142050000D01*
X266625000Y-142050000D02*
X266625000Y-140050000D01*
X264625000Y-142050000D02*
X266625000Y-142050000D01*
X266625000Y-128050000D02*
X266625000Y-130050000D01*
X264625000Y-128050000D02*
X266625000Y-128050000D01*
X252625000Y-128050000D02*
X254625000Y-128050000D01*
X252625000Y-130050000D02*
X252625000Y-128050000D01*
X233575000Y-142050000D02*
X235575000Y-142050000D01*
X233575000Y-140050000D02*
X233575000Y-142050000D01*
X247575000Y-142050000D02*
X247575000Y-140050000D01*
X245575000Y-142050000D02*
X247575000Y-142050000D01*
X247575000Y-128050000D02*
X247575000Y-130050000D01*
X245575000Y-128050000D02*
X247575000Y-128050000D01*
X233575000Y-128050000D02*
X235575000Y-128050000D01*
X233575000Y-130050000D02*
X233575000Y-128050000D01*
X176425000Y-142050000D02*
X178425000Y-142050000D01*
X176425000Y-140050000D02*
X176425000Y-142050000D01*
X190425000Y-142050000D02*
X190425000Y-140050000D01*
X188425000Y-142050000D02*
X190425000Y-142050000D01*
X190425000Y-128050000D02*
X190425000Y-130050000D01*
X188425000Y-128050000D02*
X190425000Y-128050000D01*
X176425000Y-128050000D02*
X178425000Y-128050000D01*
X176425000Y-130050000D02*
X176425000Y-128050000D01*
X157375000Y-142050000D02*
X159375000Y-142050000D01*
X157375000Y-140050000D02*
X157375000Y-142050000D01*
X171375000Y-142050000D02*
X171375000Y-140050000D01*
X169375000Y-142050000D02*
X171375000Y-142050000D01*
X171375000Y-128050000D02*
X171375000Y-130050000D01*
X169375000Y-128050000D02*
X171375000Y-128050000D01*
X157375000Y-128050000D02*
X159375000Y-128050000D01*
X157375000Y-130050000D02*
X157375000Y-128050000D01*
X138325000Y-142050000D02*
X140325000Y-142050000D01*
X138325000Y-140050000D02*
X138325000Y-142050000D01*
X152325000Y-142050000D02*
X152325000Y-140050000D01*
X150325000Y-142050000D02*
X152325000Y-142050000D01*
X152325000Y-128050000D02*
X152325000Y-130050000D01*
X150325000Y-128050000D02*
X152325000Y-128050000D01*
X138325000Y-128050000D02*
X140325000Y-128050000D01*
X138325000Y-130050000D02*
X138325000Y-128050000D01*
X100225000Y-142050000D02*
X102225000Y-142050000D01*
X100225000Y-140050000D02*
X100225000Y-142050000D01*
X114225000Y-142050000D02*
X114225000Y-140050000D01*
X112225000Y-142050000D02*
X114225000Y-142050000D01*
X114225000Y-128050000D02*
X114225000Y-130050000D01*
X112225000Y-128050000D02*
X114225000Y-128050000D01*
X100225000Y-128050000D02*
X102225000Y-128050000D01*
X100225000Y-130050000D02*
X100225000Y-128050000D01*
X309775000Y-123000000D02*
X311775000Y-123000000D01*
X309775000Y-121000000D02*
X309775000Y-123000000D01*
X323775000Y-123000000D02*
X323775000Y-121000000D01*
X321775000Y-123000000D02*
X323775000Y-123000000D01*
X323775000Y-109000000D02*
X323775000Y-111000000D01*
X321775000Y-109000000D02*
X323775000Y-109000000D01*
X309775000Y-109000000D02*
X311775000Y-109000000D01*
X309775000Y-111000000D02*
X309775000Y-109000000D01*
X290725000Y-123000000D02*
X292725000Y-123000000D01*
X290725000Y-121000000D02*
X290725000Y-123000000D01*
X304725000Y-123000000D02*
X304725000Y-121000000D01*
X302725000Y-123000000D02*
X304725000Y-123000000D01*
X304725000Y-109000000D02*
X304725000Y-111000000D01*
X302725000Y-109000000D02*
X304725000Y-109000000D01*
X290725000Y-109000000D02*
X292725000Y-109000000D01*
X290725000Y-111000000D02*
X290725000Y-109000000D01*
X271675000Y-123000000D02*
X273675000Y-123000000D01*
X271675000Y-121000000D02*
X271675000Y-123000000D01*
X285675000Y-123000000D02*
X285675000Y-121000000D01*
X283675000Y-123000000D02*
X285675000Y-123000000D01*
X285675000Y-109000000D02*
X285675000Y-111000000D01*
X283675000Y-109000000D02*
X285675000Y-109000000D01*
X271675000Y-109000000D02*
X273675000Y-109000000D01*
X271675000Y-111000000D02*
X271675000Y-109000000D01*
X252625000Y-123000000D02*
X254625000Y-123000000D01*
X252625000Y-121000000D02*
X252625000Y-123000000D01*
X266625000Y-123000000D02*
X266625000Y-121000000D01*
X264625000Y-123000000D02*
X266625000Y-123000000D01*
X266625000Y-109000000D02*
X266625000Y-111000000D01*
X264625000Y-109000000D02*
X266625000Y-109000000D01*
X252625000Y-109000000D02*
X254625000Y-109000000D01*
X252625000Y-111000000D02*
X252625000Y-109000000D01*
X233575000Y-123000000D02*
X235575000Y-123000000D01*
X233575000Y-121000000D02*
X233575000Y-123000000D01*
X247575000Y-123000000D02*
X247575000Y-121000000D01*
X245575000Y-123000000D02*
X247575000Y-123000000D01*
X247575000Y-109000000D02*
X247575000Y-111000000D01*
X245575000Y-109000000D02*
X247575000Y-109000000D01*
X233575000Y-109000000D02*
X235575000Y-109000000D01*
X233575000Y-111000000D02*
X233575000Y-109000000D01*
X176425000Y-123000000D02*
X178425000Y-123000000D01*
X176425000Y-121000000D02*
X176425000Y-123000000D01*
X190425000Y-123000000D02*
X190425000Y-121000000D01*
X188425000Y-123000000D02*
X190425000Y-123000000D01*
X190425000Y-109000000D02*
X190425000Y-111000000D01*
X188425000Y-109000000D02*
X190425000Y-109000000D01*
X176425000Y-109000000D02*
X178425000Y-109000000D01*
X176425000Y-111000000D02*
X176425000Y-109000000D01*
X157375000Y-123000000D02*
X159375000Y-123000000D01*
X157375000Y-121000000D02*
X157375000Y-123000000D01*
X171375000Y-123000000D02*
X171375000Y-121000000D01*
X169375000Y-123000000D02*
X171375000Y-123000000D01*
X171375000Y-109000000D02*
X171375000Y-111000000D01*
X169375000Y-109000000D02*
X171375000Y-109000000D01*
X157375000Y-109000000D02*
X159375000Y-109000000D01*
X157375000Y-111000000D02*
X157375000Y-109000000D01*
X138325000Y-123000000D02*
X140325000Y-123000000D01*
X138325000Y-121000000D02*
X138325000Y-123000000D01*
X152325000Y-123000000D02*
X152325000Y-121000000D01*
X150325000Y-123000000D02*
X152325000Y-123000000D01*
X152325000Y-109000000D02*
X152325000Y-111000000D01*
X150325000Y-109000000D02*
X152325000Y-109000000D01*
X138325000Y-109000000D02*
X140325000Y-109000000D01*
X138325000Y-111000000D02*
X138325000Y-109000000D01*
X100225000Y-123000000D02*
X102225000Y-123000000D01*
X100225000Y-121000000D02*
X100225000Y-123000000D01*
X114225000Y-123000000D02*
X114225000Y-121000000D01*
X112225000Y-123000000D02*
X114225000Y-123000000D01*
X114225000Y-109000000D02*
X114225000Y-111000000D01*
X112225000Y-109000000D02*
X114225000Y-109000000D01*
X100225000Y-109000000D02*
X102225000Y-109000000D01*
X100225000Y-111000000D02*
X100225000Y-109000000D01*
X309775000Y-103950000D02*
X311775000Y-103950000D01*
X309775000Y-101950000D02*
X309775000Y-103950000D01*
X323775000Y-103950000D02*
X323775000Y-101950000D01*
X321775000Y-103950000D02*
X323775000Y-103950000D01*
X323775000Y-89950000D02*
X323775000Y-91950000D01*
X321775000Y-89950000D02*
X323775000Y-89950000D01*
X309775000Y-89950000D02*
X311775000Y-89950000D01*
X309775000Y-91950000D02*
X309775000Y-89950000D01*
X290725000Y-103950000D02*
X292725000Y-103950000D01*
X290725000Y-101950000D02*
X290725000Y-103950000D01*
X304725000Y-103950000D02*
X304725000Y-101950000D01*
X302725000Y-103950000D02*
X304725000Y-103950000D01*
X304725000Y-89950000D02*
X304725000Y-91950000D01*
X302725000Y-89950000D02*
X304725000Y-89950000D01*
X290725000Y-89950000D02*
X292725000Y-89950000D01*
X290725000Y-91950000D02*
X290725000Y-89950000D01*
X271675000Y-103950000D02*
X273675000Y-103950000D01*
X271675000Y-101950000D02*
X271675000Y-103950000D01*
X285675000Y-103950000D02*
X285675000Y-101950000D01*
X283675000Y-103950000D02*
X285675000Y-103950000D01*
X285675000Y-89950000D02*
X285675000Y-91950000D01*
X283675000Y-89950000D02*
X285675000Y-89950000D01*
X271675000Y-89950000D02*
X273675000Y-89950000D01*
X271675000Y-91950000D02*
X271675000Y-89950000D01*
X252625000Y-103950000D02*
X254625000Y-103950000D01*
X252625000Y-101950000D02*
X252625000Y-103950000D01*
X266625000Y-103950000D02*
X266625000Y-101950000D01*
X264625000Y-103950000D02*
X266625000Y-103950000D01*
X266625000Y-89950000D02*
X266625000Y-91950000D01*
X264625000Y-89950000D02*
X266625000Y-89950000D01*
X252625000Y-89950000D02*
X254625000Y-89950000D01*
X252625000Y-91950000D02*
X252625000Y-89950000D01*
X233575000Y-103950000D02*
X235575000Y-103950000D01*
X233575000Y-101950000D02*
X233575000Y-103950000D01*
X247575000Y-103950000D02*
X247575000Y-101950000D01*
X245575000Y-103950000D02*
X247575000Y-103950000D01*
X247575000Y-89950000D02*
X247575000Y-91950000D01*
X245575000Y-89950000D02*
X247575000Y-89950000D01*
X233575000Y-89950000D02*
X235575000Y-89950000D01*
X233575000Y-91950000D02*
X233575000Y-89950000D01*
X176425000Y-103950000D02*
X178425000Y-103950000D01*
X176425000Y-101950000D02*
X176425000Y-103950000D01*
X190425000Y-103950000D02*
X190425000Y-101950000D01*
X188425000Y-103950000D02*
X190425000Y-103950000D01*
X190425000Y-89950000D02*
X190425000Y-91950000D01*
X188425000Y-89950000D02*
X190425000Y-89950000D01*
X176425000Y-89950000D02*
X178425000Y-89950000D01*
X176425000Y-91950000D02*
X176425000Y-89950000D01*
X157375000Y-103950000D02*
X159375000Y-103950000D01*
X157375000Y-101950000D02*
X157375000Y-103950000D01*
X171375000Y-103950000D02*
X171375000Y-101950000D01*
X169375000Y-103950000D02*
X171375000Y-103950000D01*
X171375000Y-89950000D02*
X171375000Y-91950000D01*
X169375000Y-89950000D02*
X171375000Y-89950000D01*
X157375000Y-89950000D02*
X159375000Y-89950000D01*
X157375000Y-91950000D02*
X157375000Y-89950000D01*
X138325000Y-103950000D02*
X140325000Y-103950000D01*
X138325000Y-101950000D02*
X138325000Y-103950000D01*
X152325000Y-103950000D02*
X152325000Y-101950000D01*
X150325000Y-103950000D02*
X152325000Y-103950000D01*
X152325000Y-89950000D02*
X152325000Y-91950000D01*
X150325000Y-89950000D02*
X152325000Y-89950000D01*
X138325000Y-89950000D02*
X140325000Y-89950000D01*
X138325000Y-91950000D02*
X138325000Y-89950000D01*
X100225000Y-103950000D02*
X102225000Y-103950000D01*
X100225000Y-101950000D02*
X100225000Y-103950000D01*
X114225000Y-103950000D02*
X114225000Y-101950000D01*
X112225000Y-103950000D02*
X114225000Y-103950000D01*
X114225000Y-89950000D02*
X114225000Y-91950000D01*
X112225000Y-89950000D02*
X114225000Y-89950000D01*
X100225000Y-89950000D02*
X102225000Y-89950000D01*
X100225000Y-91950000D02*
X100225000Y-89950000D01*
X309775000Y-84900000D02*
X311775000Y-84900000D01*
X309775000Y-82900000D02*
X309775000Y-84900000D01*
X323775000Y-84900000D02*
X323775000Y-82900000D01*
X321775000Y-84900000D02*
X323775000Y-84900000D01*
X323775000Y-70900000D02*
X323775000Y-72900000D01*
X321775000Y-70900000D02*
X323775000Y-70900000D01*
X309775000Y-70900000D02*
X311775000Y-70900000D01*
X309775000Y-72900000D02*
X309775000Y-70900000D01*
X290725000Y-84900000D02*
X292725000Y-84900000D01*
X290725000Y-82900000D02*
X290725000Y-84900000D01*
X304725000Y-84900000D02*
X304725000Y-82900000D01*
X302725000Y-84900000D02*
X304725000Y-84900000D01*
X304725000Y-70900000D02*
X304725000Y-72900000D01*
X302725000Y-70900000D02*
X304725000Y-70900000D01*
X290725000Y-70900000D02*
X292725000Y-70900000D01*
X290725000Y-72900000D02*
X290725000Y-70900000D01*
X271675000Y-84900000D02*
X273675000Y-84900000D01*
X271675000Y-82900000D02*
X271675000Y-84900000D01*
X285675000Y-84900000D02*
X285675000Y-82900000D01*
X283675000Y-84900000D02*
X285675000Y-84900000D01*
X285675000Y-70900000D02*
X285675000Y-72900000D01*
X283675000Y-70900000D02*
X285675000Y-70900000D01*
X271675000Y-70900000D02*
X273675000Y-70900000D01*
X271675000Y-72900000D02*
X271675000Y-70900000D01*
X252625000Y-84900000D02*
X254625000Y-84900000D01*
X252625000Y-82900000D02*
X252625000Y-84900000D01*
X266625000Y-84900000D02*
X266625000Y-82900000D01*
X264625000Y-84900000D02*
X266625000Y-84900000D01*
X266625000Y-70900000D02*
X266625000Y-72900000D01*
X264625000Y-70900000D02*
X266625000Y-70900000D01*
X252625000Y-70900000D02*
X254625000Y-70900000D01*
X252625000Y-72900000D02*
X252625000Y-70900000D01*
X233575000Y-84900000D02*
X235575000Y-84900000D01*
X233575000Y-82900000D02*
X233575000Y-84900000D01*
X247575000Y-84900000D02*
X247575000Y-82900000D01*
X245575000Y-84900000D02*
X247575000Y-84900000D01*
X247575000Y-70900000D02*
X247575000Y-72900000D01*
X245575000Y-70900000D02*
X247575000Y-70900000D01*
X233575000Y-70900000D02*
X235575000Y-70900000D01*
X233575000Y-72900000D02*
X233575000Y-70900000D01*
X214525000Y-84900000D02*
X216525000Y-84900000D01*
X214525000Y-82900000D02*
X214525000Y-84900000D01*
X228525000Y-84900000D02*
X228525000Y-82900000D01*
X226525000Y-84900000D02*
X228525000Y-84900000D01*
X228525000Y-70900000D02*
X228525000Y-72900000D01*
X226525000Y-70900000D02*
X228525000Y-70900000D01*
X214525000Y-70900000D02*
X216525000Y-70900000D01*
X214525000Y-72900000D02*
X214525000Y-70900000D01*
X195475000Y-84900000D02*
X197475000Y-84900000D01*
X195475000Y-82900000D02*
X195475000Y-84900000D01*
X209475000Y-84900000D02*
X209475000Y-82900000D01*
X207475000Y-84900000D02*
X209475000Y-84900000D01*
X209475000Y-70900000D02*
X209475000Y-72900000D01*
X207475000Y-70900000D02*
X209475000Y-70900000D01*
X195475000Y-70900000D02*
X197475000Y-70900000D01*
X195475000Y-72900000D02*
X195475000Y-70900000D01*
X176425000Y-84900000D02*
X178425000Y-84900000D01*
X176425000Y-82900000D02*
X176425000Y-84900000D01*
X190425000Y-84900000D02*
X190425000Y-82900000D01*
X188425000Y-84900000D02*
X190425000Y-84900000D01*
X190425000Y-70900000D02*
X190425000Y-72900000D01*
X188425000Y-70900000D02*
X190425000Y-70900000D01*
X176425000Y-70900000D02*
X178425000Y-70900000D01*
X176425000Y-72900000D02*
X176425000Y-70900000D01*
X157375000Y-84900000D02*
X159375000Y-84900000D01*
X157375000Y-82900000D02*
X157375000Y-84900000D01*
X171375000Y-84900000D02*
X171375000Y-82900000D01*
X169375000Y-84900000D02*
X171375000Y-84900000D01*
X171375000Y-70900000D02*
X171375000Y-72900000D01*
X169375000Y-70900000D02*
X171375000Y-70900000D01*
X157375000Y-70900000D02*
X159375000Y-70900000D01*
X157375000Y-72900000D02*
X157375000Y-70900000D01*
X138325000Y-84900000D02*
X140325000Y-84900000D01*
X138325000Y-82900000D02*
X138325000Y-84900000D01*
X152325000Y-84900000D02*
X152325000Y-82900000D01*
X150325000Y-84900000D02*
X152325000Y-84900000D01*
X152325000Y-70900000D02*
X152325000Y-72900000D01*
X150325000Y-70900000D02*
X152325000Y-70900000D01*
X138325000Y-70900000D02*
X140325000Y-70900000D01*
X138325000Y-72900000D02*
X138325000Y-70900000D01*
X100225000Y-84900000D02*
X102225000Y-84900000D01*
X100225000Y-82900000D02*
X100225000Y-84900000D01*
X114225000Y-84900000D02*
X114225000Y-82900000D01*
X112225000Y-84900000D02*
X114225000Y-84900000D01*
X114225000Y-70900000D02*
X114225000Y-72900000D01*
X112225000Y-70900000D02*
X114225000Y-70900000D01*
X100225000Y-70900000D02*
X102225000Y-70900000D01*
X100225000Y-72900000D02*
X100225000Y-70900000D01*
X333587500Y-147100000D02*
X335587500Y-147100000D01*
X345587500Y-147100000D02*
X347587500Y-147100000D01*
X333587500Y-149100000D02*
X333587500Y-147100000D01*
X347587500Y-147100000D02*
X347587500Y-149100000D01*
X347587500Y-161100000D02*
X347587500Y-159100000D01*
X333587500Y-159100000D02*
X333587500Y-161100000D01*
X345587500Y-161100000D02*
X347587500Y-161100000D01*
X333587500Y-161100000D02*
X335587500Y-161100000D01*
X76412500Y-147100000D02*
X78412500Y-147100000D01*
X88412500Y-147100000D02*
X90412500Y-147100000D01*
X76412500Y-149100000D02*
X76412500Y-147100000D01*
X90412500Y-147100000D02*
X90412500Y-149100000D01*
X90412500Y-161100000D02*
X90412500Y-159100000D01*
X76412500Y-159100000D02*
X76412500Y-161100000D01*
X88412500Y-161100000D02*
X90412500Y-161100000D01*
X76412500Y-161100000D02*
X78412500Y-161100000D01*
X333587500Y-128050000D02*
X335587500Y-128050000D01*
X345587500Y-128050000D02*
X347587500Y-128050000D01*
X333587500Y-130050000D02*
X333587500Y-128050000D01*
X347587500Y-128050000D02*
X347587500Y-130050000D01*
X347587500Y-142050000D02*
X347587500Y-140050000D01*
X333587500Y-140050000D02*
X333587500Y-142050000D01*
X345587500Y-142050000D02*
X347587500Y-142050000D01*
X333587500Y-142050000D02*
X335587500Y-142050000D01*
X76412500Y-128050000D02*
X78412500Y-128050000D01*
X88412500Y-128050000D02*
X90412500Y-128050000D01*
X76412500Y-130050000D02*
X76412500Y-128050000D01*
X90412500Y-128050000D02*
X90412500Y-130050000D01*
X90412500Y-142050000D02*
X90412500Y-140050000D01*
X76412500Y-140050000D02*
X76412500Y-142050000D01*
X88412500Y-142050000D02*
X90412500Y-142050000D01*
X76412500Y-142050000D02*
X78412500Y-142050000D01*
X333587500Y-109000000D02*
X335587500Y-109000000D01*
X345587500Y-109000000D02*
X347587500Y-109000000D01*
X333587500Y-111000000D02*
X333587500Y-109000000D01*
X347587500Y-109000000D02*
X347587500Y-111000000D01*
X347587500Y-123000000D02*
X347587500Y-121000000D01*
X333587500Y-121000000D02*
X333587500Y-123000000D01*
X345587500Y-123000000D02*
X347587500Y-123000000D01*
X333587500Y-123000000D02*
X335587500Y-123000000D01*
X76412500Y-109000000D02*
X78412500Y-109000000D01*
X88412500Y-109000000D02*
X90412500Y-109000000D01*
X76412500Y-111000000D02*
X76412500Y-109000000D01*
X90412500Y-109000000D02*
X90412500Y-111000000D01*
X90412500Y-123000000D02*
X90412500Y-121000000D01*
X76412500Y-121000000D02*
X76412500Y-123000000D01*
X88412500Y-123000000D02*
X90412500Y-123000000D01*
X76412500Y-123000000D02*
X78412500Y-123000000D01*
X333587500Y-89950000D02*
X335587500Y-89950000D01*
X345587500Y-89950000D02*
X347587500Y-89950000D01*
X333587500Y-91950000D02*
X333587500Y-89950000D01*
X347587500Y-89950000D02*
X347587500Y-91950000D01*
X347587500Y-103950000D02*
X347587500Y-101950000D01*
X333587500Y-101950000D02*
X333587500Y-103950000D01*
X345587500Y-103950000D02*
X347587500Y-103950000D01*
X333587500Y-103950000D02*
X335587500Y-103950000D01*
X76412500Y-89950000D02*
X78412500Y-89950000D01*
X88412500Y-89950000D02*
X90412500Y-89950000D01*
X76412500Y-91950000D02*
X76412500Y-89950000D01*
X90412500Y-89950000D02*
X90412500Y-91950000D01*
X90412500Y-103950000D02*
X90412500Y-101950000D01*
X76412500Y-101950000D02*
X76412500Y-103950000D01*
X88412500Y-103950000D02*
X90412500Y-103950000D01*
X76412500Y-103950000D02*
X78412500Y-103950000D01*
X333587500Y-70900000D02*
X335587500Y-70900000D01*
X345587500Y-70900000D02*
X347587500Y-70900000D01*
X333587500Y-72900000D02*
X333587500Y-70900000D01*
X347587500Y-70900000D02*
X347587500Y-72900000D01*
X347587500Y-84900000D02*
X347587500Y-82900000D01*
X333587500Y-82900000D02*
X333587500Y-84900000D01*
X345587500Y-84900000D02*
X347587500Y-84900000D01*
X333587500Y-84900000D02*
X335587500Y-84900000D01*
M02*
