G04 #@! TF.GenerationSoftware,KiCad,Pcbnew,(5.1.5)-3*
G04 #@! TF.CreationDate,2020-09-16T11:12:37+02:00*
G04 #@! TF.ProjectId,0x42,30783432-2e6b-4696-9361-645f70636258,v0.1*
G04 #@! TF.SameCoordinates,Original*
G04 #@! TF.FileFunction,Profile,NP*
%FSLAX46Y46*%
G04 Gerber Fmt 4.6, Leading zero omitted, Abs format (unit mm)*
G04 Created by KiCad (PCBNEW (5.1.5)-3) date 2020-09-16 11:12:37*
%MOMM*%
%LPD*%
G04 APERTURE LIST*
%ADD10C,0.300000*%
G04 APERTURE END LIST*
D10*
X71500000Y-68700000D02*
X81700000Y-68700000D01*
X93200000Y-68200000D02*
G75*
G03X93700000Y-68700000I500000J0D01*
G01*
X81700000Y-68700000D02*
G75*
G03X82200000Y-68200000I0J500000D01*
G01*
X82200000Y-68200000D02*
X93200000Y-68200000D01*
X73300000Y-126600000D02*
G75*
G03X74700000Y-125200000I0J1400000D01*
G01*
X350700000Y-123800000D02*
X354500000Y-123800000D01*
X350700000Y-126600000D02*
X354500000Y-126600000D01*
X354500000Y-123800000D02*
X354500000Y-70700000D01*
X354500000Y-126600000D02*
X354500000Y-161300000D01*
X350700000Y-126600000D02*
G75*
G02X349300000Y-125200000I0J1400000D01*
G01*
X349300000Y-125200000D02*
G75*
G02X350700000Y-123800000I1400000J0D01*
G01*
X69500000Y-123800000D02*
X69500000Y-70700000D01*
X73300000Y-123800000D02*
X69500000Y-123800000D01*
X74700000Y-125200000D02*
G75*
G03X73300000Y-123800000I-1400000J0D01*
G01*
X69500000Y-126600000D02*
X73300000Y-126600000D01*
X69500000Y-161300000D02*
X69500000Y-126600000D01*
X354500000Y-70700000D02*
G75*
G03X352500000Y-68700000I-2000000J0D01*
G01*
X352500000Y-163300000D02*
G75*
G03X354500000Y-161300000I0J2000000D01*
G01*
X69500000Y-161300000D02*
G75*
G03X71500000Y-163300000I2000000J0D01*
G01*
X71500000Y-68700000D02*
G75*
G03X69500000Y-70700000I0J-2000000D01*
G01*
X352500000Y-68700000D02*
X93700000Y-68700000D01*
X71500000Y-163300000D02*
X352500000Y-163300000D01*
M02*
