M48
; DRILL file {KiCad (5.1.5)-3} date 16/09/2020 11:23:28
; FORMAT={-:-/ absolute / metric / decimal}
; #@! TF.CreationDate,2020-09-16T11:23:28+02:00
; #@! TF.GenerationSoftware,Kicad,Pcbnew,(5.1.5)-3
FMAT,2
METRIC
T1C0.300
T2C0.400
T3C0.500
T4C0.600
T5C0.800
T6C1.000
T7C1.040
T8C1.400
T9C1.470
T10C2.500
T11C3.000
T12C0.650
T13C1.750
T14C3.048
T15C3.988
%
G90
G05
T1
X75.3Y-106.5
X75.3Y-109.9
X76.3Y-106.5
X76.3Y-109.9
X77.3Y-106.5
X77.3Y-109.9
X78.383Y-129.833
X81.8Y-123.1
X82.5Y-123.7
X82.75Y-143.8
X82.8Y-142.95
X83.25Y-144.6
X83.9Y-104.6
X83.9Y-105.6
X83.9Y-108.0
X84.2Y-87.4
X85.3Y-99.9
X85.4Y-156.1
X85.8Y-157.0
X86.85Y-109.3
X87.2Y-121.4
X87.6Y-105.6
X87.7Y-95.1
X87.7Y-120.75
X87.7Y-122.025
X87.8Y-143.8
X87.8Y-146.2
X88.3Y-128.2
X89.2Y-104.6
X89.9Y-120.1
X90.0Y-141.1
X90.068Y-125.068
X90.103Y-124.223
X90.55Y-119.4
X90.824Y-123.876
X91.0Y-141.28
X91.6Y-118.4
X92.0Y-130.9
X92.7Y-131.4
X93.2Y-72.1
X93.5Y-131.0
X94.0Y-117.6
X95.5Y-71.2
X96.2Y-120.4
X96.85Y-120.9
X97.2Y-160.4
X97.5Y-120.4
X97.75Y-86.9
X98.1Y-151.7
X98.15Y-120.9
X98.25Y-133.45
X98.4Y-87.4
X98.75Y-101.45
X98.75Y-104.35
X98.75Y-105.45
X98.75Y-107.75
X99.15Y-119.5
X99.8Y-120.0
X100.225Y-122.825
X100.45Y-104.35
X100.45Y-105.45
X100.45Y-107.75
X100.5Y-101.45
X102.7Y-161.7
X102.9Y-143.8
X103.0Y-127.067
X103.2Y-122.293
X103.9Y-127.075
X104.3Y-158.3
X104.35Y-138.85
X105.069Y-122.33
X105.15Y-138.85
X105.3Y-105.4
X105.4Y-119.0
X105.955Y-94.345
X106.3Y-122.9
X106.3Y-125.5
X106.3Y-126.8
X106.3Y-124.2
X106.85Y-126.15
X106.85Y-124.85
X106.867Y-123.564
X107.8Y-90.8
X109.6Y-85.4
X110.5Y-105.9
X110.6Y-87.6
X110.7Y-131.6
X111.0Y-156.9
X111.3Y-100.9
X111.5Y-86.6
X111.5Y-122.3
X114.65Y-131.4
X122.8Y-143.8
X122.9Y-86.6
X122.9Y-105.6
X123.45Y-142.45
X126.8Y-90.8
X129.7Y-142.3
X130.6Y-122.3
X130.6Y-129.7
X141.9Y-86.6
X141.9Y-105.6
X141.9Y-143.8
X146.0Y-90.75
X158.6Y-143.6
X161.0Y-86.6
X161.0Y-105.6
X177.6Y-143.6
X180.0Y-86.6
X180.0Y-105.6
X194.05Y-135.2
X194.575Y-136.0
X195.0Y-136.7
X195.6Y-94.5
X195.8Y-103.5
X195.8Y-137.0
X196.2Y-93.85
X198.3Y-120.3
X199.1Y-86.6
X200.2Y-86.6
X201.6Y-75.0
X203.0Y-89.85
X205.95Y-125.207
X205.97Y-140.13
X205.992Y-106.792
X206.0Y-91.87
X206.4Y-119.6
X209.0Y-84.75
X213.8Y-86.8
X216.6Y-90.0
X220.2Y-88.25
X221.05Y-88.25
X223.55Y-86.25
X224.1Y-104.1
X224.7Y-103.25
X225.0Y-91.87
X225.0Y-106.792
X225.0Y-125.207
X225.0Y-140.13
X233.0Y-86.6
X234.2Y-75.0
X234.8Y-143.7
X234.9Y-146.3
X237.2Y-86.6
X237.2Y-105.6
X255.9Y-146.8
X256.2Y-86.6
X256.2Y-105.6
X256.2Y-143.6
X275.3Y-86.6
X275.3Y-105.6
X275.3Y-143.8
X279.945Y-87.825
X294.3Y-86.6
X294.3Y-105.6
X294.3Y-143.8
X298.995Y-87.805
X313.4Y-86.6
X313.4Y-105.6
X313.4Y-143.8
X318.045Y-87.805
X337.2Y-86.6
X337.2Y-105.6
X337.2Y-143.8
X341.2Y-90.6
T2
X83.4Y-75.2
X85.217Y-75.483
X90.117Y-75.5
X90.15Y-78.85
X91.35Y-75.5
X92.2Y-85.9
X93.45Y-75.5
X95.3Y-85.9
X97.0Y-76.45
X106.2Y-81.3
T3
X71.258Y-122.6
X71.258Y-127.8
X73.3Y-122.6
X73.3Y-127.8
X75.138Y-123.362
X75.138Y-127.038
X75.9Y-125.2
X92.4Y-96.6
X93.074Y-94.974
X93.074Y-98.226
X94.7Y-94.3
X94.7Y-98.9
X96.326Y-94.974
X96.326Y-98.226
X97.0Y-96.6
X210.8Y-113.4
X210.8Y-118.0
X212.0Y-113.4
X212.0Y-118.0
X213.2Y-113.4
X213.2Y-118.0
X267.95Y-151.6
X267.95Y-156.2
X269.15Y-151.6
X269.15Y-156.2
X270.35Y-151.6
X270.35Y-156.2
X328.35Y-94.3
X328.35Y-98.9
X329.55Y-94.3
X329.55Y-98.9
X330.75Y-94.283
X330.75Y-98.9
X348.1Y-125.2
X348.862Y-123.362
X348.862Y-127.038
X350.7Y-122.6
X350.7Y-127.8
X352.742Y-122.6
X352.742Y-127.8
T5
X72.5Y-133.4
X72.5Y-146.1
T6
X104.725Y-147.2
X104.725Y-161.7
X107.225Y-161.7
X109.725Y-147.2
X109.725Y-161.7
T7
X339.317Y-159.18
X341.857Y-159.18
X144.055Y-121.08
X146.595Y-121.08
X339.317Y-82.98
X341.857Y-82.98
X296.455Y-159.18
X298.995Y-159.18
X277.405Y-121.08
X279.945Y-121.08
X220.255Y-106.792
X222.795Y-106.792
X248.83Y-159.18
X251.37Y-159.18
X125.005Y-140.13
X127.545Y-140.13
X201.205Y-121.08
X203.745Y-121.08
X201.205Y-140.13
X203.745Y-140.13
X239.305Y-82.98
X241.845Y-82.98
X339.317Y-102.03
X341.857Y-102.03
X296.455Y-82.98
X298.995Y-82.98
X144.055Y-82.98
X146.595Y-82.98
X105.955Y-102.03
X108.495Y-102.03
X182.155Y-140.13
X184.695Y-140.13
X296.455Y-121.08
X298.995Y-121.08
X105.955Y-159.0
X108.495Y-159.0
X220.255Y-140.13
X222.795Y-140.13
X172.63Y-159.18
X175.17Y-159.18
X201.205Y-159.18
X203.745Y-159.18
X239.305Y-159.18
X241.845Y-159.18
X258.355Y-82.98
X260.895Y-82.98
X105.955Y-82.98
X108.495Y-82.98
X258.355Y-102.03
X260.895Y-102.03
X182.155Y-121.08
X184.695Y-121.08
X296.455Y-102.03
X298.995Y-102.03
X239.305Y-121.08
X241.845Y-121.08
X239.305Y-140.13
X241.845Y-140.13
X105.955Y-140.13
X108.495Y-140.13
X315.505Y-159.18
X318.045Y-159.18
X210.73Y-159.18
X213.27Y-159.18
X277.405Y-102.03
X279.945Y-102.03
X82.142Y-140.13
X84.682Y-140.13
X339.317Y-121.08
X341.857Y-121.08
X182.155Y-82.98
X184.695Y-82.98
X220.255Y-82.98
X222.795Y-82.98
X315.505Y-121.08
X318.045Y-121.08
X296.455Y-140.13
X298.995Y-140.13
X144.055Y-140.13
X146.595Y-140.13
X163.105Y-159.18
X165.645Y-159.18
X201.205Y-125.207
X203.745Y-125.207
X220.255Y-159.18
X222.795Y-159.18
X105.955Y-121.08
X108.495Y-121.08
X182.155Y-102.03
X184.695Y-102.03
X339.317Y-140.13
X341.857Y-140.13
X144.055Y-102.03
X146.595Y-102.03
X163.105Y-82.98
X165.645Y-82.98
X277.405Y-140.13
X279.945Y-140.13
X315.505Y-140.13
X318.045Y-140.13
X144.055Y-159.18
X146.595Y-159.18
X88.492Y-76.8
X88.492Y-79.34
X125.005Y-82.98
X127.545Y-82.98
X82.142Y-121.08
X84.682Y-121.08
X82.142Y-159.18
X84.682Y-159.18
X239.305Y-102.03
X241.845Y-102.03
X315.505Y-102.03
X318.045Y-102.03
X258.355Y-159.18
X260.895Y-159.18
X201.205Y-106.792
X203.745Y-106.792
X163.105Y-140.13
X165.645Y-140.13
X201.205Y-91.87
X203.745Y-91.87
X191.68Y-159.18
X194.22Y-159.18
X125.005Y-121.08
X127.545Y-121.08
X220.255Y-121.08
X222.795Y-121.08
X229.78Y-159.18
X232.32Y-159.18
X163.105Y-102.03
X165.645Y-102.03
X315.505Y-82.98
X318.045Y-82.98
X163.105Y-121.08
X165.645Y-121.08
X277.405Y-82.98
X279.945Y-82.98
X258.355Y-140.13
X260.895Y-140.13
X258.355Y-121.08
X260.895Y-121.08
X277.405Y-159.18
X279.945Y-159.18
X220.255Y-91.87
X222.795Y-91.87
X220.255Y-125.207
X222.795Y-125.207
X125.005Y-159.18
X127.545Y-159.18
X125.005Y-102.03
X127.545Y-102.03
X182.155Y-159.18
X184.695Y-159.18
X201.205Y-82.98
X203.745Y-82.98
X82.142Y-102.03
X84.682Y-102.03
T9
X336.777Y-151.56
X343.127Y-149.02
X141.515Y-113.46
X147.865Y-110.92
X336.777Y-75.36
X343.127Y-72.82
X293.915Y-151.56
X300.265Y-149.02
X274.865Y-113.46
X281.215Y-110.92
X217.715Y-99.172
X224.065Y-96.632
X246.29Y-151.56
X252.64Y-149.02
X122.465Y-132.51
X128.815Y-129.97
X198.665Y-113.46
X205.015Y-110.92
X198.665Y-132.51
X205.015Y-129.97
X236.765Y-75.36
X243.115Y-72.82
X336.777Y-94.41
X343.127Y-91.87
X293.915Y-75.36
X300.265Y-72.82
X141.515Y-75.36
X147.865Y-72.82
X103.415Y-94.41
X109.765Y-91.87
X179.615Y-132.51
X185.965Y-129.97
X293.915Y-113.46
X300.265Y-110.92
X103.415Y-151.56
X109.765Y-149.02
X217.715Y-132.51
X224.065Y-129.97
X170.09Y-151.56
X176.44Y-149.02
X198.665Y-151.56
X205.015Y-149.02
X236.765Y-151.56
X243.115Y-149.02
X255.815Y-75.36
X262.165Y-72.82
X103.415Y-75.36
X109.765Y-72.82
X255.815Y-94.41
X262.165Y-91.87
X179.615Y-113.46
X185.965Y-110.92
X293.915Y-94.41
X300.265Y-91.87
X236.765Y-113.46
X243.115Y-110.92
X236.765Y-132.51
X243.115Y-129.97
X103.415Y-132.51
X109.765Y-129.97
X312.965Y-151.56
X319.315Y-149.02
X208.19Y-151.56
X214.54Y-149.02
X274.865Y-94.41
X281.215Y-91.87
X79.602Y-132.51
X85.953Y-129.97
X336.777Y-113.46
X343.127Y-110.92
X179.615Y-75.36
X185.965Y-72.82
X217.715Y-75.36
X224.065Y-72.82
X312.965Y-113.46
X319.315Y-110.92
X293.915Y-132.51
X300.265Y-129.97
X141.515Y-132.51
X147.865Y-129.97
X160.565Y-151.56
X166.915Y-149.02
X199.935Y-135.368
X206.285Y-132.827
X217.715Y-151.56
X224.065Y-149.02
X103.415Y-113.46
X109.765Y-110.92
X179.615Y-94.41
X185.965Y-91.87
X336.777Y-132.51
X343.127Y-129.97
X141.515Y-94.41
X147.865Y-91.87
X160.565Y-75.36
X166.915Y-72.82
X274.865Y-132.51
X281.215Y-129.97
X312.965Y-132.51
X319.315Y-129.97
X141.515Y-151.56
X147.865Y-149.02
X78.332Y-75.36
X80.873Y-81.71
X122.465Y-75.36
X128.815Y-72.82
X79.602Y-113.46
X85.953Y-110.92
X79.602Y-151.56
X85.953Y-149.02
X236.765Y-94.41
X243.115Y-91.87
X312.965Y-94.41
X319.315Y-91.87
X255.815Y-151.56
X262.165Y-149.02
X198.665Y-99.172
X205.015Y-96.632
X160.565Y-132.51
X166.915Y-129.97
X199.935Y-102.03
X206.285Y-99.49
X189.14Y-151.56
X195.49Y-149.02
X122.465Y-113.46
X128.815Y-110.92
X217.715Y-113.46
X224.065Y-110.92
X227.24Y-151.56
X233.59Y-149.02
X160.565Y-94.41
X166.915Y-91.87
X312.965Y-75.36
X319.315Y-72.82
X160.565Y-113.46
X166.915Y-110.92
X274.865Y-75.36
X281.215Y-72.82
X255.815Y-132.51
X262.165Y-129.97
X255.815Y-113.46
X262.165Y-110.92
X274.865Y-151.56
X281.215Y-149.02
X218.985Y-102.03
X225.335Y-99.49
X218.985Y-135.368
X225.335Y-132.827
X122.465Y-151.56
X128.815Y-149.02
X122.465Y-94.41
X128.815Y-91.87
X179.615Y-151.56
X185.965Y-149.02
X198.665Y-75.36
X205.015Y-72.82
X79.602Y-94.41
X85.953Y-91.87
T11
X94.7Y-96.6
T12
X84.777Y-72.753
X90.557Y-72.753
T13
X292.645Y-96.95
X302.805Y-96.95
X235.495Y-116.0
X245.655Y-116.0
X235.495Y-135.05
X245.655Y-135.05
X102.145Y-135.05
X112.305Y-135.05
X311.695Y-154.1
X321.855Y-154.1
X206.92Y-154.1
X217.08Y-154.1
X273.595Y-96.95
X283.755Y-96.95
X78.332Y-135.05
X88.492Y-135.05
X335.507Y-116.0
X345.667Y-116.0
X178.345Y-77.9
X188.505Y-77.9
X216.445Y-77.9
X226.605Y-77.9
X311.695Y-116.0
X321.855Y-116.0
X292.645Y-135.05
X302.805Y-135.05
X140.245Y-135.05
X150.405Y-135.05
X159.295Y-154.1
X169.455Y-154.1
X197.395Y-130.287
X207.555Y-130.287
X216.445Y-154.1
X226.605Y-154.1
X102.145Y-116.0
X112.305Y-116.0
X178.345Y-96.95
X188.505Y-96.95
X335.507Y-135.05
X345.667Y-135.05
X140.245Y-96.95
X150.405Y-96.95
X159.295Y-77.9
X169.455Y-77.9
X273.595Y-135.05
X283.755Y-135.05
X311.695Y-135.05
X321.855Y-135.05
X140.245Y-154.1
X150.405Y-154.1
X83.412Y-82.98
X121.195Y-77.9
X131.355Y-77.9
X78.332Y-116.0
X88.492Y-116.0
X78.332Y-154.1
X88.492Y-154.1
X235.495Y-96.95
X245.655Y-96.95
X311.695Y-96.95
X321.855Y-96.95
X254.545Y-154.1
X264.705Y-154.1
X197.395Y-101.712
X207.555Y-101.712
X159.295Y-135.05
X169.455Y-135.05
X197.395Y-96.95
X207.555Y-96.95
X187.87Y-154.1
X198.03Y-154.1
X121.195Y-116.0
X131.355Y-116.0
X216.445Y-116.0
X226.605Y-116.0
X225.97Y-154.1
X236.13Y-154.1
X159.295Y-96.95
X169.455Y-96.95
X311.695Y-77.9
X321.855Y-77.9
X159.295Y-116.0
X169.455Y-116.0
X273.595Y-77.9
X283.755Y-77.9
X254.545Y-135.05
X264.705Y-135.05
X254.545Y-116.0
X264.705Y-116.0
X273.595Y-154.1
X283.755Y-154.1
X216.445Y-96.95
X226.605Y-96.95
X216.445Y-130.287
X226.605Y-130.287
X121.195Y-154.1
X131.355Y-154.1
X121.195Y-96.95
X131.355Y-96.95
X178.345Y-154.1
X188.505Y-154.1
X197.395Y-77.9
X207.555Y-77.9
X78.332Y-96.95
X88.492Y-96.95
X335.507Y-154.1
X345.667Y-154.1
X140.245Y-116.0
X150.405Y-116.0
X335.507Y-77.9
X345.667Y-77.9
X292.645Y-154.1
X302.805Y-154.1
X273.595Y-116.0
X283.755Y-116.0
X216.445Y-101.712
X226.605Y-101.712
X245.02Y-154.1
X255.18Y-154.1
X121.195Y-135.05
X131.355Y-135.05
X197.395Y-116.0
X207.555Y-116.0
X197.395Y-135.05
X207.555Y-135.05
X235.495Y-77.9
X245.655Y-77.9
X335.507Y-96.95
X345.667Y-96.95
X292.645Y-77.9
X302.805Y-77.9
X140.245Y-77.9
X150.405Y-77.9
X102.145Y-96.95
X112.305Y-96.95
X178.345Y-135.05
X188.505Y-135.05
X292.645Y-116.0
X302.805Y-116.0
X102.145Y-154.1
X112.305Y-154.1
X216.445Y-135.05
X226.605Y-135.05
X168.82Y-154.1
X178.98Y-154.1
X197.395Y-154.1
X207.555Y-154.1
X235.495Y-154.1
X245.655Y-154.1
X254.545Y-77.9
X264.705Y-77.9
X102.145Y-77.9
X112.305Y-77.9
X254.545Y-96.95
X264.705Y-96.95
X178.345Y-116.0
X188.505Y-116.0
T14
X262.038Y-161.085
X164.375Y-161.085
X259.625Y-161.085
X181.012Y-161.085
X242.988Y-161.085
X238.162Y-161.085
X161.962Y-161.085
X185.838Y-161.085
X200.062Y-161.085
X223.938Y-161.085
X204.888Y-161.085
X219.112Y-161.085
T15
X145.325Y-77.9
X107.225Y-96.95
X183.425Y-135.05
X297.725Y-116.0
X107.225Y-154.1
X221.525Y-135.05
X161.962Y-145.845
X173.9Y-154.1
X185.838Y-145.845
X202.475Y-154.1
X240.575Y-154.1
X259.625Y-77.9
X107.225Y-77.9
X259.625Y-96.95
X183.425Y-116.0
X297.725Y-96.95
X240.575Y-116.0
X240.575Y-135.05
X107.225Y-135.05
X316.775Y-154.1
X200.062Y-145.845
X212.0Y-154.1
X223.938Y-145.845
X278.675Y-96.95
X83.412Y-135.05
X340.587Y-116.0
X183.425Y-77.9
X221.525Y-77.9
X316.775Y-116.0
X297.725Y-135.05
X145.325Y-135.05
X164.375Y-154.1
X202.475Y-130.287
X221.525Y-154.1
X164.375Y-145.845
X259.625Y-145.845
X107.225Y-116.0
X183.425Y-96.95
X340.587Y-135.05
X145.325Y-96.95
X164.375Y-77.9
X278.675Y-135.05
X316.775Y-135.05
X145.325Y-154.1
X83.412Y-77.9
X126.275Y-77.9
X83.412Y-116.0
X83.412Y-154.1
X240.575Y-96.95
X316.775Y-96.95
X259.625Y-154.1
X202.475Y-101.712
X164.375Y-135.05
X202.475Y-96.95
X181.012Y-145.845
X192.95Y-154.1
X204.888Y-145.845
X126.275Y-116.0
X221.525Y-116.0
X219.112Y-145.845
X231.05Y-154.1
X242.988Y-145.845
X164.375Y-96.95
X316.775Y-77.9
X164.375Y-116.0
X278.675Y-77.9
X259.625Y-135.05
X259.625Y-116.0
X278.675Y-154.1
X221.525Y-96.95
X221.525Y-130.287
X126.275Y-154.1
X126.275Y-96.95
X183.425Y-154.1
X202.475Y-77.9
X83.412Y-96.95
X340.587Y-154.1
X145.325Y-116.0
X340.587Y-77.9
X297.725Y-154.1
X278.675Y-116.0
X221.525Y-101.712
X238.162Y-145.845
X250.1Y-154.1
X262.038Y-145.845
X126.275Y-135.05
X202.475Y-116.0
X202.475Y-135.05
X240.575Y-77.9
X340.587Y-96.95
X297.725Y-77.9
T4
G00X83.347Y-68.803
M15
G01X83.347Y-69.403
M16
G05
G00X83.347Y-72.733
M15
G01X83.347Y-73.833
M16
G05
G00X91.987Y-68.803
M15
G01X91.987Y-69.403
M16
G05
G00X91.987Y-72.733
M15
G01X91.987Y-73.833
M16
G05
T8
G00X101.625Y-154.9
M15
G01X101.625Y-153.5
M16
G05
G00X112.825Y-154.9
M15
G01X112.825Y-153.5
M16
G05
T10
G00X210.75Y-115.7
M15
G01X213.25Y-115.7
M16
G05
G00X267.9Y-153.9
M15
G01X270.4Y-153.9
M16
G05
G00X328.3Y-96.6
M15
G01X330.8Y-96.6
M16
G05
T0
M30
