<?xml version="1.0" encoding="UTF-8" standalone="no"?>
<!-- Created with Inkscape (http://www.inkscape.org/) -->

<svg
   width="81.309723mm"
   height="18.4mm"
   viewBox="0 0 81.309723 18.4"
   version="1.1"
   id="svg5"
   inkscape:version="1.1.1 (3bf5ae0d25, 2021-09-20)"
   sodipodi:docname="0x42.svg"
   xmlns:inkscape="http://www.inkscape.org/namespaces/inkscape"
   xmlns:sodipodi="http://sodipodi.sourceforge.net/DTD/sodipodi-0.dtd"
   xmlns="http://www.w3.org/2000/svg"
   xmlns:svg="http://www.w3.org/2000/svg">
  <sodipodi:namedview
     id="namedview7"
     pagecolor="#ffffff"
     bordercolor="#999999"
     borderopacity="1"
     inkscape:pageshadow="0"
     inkscape:pageopacity="0"
     inkscape:pagecheckerboard="0"
     inkscape:document-units="mm"
     showgrid="false"
     lock-margins="true"
     fit-margin-top="0.2"
     fit-margin-left="0.2"
     fit-margin-right="0.2"
     fit-margin-bottom="0.2"
     inkscape:zoom="2.6547419"
     inkscape:cx="176.47667"
     inkscape:cy="-33.336574"
     inkscape:window-width="1920"
     inkscape:window-height="1017"
     inkscape:window-x="-8"
     inkscape:window-y="-8"
     inkscape:window-maximized="1"
     inkscape:current-layer="layer1"
     showguides="true"
     inkscape:guide-bbox="true" />
  <defs
     id="defs2" />
  <g
     inkscape:label="Layer 1"
     inkscape:groupmode="layer"
     id="layer1"
     transform="translate(-19.569336,-40.610427)">
    <path
       id="path20559"
       style="color:#000000;font-size:10.5833px;font-family:Bahnschrift;-inkscape-font-specification:'OCR A Extended';letter-spacing:0px;word-spacing:0px;fill:#000000;stroke:none;stroke-width:0.646869;-inkscape-stroke:none"
       d="m 21.020649,42.41496 c -0.318566,0 -0.626278,0.131204 -0.868011,0.354335 v 0.0045 h -0.0044 c -0.24561,0.235788 -0.378848,0.565997 -0.378848,0.913691 0,0.441909 0.212594,0.843879 0.577188,1.074144 l 0.0044,0.0034 6.418136,3.781798 -6.413677,3.807425 c -0.370548,0.214519 -0.586101,0.619975 -0.586101,1.061885 0,0.347696 0.134366,0.673447 0.379963,0.909235 l 0.0033,0.0045 c 0.241731,0.223135 0.549443,0.353221 0.868009,0.353221 0.264747,0 0.524794,-0.09065 0.77441,-0.244026 l 0.0088,-0.0045 7.369711,-4.354524 c 0.435504,-0.257753 0.703097,-0.684201 0.703097,-1.166629 v -0.72423 c 0,-0.482426 -0.267593,-0.913337 -0.703097,-1.171083 L 21.799525,42.663609 C 21.542752,42.50954 21.284061,42.41517 21.020724,42.41517 Z" />
    <path
       id="path20565"
       style="color:#000000;font-size:10.5833px;font-family:Bahnschrift;-inkscape-font-specification:'OCR A Extended';letter-spacing:0px;word-spacing:0px;fill:#000000;stroke:none;stroke-width:0.646869;-inkscape-stroke:none"
       d="m 35.39348,40.810427 c -0.568681,0 -1.089702,0.222814 -1.49868,0.631784 -0.40897,0.408974 -0.631785,0.931115 -0.631785,1.499794 v 11.197192 c 0,0.573329 0.217765,1.098395 0.619529,1.508703 0.40428,0.404285 0.931291,0.618419 1.510936,0.618419 h 5.816432 c 0.573331,0 1.095208,-0.214941 1.498677,-0.618419 0.409768,-0.40976 0.628447,-0.933764 0.628447,-1.508703 V 42.942005 c 0,-0.568679 -0.219473,-1.09082 -0.628447,-1.499794 -0.400858,-0.40793 -0.916398,-0.631784 -1.477507,-0.631784 z m 0.39222,2.543853 h 5.057619 V 53.748095 H 35.7857 Z" />
    <path
       id="path20571"
       style="color:#000000;font-size:10.5833px;font-family:Bahnschrift;-inkscape-font-specification:'OCR A Extended';letter-spacing:0px;word-spacing:0px;fill:#000000;stroke:none;stroke-width:0.646869;-inkscape-stroke:none"
       d="m 48.709995,44.89196 c -0.353525,0 -0.688386,0.14557 -0.921497,0.407818 -0.215843,0.244001 -0.337622,0.552189 -0.337622,0.872466 0,0.281155 0.105314,0.550697 0.290824,0.765499 h -0.0045 l 2.922698,3.478713 -3.17898,3.816337 C 47.304448,54.44236 47.228,54.715595 47.228,55.007206 c 0,0.339295 0.125674,0.664234 0.357675,0.905894 0.234229,0.243985 0.559147,0.374392 0.901438,0.374392 0.390164,0 0.750685,-0.194421 0.998376,-0.513675 h 0.0045 l 2.804594,-3.339436 2.787877,3.347234 v 0.0045 c 0.261877,0.307033 0.618022,0.493621 1.001719,0.493621 0.326812,0 0.639782,-0.139493 0.875805,-0.375508 0.248845,-0.248849 0.383306,-0.586618 0.383306,-0.942663 0,-0.273458 -0.09069,-0.537668 -0.269653,-0.73764 l -3.133296,-3.786254 2.981761,-3.600174 c 0.171503,-0.202703 0.198334,-0.445736 0.198334,-0.733178 0,-0.340081 -0.146782,-0.662214 -0.404473,-0.880267 -0.241213,-0.210468 -0.542627,-0.332047 -0.854639,-0.332047 -0.352311,0 -0.684875,0.159603 -0.91369,0.433445 L 52.297926,48.454317 49.717302,45.3511 h -0.0045 c -0.248243,-0.295974 -0.61127,-0.459068 -1.002832,-0.459068 z" />
    <path
       id="path20577"
       style="color:#000000;font-size:10.5833px;font-family:Bahnschrift;-inkscape-font-specification:'OCR A Extended';letter-spacing:0px;word-spacing:0px;fill:#000000;stroke:none;stroke-width:0.646869;-inkscape-stroke:none"
       d="m 62.637119,40.810427 c -0.340085,0 -0.664792,0.138864 -0.90924,0.383305 -0.239068,0.239072 -0.371046,0.559975 -0.371046,0.89698 v 9.340835 h 5.63481 v 3.575659 c 0,0.333921 0.127168,0.652415 0.357678,0.89252 l 0.0045,0.0045 0.0087,0.0045 c 0.240103,0.230505 0.554145,0.357683 0.888065,0.357683 0.328665,0 0.646172,-0.128678 0.884721,-0.357683 l 0.0045,-0.0045 c 0.239075,-0.239076 0.371049,-0.559975 0.371049,-0.896977 v -3.731657 c 0.200182,-0.05734 0.414538,-0.08137 0.563812,-0.230654 0.239077,-0.239073 0.374393,-0.559974 0.374393,-0.896975 0,-0.335071 -0.134621,-0.652373 -0.374393,-0.884721 -0.148345,-0.153093 -0.363105,-0.181151 -0.563812,-0.240684 v -5.292723 c 0,-0.332383 -0.133629,-0.646719 -0.366593,-0.88472 -0.231241,-0.248892 -0.554886,-0.395562 -0.893632,-0.395562 -0.340082,0 -0.662346,0.139139 -0.900324,0.386644 -0.230501,0.240108 -0.358789,0.559719 -0.358789,0.893638 v 5.157904 H 63.896106 V 42.09076 c 0,-0.335089 -0.133412,-0.653882 -0.369936,-0.89252 -0.236483,-0.245944 -0.554172,-0.387765 -0.889177,-0.387765 z" />
    <path
       id="path20583"
       style="color:#000000;font-size:10.5833px;font-family:Bahnschrift;-inkscape-font-specification:'OCR A Extended';letter-spacing:0px;word-spacing:0px;fill:#000000;stroke:none;stroke-width:0.646869;-inkscape-stroke:none"
       d="m 75.831063,40.8316 c -0.339013,0 -0.663269,0.135927 -0.89698,0.375502 -0.233865,0.233865 -0.362132,0.54969 -0.362132,0.88361 0,0.333919 0.123827,0.652417 0.354335,0.892518 l 0.0045,0.0045 0.0045,0.0045 c 0.235451,0.235457 0.55768,0.362131 0.896974,0.362131 h 6.359081 v 3.908826 H 76.83398 c -0.59068,0 -1.129261,0.227824 -1.553279,0.651843 h -0.0045 c -0.416804,0.425307 -0.640696,0.971191 -0.640703,1.566646 v 6.784726 h 8.839425 c 0.328666,0 0.641711,-0.128676 0.880261,-0.357681 h 0.0045 v -0.0045 c 0.239074,-0.239074 0.375504,-0.559974 0.375504,-0.896976 0,-0.333736 -0.137526,-0.652612 -0.375504,-0.884727 -0.237551,-0.237544 -0.552885,-0.374391 -0.884722,-0.374385 h -6.316945 v -3.945594 h 5.357357 c 0.595454,0 1.136887,-0.219438 1.562196,-0.636245 h 0.0045 v -0.0045 c 0.425542,-0.425545 0.652955,-0.972227 0.652955,-1.575566 v -4.5562 c 0,-0.590683 -0.23179,-1.128372 -0.657411,-1.545481 -0.424356,-0.422905 -0.966565,-0.652953 -1.562196,-0.652953 z" />
    <path
       id="path20589"
       style="color:#000000;font-size:10.5833px;font-family:Bahnschrift;-inkscape-font-specification:'OCR A Extended';letter-spacing:0px;word-spacing:0px;fill:#000000;stroke:none;stroke-width:0.622754;stroke-linecap:round;stroke-linejoin:round;-inkscape-stroke:none"
       d="m 87.396033,56.266567 a 0.29979908,0.32346586 0 0 0 -0.300527,0.324252 v 1.894236 a 0.29979908,0.32346586 0 0 0 0.300527,0.325371 h 12.982497 a 0.29979908,0.32346586 0 0 0 0.30052,-0.325371 v -1.894236 a 0.29979908,0.32346586 0 0 0 -0.30052,-0.324252 z" />
  </g>
</svg>
