<?xml version="1.0" encoding="UTF-8" standalone="no"?>
<!-- Created with Inkscape (http://www.inkscape.org/) -->

<svg
   width="79.840454mm"
   height="18.4mm"
   viewBox="0 0 79.840454 18.4"
   version="1.1"
   id="svg5"
   inkscape:version="1.1.1 (3bf5ae0d25, 2021-09-20)"
   sodipodi:docname="0x42.svg"
   xmlns:inkscape="http://www.inkscape.org/namespaces/inkscape"
   xmlns:sodipodi="http://sodipodi.sourceforge.net/DTD/sodipodi-0.dtd"
   xmlns="http://www.w3.org/2000/svg"
   xmlns:svg="http://www.w3.org/2000/svg">
  <sodipodi:namedview
     id="namedview7"
     pagecolor="#ffffff"
     bordercolor="#999999"
     borderopacity="1"
     inkscape:pageshadow="0"
     inkscape:pageopacity="0"
     inkscape:pagecheckerboard="0"
     inkscape:document-units="mm"
     showgrid="false"
     lock-margins="true"
     fit-margin-top="0.2"
     fit-margin-left="0.2"
     fit-margin-right="0.2"
     fit-margin-bottom="0.2"
     inkscape:zoom="2.6547419"
     inkscape:cx="154.25229"
     inkscape:cy="84.188976"
     inkscape:window-width="1920"
     inkscape:window-height="1017"
     inkscape:window-x="-8"
     inkscape:window-y="-8"
     inkscape:window-maximized="1"
     inkscape:current-layer="layer1" />
  <defs
     id="defs2" />
  <g
     inkscape:label="Layer 1"
     inkscape:groupmode="layer"
     id="layer1"
     transform="translate(-19.569336,-40.610428)">
    <path
       id="path20559"
       style="color:#000000;font-size:10.5833px;font-family:Bahnschrift;-inkscape-font-specification:'OCR A Extended';letter-spacing:0px;word-spacing:0px;fill:#000000;stroke:none;stroke-width:0.635121;-inkscape-stroke:none"
       d="m 20.997925,42.385823 c -0.31278,0 -0.614903,0.128821 -0.852246,0.347898 v 0.0045 h -0.0044 c -0.241148,0.231506 -0.371968,0.555721 -0.371968,0.897099 0,0.433885 0.208734,0.828555 0.566705,1.054639 l 0.0044,0.0034 6.301585,3.713123 -6.297208,3.738285 c -0.363821,0.210624 -0.575458,0.608717 -0.575458,1.042602 0,0.341383 0.131927,0.661218 0.373063,0.892724 l 0.0033,0.0045 c 0.237342,0.219083 0.539465,0.346806 0.852245,0.346806 0.25994,0 0.515265,-0.08902 0.760348,-0.239595 l 0.0088,-0.0045 7.235882,-4.275449 c 0.427597,-0.253071 0.69033,-0.671777 0.69033,-1.145443 v -0.711121 c 0,-0.473667 -0.262733,-0.896752 -0.69033,-1.149818 L 21.762675,42.629966 C 21.5105,42.478655 21.256506,42.385997 20.997951,42.385997 Z" />
    <path
       id="path20565"
       style="color:#000000;font-size:10.5833px;font-family:Bahnschrift;-inkscape-font-specification:'OCR A Extended';letter-spacing:0px;word-spacing:0px;fill:#000000;stroke:none;stroke-width:0.635121;-inkscape-stroke:none"
       d="m 35.109756,40.810427 c -0.558354,0 -1.069914,0.218768 -1.471465,0.620311 -0.401544,0.401548 -0.620312,0.914206 -0.620312,1.47256 v 10.993857 c 0,0.562919 0.213809,1.07845 0.608278,1.481309 0.396938,0.396944 0.914379,0.607187 1.483499,0.607187 h 5.71081 c 0.562919,0 1.075319,-0.211038 1.471462,-0.607187 0.402326,-0.402321 0.617034,-0.91681 0.617034,-1.481309 V 42.903298 c 0,-0.558354 -0.215486,-1.071012 -0.617034,-1.47256 -0.393578,-0.400523 -0.899755,-0.620311 -1.450676,-0.620311 z m 0.385097,2.497657 h 4.965777 v 10.205072 h -4.965777 z" />
    <path
       id="path20571"
       style="color:#000000;font-size:10.5833px;font-family:Bahnschrift;-inkscape-font-specification:'OCR A Extended';letter-spacing:0px;word-spacing:0px;fill:#000000;stroke:none;stroke-width:0.635121;-inkscape-stroke:none"
       d="m 48.184452,44.817843 c -0.347103,0 -0.675883,0.142925 -0.904762,0.400411 -0.211924,0.239572 -0.331491,0.54216 -0.331491,0.856623 0,0.276049 0.103402,0.540699 0.285543,0.751597 h -0.0045 l 2.869624,3.415543 -3.121251,3.747034 c -0.173285,0.205763 -0.248344,0.474036 -0.248344,0.760352 0,0.333133 0.123393,0.652173 0.35118,0.889443 0.229977,0.239555 0.548994,0.367592 0.885068,0.367592 0.38308,0 0.737055,-0.19089 0.980246,-0.504345 h 0.0045 l 2.753664,-3.278796 2.737252,3.286453 v 0.0045 c 0.257121,0.301457 0.6068,0.484656 0.983529,0.484656 0.320876,0 0.628164,-0.13696 0.8599,-0.36869 0.244328,-0.244328 0.376347,-0.575965 0.376347,-0.925543 0,-0.268492 -0.08906,-0.527905 -0.264756,-0.724246 l -3.0764,-3.717498 2.927616,-3.534797 c 0.168389,-0.199023 0.194732,-0.437643 0.194732,-0.719865 0,-0.333905 -0.144118,-0.650189 -0.397128,-0.86428 -0.236833,-0.206647 -0.532773,-0.326019 -0.839119,-0.326019 -0.345915,0 -0.672438,0.156705 -0.897099,0.425573 l -2.601592,3.072025 -2.533763,-3.046864 h -0.0045 c -0.243734,-0.290601 -0.600169,-0.450734 -0.984621,-0.450734 z" />
    <path
       id="path20577"
       style="color:#000000;font-size:10.5833px;font-family:Bahnschrift;-inkscape-font-specification:'OCR A Extended';letter-spacing:0px;word-spacing:0px;fill:#000000;stroke:none;stroke-width:0.635121;-inkscape-stroke:none"
       d="m 61.858672,40.810427 c -0.333911,0 -0.65272,0.136344 -0.89273,0.376347 -0.234727,0.234727 -0.36431,0.549806 -0.36431,0.880687 v 9.171215 h 5.532489 v 3.510727 c 0,0.327857 0.124856,0.640566 0.351181,0.876313 l 0.0045,0.0045 0.0087,0.0045 c 0.235741,0.226319 0.544082,0.351186 0.871938,0.351186 0.322697,0 0.634438,-0.12634 0.868655,-0.351186 l 0.0045,-0.0045 c 0.234733,-0.234733 0.36431,-0.549806 0.36431,-0.880687 v -3.663893 c 0.196548,-0.05629 0.40701,-0.0799 0.553576,-0.226465 0.234733,-0.234732 0.367593,-0.549806 0.367593,-0.880687 0,-0.328987 -0.132177,-0.640526 -0.367593,-0.868655 -0.145653,-0.150314 -0.356513,-0.177862 -0.553576,-0.236312 V 43.67688 c 0,-0.326349 -0.131202,-0.634975 -0.359935,-0.868655 -0.227042,-0.244372 -0.54481,-0.388379 -0.877405,-0.388379 -0.333905,0 -0.650318,0.136613 -0.883975,0.379624 -0.226314,0.235747 -0.352273,0.549554 -0.352273,0.87741 v 5.06424 h -3.039201 v -6.673552 c 0,-0.329005 -0.130989,-0.642006 -0.363218,-0.876313 -0.232189,-0.241476 -0.544109,-0.380722 -0.873029,-0.380722 z" />
    <path
       id="path20583"
       style="color:#000000;font-size:10.5833px;font-family:Bahnschrift;-inkscape-font-specification:'OCR A Extended';letter-spacing:0px;word-spacing:0px;fill:#000000;stroke:none;stroke-width:0.635121;-inkscape-stroke:none"
       d="m 74.813022,40.831214 c -0.332858,0 -0.651225,0.133459 -0.880692,0.368684 -0.229619,0.229619 -0.355555,0.539707 -0.355555,0.867563 0,0.327856 0.121578,0.640572 0.347898,0.876313 l 0.0045,0.0045 0.0045,0.0045 c 0.231176,0.231181 0.547554,0.355555 0.880687,0.355555 h 6.243605 v 3.837844 h -5.260076 c -0.579953,0 -1.108754,0.223687 -1.525073,0.640006 h -0.0045 c -0.409234,0.417585 -0.629061,0.953556 -0.629067,1.538197 v 6.66152 h 8.678907 c 0.322697,0 0.630058,-0.126339 0.864275,-0.351185 h 0.0045 v -0.0045 c 0.234733,-0.234732 0.368685,-0.549806 0.368685,-0.880687 0,-0.327676 -0.135028,-0.640762 -0.368685,-0.868661 -0.233237,-0.233231 -0.542844,-0.367592 -0.868655,-0.367586 h -6.202233 v -3.873946 h 5.26007 c 0.584642,0 1.116243,-0.215452 1.533828,-0.624691 h 0.0045 v -0.0045 c 0.417814,-0.417815 0.641098,-0.95457 0.641098,-1.546953 v -4.473464 c 0,-0.579959 -0.22758,-1.10788 -0.645473,-1.517416 -0.41665,-0.415227 -0.949013,-0.641098 -1.533828,-0.641098 z" />
    <path
       id="path20589"
       style="color:#000000;font-size:10.5833px;font-family:Bahnschrift;-inkscape-font-specification:'OCR A Extended';letter-spacing:0px;word-spacing:0px;fill:#000000;stroke:none;stroke-width:0.611445;stroke-linecap:round;stroke-linejoin:round;-inkscape-stroke:none"
       d="m 86.16798,56.312763 a 0.29435494,0.31759196 0 0 0 -0.295069,0.318362 v 1.85984 a 0.29435494,0.31759196 0 0 0 0.295069,0.319461 h 12.746737 a 0.29435494,0.31759196 0 0 0 0.295068,-0.319461 v -1.85984 a 0.29435494,0.31759196 0 0 0 -0.295068,-0.318362 z" />
  </g>
</svg>
